<?xml version="1.0" encoding="utf-8"?>
<svg xmlns:xsi="http://www.w3.org/2001/XMLSchema-instance" xmlns:xsd="http://www.w3.org/2001/XMLSchema" version="1.1" id="Map" class="gen-by-synoptic-designer" xmlns:xlink="http://www.w3.org/1999/xlink" viewBox="-1506.68069872992 -996.22018655263 6828.38914537454 4322.05983276397 " xml:space="preserve" height="100%" width="100%" xmlns="http://www.w3.org/2000/svg">
  <polygon id="23929063537" title="" points="-319.23,-431.991 -319.23,-387.087 -225.0828,-387.087 -159.63,-387.087 -159.63,-346.56 -159.63,-318.387 -121.83,-318.387 -121.83,-467.487 -146.2518,-467.487 -163.23,-467.487 -163.23,-484.221 -163.23,-495.858 -207.8262,-495.858 -238.83,-495.858 -238.83,-530.721 -238.83,-554.958 -253.23,-554.958 -253.23,-565.575 -253.23,-572.958 -364.23,-572.958 -364.23,-496.587 -319.23,-496.587 -319.23,-431.991 " />
  <polygon id="23929063791" title="" points="-174.7959,-38.1858 -165.63,-38.1858 -165.63,-60.3069 -165.63,-75.6858 -173.13,-75.6858 -173.13,-96.6858 -165.63,-96.6858 -165.63,-259.5858 -194.13,-259.5858 -194.13,-198.5316 -194.13,-156.0858 -210.63,-156.0858 -210.63,-166.704 -210.63,-174.0858 -274.6926,-174.0858 -319.23,-174.0858 -319.23,-38.1858 -187.98,-38.1858 -174.7959,-38.1858 " />
  <polygon id="23929064000" title="" points="-305.13,39.6627 -305.13,45.8142 -319.23,45.8142 -319.23,140.3142 -183.12,140.3142 -177.03,140.3142 -177.03,77.4903 -177.03,33.8142 -144.114,33.8142 -121.23,33.8142 -121.23,-5.11887 -121.23,-32.1858 -158.73,-32.1858 -158.73,-12.6858 -176.427,-12.6858 -188.73,-12.6858 -188.73,-32.1858 -265.7112,-32.1858 -319.23,-32.1858 -319.23,4.9776 -319.23,30.8142 -305.13,30.8142 -305.13,39.6627 " />
  <polygon id="23929064259" title="" points="34.6488,-93.0858 39.57,-93.0858 39.57,-79.5858 27.57,-79.5858 27.57,-39.591 27.57,-11.7858 125.07,-11.7858 125.07,-40.2858 163.2699,-40.2858 183.57,-40.2858 183.57,-65.5923 183.57,-83.1858 251.97,-83.1858 251.97,-127.428 251.97,-158.1858 27.57,-158.1858 27.57,-119.7837 27.57,-93.0858 34.6488,-93.0858 " />
  <polygon id="23929064721" title="" points="-8.97546,51.2142 -26.43,51.2142 -26.43,16.85055 -26.43,-2.7858 4.11546,-2.7858 21.57,-2.7858 21.57,31.5777 21.57,51.2142 -8.97546,51.2142 " />
  <polygon id="23929064721" title="" points="-85.2846,51.2142 -115.83,51.2142 -115.83,-32.7858 -31.83,-32.7858 -31.83,51.2142 -85.2846,51.2142 " />
  <polygon id="23929064721" title="" points="168.1881,93.8142 251.97,93.8142 251.97,-66.5493 251.97,-158.1858 98.4792,-158.1858 10.77,-158.1858 10.77,-422.13 10.77,-572.958 -227.8665,-572.958 -364.23,-572.958 -364.23,-496.587 -319.23,-496.587 -319.23,-44.5131 -319.23,213.8142 -102.3573,213.8142 21.57,213.8142 21.57,137.4507 21.57,93.8142 168.1881,93.8142 " />
  <polygon id="23929066859" title="" points="1122.792,-276.0858 1165.239,-276.0858 1165.239,-249.3858 1192.239,-249.3858 1192.239,-322.473 1192.239,-373.287 1249.752,-373.287 1289.739,-373.287 1289.739,-414.342 1289.739,-442.887 1061.739,-442.887 1061.739,-276.0858 1122.792,-276.0858 " />
  <polygon id="23929067041" title="" points="797.739,-48.5676 797.739,-41.1858 785.139,-41.1858 785.139,-19.94958 785.139,-5.1858 822.303,-5.1858 848.139,-5.1858 848.139,-24.29841 848.139,-37.5858 989.739,-37.5858 989.739,-45.0858 1002.126,-45.0858 1010.739,-45.0858 1010.739,-37.5858 1076.739,-37.5858 1076.739,-75.0858 1014.444,-75.0858 971.139,-75.0858 971.139,-165.9858 861.417,-165.9858 785.139,-165.9858 785.139,-59.1858 797.739,-59.1858 797.739,-48.5676 " />
  <polygon id="23929067361" title="" points="1226.139,-20.86827 1226.139,-15.0858 1211.274,-15.0858 1200.939,-15.0858 1200.939,-25.173 1200.939,-32.1858 1162.359,-32.1858 1135.539,-32.1858 1135.539,11.9142 1178.187,11.9142 1207.839,11.9142 1207.839,23.94807 1207.839,32.3142 1228.839,32.3142 1228.839,20.28033 1228.839,11.9142 1230.339,11.9142 1230.339,47.8389 1230.339,72.8142 1268.439,72.8142 1268.439,99.3594 1268.439,117.8142 1280.739,117.8142 1280.739,129.3171 1280.739,137.3142 1373.739,137.3142 1373.739,39.0966 1373.739,-29.1858 1286.67,-29.1858 1226.139,-29.1858 1226.139,-20.86827 " />
  <polygon id="23929067728" title="" points="1181.685,-81.9858 1151.139,-81.9858 1151.139,-135.4404 1151.139,-165.9858 1235.139,-165.9858 1235.139,-112.5312 1235.139,-81.9858 1181.685,-81.9858 " />
  <polygon id="23929067728" title="" points="1175.193,-442.887 1061.739,-442.887 1061.739,-266.6766 1061.739,-165.9858 885.72,-165.9858 785.139,-165.9858 785.139,-0.658527 785.139,93.8142 1139.139,93.8142 1139.139,213.8142 1288.428,213.8142 1373.739,213.8142 1373.739,53.8323 1373.739,-37.5858 1317.228,-37.5858 1284.939,-37.5858 1284.939,-85.5858 1341.447,-85.5858 1373.739,-85.5858 1373.739,-442.887 1175.193,-442.887 " />
  <polygon id="23929091250" title="" points="-111.33,-398.982 -111.33,-390.987 -120.33,-390.987 -120.33,-338.487 10.77,-338.487 10.77,-410.487 -111.33,-410.487 -111.33,-398.982 " />
  <polygon id="23929091361" title="" points="-120.33,-446.436 -120.33,-411.987 10.77,-411.987 10.77,-495.987 -120.33,-495.987 -120.33,-446.436 " />
  <polygon id="23929091462" title="" points="-112.0869,-524.487 -120.33,-524.487 -120.33,-497.487 -42.9948,-497.487 10.77,-497.487 10.77,-572.958 -100.23,-572.958 -100.23,-524.487 -112.0869,-524.487 " />
  <polygon id="23929091565" title="" points="-158.73,-491.748 -158.73,-468.987 -136.9629,-468.987 -121.83,-468.987 -121.83,-524.487 -143.5971,-524.487 -158.73,-524.487 -158.73,-491.748 " />
  <polygon id="23929091681" title="" points="-125.106,-525.987 -101.73,-525.987 -101.73,-553.695 -101.73,-572.958 -135.354,-572.958 -158.73,-572.958 -158.73,-545.25 -158.73,-525.987 -125.106,-525.987 " />
  <polygon id="23929091776" title="" points="-193.6188,-497.358 -163.23,-497.358 -163.23,-527.796 -163.23,-548.958 -176.6796,-548.958 -186.03,-548.958 -186.03,-572.958 -216.2916,-572.958 -237.33,-572.958 -237.33,-497.358 -193.6188,-497.358 " />
  <polygon id="23929091943" title="" points="-63.9108,-332.487 -115.83,-332.487 -115.83,-224.889 -115.83,-150.0858 -62.0316,-150.0858 -15.63,-150.0858 -15.63,-116.4618 -15.63,-93.0858 6.3141,-93.0858 21.57,-93.0858 21.57,-158.1858 10.77,-158.1858 10.77,-332.487 -63.9108,-332.487 " />
  <polygon id="23929092110" title="" points="901.239,36.2994 901.239,-3.6858 785.139,-3.6858 785.139,53.829 785.139,93.8142 901.239,93.8142 901.239,36.2994 " />
  <polygon id="23929092238" title="" points="980.643,72.5142 974.739,72.5142 974.739,44.3763 974.739,24.8142 949.077,24.8142 931.239,24.8142 931.239,42.5142 914.427,42.5142 902.739,42.5142 902.739,93.8142 989.139,93.8142 989.139,72.5142 980.643,72.5142 " />
  <polygon id="23929092351" title="" points="1005.642,-32.1858 976.239,-32.1858 976.239,0.995796 976.239,51.7599 976.239,71.0142 990.639,71.0142 990.639,93.8142 1024.44,93.8142 1047.939,93.8142 1047.939,-32.1858 1005.642,-32.1858 " />
  <polygon id="23929092492" title="" points="902.739,0.553374 902.739,23.3142 945.21,23.3142 974.739,23.3142 974.739,-9.42498 974.739,-32.1858 932.265,-32.1858 902.739,-32.1858 902.739,0.553374 " />
  <polygon id="23929092622" title="" points="1082.289,-32.1858 1049.439,-32.1858 1049.439,93.8142 1129.539,93.8142 1129.539,-32.1858 1082.289,-32.1858 " />
  <polygon id="23929092711" title="" points="1127.898,-108.9858 1145.739,-108.9858 1145.739,-144.7335 1145.739,-169.5858 1102.239,-169.5858 1102.239,-133.8381 1102.239,-108.9858 1127.898,-108.9858 " />
  <polygon id="23929092800" title="" points="1296.939,-103.9515 1296.939,-93.9858 1342.242,-93.9858 1373.739,-93.9858 1373.739,-118.2858 1328.433,-118.2858 1296.939,-118.2858 1296.939,-103.9515 " />
  <polygon id="23929092873" title="" points="1296.939,-168.6294 1296.939,-119.7858 1342.242,-119.7858 1373.739,-119.7858 1373.739,-238.8858 1328.433,-238.8858 1296.939,-238.8858 1296.939,-168.6294 " />
  <polygon id="23929092996" title="" points="1216.296,-247.8858 1165.239,-247.8858 1165.239,-211.8858 1242.042,-211.8858 1295.439,-211.8858 1295.439,-227.8131 1295.439,-238.8858 1289.739,-238.8858 1289.739,-247.8858 1216.296,-247.8858 " />
  <polygon id="23929093175" title="" points="1235.139,153.645 1235.139,111.8142 1139.139,111.8142 1139.139,213.8142 1235.139,213.8142 1235.139,153.645 " />
  <polygon id="23929093280" title="" points="1351.239,144.3507 1351.239,138.8142 1309.209,138.8142 1270.344,138.8142 1263.639,138.8142 1263.639,122.8869 1263.639,111.8142 1236.639,111.8142 1236.639,213.8142 1317.513,213.8142 1373.739,213.8142 1373.739,177.5358 1373.739,152.3142 1360.467,152.3142 1351.239,152.3142 1351.239,144.3507 " />
  <polygon id="23929093408" title="" points="1263.639,89.0781 1263.639,74.3142 1188.339,74.3142 1188.339,110.3142 1263.639,110.3142 1263.639,89.0781 " />
  <polygon id="23929093546" title="" points="1167.276,110.3142 1186.839,110.3142 1186.839,88.6356 1186.839,38.082 1186.839,13.4142 1156.578,13.4142 1135.539,13.4142 1135.539,98.3142 1139.139,98.3142 1139.139,110.3142 1167.276,110.3142 " />
  <polygon id="23929093645" title="" points="1228.839,49.8084 1228.839,33.8142 1188.339,33.8142 1188.339,56.82 1188.339,72.8142 1228.839,72.8142 1228.839,49.8084 " />
  <polygon id="23929094237" title="" points="-138.9645,141.8142 -191.13,141.8142 -191.13,213.8142 -63.93,213.8142 -63.93,141.8142 -138.9645,141.8142 " />
  <polygon id="23929094332" title="" points="-108.4674,140.3142 -63.93,140.3142 -63.93,104.3142 -127.9926,104.3142 -172.53,104.3142 -172.53,140.3142 -108.4674,140.3142 " />
  <polygon id="23929094462" title="" points="-151.4916,35.3142 -172.53,35.3142 -172.53,60.0897 -172.53,77.3142 -157.53,77.3142 -157.53,92.3565 -157.53,102.8142 -119.1279,102.8142 -92.43,102.8142 -92.43,75.561 -92.43,56.6142 -109.419,56.6142 -121.23,56.6142 -121.23,35.3142 -151.4916,35.3142 " />
  <polygon id="23929094577" title="" points="-8.33769,59.6142 -40.8099,59.6142 -48.93,59.6142 -48.93,70.1142 -62.43,70.1142 -62.43,111.9672 -62.43,141.0642 -62.43,183.9792 -62.43,213.8142 -12.87882,213.8142 21.57,213.8142 21.57,59.6142 -8.33769,59.6142 " />
  <polygon id="23929094728" title="" points="-79.8573,56.6142 -90.93,56.6142 -90.93,83.8674 -90.93,102.8142 -75.0027,102.8142 -63.93,102.8142 -63.93,75.561 -63.93,56.6142 -79.8573,56.6142 " />
  <polygon id="23929094824" title="" points="-192.63,171.3417 -192.63,141.8142 -319.23,141.8142 -319.23,213.8142 -192.63,213.8142 -192.63,171.3417 " />
  <polygon id="23929094905" title="" points="-214.8684,-298.5858 -193.83,-298.5858 -193.83,-381.087 -224.0916,-381.087 -245.13,-381.087 -245.13,-298.5858 -214.8684,-298.5858 " />
  <polygon id="23929094978" title="" points="-245.13,-275.8497 -245.13,-261.0858 -165.63,-261.0858 -165.63,-282.3219 -165.63,-297.0858 -245.13,-297.0858 -245.13,-275.8497 " />
  <polygon id="23929095107" title="" points="-210.63,-186.7347 -210.63,-194.4858 -195.63,-194.4858 -195.63,-259.5858 -268.5411,-259.5858 -319.23,-259.5858 -319.23,-175.5858 -210.63,-175.5858 -210.63,-186.7347 " />
  <polygon id="23929095218" title="" points="-246.63,-331.872 -246.63,-381.087 -289.4565,-381.087 -319.23,-381.087 -319.23,-310.299 -319.23,-261.0858 -276.4035,-261.0858 -246.63,-261.0858 -246.63,-331.872 " />
  <polygon id="23929095314" title="" points="-192.33,-322.578 -192.33,-298.5858 -165.63,-298.5858 -165.63,-333.096 -165.63,-357.087 -192.33,-357.087 -192.33,-322.578 " />
  <polygon id="23929096966" title="" points="247.0488,81.8142 251.97,81.8142 251.97,44.2968 251.97,18.2142 184.92,18.2142 152.8002,18.2142 130.47,18.2142 130.47,93.8142 195.0636,93.8142 239.97,93.8142 239.97,81.8142 247.0488,81.8142 " />
  <polygon id="23929097094" title="" points="147.57,-6.04662 147.57,16.7142 183.57,16.7142 183.57,-38.7858 147.57,-38.7858 147.57,-6.04662 " />
  <polygon id="23929097216" title="" points="236.37,-71.8434 236.37,-81.6858 206.1084,-81.6858 185.07,-81.6858 185.07,-56.8218 185.07,-39.5358 185.07,-11.7858 251.97,-11.7858 251.97,-38.862 251.97,-57.6858 236.37,-57.6858 236.37,-71.8434 " />
  <polygon id="23929097328" title="" points="139.0572,16.7142 146.07,16.7142 146.07,-10.2858 77.5833,-10.2858 29.97,-10.2858 29.97,93.8142 88.3695,93.8142 128.97,93.8142 128.97,48.3333 128.97,16.7142 139.0572,16.7142 " />
  <polygon id="23929098254" title="" points="1291.239,-281.3553 1291.239,-240.3858 1373.739,-240.3858 1373.739,-340.287 1291.239,-340.287 1291.239,-281.3553 " />
  <polygon id="23929098350" title="" points="1291.239,-383.247 1291.239,-341.787 1373.739,-341.787 1373.739,-442.887 1291.239,-442.887 1291.239,-383.247 " />
  <polygon id="23929098438" title="" points="1163.739,-233.9853 1163.739,-274.5858 1103.568,-274.5858 1061.739,-274.5858 1061.739,-216.1863 1061.739,-175.5858 1121.907,-175.5858 1163.739,-175.5858 1163.739,-233.9853 " />
  <polygon id="23929098558" title="" points="1217.73,-322.587 1193.739,-322.587 1193.739,-249.3858 1228.248,-249.3858 1252.239,-249.3858 1252.239,-322.587 1217.73,-322.587 " />
  <polygon id="23929098646" title="" points="1253.739,-299.5827 1253.739,-249.3858 1274.976,-249.3858 1289.739,-249.3858 1289.739,-371.787 1268.502,-371.787 1253.739,-371.787 1253.739,-299.5827 " />
  <polygon id="23929098777" title="" points="1189.128,-171.3858 1205.739,-171.3858 1205.739,-194.3916 1205.739,-210.3858 1165.239,-210.3858 1165.239,-187.38 1165.239,-171.3858 1189.128,-171.3858 " />
  <polygon id="23929098876" title="" points="980.601,-90.0858 986.139,-90.0858 986.139,-76.5858 1039.584,-76.5858 1076.739,-76.5858 1076.739,-99.0858 1090.896,-99.0858 1100.739,-99.0858 1100.739,-138.5499 1100.739,-165.9858 972.639,-165.9858 972.639,-90.0858 980.601,-90.0858 " />
  <polygon id="23929103763" title="" points="-17.13,-114.3219 -17.13,-129.0858 -26.13,-129.0858 -26.13,-140.5887 -26.13,-148.5858 -88.83,-148.5858 -88.83,-132.0858 -115.83,-132.0858 -115.83,-93.0858 -57.6075,-93.0858 -17.13,-93.0858 -17.13,-114.3219 " />
  <polygon id="23929103900" title="" points="862.239,-16.25862 862.239,-5.1858 885.243,-5.1858 901.239,-5.1858 901.239,-21.11298 901.239,-32.1858 878.232,-32.1858 862.239,-32.1858 862.239,-16.25862 " />
  <polygon id="23929107528" title="" points="185.07,5.64138 185.07,16.7142 224.5341,16.7142 251.97,16.7142 251.97,-10.2858 212.5059,-10.2858 185.07,-10.2858 185.07,5.64138 " />
  <polygon id="23929109813" title="" points="1193.739,-355.86 1193.739,-344.787 1228.248,-344.787 1252.239,-344.787 1252.239,-371.787 1217.73,-371.787 1193.739,-371.787 1193.739,-355.86 " />
  <polygon id="23929109919" title="" points="1406.097,-34.1727 1422.339,-34.1727 1422.339,-323.787 1512.339,-323.787 1512.339,-600.837 1244.409,-600.837 1058.139,-600.837 1058.139,-512.97 1058.139,-451.887 1154.232,-451.887 1221.039,-451.887 1221.039,-467.487 1241.568,-467.487 1255.839,-467.487 1255.839,-451.887 1330.695,-451.887 1382.739,-451.887 1382.739,-34.1727 1406.097,-34.1727 " />
  <polygon id="23929110124" title="" points="1135.539,246.174 1135.539,262.4142 1304.721,262.4142 1422.339,262.4142 1422.339,87.459 1422.339,-34.1727 1382.739,-34.1727 1382.739,117.4227 1382.739,222.8142 1135.539,222.8142 1135.539,246.174 " />
  <polygon id="23929110240" title="" points="781.539,126.174 781.539,142.4142 987.177,142.4142 1130.139,142.4142 1130.139,119.0544 1130.139,102.8142 924.501,102.8142 781.539,102.8142 781.539,126.174 " />
  <polygon id="23929110350" title="" points="1052.739,-202.593 1052.739,-221.7858 727.539,-221.7858 727.539,36.8142 756.207,36.8142 776.139,36.8142 776.139,-174.9858 939.303,-174.9858 1052.739,-174.9858 1052.739,-202.593 " />
  <polygon id="23929110475" title="" points="329.103,41.0142 376.47,41.0142 376.47,-114.0102 376.47,-221.7858 166.0545,-221.7858 19.77,-221.7858 19.77,-167.1858 260.97,-167.1858 260.97,-44.3697 260.97,41.0142 329.103,41.0142 " />
  <polygon id="23929110587" title="" points="60.87,175.3866 60.87,142.4142 255.57,142.4142 255.57,102.8142 30.57,102.8142 30.57,222.8142 48.4437,222.8142 60.87,222.8142 60.87,175.3866 " />
  <polygon id="23929110681" title="" points="-54.6567,262.4142 60.87,262.4142 60.87,239.0544 60.87,222.8142 -105.3033,222.8142 -220.83,222.8142 -220.83,246.174 -220.83,262.4142 -54.6567,262.4142 " />
  <polygon id="23929110768" title="" points="-367.83,134.4843 -367.83,260.9142 -328.23,260.9142 -328.23,-47.3727 -367.83,-47.3727 -367.83,134.4843 " />
  <polygon id="23929110905" title="" points="-367.83,-163.3914 -367.83,-47.3727 -328.23,-47.3727 -328.23,-330.273 -367.83,-330.273 -367.83,-163.3914 " />
  <polygon id="23929110994" title="" points="-344.469,-330.273 -328.23,-330.273 -328.23,-487.587 -351.591,-487.587 -367.83,-487.587 -367.83,-330.273 -344.469,-330.273 " />
  <polygon id="23929119532" title="" points="722.139,-55.7493 722.139,42.2142 776.139,42.2142 776.139,-174.9858 1052.739,-174.9858 1052.739,-208.2039 1052.739,-227.1858 722.139,-227.1858 722.139,-55.7493 " />
  <polygon id="23929119551" title="" points="1001.412,147.8142 1130.139,147.8142 1130.139,102.8142 904.866,102.8142 776.139,102.8142 776.139,147.8142 1001.412,147.8142 " />
  <polygon id="23929119590" title="" points="1221.993,222.8142 1130.139,222.8142 1130.139,267.8142 1319.52,267.8142 1427.739,267.8142 1427.739,-105.2223 1427.739,-318.387 1517.739,-318.387 1517.739,-633.987 1240.539,-633.987 1240.539,-662.622 1240.539,-678.987 1121.028,-678.987 1052.739,-678.987 1052.739,-451.887 1221.039,-451.887 1221.039,-465.987 1243.185,-465.987 1255.839,-465.987 1255.839,-451.887 1336.593,-451.887 1382.739,-451.887 1382.739,-84.9858 1344.939,-84.9858 1344.939,-44.4858 1382.739,-44.4858 1382.739,125.6142 1382.739,222.8142 1221.993,222.8142 " />
  <polygon id="23929119614" title="" points="260.97,-31.2585 260.97,46.4142 381.87,46.4142 381.87,-127.695 381.87,-227.1858 19.77,-227.1858 19.77,-167.1858 260.97,-167.1858 260.97,-31.2585 " />
  <polygon id="23929119640" title="" points="30.57,179.1777 30.57,222.8142 -132.8481,222.8142 -226.23,222.8142 -226.23,267.8142 -40.0935,267.8142 66.27,267.8142 66.27,191.4507 66.27,147.8142 190.17,147.8142 260.97,147.8142 260.97,102.8142 30.57,102.8142 30.57,179.1777 " />
  <polygon id="23929119664" title="" points="-341.157,267.8142 -322.83,267.8142 -322.83,222.8142 -328.23,222.8142 -328.23,-229.2585 -328.23,-487.587 -373.23,-487.587 -373.23,267.8142 -341.157,267.8142 " />
  <polygon id="23929119683" title="" points="1181.685,-165.9858 1151.139,-165.9858 1151.139,-112.5312 1151.139,-81.9858 1204.593,-81.9858 1235.139,-81.9858 1235.139,-135.4404 1235.139,-165.9858 1181.685,-165.9858 " />
  <polygon id="23929119702" title="" points="1304.574,-85.5858 1284.939,-85.5858 1284.939,-37.5858 1338.939,-37.5858 1338.939,-85.5858 1304.574,-85.5858 " />
  <polygon id="23929119721" title="" points="-85.2846,-32.7858 -115.83,-32.7858 -115.83,51.2142 -62.3754,51.2142 -31.83,51.2142 -31.83,-32.7858 -85.2846,-32.7858 " />
  <polygon id="23929119740" title="" points="-8.97546,-2.7858 -26.43,-2.7858 -26.43,51.2142 4.11546,51.2142 21.57,51.2142 21.57,-2.7858 -8.97546,-2.7858 " />
  <polygon id="23929119804" title="" points="1252.239,-455.703 1252.239,-451.887 1224.639,-451.887 1224.639,-462.387 1252.239,-462.387 1252.239,-455.703 " />
  <polygon id="23929119804" title="" points="1373.739,77.7234 1373.739,138.8142 1373.739,190.7961 1373.739,213.8142 1224.447,213.8142 1139.139,213.8142 1139.139,93.8142 785.139,93.8142 785.139,-52.2312 785.139,-57.6858 785.139,-165.9858 961.158,-165.9858 1061.739,-165.9858 1061.739,-442.887 1260.285,-442.887 1373.739,-442.887 1373.739,-93.9858 1338.939,-93.9858 1338.939,-85.5858 1338.939,-37.5858 1338.939,-29.1858 1373.739,-29.1858 1373.739,77.7234 " />
  <polygon id="23929119804" title="" points="1355.412,-38.1858 1344.939,-38.1858 1344.939,-67.9677 1344.939,-84.9858 1382.739,-84.9858 1382.739,-451.887 1301.985,-451.887 1255.839,-451.887 1255.839,-465.987 1233.693,-465.987 1221.039,-465.987 1221.039,-451.887 1052.739,-451.887 1052.739,-174.9858 776.139,-174.9858 776.139,1.796019 776.139,102.8142 1130.139,102.8142 1130.139,222.8142 1290.885,222.8142 1382.739,222.8142 1382.739,52.7142 1382.739,-44.4858 1373.739,-44.4858 1373.739,-38.1858 1355.412,-38.1858 " />
  <polygon id="23929119905" title="" points="1212.201,-210.3858 1215.039,-210.3858 1215.039,-202.8858 1227.828,-202.8858 1235.139,-202.8858 1235.139,-190.5858 1222.347,-190.5858 1215.039,-190.5858 1215.039,-178.3677 1215.039,-171.3858 1207.239,-171.3858 1207.239,-210.3858 1212.201,-210.3858 " />
  <polygon id="23929119905" title="" points="1207.293,-343.287 1215.039,-343.287 1215.039,-331.068 1215.039,-324.087 1193.739,-324.087 1193.739,-336.303 1193.739,-343.287 1207.293,-343.287 " />
  <polygon id="23929119905" title="" points="1291.62,-210.3858 1295.439,-210.3858 1295.439,-187.2858 1284.939,-187.2858 1284.939,-210.3858 1291.62,-210.3858 " />
  <polygon id="23929119905" title="" points="1274.112,119.3142 1279.239,119.3142 1279.239,130.7688 1279.239,137.3142 1265.139,137.3142 1265.139,125.8596 1265.139,119.3142 1274.112,119.3142 " />
  <polygon id="23929119905" title="" points="1196.412,-32.1858 1200.939,-32.1858 1200.939,-17.4558 1188.495,-17.4558 1188.495,-32.1858 1196.412,-32.1858 " />
  <polygon id="23929119905" title="" points="1142.412,-32.1858 1146.339,-32.1858 1146.339,11.4942 1135.539,11.4942 1135.539,-32.1858 1142.412,-32.1858 " />
  <polygon id="23929119905" title="" points="1129.92,-107.4858 1145.739,-107.4858 1145.739,-93.9858 1118.058,-93.9858 1102.239,-93.9858 1102.239,-107.4858 1129.92,-107.4858 " />
  <polygon id="23929119905" title="" points="980.124,-88.5858 984.489,-88.5858 984.489,-76.5858 972.489,-76.5858 972.489,-88.5858 980.124,-88.5858 " />
  <polygon id="23929119905" title="" points="917.466,24.9942 926.739,24.9942 926.739,41.0142 901.239,41.0142 901.239,24.9942 917.466,24.9942 " />
  <polygon id="23929119905" title="" points="854.874,-32.1858 859.239,-32.1858 859.239,-15.00399 859.239,-5.1858 847.239,-5.1858 847.239,-22.36761 847.239,-32.1858 854.874,-32.1858 " />
  <polygon id="23929119905" title="" points="1204.593,-165.9858 1235.139,-165.9858 1235.139,-112.5312 1235.139,-81.9858 1151.139,-81.9858 1151.139,-135.4404 1151.139,-165.9858 1204.593,-165.9858 " />
  <polygon id="23929119905" title="" points="1319.301,-85.5858 1338.939,-85.5858 1338.939,-93.9858 1373.739,-93.9858 1373.739,-316.014 1373.739,-442.887 1175.193,-442.887 1061.739,-442.887 1061.739,-266.6766 1061.739,-165.9858 885.72,-165.9858 785.139,-165.9858 785.139,-57.6858 796.239,-57.6858 796.239,-42.6858 785.139,-42.6858 785.139,93.8142 1139.139,93.8142 1139.139,213.8142 1288.428,213.8142 1373.739,213.8142 1373.739,150.5142 1358.739,150.5142 1358.739,138.8142 1373.739,138.8142 1373.739,-29.1858 1338.939,-29.1858 1338.939,-37.5858 1284.939,-37.5858 1284.939,-85.5858 1319.301,-85.5858 " />
  <polygon id="23929119994" title="" points="142.2519,-38.7858 146.07,-38.7858 146.07,-21.60399 146.07,-11.7858 135.57,-11.7858 135.57,-28.96761 135.57,-38.7858 142.2519,-38.7858 " />
  <polygon id="23929119994" title="" points="-99.6027,-148.5858 -90.33,-148.5858 -90.33,-133.5858 -115.83,-133.5858 -115.83,-148.5858 -99.6027,-148.5858 " />
  <polygon id="23929119994" title="" points="-175.3392,-381.087 -165.63,-381.087 -165.63,-366.768 -165.63,-358.587 -192.33,-358.587 -192.33,-372.903 -192.33,-381.087 -175.3392,-381.087 " />
  <polygon id="23929119994" title="" points="-200.5392,-192.9858 -195.63,-192.9858 -195.63,-170.4585 -195.63,-157.5858 -209.13,-157.5858 -209.13,-180.1131 -209.13,-192.9858 -200.5392,-192.9858 " />
  <polygon id="23929119994" title="" points="-175.7754,-32.1858 -169.23,-32.1858 -169.23,-20.73126 -169.23,-14.1858 -180.6846,-14.1858 -187.23,-14.1858 -187.23,-25.64034 -187.23,-32.1858 -175.7754,-32.1858 " />
  <polygon id="23929119994" title="" points="-54.7935,56.6142 -50.43,56.6142 -50.43,68.6142 -62.43,68.6142 -62.43,56.6142 -54.7935,56.6142 " />
  <polygon id="23929119994" title="" points="-163.9392,78.8142 -159.03,78.8142 -159.03,102.8142 -172.53,102.8142 -172.53,78.8142 -163.9392,78.8142 " />
  <polygon id="23929119994" title="" points="4.11546,-2.7858 21.57,-2.7858 21.57,51.2142 -8.97546,51.2142 -26.43,51.2142 -26.43,-2.7858 4.11546,-2.7858 " />
  <polygon id="23929119994" title="" points="-62.3754,-32.7858 -31.83,-32.7858 -31.83,51.2142 -115.83,51.2142 -115.83,-32.7858 -62.3754,-32.7858 " />
  <polygon id="23929119994" title="" points="-102.3573,213.8142 21.57,213.8142 21.57,137.4507 21.57,93.8142 168.1881,93.8142 251.97,93.8142 251.97,-59.1858 238.47,-59.1858 238.47,-81.6858 251.97,-81.6858 251.97,-158.1858 98.4792,-158.1858 10.77,-158.1858 10.77,-422.13 10.77,-572.958 -163.23,-572.958 -163.23,-558.639 -163.23,-550.458 -184.53,-550.458 -184.53,-564.774 -184.53,-572.958 -219.0846,-572.958 -238.83,-572.958 -238.83,-556.458 -251.73,-556.458 -251.73,-572.958 -323.322,-572.958 -364.23,-572.958 -364.23,-496.587 -319.23,-496.587 -319.23,32.3142 -306.63,32.3142 -306.63,44.3142 -319.23,44.3142 -319.23,152.1777 -319.23,213.8142 -102.3573,213.8142 " />
  <polygon id="23929120013" title="" points="1364.193,138.8142 1358.739,138.8142 1358.739,150.5142 1373.739,150.5142 1373.739,138.8142 1364.193,138.8142 " />
  <polygon id="23929120032" title="" points="1270.266,119.3142 1265.139,119.3142 1265.139,137.3142 1279.239,137.3142 1279.239,119.3142 1270.266,119.3142 " />
  <polygon id="23929120051" title="" points="1139.466,-32.1858 1135.539,-32.1858 1135.539,11.4942 1146.339,11.4942 1146.339,-32.1858 1139.466,-32.1858 " />
  <polygon id="23929120070" title="" points="1193.019,-32.1858 1188.495,-32.1858 1188.495,-17.4558 1200.939,-17.4558 1200.939,-32.1858 1193.019,-32.1858 " />
  <polygon id="23929120089" title="" points="910.512,24.9942 901.239,24.9942 901.239,41.0142 917.466,41.0142 926.739,41.0142 926.739,24.9942 910.512,24.9942 " />
  <polygon id="23929120108" title="" points="851.601,-32.1858 847.239,-32.1858 847.239,-5.1858 859.239,-5.1858 859.239,-32.1858 851.601,-32.1858 " />
  <polygon id="23929120127" title="" points="976.851,-88.5858 972.489,-88.5858 972.489,-76.5858 984.489,-76.5858 984.489,-88.5858 976.851,-88.5858 " />
  <polygon id="23929120146" title="" points="1118.058,-107.4858 1102.239,-107.4858 1102.239,-93.9858 1145.739,-93.9858 1145.739,-107.4858 1118.058,-107.4858 " />
  <polygon id="23929120165" title="" points="789.174,-57.6858 785.139,-57.6858 785.139,-42.6858 796.239,-42.6858 796.239,-57.6858 789.174,-57.6858 " />
  <polygon id="23929120191" title="" points="1227.828,-190.5858 1235.139,-190.5858 1235.139,-202.8858 1222.347,-202.8858 1215.039,-202.8858 1215.039,-210.3858 1207.239,-210.3858 1207.239,-171.3858 1215.039,-171.3858 1215.039,-183.6039 1215.039,-190.5858 1227.828,-190.5858 " />
  <polygon id="23929120210" title="" points="1288.758,-210.3858 1284.939,-210.3858 1284.939,-195.6858 1284.939,-187.2858 1295.439,-187.2858 1295.439,-201.9858 1295.439,-210.3858 1288.758,-210.3858 " />
  <polygon id="23929120229" title="" points="1201.485,-343.287 1193.739,-343.287 1193.739,-324.087 1215.039,-324.087 1215.039,-343.287 1201.485,-343.287 " />
  <polygon id="23929120248" title="" points="243.3792,-81.6858 238.47,-81.6858 238.47,-59.1858 251.97,-59.1858 251.97,-81.6858 243.3792,-81.6858 " />
  <polygon id="23929120267" title="" points="139.3881,-38.7858 135.57,-38.7858 135.57,-21.60399 135.57,-11.7858 146.07,-11.7858 146.07,-28.96761 146.07,-38.7858 139.3881,-38.7858 " />
  <polygon id="23929120286" title="" points="-58.0665,56.6142 -62.43,56.6142 -62.43,68.6142 -50.43,68.6142 -50.43,56.6142 -58.0665,56.6142 " />
  <polygon id="23929120305" title="" points="-167.6208,78.8142 -172.53,78.8142 -172.53,102.8142 -159.03,102.8142 -159.03,78.8142 -167.6208,78.8142 " />
  <polygon id="23929120324" title="" points="-180.6846,-32.1858 -187.23,-32.1858 -187.23,-20.73126 -187.23,-14.1858 -175.7754,-14.1858 -169.23,-14.1858 -169.23,-25.64034 -169.23,-32.1858 -180.6846,-32.1858 " />
  <polygon id="23929120343" title="" points="-314.649,32.3142 -319.23,32.3142 -319.23,44.3142 -306.63,44.3142 -306.63,32.3142 -314.649,32.3142 " />
  <polygon id="23929120362" title="" points="-204.2208,-192.9858 -209.13,-192.9858 -209.13,-170.4585 -209.13,-157.5858 -195.63,-157.5858 -195.63,-180.1131 -195.63,-192.9858 -204.2208,-192.9858 " />
  <polygon id="23929120381" title="" points="-106.5573,-148.5858 -115.83,-148.5858 -115.83,-133.5858 -90.33,-133.5858 -90.33,-148.5858 -106.5573,-148.5858 " />
  <polygon id="23929120400" title="" points="-182.6208,-381.087 -192.33,-381.087 -192.33,-366.768 -192.33,-358.587 -175.3392,-358.587 -165.63,-358.587 -165.63,-372.903 -165.63,-381.087 -182.6208,-381.087 " />
  <polygon id="23929120419" title="" points="-247.0392,-572.958 -251.73,-572.958 -251.73,-556.458 -238.83,-556.458 -238.83,-572.958 -247.0392,-572.958 " />
  <polygon id="23929120438" title="" points="-176.7846,-572.958 -184.53,-572.958 -184.53,-550.458 -163.23,-550.458 -163.23,-572.958 -176.7846,-572.958 " />
  <polygon id="23929120457" title="" points="1363.266,-38.1858 1373.739,-38.1858 1373.739,-44.4858 1355.412,-44.4858 1344.939,-44.4858 1344.939,-38.1858 1363.266,-38.1858 " />
  <polygon id="23929120476" title="" points="1252.239,-458.568 1252.239,-462.387 1224.639,-462.387 1224.639,-451.887 1252.239,-451.887 1252.239,-458.568 " />
</svg>