<?xml version="1.0" encoding="utf-8"?>
<svg xmlns:xsi="http://www.w3.org/2001/XMLSchema-instance" xmlns:xsd="http://www.w3.org/2001/XMLSchema" version="1.1" id="Map" class="gen-by-synoptic-designer" xmlns:xlink="http://www.w3.org/1999/xlink" viewBox="-1506.68069872992 -996.22018655263 6828.38914537454 4322.05983276397 " xml:space="preserve" height="100%" width="100%" xmlns="http://www.w3.org/2000/svg">
  <polygon id="23929064747" title="" points="1427.739,-519.732 1427.739,-413.187 1472.739,-413.187 1532.739,-413.187 1532.739,-422.187 1541.739,-422.187 1541.739,-672.987 1474.491,-672.987 1427.739,-672.987 1427.739,-519.732 " />
  <polygon id="23929064852" title="" points="869.739,165.0582 869.739,147.8142 750.816,147.8142 668.139,147.8142 668.139,165.5112 668.139,177.8142 605.139,177.8142 605.139,227.3655 605.139,261.8142 869.739,261.8142 869.739,189.8622 869.739,165.0582 " />
  <polygon id="23929064986" title="" points="-182.73,-532.896 -182.73,-575.958 -291.5655,-575.958 -367.23,-575.958 -367.23,-470.958 -258.3945,-470.958 -182.73,-470.958 -182.73,-532.896 " />
  <polygon id="23929097497" title="" points="-55.23,267.8142 103.77,267.8142 103.77,187.8141 103.77,147.8142 599.139,147.8142 599.139,227.8143 599.139,267.8142 1427.739,267.8142 1427.739,181.8141 1427.739,138.8142 1443.738,138.8142 1451.739,138.8142 1451.739,102.8142 1451.739,84.8142 1435.737,84.8142 1427.739,84.8142 1427.739,-1.185801 1427.739,-44.1858 1500.339,-44.1858 1500.339,11.21421 1500.339,38.9142 1531.938,38.9142 1547.739,38.9142 1547.739,-90.9858 1467.738,-90.9858 1427.739,-90.9858 1427.739,-317.787 1547.739,-317.787 1547.739,-678.987 1427.739,-678.987 1427.739,-749.787 1427.739,-785.187 1270.239,-785.187 1270.239,-885.186 1270.239,-935.187 1226.739,-935.187 1226.739,-965.187 1180.737,-965.187 1157.739,-965.187 1157.739,-935.187 1124.739,-935.187 1108.239,-935.187 1108.239,-835.185 1108.239,-785.187 1003.239,-785.187 950.739,-785.187 950.739,-635.187 800.739,-635.187 800.739,-479.187 658.737,-479.187 587.739,-479.187 587.739,-581.958 -52.9071,-581.958 -373.23,-581.958 -373.23,267.8142 -55.23,267.8142 " />
  <polygon id="23929109128" title="" points="-224.7309,-23.7858 -185.73,-23.7858 -185.73,-45.9069 -185.73,-61.2858 -241.8291,-61.2858 -280.83,-61.2858 -280.83,-39.1647 -280.83,-23.7858 -224.7309,-23.7858 " />
  <polygon id="23929109215" title="" points="97.77,41.9976 97.77,-2.7858 56.0055,-2.7858 26.97,-2.7858 26.97,106.4142 97.77,106.4142 97.77,41.9976 " />
  <polygon id="23929109308" title="" points="1475.739,-358.341 1475.739,-324.387 1532.739,-324.387 1532.739,-333.387 1541.739,-333.387 1541.739,-407.187 1475.739,-407.187 1475.739,-358.341 " />
  <polygon id="23929109409" title="" points="906.495,189.8142 875.739,189.8142 875.739,226.9776 875.739,252.8142 884.739,252.8142 884.739,261.8142 923.67,261.8142 950.739,261.8142 950.739,189.8142 906.495,189.8142 " />
  <polygon id="23929109608" title="" points="1421.739,-122.1324 1421.739,-143.7858 1341.042,-143.7858 1284.939,-143.7858 1284.939,-90.9858 1365.636,-90.9858 1421.739,-90.9858 1421.739,-122.1324 " />
  <polygon id="23929120495" title="" points="82.2699,-470.958 211.77,-470.958 211.77,-540.957 211.77,-575.958 -47.2299,-575.958 -176.73,-575.958 -176.73,-470.958 82.2699,-470.958 " />
  <polygon id="23929120514" title="" points="-340.23,-60.0858 -367.23,-60.0858 -367.23,20.9142 -286.23,20.9142 -286.23,-60.0858 -340.23,-60.0858 " />
  <polygon id="23929120538" title="" points="-237.2301,-15.0858 -244.23,-15.0858 -244.23,-60.0858 -268.23,-60.0858 -280.23,-60.0858 -280.23,-6.0858 -280.23,20.9142 -223.23,20.9142 -223.23,-3.0858 -223.23,-15.0858 -237.2301,-15.0858 " />
  <polygon id="23929120557" title="" points="-10.43001,57.2142 -26.43,57.2142 -26.43,90.0141 -26.43,106.4142 21.57,106.4142 21.57,73.6143 21.57,57.2142 -10.43001,57.2142 " />
  <polygon id="23929120576" title="" points="74.1699,106.4142 97.77,106.4142 97.77,33.6141 97.77,-2.7858 50.5701,-2.7858 26.97,-2.7858 26.97,70.0143 26.97,106.4142 74.1699,106.4142 " />
  <polygon id="23929120600" title="" points="735.339,147.8142 668.139,147.8142 668.139,167.8143 668.139,177.8142 626.139,177.8142 605.139,177.8142 605.139,261.8142 781.539,261.8142 869.739,261.8142 869.739,147.8142 735.339,147.8142 " />
  <polygon id="23929120619" title="" points="900.738,189.8142 875.739,189.8142 875.739,237.8142 875.739,261.8142 950.739,261.8142 950.739,213.8142 950.739,189.8142 900.738,189.8142 " />
  <polygon id="23929120643" title="" points="938.139,-8.1858 928.839,-8.1858 928.839,141.8142 875.739,141.8142 875.739,169.8141 875.739,183.8142 929.739,183.8142 956.739,183.8142 956.739,55.8141 956.739,-8.1858 938.139,-8.1858 " />
  <polygon id="23929120662" title="" points="1395.939,-37.5858 1421.739,-37.5858 1421.739,-69.5859 1421.739,-85.5858 1370.139,-85.5858 1344.339,-85.5858 1344.339,-53.5857 1344.339,-37.5858 1395.939,-37.5858 " />
  <polygon id="23929120681" title="" points="1330.539,-143.7858 1284.939,-143.7858 1284.939,-90.9858 1376.139,-90.9858 1421.739,-90.9858 1421.739,-143.7858 1330.539,-143.7858 " />
  <polygon id="23929120700" title="" points="1302.939,-85.5858 1284.939,-85.5858 1284.939,-53.5857 1284.939,-37.5858 1320.939,-37.5858 1338.939,-37.5858 1338.939,-69.5859 1338.939,-85.5858 1302.939,-85.5858 " />
  <polygon id="23929120724" title="" points="1530.138,33.5142 1542.339,33.5142 1542.339,-45.8859 1542.339,-85.5858 1427.739,-85.5858 1427.739,-61.5858 1427.739,-49.5858 1505.739,-49.5858 1505.739,5.81421 1505.739,33.5142 1530.138,33.5142 " />
  <polygon id="23929120743" title="" points="1497.738,-407.187 1475.739,-407.187 1475.739,-324.387 1519.737,-324.387 1541.739,-324.387 1541.739,-407.187 1497.738,-407.187 " />
  <polygon id="23929120762" title="" points="1503.738,-413.187 1541.739,-413.187 1541.739,-672.987 1465.737,-672.987 1427.739,-672.987 1427.739,-413.187 1503.738,-413.187 " />
  <polygon id="23929120786" title="" points="1455.738,-324.387 1469.739,-324.387 1469.739,-379.587 1469.739,-407.187 1271.739,-407.187 1271.739,-371.187 1375.737,-371.187 1427.739,-371.187 1427.739,-324.387 1455.738,-324.387 " />
  <polygon id="23929120805" title="" points="-10.43001,-2.7858 -26.43,-2.7858 -26.43,51.2142 5.57001,51.2142 21.57,51.2142 21.57,-2.7858 -10.43001,-2.7858 " />
  <polygon id="23929120887" title="" points="1370.139,-37.5858 1344.339,-37.5858 1344.339,-69.5859 1344.339,-85.5858 1395.939,-85.5858 1421.739,-85.5858 1421.739,-53.5857 1421.739,-37.5858 1370.139,-37.5858 " />
  <polygon id="23929120887" title="" points="1376.139,-143.7858 1421.739,-143.7858 1421.739,-108.5859 1421.739,-90.9858 1330.539,-90.9858 1284.939,-90.9858 1284.939,-126.1857 1284.939,-143.7858 1376.139,-143.7858 " />
  <polygon id="23929120887" title="" points="1519.737,-407.187 1541.739,-407.187 1541.739,-351.987 1541.739,-324.387 1475.739,-324.387 1475.739,-379.587 1475.739,-407.187 1519.737,-407.187 " />
  <polygon id="23929120887" title="" points="1465.737,-413.187 1427.739,-413.187 1427.739,-586.386 1427.739,-672.987 1503.738,-672.987 1541.739,-672.987 1541.739,-499.785 1541.739,-413.187 1465.737,-413.187 " />
  <polygon id="23929120887" title="" points="1320.939,-85.5858 1338.939,-85.5858 1338.939,-53.5857 1338.939,-37.5858 1302.939,-37.5858 1284.939,-37.5858 1284.939,-69.5859 1284.939,-85.5858 1320.939,-85.5858 " />
  <polygon id="23929120887" title="" points="1504.137,-85.5858 1542.339,-85.5858 1542.339,-6.18579 1542.339,33.5142 1505.739,33.5142 1505.739,-21.88581 1505.739,-49.5858 1427.739,-49.5858 1427.739,-73.5858 1427.739,-85.5858 1504.137,-85.5858 " />
  <polygon id="23929120887" title="" points="1451.739,102.8142 1451.739,84.8142 1435.737,84.8142 1427.739,84.8142 1427.739,-1.185801 1427.739,-44.1858 1500.339,-44.1858 1500.339,11.21421 1500.339,38.9142 1547.739,38.9142 1547.739,-90.9858 1467.738,-90.9858 1427.739,-90.9858 1427.739,-318.387 1507.737,-318.387 1547.739,-318.387 1547.739,-678.987 1428.324,-678.987 1428.324,-785.187 1322.934,-785.187 1270.239,-785.187 1270.239,-885.186 1270.239,-935.187 1226.739,-935.187 1226.739,-955.29 1226.739,-965.343 1180.737,-965.457 1157.739,-965.514 1157.739,-935.187 1124.739,-935.187 1108.239,-935.187 1108.239,-779.187 1271.739,-779.187 1271.739,-531.186 1271.739,-407.187 1469.739,-407.187 1469.739,-351.987 1469.739,-324.387 1441.737,-324.387 1427.739,-324.387 1427.739,-371.187 1323.738,-371.187 1271.739,-371.187 1271.739,50.8143 1271.739,261.8142 1375.737,261.8142 1427.739,261.8142 1427.739,179.8143 1427.739,138.8142 1443.738,138.8142 1451.739,138.8142 1451.739,102.8142 " />
  <polygon id="23929120906" title="" points="-305.73,-575.958 -367.23,-575.958 -367.23,-470.958 -244.23,-470.958 -182.73,-470.958 -182.73,-540.957 -182.73,-575.958 -305.73,-575.958 " />
  <polygon id="23929120950" title="" points="235.77,-464.958 247.77,-464.958 247.77,-323.187 322.77,-323.187 322.77,-223.1859 322.77,-173.1858 172.77,-173.1858 97.77,-173.1858 97.77,-141.1857 97.77,-125.1858 -52.23,-125.1858 -52.23,-351.699 -52.23,-464.958 -162.2301,-464.958 -217.23,-464.958 -217.23,19.55709 -217.23,261.8142 -107.2299,261.8142 -52.23,261.8142 -52.23,81.8142 -52.23,-8.1858 956.739,-8.1858 956.739,-32.2017 956.739,-44.2098 1106.739,-44.2098 1106.739,159.8061 1106.739,261.8142 1216.737,261.8142 1271.739,261.8142 1271.739,-432.186 1271.739,-779.187 1161.738,-779.187 1106.739,-779.187 1106.739,-149.1858 1006.737,-149.1858 956.739,-149.1858 956.739,-165.1857 956.739,-173.1858 606.738,-173.1858 431.739,-173.1858 431.739,-575.958 211.77,-575.958 211.77,-464.958 235.77,-464.958 " />
  <polygon id="23929121056" title="" points="875.739,213.8142 875.739,189.8142 950.739,189.8142 950.739,237.8142 950.739,261.8142 875.739,261.8142 875.739,213.8142 " />
  <polygon id="23929121056" title="" points="605.139,205.8141 605.139,177.8142 647.139,177.8142 668.139,177.8142 668.139,157.8141 668.139,147.8142 802.539,147.8142 869.739,147.8142 869.739,261.8142 693.339,261.8142 605.139,261.8142 605.139,205.8141 " />
  <polygon id="23929121056" title="" points="-256.23,-60.0858 -244.23,-60.0858 -244.23,-15.0858 -230.2299,-15.0858 -223.23,-15.0858 -223.23,20.9142 -280.23,20.9142 -280.23,-33.0858 -280.23,-60.0858 -256.23,-60.0858 " />
  <polygon id="23929121056" title="" points="50.5701,106.4142 26.97,106.4142 26.97,-2.7858 74.1699,-2.7858 97.77,-2.7858 97.77,106.4142 50.5701,106.4142 " />
  <polygon id="23929121056" title="" points="5.57001,57.2142 21.57,57.2142 21.57,90.0141 21.57,106.4142 -10.43001,106.4142 -26.43,106.4142 -26.43,73.6143 -26.43,57.2142 5.57001,57.2142 " />
  <polygon id="23929121056" title="" points="-244.23,-575.958 -182.73,-575.958 -182.73,-470.958 -305.73,-470.958 -367.23,-470.958 -367.23,-575.958 -244.23,-575.958 " />
  <polygon id="23929121056" title="" points="-313.23,-60.0858 -286.23,-60.0858 -286.23,-6.0858 -286.23,20.9142 -340.23,20.9142 -367.23,20.9142 -367.23,-33.0858 -367.23,-60.0858 -313.23,-60.0858 " />
  <polygon id="23929121056" title="" points="5.57001,-2.7858 21.57,-2.7858 21.57,33.2142 21.57,51.2142 -10.43001,51.2142 -26.43,51.2142 -26.43,15.2142 -26.43,-2.7858 5.57001,-2.7858 " />
  <polygon id="23929121056" title="" points="781.737,-173.1858 956.739,-173.1858 956.739,-157.1859 956.739,-149.1858 1056.738,-149.1858 1106.739,-149.1858 1106.739,-573.186 1106.739,-785.187 1002.738,-785.187 950.739,-785.187 950.739,-635.187 800.739,-635.187 800.739,-531.186 800.739,-479.187 658.737,-479.187 587.739,-479.187 587.739,-581.958 -52.9071,-581.958 -373.23,-581.958 -373.23,267.8142 -55.23,267.8142 103.77,267.8142 103.77,210.8142 124.77,210.8142 124.77,147.8142 441.015,147.8142 599.139,147.8142 599.139,227.8143 599.139,267.8142 1106.739,267.8142 1106.739,-44.2098 1006.737,-44.2098 956.739,-44.2098 956.739,107.8062 956.739,183.8142 875.739,183.8142 875.739,155.8143 875.739,141.8142 928.839,141.8142 928.839,-8.1858 274.7928,-8.1858 -52.23,-8.1858 -52.23,171.8142 -52.23,261.8142 -162.2301,261.8142 -217.23,261.8142 -217.23,-222.6999 -217.23,-464.958 -107.2299,-464.958 -52.23,-464.958 -52.23,-238.443 -52.23,-125.1858 97.77,-125.1858 97.77,-157.1859 97.77,-173.1858 247.77,-173.1858 322.77,-173.1858 322.77,-323.187 247.77,-323.187 247.77,-464.958 211.77,-464.958 211.77,-470.958 -47.2299,-470.958 -176.73,-470.958 -176.73,-575.958 228.9156,-575.958 431.739,-575.958 431.739,-173.1858 781.737,-173.1858 " />
</svg>