<?xml version="1.0" encoding="utf-8"?>
<svg xmlns:xsi="http://www.w3.org/2001/XMLSchema-instance" xmlns:xsd="http://www.w3.org/2001/XMLSchema" version="1.1" id="Map" class="gen-by-synoptic-designer" xmlns:xlink="http://www.w3.org/1999/xlink" viewBox="-7346.07428420167 -12599.9790205813 23122.2960832823 24319.1997259649 " xml:space="preserve" height="100%" width="100%" xmlns="http://www.w3.org/2000/svg">
  <polygon id="20336039155" title="" points="1100.676,800.388 1089.126,786.582 1148.352,737.034 1275.504,630.663 1279.173,635.049 1287.054,644.466 1473.483,488.61 1461.888,474.735 1555.074,396.777 1558.743,401.163 1566.624,410.583 1659.813,332.622 1648.263,318.816 1687.746,285.7824 1772.514,214.8663 1784.085,228.696 1938.249,99.7227 1934.574,95.328 1926.681,85.893 2079.351,-41.829 2083.146,-45.0051 2090.895,-28.02873 2093.484,-30.1956 2143.743,-72.2418 2249.052,-160.3425 2227.437,-186.1821 2113.821,-200.6214 1869.906,-231.621 1937.004,-759.57 1938.141,-768.507 1933.245,-769.128 1935.288,-785.199 1943.706,-784.128 1961.775,-781.833 1960.791,-774.09 2154.441,-749.481 2162.1,-748.506 2143.161,-730.368 2128.008,-715.857 2208.924,-631.347 2299.872,-718.467 2218.956,-802.959 2204.415,-789.033 2192.784,-777.891 2190.525,-780.249 2131.041,-842.361 2082.81,-892.725 2070.831,-881.25 2045.112,-856.62 1898.769,-1009.44 1910.76,-1020.897 1936.5,-1045.497 1807.821,-1180.143 1747.887,-1242.855 1747.881,-1242.861 1726.002,-1221.948 1709.676,-1206.345 1670.685,-1247.058 1618.437,-1301.616 1656.414,-1337.988 1526.874,-1473.228 1466.535,-1536.222 1428.768,-1500.054 1423.521,-1505.547 1282.611,-1653.021 1319.991,-1688.76 1229.412,-1783.692 1187.232,-1827.9 1183.077,-1832.253 1201.761,-1850.082 1118.964,-1936.536 1108.098,-1926.132 1078.479,-1897.77 1063.671,-1883.589 1120.194,-1824.582 1148.457,-1795.08 1145.205,-1791.966 1115.562,-1822.914 1056.27,-1884.81 1096.149,-1922.994 1096.065,-1923.081 1026.807,-1995.402 1026.696,-1995.519 933.885,-2092.428 889.377,-2049.807 882.75,-2043.462 776.499,-2171.952 754.596,-2153.841 723.093,-2127.789 719.277,-2124.636 708.246,-2137.974 582.822,-2034.261 593.853,-2020.92 406.641,-1866 395.172,-1879.869 239.1168,-1750.824 243.8211,-1745.136 250.5876,-1736.952 186.8208,-1684.23 95.0988,-1608.393 90.3987,-1614.078 83.6379,-1622.256 -10.57278,-1544.349 -5.86887,-1538.661 0.89727,-1530.48 -50.3022,-1488.141 -123.9474,-1427.244 -135.4176,-1441.113 -260.2623,-1337.877 -255.558,-1332.189 -248.7915,-1324.005 -286.9542,-1292.448 -341.847,-1247.055 -353.319,-1260.927 -478.164,-1157.691 -466.692,-1143.819 -586.323,-1044.894 -609.138,-864.948 -641.955,-606.111 -650.595,-601.71 -658.119,-597.876 -668.943,-592.359 -638.778,-533.166 -595.392,-448.02 -579.354,-456.192 -524.19,-347.937 -530.766,-344.586 -540.228,-339.765 -525.144,-310.17 -503.451,-267.5961 -496.872,-270.9474 -487.413,-275.7684 -377.076,-59.2557 -383.655,-55.9032 -393.117,-51.081 -355.413,22.91001 -301.179,129.3387 -285.1422,121.1661 -262.5183,165.5643 -229.9761,229.4268 -236.5527,232.7781 -246.0129,237.5988 -215.8494,296.7912 -172.4625,381.933 -156.4251,373.761 -118.7196,447.753 -64.4838,554.187 -71.061,557.538 -80.5218,562.359 -50.3574,621.552 -6.96885,706.698 9.06891,698.526 29.99796,739.596 60.1023,798.675 87.7134,802.182 127.4292,807.231 125.1597,825.087 174.5898,831.369 245.6901,840.405 246.6207,833.082 247.9596,822.549 368.49,837.867 366.222,855.723 391.755,858.969 446.574,865.935 447.294,860.262 448.842,848.082 499.914,854.571 609.552,868.503 607.281,886.359 919.161,925.998 933.699,914.739 964.905,890.571 976.422,904.338 1100.676,800.388 " />
  <polygon id="20336039155" title="" points="2178.867,-739.269 2180.193,-749.685 2190.609,-748.362 2189.283,-737.946 2178.867,-739.269 " />
  <polygon id="20336039155" title="" points="960.354,753.552 970.203,766.413 999.738,743.796 989.889,730.935 960.354,753.552 " />
  <polygon id="20336039155" title="" points="977.886,607.701 976.563,618.117 986.979,619.44 988.302,609.024 977.886,607.701 " />
  <polygon id="20336039155" title="" points="1134.426,625.488 1126.14,631.938 1132.59,640.224 1140.876,633.774 1134.426,625.488 " />
  <polygon id="20336039155" title="" points="1145.328,465.678 1144.005,476.094 1154.421,477.417 1155.744,467.001 1145.328,465.678 " />
  <polygon id="20336039155" title="" points="1010.493,-152.1708 1012.71,-169.6317 1013.745,-177.765 989.64,-180.8286 987.42,-163.3677 986.385,-155.2344 1010.493,-152.1708 " />
  <polygon id="20336039155" title="" points="1610.715,272.598 1602.741,262.2072 1599.027,257.367 1583.766,269.0808 1576.656,274.5369 1588.347,289.7679 1610.715,272.598 " />
  <polygon id="20336039155" title="" points="1037.571,124.9863 1052.451,126.8775 1055.478,103.0689 1040.598,101.1777 1038.534,117.4206 1037.571,124.9863 " />
  <polygon id="20336039155" title="" points="874.536,591.15 863.736,676.119 856.23,735.192 879.177,738.108 905.751,741.486 913.134,742.425 917.805,705.669 925.848,642.381 931.44,598.383 874.536,591.15 " />
  <polygon id="20336039155" title="" points="1033.113,464.634 1035.006,449.754 1018.761,447.69 1011.198,446.727 1009.305,461.61 1025.547,463.674 1033.113,464.634 " />
  <polygon id="20336039155" title="" points="490.017,-1708.128 492.114,-1724.493 474.999,-1726.686 463.101,-1728.213 461.001,-1711.848 478.119,-1709.652 490.017,-1708.128 " />
  <polygon id="20336039155" title="" points="1140.084,-20.11353 1139.328,-14.16141 1152.705,-12.46101 1175.04,-9.62256 1213.32,-310.833 1207.368,-311.589 1207.11,-309.558 1169.844,-16.33116 1149.54,-18.91158 1140.084,-20.11353 " />
  <polygon id="20336039155" title="" points="1214.895,-9.12744 1166.331,372.999 1426.317,406.041 1563.993,299.316 1597.02,39.4374 1214.895,-9.12744 " />
  <polygon id="20336039155" title="" points="448.032,-1332.579 831.639,-1283.826 1005.45,-1261.737 1038.306,-1520.271 1053.615,-1640.718 1053.621,-1640.769 730.977,-1681.776 506.667,-1710.282 501.414,-1710.951 496.065,-1698.627 342.756,-1718.112 322.116,-1701.042 307.767,-1689.177 301.995,-1684.407 231.7542,-1626.321 182.9214,-1585.941 106.9098,-1523.085 54.6732,-1479.888 52.3068,-1477.932 -17.93442,-1419.846 -70.1712,-1376.652 -72.5376,-1374.693 -142.7925,-1316.598 -191.6346,-1276.209 -267.6084,-1213.386 -319.818,-1170.21 -322.185,-1168.254 -447.072,-1064.982 -482.559,-1035.636 -507.234,-1015.233 -521.595,-902.229 -531.579,-823.668 -546.21,-708.54 -556.383,-628.503 -465.633,-450.414 -463.956,-447.126 -394.491,-310.806 -390.405,-302.787 -349.425,-222.3705 -318.525,-161.7336 -316.851,-158.445 -275.8731,-78.0309 -243.2985,-14.1066 -202.3206,66.3084 -173.832,122.2143 -169.7457,130.2333 -128.7678,210.6483 -100.2792,266.5542 -96.1929,274.5729 -55.215,354.987 -26.72634,410.895 -22.64004,418.914 45.6816,552.987 47.6283,556.806 57.1281,575.451 63.7326,588.411 65.2044,588.597 64.8918,591.057 113.8554,597.279 114.168,594.819 156.6666,600.222 186.2124,603.975 195.7119,605.184 194.9556,611.136 203.7348,612.252 187.1754,742.548 822.666,823.311 837.894,825.249 893.136,832.269 918.867,835.539 1328.148,493.137 1346.829,477.51 1355.532,470.229 1268.667,459.189 1083.936,435.711 1082.181,435.489 1081.425,441.441 1341.138,474.447 1331.73,482.319 1325.19,487.788 1317.15,477.414 1298.178,492.114 1306.767,503.199 1076.862,695.538 917.025,829.257 841.626,819.675 846.594,780.579 850.05,753.402 802.131,747.312 807.906,701.877 811.92,670.287 829.959,672.582 842.499,674.175 865.95,489.66 1071.969,515.841 1072.725,509.889 1070.694,509.631 864.267,483.396 860.754,482.949 844.755,608.832 837.303,667.467 818.472,665.073 809.7,663.957 206.9001,587.346 205.0329,602.037 203.7348,612.252 194.9556,611.136 197.0994,594.267 207.0897,515.661 207.198,514.806 213.1875,515.568 393.63,538.5 775.032,586.971 824.076,201.0558 846.927,21.27384 846.933,21.22308 686.076,0.779691 696.942,-84.7164 704.496,-144.1545 709.704,-143.4927 722.565,-244.6788 717.357,-245.3406 730.965,-352.431 740.427,-426.879 741.828,-437.892 1473.954,-344.844 1515.654,-672.948 1535.076,-825.777 775.659,-922.293 772.146,-922.737 773.754,-935.379 775.437,-948.63 772.611,-948.99 784.881,-1045.545 793.413,-1112.673 802.194,-1111.557 809.778,-1171.245 815.052,-1212.744 810.588,-1213.311 817.119,-1264.686 763.836,-1271.457 726.795,-1276.164 675.816,-1282.644 645.549,-1286.49 443.919,-1312.116 446.571,-1332.984 448.416,-1347.492 445.44,-1347.87 451.161,-1392.894 455.139,-1424.193 458.418,-1449.996 460.698,-1467.936 465.162,-1467.369 448.779,-1338.459 448.032,-1332.579 " />
  <polygon id="20336039155" title="" points="966.939,54.8904 981.39,-58.812 988.122,-111.7737 960.153,-115.3284 962.526,-134.0043 963.63,-142.7034 977.022,-141.0012 985.011,-203.8605 964.68,-206.4465 921.027,-211.9986 920.271,-206.0466 978.303,-198.6654 974.484,-168.6069 971.829,-147.7098 958.434,-149.412 955.713,-127.9968 947.172,-60.7902 942.549,-24.41739 910.449,-28.49706 897.909,-30.0909 897.153,-24.13875 915.192,-21.84621 934.23,-19.42647 941.793,-18.46527 935.808,28.6386 933.018,50.5794 956.16,53.5203 966.939,54.8904 " />
  <polygon id="20336039155" title="" points="836.451,-2034.57 708.54,-2050.827 534.909,-1907.247 654.165,-1763.058 852.714,-1737.825 990.747,-1720.281 1066.965,-1793.013 930.987,-1935.507 836.451,-2034.57 " />
  <polygon id="20336039155" title="" points="1012.866,-938.112 1586.064,-865.263 1511.172,-276.0033 1340.715,-297.6669 1261.317,-307.758 1232.382,-80.0892 1678.194,-23.43006 1654.668,161.6952 1643.709,247.9254 1772.508,140.1726 1832.502,89.9817 1913.448,22.26417 2059.932,-100.2816 2064.258,-134.3412 1892.175,-156.2115 1812.021,-166.3986 1876.956,-677.331 1907.205,-915.318 1671.384,-1162.134 1165.179,-1691.937 1165.11,-1692.012 1129.425,-1657.917 1123.839,-1652.58 1102.497,-1632.186 1097.943,-1627.836 1069.107,-1400.94 1068.063,-1392.711 1054.809,-1288.443 1036.464,-1144.083 1010.328,-938.433 1012.866,-938.112 " />
  <polygon id="20336055058" title="" points="82.6581,-1336.491 83.7675,-1345.221 16.5198,-1353.768 -15.09165,-1327.623 52.0284,-1319.091 79.995,-1315.536 82.6581,-1336.491 " />
  <polygon id="20336055097" title="" points="147.6669,-1355.55 140.4894,-1356.462 126.7662,-1248.483 121.0482,-1203.492 181.5498,-1195.803 206.7588,-1192.599 235.9137,-1422 248.0616,-1517.586 222.3486,-1520.853 181.9323,-1487.43 169.9044,-1392.792 164.8929,-1353.36 147.6669,-1355.55 " />
  <polygon id="20336055131" title="" points="350.112,-1201.068 319.914,-1204.905 316.662,-1179.312 389.136,-1170.102 419.334,-1166.262 422.589,-1191.858 350.112,-1201.068 " />
  <polygon id="20336055166" title="" points="388.464,-1427.217 362.205,-1430.556 348.753,-1324.713 343.146,-1280.613 432.429,-1269.264 445.881,-1375.107 451.485,-1419.21 388.464,-1427.217 " />
  <polygon id="20336055199" title="" points="-290.6748,-1051.698 -294.2631,-1052.154 -298.491,-1018.887 -286.2906,-1017.339 -282.063,-1050.603 -290.6748,-1051.698 " />
  <polygon id="20336055232" title="" points="236.0376,-303.489 205.8393,-307.326 202.5864,-281.7318 275.0622,-272.5206 305.262,-268.6827 307.557,-286.7493 308.514,-294.2769 236.0376,-303.489 " />
  <polygon id="20336055265" title="" points="250.1091,-44.6799 276.3678,-41.3427 289.8192,-147.1854 295.4241,-191.2863 206.1456,-202.6329 192.6939,-96.7902 187.089,-52.6893 250.1091,-44.6799 " />
  <polygon id="20336055303" title="" points="52.4961,-326.211 34.6395,-328.479 9.97899,-134.4399 -27.22185,-139.1676 -38.8626,-47.5749 -43.7127,-9.41139 25.40196,-0.627516 54.1998,3.03243 95.3514,-320.763 52.4961,-326.211 " />
  <polygon id="20336055337" title="" points="96.6819,181.7415 93.0936,181.2855 90.1092,204.7665 88.866,214.5501 101.0661,216.1005 104.0505,192.6198 105.294,182.8362 96.6819,181.7415 " />
  <polygon id="20336062850" title="" points="-372.348,-398.652 -375.237,-399.018 -377.694,-379.692 -378.717,-371.637 -368.895,-370.389 -366.441,-389.718 -365.415,-397.77 -372.348,-398.652 " />
  <polygon id="20336062883" title="" points="-441.105,-633.894 -447.498,-634.704 -450.03,-614.799 -428.295,-612.036 -425.763,-631.944 -441.105,-633.894 " />
  <polygon id="20336062917" title="" points="-368.184,-624.63 -375.189,-625.521 -378.216,-601.713 -354.399,-598.686 -351.372,-622.494 -368.184,-624.63 " />
  <polygon id="20336062950" title="" points="-345.699,-621.771 -349.287,-622.227 -352.272,-598.746 -353.517,-588.963 -341.313,-587.412 -338.331,-610.893 -337.086,-620.679 -345.699,-621.771 " />
  <polygon id="20336062984" title="" points="-481.827,-917.487 -485.592,-917.964 -487.602,-902.148 -474.804,-900.522 -472.794,-916.338 -481.827,-917.487 " />
  <polygon id="20336063016" title="" points="-321.12,-897.063 -324.882,-897.54 -326.892,-881.724 -314.097,-880.098 -312.087,-895.914 -321.12,-897.063 " />
  <polygon id="20336063050" title="" points="80.8338,548.094 68.8221,546.567 64.0584,584.049 92.886,587.715 104.8974,589.239 109.6611,551.757 80.8338,548.094 " />
  <polygon id="20336063091" title="" points="-87.2808,-203.0493 -97.2666,-204.3183 -86.7207,-287.298 -82.3266,-321.873 -46.161,-317.277 -43.9983,-334.293 -43.0971,-341.382 -109.0236,-349.761 -119.1957,-269.7225 -123.4341,-236.373 -117.4821,-235.6167 -121.9407,-200.5341 -123.7986,-185.9163 -83.0265,-180.7347 -66.0381,-178.5756 -64.1157,-193.701 -63.3147,-200.0034 -87.2808,-203.0493 " />
  <polygon id="20336074578" title="" points="13.07931,335.091 16.30218,333.45 31.5267,363.327 20.56902,368.91 9.82224,347.82 5.34441,339.033 13.07931,335.091 " />
  <polygon id="20336074578" title="" points="-213.0831,-2.064006 -208.6614,6.61881 -219.6192,12.20268 -230.2368,-8.63331 -234.6606,-17.31495 -223.6953,-22.90278 -213.0831,-2.064006 " />
  <polygon id="20336074578" title="" points="-91.0863,238.3212 -87.1368,246.0639 -98.0937,251.6529 -111.5217,225.3273 -100.5648,219.7383 -91.0863,238.3212 " />
  <polygon id="20336074578" title="" points="-121.6836,-236.1507 -123.4341,-236.373 -113.262,-316.413 -109.0236,-349.761 -43.0971,-341.382 -45.2598,-324.366 -46.161,-317.277 -82.3266,-321.873 -92.8725,-238.8933 -97.2666,-204.3183 -73.3008,-201.2724 -63.3147,-200.0034 -65.2371,-184.878 -66.0381,-178.5756 -106.8102,-183.7572 -123.7986,-185.9163 -119.3397,-220.9989 -117.4821,-235.6167 -121.6836,-236.1507 " />
  <polygon id="20336074578" title="" points="97.6497,550.23 109.6611,551.757 106.2984,578.217 104.8974,589.239 76.0701,585.576 64.0584,584.049 67.4211,557.592 68.8221,546.567 97.6497,550.23 " />
  <polygon id="20336074578" title="" points="-432.156,-632.754 -425.763,-631.944 -427.551,-617.889 -428.295,-612.036 -450.03,-614.799 -448.242,-628.851 -447.498,-634.704 -432.156,-632.754 " />
  <polygon id="20336074578" title="" points="-358.377,-623.382 -351.372,-622.494 -354.399,-598.686 -371.211,-600.822 -378.216,-601.713 -376.08,-618.519 -375.189,-625.521 -358.377,-623.382 " />
  <polygon id="20336074578" title="" points="-340.674,-621.135 -337.086,-620.679 -340.071,-597.198 -341.313,-587.412 -353.517,-588.963 -350.532,-612.444 -349.287,-622.227 -340.674,-621.135 " />
  <polygon id="20336074578" title="" points="-368.304,-398.136 -365.415,-397.77 -368.895,-370.389 -378.717,-371.637 -375.237,-399.018 -368.304,-398.136 " />
  <polygon id="20336074578" title="" points="101.7054,182.3799 105.294,182.8362 101.0661,216.1005 88.866,214.5501 93.0936,181.2855 101.7054,182.3799 " />
  <polygon id="20336074578" title="" points="278.3151,-298.1148 308.514,-294.2769 305.262,-268.6827 202.5864,-281.7318 205.8393,-307.326 278.3151,-298.1148 " />
  <polygon id="20336074578" title="" points="213.3474,-49.3521 187.089,-52.6893 206.1456,-202.6329 269.1657,-194.6235 295.4241,-191.2863 276.3678,-41.3427 213.3474,-49.3521 " />
  <polygon id="20336074578" title="" points="-32.0721,-101.004 -27.22185,-139.1676 9.97899,-134.4399 27.38652,-271.4085 34.6395,-328.479 95.3514,-320.763 54.1998,3.03243 -14.91495,-5.75145 -43.7127,-9.41139 -32.0721,-101.004 " />
  <polygon id="20336074578" title="" points="254.3577,143.7363 278.7936,-48.5331 576.885,-10.64847 631.608,-441.231 21.87879,-518.721 -232.1748,-551.01 -207.8715,-742.236 -197.745,-821.916 -526.119,-863.649 -547.269,-697.245 -556.08,-627.909 63.7326,588.411 195.7119,605.184 254.3577,143.7363 " />
  <polygon id="20336075129" title="" points="-285.3408,-1184.79 -283.032,-1182 -301.281,-1166.922 -308.883,-1160.643 -316.722,-1170.12 -298.4814,-1185.204 -290.8815,-1191.489 -285.3408,-1184.79 " />
  <polygon id="20336075129" title="" points="198.1179,-1579.896 190.5276,-1573.617 182.6409,-1583.079 208.4958,-1604.439 216.3345,-1594.959 198.1179,-1579.896 " />
  <polygon id="20336075129" title="" points="-51.5706,-1373.421 -59.1606,-1367.142 -66.996,-1376.616 -41.1891,-1397.958 -33.354,-1388.487 -51.5706,-1373.421 " />
  <polygon id="20336075129" title="" points="-315.849,-896.391 -312.087,-895.914 -314.097,-880.098 -326.892,-881.724 -324.882,-897.54 -315.849,-896.391 " />
  <polygon id="20336075129" title="" points="-476.556,-916.818 -472.794,-916.338 -474.804,-900.522 -487.602,-902.148 -485.592,-917.964 -476.556,-916.818 " />
  <polygon id="20336075129" title="" points="81.1047,-1324.266 79.995,-1315.536 12.87504,-1324.068 -15.09165,-1327.623 16.5198,-1353.768 63.9888,-1347.735 83.7675,-1345.221 81.1047,-1324.266 " />
  <polygon id="20336075129" title="" points="425.226,-1422.546 451.485,-1419.21 438.033,-1313.367 432.429,-1269.264 369.405,-1277.274 343.146,-1280.613 356.598,-1386.456 362.205,-1430.556 425.226,-1422.546 " />
  <polygon id="20336075129" title="" points="392.391,-1195.695 422.589,-1191.858 420.291,-1173.792 419.334,-1166.262 346.86,-1175.475 316.662,-1179.312 319.914,-1204.905 392.391,-1195.695 " />
  <polygon id="20336075129" title="" points="218.9067,-1288.182 206.7588,-1192.599 146.2572,-1200.288 121.0482,-1203.492 134.7714,-1311.471 140.4894,-1356.462 164.8929,-1353.36 176.9208,-1447.998 181.9323,-1487.43 222.3486,-1520.853 248.0616,-1517.586 218.9067,-1288.182 " />
  <polygon id="20336075129" title="" points="-285.6513,-1051.059 -282.063,-1050.603 -286.2906,-1017.339 -298.491,-1018.887 -294.2631,-1052.154 -285.6513,-1051.059 " />
  <polygon id="20336075129" title="" points="-294.2883,-834.486 -197.7072,-822.213 -168.3186,-1053.453 441.069,-976.005 694.98,-943.734 737.061,-1274.862 527.982,-1301.433 440.868,-1312.503 490.083,-1699.749 386.304,-1712.94 343.065,-1718.436 -506.799,-1015.665 -520.41,-908.568 -526.083,-863.946 -294.2883,-834.486 " />
  <polygon id="20336076968" title="" points="-219.2736,-14.21994 -223.6953,-22.90278 -234.6606,-17.31495 -224.043,3.52101 -219.6192,12.20268 -208.6614,6.61881 -219.2736,-14.21994 " />
  <polygon id="20336077002" title="" points="-96.6153,227.4813 -100.5648,219.7383 -111.5217,225.3273 -98.0937,251.6529 -87.1368,246.0639 -96.6153,227.4813 " />
  <polygon id="20336077037" title="" points="8.56731,337.392 5.34441,339.033 16.09119,360.123 20.56902,368.91 31.5267,363.327 16.30218,333.45 8.56731,337.392 " />
  <polygon id="20336077074" title="" points="-288.573,-1188.699 -290.8815,-1191.489 -309.12,-1176.405 -316.722,-1170.12 -308.883,-1160.643 -290.6352,-1175.718 -283.032,-1182 -288.573,-1188.699 " />
  <polygon id="20336077111" title="" points="208.7442,-1588.683 216.3345,-1594.959 208.4958,-1604.439 182.6409,-1583.079 190.5276,-1573.617 208.7442,-1588.683 " />
  <polygon id="20336077148" title="" points="-40.9443,-1382.208 -33.354,-1388.487 -41.1891,-1397.958 -66.996,-1376.616 -59.1606,-1367.142 -40.9443,-1382.208 " />
  <polygon id="20336077190" title="" points="890.532,-213.3522 897.795,-212.4288 895.848,-197.0934 895.035,-190.7034 870.333,-193.8429 872.283,-209.1783 873.096,-215.568 890.532,-213.3522 " />
  <polygon id="20336077190" title="" points="850.65,-353.901 815.637,-358.35 778.383,-65.2092 897.426,-50.0799 923.724,-257.0037 934.68,-343.221 850.65,-353.901 " />
  <polygon id="20336077312" title="" points="1288.05,-1391.535 1309.497,-1388.811 1285.857,-1202.805 1349.739,-1194.687 1376.358,-1191.303 1371.669,-1154.4 1342.8,-1158.069 1328.391,-1044.681 1193.844,-1061.781 1224.012,-1299.165 1236.582,-1398.075 1288.05,-1391.535 " />
  <polygon id="20336077312" title="" points="1753.05,-1000.842 1758.612,-995.109 1747.068,-983.91 1733.721,-997.671 1728.159,-1003.404 1739.703,-1014.603 1753.05,-1000.842 " />
  <polygon id="20336077312" title="" points="1283.481,-1491.258 1291.206,-1483.293 1279.371,-1471.812 1253.1,-1498.899 1264.935,-1510.377 1283.481,-1491.258 " />
  <polygon id="20336077312" title="" points="1171.272,-1423.008 1182.282,-1421.61 1180.2,-1405.242 1142.769,-1410 1144.851,-1426.365 1171.272,-1423.008 " />
  <polygon id="20336077312" title="" points="1459.839,-1247.613 1470.849,-1246.212 1468.77,-1229.844 1431.339,-1234.602 1433.418,-1250.97 1459.839,-1247.613 " />
  <polygon id="20336077312" title="" points="1505.241,-1039.116 1516.182,-1037.724 1514.103,-1021.356 1476.9,-1026.084 1478.982,-1042.452 1505.241,-1039.116 " />
  <polygon id="20336077312" title="" points="1594.299,-136.6188 1605.306,-135.2196 1603.227,-118.8513 1565.796,-123.6084 1567.875,-139.9767 1594.299,-136.6188 " />
  <polygon id="20336077312" title="" points="1730.556,-322.689 1736.778,-321.897 1734.963,-307.614 1734.204,-301.662 1719.273,-303.558 1713.051,-304.35 1714.866,-318.633 1715.622,-324.585 1730.556,-322.689 " />
  <polygon id="20336077312" title="" points="1651.128,-330.033 1657.35,-329.244 1654.779,-309.006 1633.623,-311.694 1636.194,-331.932 1651.128,-330.033 " />
  <polygon id="20336077312" title="" points="1792.908,-567.258 1803.918,-565.857 1800.201,-536.607 1798.653,-524.418 1777.59,-527.094 1772.856,-489.963 1756.5,-492.042 1766.487,-570.615 1792.908,-567.258 " />
  <polygon id="20336077312" title="" points="1794.756,-759.984 1805.52,-758.613 1803.441,-742.245 1766.835,-746.898 1768.917,-763.266 1794.756,-759.984 " />
  <polygon id="20336077312" title="" points="1716.762,-769.896 1727.529,-768.528 1725.447,-752.157 1705.212,-754.731 1700.484,-717.528 1684.116,-719.61 1688.922,-757.422 1690.923,-773.178 1716.762,-769.896 " />
  <polygon id="20336077312" title="" points="1339.998,-291.7095 1266.513,-301.05 1232.85,-36.1797 1513.299,-0.537018 1630.152,14.31411 1607.841,189.867 1598.547,263.0139 1626.462,239.6601 1637.049,252.3159 1608.129,276.5067 1598.316,264.8184 1595.301,288.5529 1594.044,298.4421 2051.976,-85.2756 2060.475,-152.1654 2064.018,-180.0363 1811.778,-212.0937 1900.893,-913.242 1684.428,-1139.796 1164.915,-1683.528 1121.655,-1642.191 1103.628,-1624.968 1056.522,-1254.312 1036.893,-1099.872 1053.552,-1097.757 1060.494,-1096.875 1058.604,-1081.992 1035.003,-1084.992 1022.319,-985.206 1017.036,-943.629 1592.772,-870.459 1516.368,-269.2947 1339.998,-291.7095 " />
  <polygon id="20336077354" title="" points="998.169,-1089.675 985.302,-1091.31 988.104,-1113.366 989.274,-1122.558 1014.756,-1119.318 1025.373,-1117.971 1023.294,-1101.603 1030.941,-1100.631 1041.531,-1183.968 957.501,-1194.648 922.491,-1199.097 892.041,-959.517 976.071,-948.837 1011.084,-944.385 1023.765,-1044.171 1029.048,-1085.748 998.169,-1089.675 " />
  <polygon id="20336077409" title="" points="961.575,-1827.345 968.568,-1820.136 956.733,-1808.655 932.955,-1833.168 944.79,-1844.646 961.575,-1827.345 " />
  <polygon id="20336077409" title="" points="755.52,-1907.559 766.023,-1906.224 762.819,-1881.015 761.484,-1870.512 725.772,-1875.051 728.976,-1900.26 730.311,-1910.763 755.52,-1907.559 " />
  <polygon id="20336077409" title="" points="682.206,-1869.096 698.607,-1867.011 693.981,-1830.603 671.418,-1833.471 662.019,-1834.665 663.84,-1849.011 647.034,-1851.147 640.032,-1852.035 642.837,-1874.1 682.206,-1869.096 " />
  <polygon id="20336077409" title="" points="1037.949,-1773.618 1058.481,-1793.211 899.73,-1959.57 833.583,-2028.885 746.601,-2039.94 710.361,-2044.545 595.824,-1949.838 548.1,-1910.376 623.832,-1810.545 655.389,-1768.95 988.671,-1726.593 1037.949,-1773.618 " />
  <polygon id="20336115326" title="" points="296.0043,-260.0973 294.9597,-251.8785 272.6616,-254.7126 263.3709,-255.8934 266.9223,-283.8372 289.2204,-281.0031 298.5111,-279.8226 296.0043,-260.0973 " />
  <polygon id="20336115326" title="" points="73.5855,-247.0569 71.7387,-232.5267 57.8988,-234.2856 62.331,-269.1579 64.1775,-283.6881 78.0174,-281.9292 73.5855,-247.0569 " />
  <polygon id="20336115326" title="" points="-154.2285,-276.0099 -156.0753,-261.4797 -169.9149,-263.2386 -165.483,-298.1112 -163.6362,-312.642 -149.7966,-310.881 -154.2285,-276.0099 " />
  <polygon id="20336115326" title="" points="-55.9656,-327.009 -53.9634,-342.765 -21.52674,-338.643 -26.33259,-300.828 -28.33503,-285.072 -24.77259,-284.6193 -33.3162,-217.3962 -36.8757,-189.3867 -76.446,-194.4156 -64.3428,-289.6485 -60.7716,-289.1946 -55.9656,-327.009 " />
  <polygon id="20336115326" title="" points="-341.733,-621.243 -333.495,-620.199 -336.897,-593.436 -364.902,-596.994 -361.503,-623.757 -341.733,-621.243 " />
  <polygon id="20336115326" title="" points="-419.871,-644.808 -408.585,-643.374 -412.053,-616.077 -413.499,-604.707 -440.589,-608.148 -451.878,-609.582 -448.41,-636.879 -446.964,-648.252 -419.871,-644.808 " />
  <polygon id="20336115326" title="" points="275.2296,-32.3877 275.3085,-33.0096 195.48,-43.1553 162.2184,-47.3826 162.9747,-53.3346 134.9997,-56.8899 148.8834,-166.1322 154.6683,-211.65 174.4155,-209.1402 182.6433,-208.0947 183.3993,-214.0419 263.2278,-203.8965 296.4894,-199.6692 282.948,-93.1185 277.3056,-48.7224 685.77,3.1899 699.522,-105.0195 705.252,-150.1068 648.006,-157.3821 624.156,-160.4136 628.125,-191.6622 510.483,-206.6133 461.466,-212.8431 466.941,-255.9084 469.221,-273.8523 716.979,-242.3646 733.932,-375.762 740.994,-431.343 723.453,-433.575 716.145,-434.502 714.444,-421.11 578.316,-438.411 521.595,-445.62 522.729,-454.548 -231.8679,-550.452 -211.1097,-713.784 -202.4604,-781.839 -531.579,-823.668 -549.087,-685.905 -556.383,-628.503 46.4988,554.592 90.1479,532.347 108.3351,523.08 121.2621,524.724 114.9939,574.044 112.3821,594.594 172.2537,602.202 197.1999,605.373 219.4047,430.656 228.6567,357.858 215.2644,356.157 216.021,350.205 229.4133,351.906 249.0813,197.1516 235.689,195.4497 236.4453,189.4974 249.8376,191.1996 269.7282,34.6938 278.016,-30.5172 275.04,-30.8952 275.2296,-32.3877 " />
  <polygon id="20336115401" title="" points="-303.129,-913.284 -294.2817,-912.162 -297.2916,-888.477 -298.5456,-878.61 -328.626,-882.432 -324.363,-915.984 -303.129,-913.284 " />
  <polygon id="20336115401" title="" points="-473.49,-910.848 -474.747,-900.969 -499.149,-904.071 -496.137,-927.777 -494.883,-937.656 -477.657,-935.466 -470.478,-934.554 -473.49,-910.848 " />
  <polygon id="20336115401" title="" points="-375.873,-898.476 -377.127,-888.612 -403.599,-891.948 -414.63,-893.337 -411.618,-917.037 -410.361,-926.913 -383.892,-923.55 -372.864,-922.149 -375.873,-898.476 " />
  <polygon id="20336115401" title="" points="342.612,-1276.428 342.834,-1278.177 323.088,-1280.688 314.859,-1281.732 328.743,-1390.974 334.527,-1436.493 354.276,-1433.982 362.502,-1432.938 363.261,-1438.89 428.382,-1430.613 455.517,-1427.163 490.113,-1699.383 386.097,-1712.601 342.756,-1718.112 -507.234,-1015.233 -524.418,-880.011 -531.579,-823.668 -202.4604,-781.839 -178.0977,-973.533 -167.9466,-1053.405 341.598,-988.647 553.911,-961.662 565.605,-1053.648 570.477,-1091.976 597.261,-1088.568 581.829,-967.188 719.01,-949.752 776.169,-942.489 791.922,-1066.434 798.486,-1118.076 674.226,-1133.868 622.452,-1140.447 627.792,-1182.462 630.015,-1199.97 718.554,-1188.717 721.491,-1211.826 722.715,-1221.453 810.21,-1210.335 815.085,-1248.699 817.119,-1264.686 549.483,-1298.7 437.967,-1312.872 431.361,-1260.882 368.337,-1268.892 342.078,-1272.231 342.612,-1276.428 " />
</svg>