<?xml version="1.0" encoding="utf-8"?>
<svg xmlns:xsi="http://www.w3.org/2001/XMLSchema-instance" xmlns:xsd="http://www.w3.org/2001/XMLSchema" version="1.1" id="Map" class="gen-by-synoptic-designer" xmlns:xlink="http://www.w3.org/1999/xlink" viewBox="-7346.07428420167 -12599.9790205813 23122.2960832823 24319.1997259649 " xml:space="preserve" height="100%" width="100%" xmlns="http://www.w3.org/2000/svg">
  <polygon id="20336053485" title="" points="1113.144,642.81 1092.189,640.149 1106.865,524.676 1085.586,521.973 1073.391,617.937 1067.583,663.633 1128.777,671.577 1147.995,655.878 1157.148,648.405 1113.144,642.81 " />
  <polygon id="20336053524" title="" points="1429.095,-1249.575 1432.965,-1280.022 1418.034,-1295.613 1410.924,-1303.038 1408.71,-1303.32 1398.873,-1225.902 1394.187,-1189.038 1412.331,-1186.731 1420.971,-1185.633 1429.095,-1249.575 " />
  <polygon id="20336053563" title="" points="82.4259,-216.6783 95.7252,-321.321 34.7157,-329.073 17.98641,-197.4411 10.02003,-134.7588 -15.22239,-137.967 -27.24261,-139.4946 -38.4414,-51.3789 -43.7739,-9.41922 22.79724,-0.958593 54.498,3.07026 82.4259,-216.6783 " />
  <polygon id="20336053596" title="" points="234.9525,-199.0224 206.1519,-202.6827 187.0827,-52.6395 276.3645,-41.2926 295.4337,-191.3358 234.9525,-199.0224 " />
  <polygon id="20336053628" title="" points="238.9599,-303.117 205.8393,-307.326 203.6358,-289.9878 202.5864,-281.7318 272.1399,-272.892 305.262,-268.6827 307.464,-286.0206 308.514,-294.2769 238.9599,-303.117 " />
  <polygon id="20336053661" title="" points="97.029,181.7856 93.0936,181.2855 88.866,214.5501 101.0661,216.1005 105.294,182.8362 97.029,181.7856 " />
  <polygon id="20336053694" title="" points="352.389,735.96 341.658,734.598 340.458,744.036 373.725,748.263 374.922,738.825 352.389,735.96 " />
  <polygon id="20336053728" title="" points="564.141,760.368 553.41,759.003 551.898,770.907 585.162,775.137 586.674,763.233 564.141,760.368 " />
  <polygon id="20336053760" title="" points="666.171,838.656 658.491,837.681 656.367,854.412 655.353,862.38 679.161,865.407 681.288,848.673 682.302,840.705 666.171,838.656 " />
  <polygon id="20336053794" title="" points="908.043,699.741 904.107,699.243 899.88,732.507 912.081,734.058 916.308,700.791 908.043,699.741 " />
  <polygon id="20336053828" title="" points="1004.526,763.884 1000.59,763.383 997.728,785.916 996.363,796.644 1008.564,798.195 1011.426,775.662 1012.791,764.934 1004.526,763.884 " />
  <polygon id="20336053865" title="" points="1350.153,478.341 1347.606,475.299 1326.417,493.026 1334.328,502.44 1348.668,490.443 1355.499,484.731 1350.153,478.341 " />
  <polygon id="20336053902" title="" points="1628.109,246.1374 1625.856,243.2301 1609.047,257.343 1601.043,264.0636 1608.39,273.5508 1632.837,252.243 1628.109,246.1374 " />
  <polygon id="20336053941" title="" points="1161.363,-17.76894 1176.438,-15.85338 1190.682,-127.9296 1197.462,-181.2993 1124.685,-190.5489 1090.026,-194.9535 1048.8,129.4374 1089.927,134.6643 1109.511,137.1534 1129.713,-21.79164 1161.363,-17.76894 " />
  <polygon id="20336053975" title="" points="892.656,-115.3836 863.856,-119.0439 844.791,30.9495 934.074,42.2967 953.136,-107.697 892.656,-115.3836 " />
  <polygon id="20336054009" title="" points="910.059,-217.815 876.939,-222.0243 874.737,-204.6933 873.687,-196.4406 943.242,-187.6011 976.362,-183.3918 978.564,-200.7225 979.614,-208.9752 910.059,-217.815 " />
  <polygon id="20336054043" title="" points="1579.875,-134.823 1569.504,-136.1409 1568.145,-125.427 1589.916,-122.6598 1600.284,-121.3422 1601.646,-132.0558 1579.875,-134.823 " />
  <polygon id="20336054077" title="" points="1723.176,-322.899 1716.792,-323.709 1715.172,-310.98 1714.404,-304.917 1734.195,-302.403 1736.583,-321.195 1723.176,-322.899 " />
  <polygon id="20336054112" title="" points="1643.793,-330.237 1637.409,-331.047 1635.021,-312.258 1654.812,-309.741 1656.429,-322.47 1657.2,-328.533 1643.793,-330.237 " />
  <polygon id="20336054145" title="" points="1767.231,-528.411 1763.292,-528.912 1758.837,-493.863 1771.05,-492.309 1775.505,-527.358 1767.231,-528.411 " />
  <polygon id="20336054177" title="" points="1778.967,-565.023 1769.559,-566.22 1766.637,-543.237 1765.245,-532.293 1785.003,-529.782 1794.411,-528.585 1797.333,-551.568 1798.722,-562.512 1778.967,-565.023 " />
  <polygon id="20336054215" title="" points="1971.594,48.2787 1972.323,42.5352 1942.461,67.5189 1928.241,79.416 1944.75,81.5142 1961.898,67.17 1970.061,60.3396 1971.594,48.2787 " />
  <polygon id="20336054253" title="" points="1960.536,-1054.227 1956.951,-1057.758 1912.446,-1015.104 1923.237,-1003.845 1968.066,-1046.811 1960.536,-1054.227 " />
  <polygon id="20336054286" title="" points="1938.879,-785.04 1927.884,-786.438 1926.336,-774.237 1949.418,-771.303 1960.41,-769.905 1961.961,-782.109 1938.879,-785.04 " />
  <polygon id="20336054319" title="" points="1694.598,-753.963 1690.662,-754.461 1687.818,-732.084 1686.462,-721.428 1698.666,-719.877 1701.51,-742.254 1702.863,-752.913 1694.598,-753.963 " />
  <polygon id="20336054353" title="" points="1703.205,-769.5 1692.741,-770.832 1691.19,-758.628 1713.165,-755.835 1723.629,-754.506 1725.18,-766.707 1703.205,-769.5 " />
  <polygon id="20336054385" title="" points="1781.199,-759.588 1770.735,-760.92 1769.31,-749.703 1801.749,-745.581 1803.174,-756.795 1781.199,-759.588 " />
  <polygon id="20336054419" title="" points="1491.456,-1038.75 1480.8,-1040.106 1479.249,-1027.902 1512.282,-1023.705 1513.833,-1035.906 1491.456,-1038.75 " />
  <polygon id="20336054453" title="" points="1445.967,-1247.259 1435.236,-1248.621 1433.685,-1236.42 1456.221,-1233.558 1466.952,-1232.193 1468.503,-1244.394 1445.967,-1247.259 " />
  <polygon id="20336054488" title="" points="1355.196,-1190.364 1347.036,-1191.402 1343.253,-1161.642 1368.552,-1158.426 1372.332,-1188.186 1355.196,-1190.364 " />
  <polygon id="20336054526" title="" points="1299.03,-1195.083 1279.149,-1197.609 1295.163,-1323.612 1302.789,-1383.615 1261.458,-1388.868 1241.778,-1391.367 1200.552,-1066.977 1323.195,-1051.389 1335.108,-1145.136 1340.781,-1189.776 1299.03,-1195.083 " />
  <polygon id="20336054560" title="" points="1048.716,-1343.358 1019.916,-1347.018 1006.998,-1245.375 1000.848,-1196.973 1090.128,-1185.627 1103.046,-1287.27 1109.199,-1335.669 1048.716,-1343.358 " />
  <polygon id="20336054595" title="" points="1024.137,-1115.406 991.017,-1119.615 987.762,-1094.022 1090.437,-1080.972 1092.639,-1098.309 1093.689,-1106.565 1024.137,-1115.406 " />
  <polygon id="20336054627" title="" points="1157.4,-1422.657 1146.669,-1424.019 1145.118,-1411.818 1167.651,-1408.953 1178.382,-1407.591 1179.933,-1419.792 1157.4,-1422.657 " />
  <polygon id="20336054660" title="" points="1272.423,-1499.643 1264.89,-1507.407 1256.07,-1498.851 1279.416,-1474.782 1288.236,-1483.338 1272.423,-1499.643 " />
  <polygon id="20336054697" title="" points="962.04,-1817.595 964.68,-1820.154 951.381,-1833.867 945.045,-1840.395 926.931,-1842.699 956.499,-1812.216 962.04,-1817.595 " />
  <polygon id="20336054732" title="" points="651.399,-1868.778 644.391,-1869.669 642.381,-1853.853 657.099,-1851.984 664.107,-1851.093 666.117,-1866.906 651.399,-1868.778 " />
  <polygon id="20336054765" title="" points="677.769,-1866.03 669.762,-1867.047 666.042,-1837.782 690.864,-1834.629 694.584,-1863.894 677.769,-1866.03 " />
  <polygon id="20336054803" title="" points="484.59,-1832.262 482.058,-1835.322 464.553,-1820.847 456.219,-1813.953 464.058,-1804.476 489.909,-1825.833 484.59,-1832.262 " />
  <polygon id="20336054840" title="" points="233.3292,-1610.139 241.6542,-1617.024 233.8155,-1626.501 216.3006,-1612.032 207.9603,-1605.141 215.847,-1595.682 233.3292,-1610.139 " />
  <polygon id="20336054877" title="" points="-35.748,-1413.939 -27.42339,-1420.824 -35.2581,-1430.298 -61.0653,-1408.953 -53.2299,-1399.479 -35.748,-1413.939 " />
  <polygon id="20336054916" title="" points="234.198,-1413.285 247.4727,-1517.736 221.8785,-1520.988 182.0031,-1488.015 170.4498,-1397.109 164.9484,-1353.819 140.5956,-1356.915 127.4952,-1253.835 121.2567,-1204.752 206.3211,-1193.94 234.198,-1413.285 " />
  <polygon id="20336054950" title="" points="353.034,-1200.696 319.914,-1204.905 316.662,-1179.312 386.214,-1170.471 419.334,-1166.262 422.589,-1191.858 353.034,-1200.696 " />
  <polygon id="20336054985" title="" points="391.011,-1426.944 362.211,-1430.607 343.14,-1280.562 432.423,-1269.216 451.491,-1419.258 391.011,-1426.944 " />
  <polygon id="20336055021" title="" points="-291.6693,-1213.098 -294.0999,-1216.236 -311.325,-1201.986 -319.53,-1195.203 -311.994,-1185.474 -294.7683,-1199.721 -286.5654,-1206.507 -291.6693,-1213.098 " />
  <polygon id="20336061584" title="" points="-61.9746,-209.5104 -7.87752,-202.6353 -12.92322,-162.9336 -15.32592,-144.0282 4.82388,-141.4674 12.43179,-201.3294 16.05462,-229.8348 -150.642,-251.0205 -230.0214,-261.1089 -197.928,-198.2685 -182.6454,-168.3444 -175.5786,-223.9485 -61.9746,-209.5104 " />
  <polygon id="20336061618" title="" points="-290.319,-1051.719 -294.2547,-1052.22 -298.4823,-1018.956 -286.2819,-1017.405 -282.0543,-1050.669 -290.319,-1051.719 " />
  <polygon id="20336061652" title="" points="-320.754,-897.015 -324.882,-897.54 -326.931,-881.427 -314.133,-879.801 -312.087,-895.914 -320.754,-897.015 " />
  <polygon id="20336061686" title="" points="-481.461,-917.439 -485.592,-917.964 -487.638,-901.851 -474.84,-900.225 -472.794,-916.338 -481.461,-917.439 " />
  <polygon id="20336061718" title="" points="-440.487,-633.813 -447.498,-634.704 -450.03,-614.799 -435.306,-612.927 -428.295,-612.036 -425.763,-631.944 -440.487,-633.813 " />
  <polygon id="20336061756" title="" points="-345.249,-587.913 -341.313,-587.412 -337.086,-620.679 -362.898,-623.958 -375.189,-625.521 -378.216,-601.713 -360.669,-599.481 -352.314,-598.419 -353.517,-588.963 -345.249,-587.913 " />
  <polygon id="20336061790" title="" points="-372.069,-398.616 -375.237,-399.018 -377.595,-380.469 -378.717,-371.637 -368.895,-370.389 -366.54,-388.938 -365.415,-397.77 -372.069,-398.616 " />
  <polygon id="20336061827" title="" points="-218.8455,-13.37967 -223.6953,-22.90278 -234.6606,-17.31495 -224.4714,2.680857 -219.6192,12.20268 -208.6614,6.61881 -218.8455,-13.37967 " />
  <polygon id="20336061862" title="" points="-96.2331,228.2304 -100.5648,219.7383 -111.5217,225.3273 -98.0937,251.6529 -87.1368,246.0639 -96.2331,228.2304 " />
  <polygon id="20336061896" title="" points="82.572,548.316 68.8221,546.567 64.0584,584.049 92.9331,587.721 106.683,589.467 111.4467,551.985 82.572,548.316 " />
  <polygon id="20336061930" title="" points="89.8179,618.642 85.1739,609.537 74.217,615.126 83.9694,634.245 88.6134,643.35 99.5703,637.761 89.8179,618.642 " />
  <polygon id="20336061983" title="" points="228.6735,547.473 238.2735,548.694 240.8358,528.534 242.0559,518.934 213.2262,515.271 213.2361,516.114 213.135,516.951 212.9247,517.767 212.6091,518.547 212.1933,519.282 211.6848,519.954 209.5362,536.862 208.5129,544.911 228.6735,547.473 " />
  <polygon id="20336072790" title="" points="1953.216,50.1198 1967.775,37.9419 1976.832,-33.3315 1981.146,-67.2714 1940.217,-73.02 1920.729,-75.7575 1868.31,-82.419 1843.35,-85.5915 1836.687,-33.1743 1833.516,-8.21379 1842.444,-7.0791 1833.366,64.3464 1893.849,72.033 1922.649,75.6933 1953.216,50.1198 " />
  <polygon id="20336073252" title="" points="12.76743,335.25 16.30218,333.45 26.61561,353.688 31.5267,363.327 20.56902,368.91 10.25559,348.672 5.34441,339.033 12.76743,335.25 " />
  <polygon id="20336073252" title="" points="8.44671,-169.9731 4.82388,-141.4674 -15.32592,-144.0282 -10.28022,-183.7296 -7.87752,-202.6353 -121.4814,-217.0731 -175.5786,-223.9485 -182.6454,-168.3444 -214.7388,-231.1848 -230.0214,-261.1089 -63.3246,-239.9232 16.05462,-229.8348 8.44671,-169.9731 " />
  <polygon id="20336073252" title="" points="94.9263,628.656 99.5703,637.761 88.6134,643.35 74.217,615.126 85.1739,609.537 94.9263,628.656 " />
  <polygon id="20336073252" title="" points="97.6968,550.236 111.4467,551.985 106.683,589.467 77.8083,585.798 64.0584,584.049 68.8221,546.567 97.6968,550.236 " />
  <polygon id="20336073252" title="" points="-349.377,-622.239 -337.086,-620.679 -341.313,-587.412 -353.517,-588.963 -352.314,-598.419 -369.861,-600.651 -378.216,-601.713 -375.189,-625.521 -349.377,-622.239 " />
  <polygon id="20336073252" title="" points="-432.774,-632.835 -425.763,-631.944 -428.295,-612.036 -450.03,-614.799 -448.314,-628.284 -447.498,-634.704 -432.774,-632.835 " />
  <polygon id="20336073252" title="" points="-368.583,-398.172 -365.415,-397.77 -368.895,-370.389 -378.717,-371.637 -375.237,-399.018 -368.583,-398.172 " />
  <polygon id="20336073252" title="" points="-213.5109,-2.904279 -208.6614,6.61881 -219.6192,12.20268 -229.8087,-7.79313 -234.6606,-17.31495 -223.6953,-22.90278 -213.5109,-2.904279 " />
  <polygon id="20336073252" title="" points="-91.4685,237.5718 -87.1368,246.0639 -98.0937,251.6529 -107.19,233.8194 -111.5217,225.3273 -100.5648,219.7383 -91.4685,237.5718 " />
  <polygon id="20336073252" title="" points="715.767,665.52 726.573,580.482 798,589.56 789.045,635.655 784.782,657.603 786.306,658.566 780.558,703.797 777.792,725.547 777.579,725.571 707.208,732.855 715.767,665.52 " />
  <polygon id="20336073252" title="" points="266.6331,-194.9961 295.4337,-191.3358 282.5157,-89.6937 276.3645,-41.2926 187.0827,-52.6395 206.1519,-202.6827 266.6331,-194.9961 " />
  <polygon id="20336073252" title="" points="101.3583,182.3358 105.294,182.8362 101.0661,216.1005 88.866,214.5501 93.0936,181.2855 101.3583,182.3358 " />
  <polygon id="20336073252" title="" points="275.3928,-298.4862 308.514,-294.2769 305.262,-268.6827 235.707,-277.5225 202.5864,-281.7318 205.8393,-307.326 275.3928,-298.4862 " />
  <polygon id="20336073252" title="" points="26.74944,-266.3919 34.7157,-329.073 95.7252,-321.321 67.797,-101.5719 54.498,3.07026 -43.7739,-9.41922 -32.5752,-97.5348 -27.24261,-139.4946 -2.000175,-136.2864 10.02003,-134.7588 26.74944,-266.3919 " />
  <polygon id="20336073252" title="" points="575.946,761.868 586.674,763.233 585.162,775.137 551.898,770.907 553.41,759.003 575.946,761.868 " />
  <polygon id="20336073252" title="" points="364.194,737.46 374.922,738.825 373.725,748.263 340.458,744.036 341.658,734.598 364.194,737.46 " />
  <polygon id="20336073252" title="" points="674.622,839.73 682.302,840.705 679.161,865.407 655.353,862.38 658.491,837.681 674.622,839.73 " />
  <polygon id="20336073252" title="" points="-3.93594,705.213 0.782793,702.75 36.8115,773.451 53.9682,807.12 126.2754,816.309 124.2327,832.38 244.4658,847.659 246.5838,830.994 328.434,841.398 367.413,846.351 365.238,863.46 419.145,870.312 444.816,873.576 446.898,857.208 608.796,877.782 606.753,893.853 686.511,903.99 691.893,861.654 694.455,841.494 759.774,849.795 790.878,853.746 795.222,819.576 797.289,803.304 772.884,800.202 791.436,654.249 800.268,584.748 747.747,578.073 722.736,574.896 722.358,577.872 623.571,565.317 576.531,559.338 576.852,562.491 575.478,565.854 572.607,568.077 569.007,568.569 565.644,567.192 563.421,564.321 562.932,560.724 564.03,557.748 415.227,538.836 415.647,542.094 414.369,545.22 411.699,547.29 408.351,547.746 405.225,546.465 403.155,543.795 402.699,540.447 403.92,537.399 274.3572,520.935 212.6607,513.093 212.835,513.51 212.979,513.939 213.0927,514.377 213.1752,514.821 213.2262,515.271 242.0559,518.934 239.4936,539.094 238.2735,548.694 208.5129,544.911 210.6618,528.006 211.6848,519.954 209.3208,521.667 206.0379,522.114 202.971,520.86 200.9424,518.241 200.4951,514.959 201.7494,511.893 204.3687,509.862 207.6516,509.415 207.879,509.448 220.6899,408.648 226.7904,360.645 223.9158,359.469 222.0141,357.015 221.595,353.937 222.7704,351.063 225.2259,349.161 228.3033,348.741 240.9096,249.5523 246.9123,202.3194 245.49,202.3167 242.7465,201.1947 240.9312,198.8511 240.5313,195.9138 241.6533,193.17 243.9969,191.355 246.9342,190.9548 248.3118,191.3079 261.9171,84.2562 268.3959,33.279 274.3482,34.0356 282.3666,-29.05692 277.9026,-29.62428 280.0962,-46.8855 540.948,-13.73346 579.381,-316.14 597.684,-460.143 531.858,-468.507 500.514,-472.491 500.676,-472.371 502.692,-469.773 503.136,-466.512 501.891,-463.47 499.29,-461.454 496.032,-461.01 492.987,-462.255 490.974,-464.856 490.53,-468.114 491.775,-471.159 494.373,-473.172 494.562,-473.247 336.504,-493.335 261.2388,-502.902 263.1591,-500.265 263.6544,-496.629 262.2657,-493.233 259.3653,-490.989 255.7305,-490.494 252.3351,-491.883 250.089,-494.781 249.5937,-498.417 250.9824,-501.813 253.5012,-503.886 169.6338,-514.545 129.6969,-519.621 131.3721,-517.2 131.8698,-513.546 130.4745,-510.135 127.56,-507.879 123.9078,-507.381 120.4959,-508.776 118.239,-511.689 117.7413,-515.343 119.1366,-518.754 121.3641,-520.68 26.61009,-532.722 -18.51084,-538.455 -19.79682,-528.336 -32.2962,-529.926 -31.0104,-540.045 -138.5775,-553.716 -189.7998,-560.226 -206.9361,-562.404 -215.0964,-563.439 -187.599,-779.799 -482.031,-817.218 -622.236,-835.038 -642.384,-676.497 -651.981,-600.999 -675.894,-588.819 -626.082,-491.031 -602.361,-444.468 -587.64,-451.971 -550.269,-378.636 -532.476,-343.716 -542.436,-338.64 -547.179,-336.222 -522.267,-287.3334 -510.402,-264.0528 -495.699,-271.5459 -385.359,-55.02 -400.074,-47.5368 -337.794,74.6829 -308.136,132.8826 -293.4285,125.3886 -238.2594,233.6625 -252.9624,241.1403 -203.1381,338.916 -179.4123,385.476 -164.7036,377.988 -102.4236,500.208 -72.7665,558.405 -89.4849,566.796 -38.2452,664.065 -13.8453,710.382 -3.93594,705.213 " />
  <polygon id="20336073700" title="" points="799.665,612.144 802.533,589.572 873.588,598.602 866.739,652.506 867.042,652.899 860.307,705.885 857.1,731.118 785.697,722.043 791.079,679.707 793.641,659.547 799.665,612.144 " />
  <polygon id="20336073700" title="" points="2120.568,-60.1203 2127.252,-52.131 2117.886,-44.1555 2103.657,-60.8649 2096.88,-68.8218 2106.534,-76.8978 2120.568,-60.1203 " />
  <polygon id="20336073700" title="" points="1008.855,764.433 1012.791,764.934 1008.564,798.195 996.363,796.644 999.228,774.114 1000.59,763.383 1008.855,764.433 " />
  <polygon id="20336073700" title="" points="1840.179,-60.6309 1843.35,-85.5915 1917.753,-76.1355 1920.729,-75.7575 1961.655,-70.0089 1981.146,-67.2714 1972.086,4.00215 1967.775,37.9419 1937.205,63.5154 1922.649,75.6933 1833.366,64.3464 1842.444,-7.0791 1833.516,-8.21379 1840.179,-60.6309 " />
  <polygon id="20336073700" title="" points="1970.79,54.5964 1970.061,60.3396 1952.916,74.6838 1944.75,81.5142 1928.241,79.416 1958.103,54.4323 1972.323,42.5352 1970.79,54.5964 " />
  <polygon id="20336073700" title="" points="924.336,-111.3573 953.136,-107.697 934.074,42.2967 844.791,30.9495 863.856,-119.0439 924.336,-111.3573 " />
  <polygon id="20336073700" title="" points="1162.806,-185.7039 1197.462,-181.2993 1176.438,-15.85338 1144.785,-19.87608 1129.713,-21.79164 1109.511,137.1534 1068.384,131.9262 1048.8,129.4374 1090.026,-194.9535 1162.806,-185.7039 " />
  <polygon id="20336073700" title="" points="946.494,-213.1845 979.614,-208.9752 976.362,-183.3918 873.687,-196.4406 876.939,-222.0243 946.494,-213.1845 " />
  <polygon id="20336073700" title="" points="1789.314,-563.709 1798.722,-562.512 1795.803,-539.529 1794.411,-528.585 1765.245,-532.293 1768.167,-555.276 1769.559,-566.22 1789.314,-563.709 " />
  <polygon id="20336073700" title="" points="1771.566,-527.859 1775.505,-527.358 1771.05,-492.309 1758.837,-493.863 1763.292,-528.912 1771.566,-527.859 " />
  <polygon id="20336073700" title="" points="1730.199,-322.005 1736.583,-321.195 1734.195,-302.403 1714.404,-304.917 1716.792,-323.709 1730.199,-322.005 " />
  <polygon id="20336073700" title="" points="1650.816,-329.346 1657.2,-328.533 1655.583,-315.804 1654.812,-309.741 1641.405,-311.445 1635.021,-312.258 1636.638,-324.987 1637.409,-331.047 1650.816,-329.346 " />
  <polygon id="20336073700" title="" points="1591.278,-133.3737 1601.646,-132.0558 1600.284,-121.3422 1578.513,-124.1094 1568.145,-125.427 1569.504,-136.1409 1591.278,-133.3737 " />
  <polygon id="20336073700" title="" points="1630.584,249.3357 1632.837,252.243 1608.39,273.5508 1601.043,264.0636 1617.852,249.9504 1625.856,243.2301 1630.584,249.3357 " />
  <polygon id="20336073700" title="" points="1352.952,481.689 1355.499,484.731 1341.159,496.728 1334.328,502.44 1326.417,493.026 1347.606,475.299 1352.952,481.689 " />
  <polygon id="20336073700" title="" points="1100.001,523.806 1106.865,524.676 1092.189,640.149 1136.193,645.741 1157.148,648.405 1137.93,664.101 1128.777,671.577 1067.583,663.633 1079.778,567.669 1085.586,521.973 1100.001,523.806 " />
  <polygon id="20336073700" title="" points="912.372,700.293 916.308,700.791 912.081,734.058 899.88,732.507 904.107,699.243 912.372,700.293 " />
  <polygon id="20336073700" title="" points="1169.967,308.697 1170.528,304.281 1178.862,305.34 1197.546,158.3214 1189.212,157.2621 1190.877,144.1677 1199.208,145.2267 1212.042,44.2455 1218.156,-3.84066 1218.231,-4.43589 1274.925,2.769426 1274.4,6.90252 1300.608,10.23339 1313.088,11.81952 1313.655,7.35543 1367.82,14.23923 1368.879,5.90628 1382.568,7.64613 1381.509,15.97911 1481.607,28.70049 1529.271,34.7583 1530.255,27.02052 1543.35,28.68474 1542.366,36.4224 1576.437,40.7526 1592.661,42.8145 1559.415,304.392 1505.115,349.821 1509.891,355.989 1499.304,364.845 1494.528,358.677 1440.156,404.163 1428.582,402.693 1318.494,388.503 1266.075,381.744 1266.642,377.28 1240.431,373.95 1227.951,372.363 1227.384,376.827 1170.69,369.621 1177.122,319.029 1168.788,317.97 1169.967,308.697 " />
  <polygon id="20336073700" title="" points="942.99,920.061 943.725,920.349 970.581,896.373 981.906,909.912 1064.97,840.42 1104.525,807.327 1094.421,794.28 1221.3,688.134 1281.72,637.587 1292.25,650.184 1477.707,495.03 1466.928,482.142 1530.513,428.946 1560.795,403.614 1572.207,416.088 1663.326,339.861 1664.274,339.126 1656.843,330.24 1653.303,326.01 1778.13,221.5794 1789.059,234.6411 1943.892,105.1101 1933.605,91.8279 1996.191,39.4686 2007.084,52.2585 2129.4,-51.9183 2119.848,-64.2519 2213.949,-142.977 2224.236,-129.6945 2313.513,-204.3849 2275.398,-249.9441 2011.869,-283.4361 1886.382,-299.3847 1908.159,-470.748 1918.53,-552.351 1503.105,-605.148 1481.07,-431.766 1470.579,-349.206 1440.741,-352.998 1426.533,-354.804 1428.321,-352.305 1428.804,-348.759 1427.448,-345.447 1424.619,-343.254 1421.073,-342.771 1417.758,-344.127 1415.568,-346.956 1415.085,-350.502 1416.438,-353.814 1418.796,-355.788 1316.469,-368.79 1267.743,-374.985 1266.534,-365.46 1252.842,-367.2 1254.054,-376.725 1158.897,-388.818 1113.582,-394.575 1115.784,-391.71 1116.279,-388.071 1114.887,-384.672 1111.986,-382.425 1108.347,-381.93 1104.948,-383.319 1102.698,-386.223 1102.203,-389.862 1103.595,-393.261 1106.439,-395.484 1020.96,-406.347 980.256,-411.522 982.281,-408.828 982.761,-405.306 981.414,-402.012 978.603,-399.837 975.081,-399.357 971.79,-400.701 969.612,-403.515 969.132,-407.037 970.479,-410.328 973.113,-412.428 742.17,-441.78 744.303,-438.996 744.786,-435.447 743.43,-432.132 740.598,-429.942 737.052,-429.456 733.737,-430.812 731.544,-433.644 731.061,-437.193 732.417,-440.505 735.177,-442.668 623.871,-456.813 624.237,-456.069 624.732,-452.424 623.34,-449.019 620.433,-446.766 616.785,-446.271 613.38,-447.663 611.127,-450.573 610.632,-454.218 612.024,-457.623 612.564,-458.253 597.981,-460.104 541.245,-13.69563 743.355,11.99052 839.595,24.22203 837.516,40.5903 836.028,40.4013 827.895,104.3865 832.656,104.9916 819.129,211.4385 812.688,262.1277 811.482,269.2323 771.918,580.527 791.574,583.026 800.934,584.217 782.385,730.179 773.55,799.683 799.146,802.935 794.649,838.317 792.507,855.165 726.384,846.759 694.899,842.76 687.087,904.215 926.958,934.701 929.094,917.886 941.445,919.455 942.99,920.061 " />
  <polygon id="20336074099" title="" points="1942.656,-1044.057 1956.951,-1057.758 1968.066,-1046.811 1923.237,-1003.845 1912.446,-1015.104 1942.656,-1044.057 " />
  <polygon id="20336074099" title="" points="1752.684,-992.874 1740.504,-994.422 1744.389,-1024.995 1778.265,-989.622 1752.684,-992.874 " />
  <polygon id="20336074099" title="" points="1950.969,-783.504 1961.961,-782.109 1960.41,-769.905 1937.328,-772.839 1926.336,-774.237 1927.884,-786.438 1950.969,-783.504 " />
  <polygon id="20336074099" title="" points="1792.71,-758.127 1803.174,-756.795 1801.749,-745.581 1779.774,-748.374 1769.31,-749.703 1770.735,-760.92 1792.71,-758.127 " />
  <polygon id="20336074099" title="" points="1714.716,-768.039 1725.18,-766.707 1723.629,-754.506 1701.654,-757.299 1691.19,-758.628 1692.741,-770.832 1714.716,-768.039 " />
  <polygon id="20336074099" title="" points="1698.927,-753.411 1702.863,-752.913 1698.666,-719.877 1686.462,-721.428 1690.662,-754.461 1698.927,-753.411 " />
  <polygon id="20336074099" title="" points="1503.177,-1037.262 1513.833,-1035.906 1512.282,-1023.705 1489.905,-1026.549 1479.249,-1027.902 1480.8,-1040.106 1503.177,-1037.262 " />
  <polygon id="20336074099" title="" points="1457.772,-1245.759 1468.503,-1244.394 1466.952,-1232.193 1444.416,-1235.058 1433.685,-1236.42 1435.236,-1248.621 1457.772,-1245.759 " />
  <polygon id="20336074099" title="" points="1425.855,-1287.447 1432.965,-1280.022 1421.04,-1186.191 1420.971,-1185.633 1402.827,-1187.94 1394.187,-1189.038 1404.024,-1266.453 1408.71,-1303.32 1410.924,-1303.038 1425.855,-1287.447 " />
  <polygon id="20336074099" title="" points="1283.106,-1386.114 1302.789,-1383.615 1286.775,-1257.612 1279.149,-1197.609 1340.781,-1189.776 1328.868,-1096.032 1323.195,-1051.389 1200.552,-1066.977 1228.479,-1286.727 1241.778,-1391.367 1283.106,-1386.114 " />
  <polygon id="20336074099" title="" points="1280.706,-1491.102 1288.236,-1483.338 1279.416,-1474.782 1263.6,-1491.087 1256.07,-1498.851 1264.89,-1507.407 1280.706,-1491.102 " />
  <polygon id="20336074099" title="" points="1169.202,-1421.157 1179.933,-1419.792 1178.382,-1407.591 1155.849,-1410.453 1145.118,-1411.818 1146.669,-1424.019 1169.202,-1421.157 " />
  <polygon id="20336074099" title="" points="1364.172,-1189.224 1372.332,-1188.186 1368.552,-1158.426 1343.253,-1161.642 1347.036,-1191.402 1364.172,-1189.224 " />
  <polygon id="20336074099" title="" points="1060.569,-1110.774 1093.689,-1106.565 1091.487,-1089.228 1090.437,-1080.972 1020.882,-1089.81 987.762,-1094.022 989.967,-1111.359 991.017,-1119.615 1060.569,-1110.774 " />
  <polygon id="20336074099" title="" points="1080.399,-1339.329 1109.199,-1335.669 1096.281,-1234.029 1090.128,-1185.627 1000.848,-1196.973 1013.766,-1298.616 1019.916,-1347.018 1080.399,-1339.329 " />
  <polygon id="20336074099" title="" points="958.347,-1826.685 964.68,-1820.154 956.499,-1812.216 926.931,-1842.699 945.045,-1840.395 958.347,-1826.685 " />
  <polygon id="20336074099" title="" points="837.867,-2058.582 854.658,-2056.449 841.746,-1954.839 835.596,-1906.455 800.331,-1910.937 783.54,-1913.07 796.452,-2014.68 802.602,-2063.064 837.867,-2058.582 " />
  <polygon id="20336074099" title="" points="792.993,-920.835 792.843,-921.939 794.148,-925.134 796.878,-927.249 800.301,-927.714 803.496,-926.406 805.608,-923.679 806.076,-920.256 804.768,-917.061 802.062,-914.958 1033.047,-885.6 1031.655,-887.736 1031.16,-891.375 1032.549,-894.774 1035.453,-897.024 1039.095,-897.519 1042.494,-896.13 1044.744,-893.226 1045.239,-889.587 1043.85,-886.185 1042.032,-884.508 1155.228,-870.12 1167.132,-868.608 1165.062,-871.347 1164.576,-874.902 1165.935,-878.22 1168.77,-880.416 1172.325,-880.902 1175.643,-879.543 1177.839,-876.708 1178.325,-873.153 1176.966,-869.835 1174.275,-867.699 1314.192,-849.918 1315.473,-860.004 1329.165,-858.264 1327.881,-848.178 1479.528,-828.906 1477.758,-831.339 1477.299,-834.693 1478.58,-837.825 1481.259,-839.898 1484.613,-840.357 1487.748,-839.076 1489.821,-836.397 1490.277,-833.043 1488.996,-829.911 1486.671,-827.997 1530.717,-822.399 1503.258,-606.336 1918.683,-553.539 1937.028,-697.89 1945.764,-766.626 2086.713,-748.713 2153.835,-740.181 2234.79,-655.713 2325.756,-742.899 2304.672,-764.916 2294.634,-775.401 2285.223,-768.111 2276.991,-776.709 2286.522,-785.838 2247.084,-826.986 2246.952,-826.863 2245.707,-828.162 2214.297,-798.084 2199.339,-783.759 2122.029,-864.486 2085.216,-902.928 2097.783,-914.961 2001.474,-1015.761 1955.61,-1063.761 1943.031,-1051.74 1792.986,-1208.421 1721.535,-1283.031 1733.343,-1294.341 1677.261,-1352.904 1650.555,-1380.792 1638.855,-1369.587 1553.772,-1458.414 1565.472,-1469.619 1426.437,-1614.774 1414.728,-1603.578 1319.145,-1703.385 1273.629,-1750.911 1285.329,-1762.116 1172.037,-1880.418 1118.088,-1936.752 1105.521,-1924.716 936.204,-2101.518 945.009,-2109.951 949.203,-2113.968 864.585,-2202.327 824.289,-2244.402 765.567,-2195.841 775.89,-2183.358 736.422,-2150.721 717.63,-2135.181 720.21,-2132.061 777.969,-2124.72 805.473,-2121.222 782.823,-1943.004 772.038,-1858.14 812.214,-1852.992 831.345,-1850.541 808.149,-1668.021 812.169,-1667.526 812.097,-1667.694 811.605,-1671.303 812.982,-1674.672 815.862,-1676.904 819.471,-1677.396 822.843,-1676.016 825.072,-1673.136 825.564,-1669.527 824.184,-1666.158 824.073,-1666.017 1040.136,-1638.558 1039.302,-1639.995 1038.849,-1643.316 1040.118,-1646.418 1042.767,-1648.47 1046.088,-1648.923 1049.193,-1647.654 1051.245,-1645.005 1051.698,-1641.684 1050.429,-1638.579 1049.259,-1637.397 1021.548,-1419.357 1017.087,-1419.924 1003.764,-1315.095 997.419,-1265.178 811.416,-1288.818 811.749,-1285.716 810.432,-1282.497 807.681,-1280.364 804.234,-1279.896 801.012,-1281.213 798.882,-1283.964 798.411,-1287.411 799.512,-1290.33 746.982,-1297.005 700.083,-927.975 764.595,-919.776 795.318,-915.87 793.308,-918.519 792.993,-920.835 " />
  <polygon id="20336074426" title="" points="-1.557861,-1338.813 15.83052,-1353.192 13.67397,-1336.224 12.64704,-1328.142 65.9184,-1321.374 62.6703,-1295.814 37.0665,-1299.069 24.87423,-1300.617 22.5042,-1281.969 21.3756,-1273.089 -1.386243,-1275.981 -12.22521,-1277.358 -29.73534,-1298.535 -38.0736,-1308.618 -1.557861,-1338.813 " />
  <polygon id="20336074426" title="" points="-285.99,-1051.17 -282.0543,-1050.669 -284.9181,-1028.136 -286.2819,-1017.405 -298.4823,-1018.956 -294.2547,-1052.22 -285.99,-1051.17 " />
  <polygon id="20336074426" title="" points="-316.215,-896.439 -312.087,-895.914 -314.133,-879.801 -326.931,-881.427 -324.882,-897.54 -316.215,-896.439 " />
  <polygon id="20336074426" title="" points="-476.922,-916.863 -472.794,-916.338 -474.84,-900.225 -487.638,-901.851 -485.592,-917.964 -476.922,-916.863 " />
  <polygon id="20336074426" title="" points="777.114,-2060.256 794.394,-2058.06 776.088,-1914.018 722.517,-1920.825 740.823,-2064.867 777.114,-2060.256 " />
  <polygon id="20336074426" title="" points="659.109,-1867.797 666.117,-1866.906 664.107,-1851.093 642.381,-1853.853 644.391,-1869.669 659.109,-1867.797 " />
  <polygon id="20336074426" title="" points="686.577,-1864.911 694.584,-1863.894 690.864,-1834.629 674.049,-1836.765 666.042,-1837.782 669.762,-1867.047 686.577,-1864.911 " />
  <polygon id="20336074426" title="" points="487.377,-1828.893 489.909,-1825.833 464.058,-1804.476 456.219,-1813.953 473.724,-1828.431 482.058,-1835.322 487.377,-1828.893 " />
  <polygon id="20336074426" title="" points="224.172,-1602.564 215.847,-1595.682 207.9603,-1605.141 225.4749,-1619.613 233.8155,-1626.501 241.6542,-1617.024 224.172,-1602.564 " />
  <polygon id="20336074426" title="" points="422.691,-1422.918 451.491,-1419.258 438.573,-1317.615 432.423,-1269.216 343.14,-1280.562 356.058,-1382.205 362.211,-1430.607 422.691,-1422.918 " />
  <polygon id="20336074426" title="" points="389.466,-1196.067 422.589,-1191.858 419.334,-1166.262 316.662,-1179.312 319.914,-1204.905 389.466,-1196.067 " />
  <polygon id="20336074426" title="" points="157.0926,-1354.818 164.9484,-1353.819 176.5014,-1444.725 182.0031,-1488.015 209.0154,-1510.35 221.8785,-1520.988 239.2164,-1518.786 247.4727,-1517.736 219.5958,-1298.391 206.3211,-1193.94 121.2567,-1204.752 134.3571,-1307.829 140.5956,-1356.915 157.0926,-1354.818 " />
  <polygon id="20336074426" title="" points="-44.9052,-1406.364 -53.2299,-1399.479 -61.0653,-1408.953 -35.2581,-1430.298 -27.42339,-1420.824 -44.9052,-1406.364 " />
  <polygon id="20336074426" title="" points="-288.9957,-1209.645 -286.5654,-1206.507 -303.792,-1192.26 -311.994,-1185.474 -319.53,-1195.203 -302.304,-1209.45 -294.0999,-1216.236 -288.9957,-1209.645 " />
  <polygon id="20336074426" title="" points="704.775,-2139.726 701.694,-2143.455 578.235,-2041.368 588.522,-2028.084 461.037,-1922.664 400.332,-1872.465 389.625,-1885.41 284.9259,-1798.836 235.0695,-1757.61 245.4681,-1744.182 138.9636,-1656.126 88.2471,-1614.192 77.4453,-1627.254 -15.03156,-1550.784 -4.33122,-1537.842 -89.8431,-1467.132 -130.563,-1433.46 -140.8497,-1446.741 -225.1086,-1377.066 -265.2318,-1343.886 -254.5257,-1330.941 -348.558,-1253.181 -359.265,-1266.129 -482.547,-1164.168 -472.026,-1151.448 -555.288,-1082.616 -594.936,-1049.838 -622.197,-835.335 -187.5612,-780.096 -155.6007,-1031.574 -154.9575,-1036.632 -138.1125,-1034.493 -130.0908,-1033.473 -132.0171,-1036.116 -132.513,-1039.755 -131.1228,-1043.154 -128.2191,-1045.404 -124.5801,-1045.899 -121.1811,-1044.51 -118.9323,-1041.606 -118.4367,-1037.967 -119.8269,-1034.568 -122.3532,-1032.489 28.83084,-1013.277 30.0411,-1022.799 43.731,-1021.059 42.5208,-1011.537 181.8003,-993.834 179.7948,-996.507 179.3166,-1000.017 180.6576,-1003.296 183.4584,-1005.465 186.9681,-1005.942 190.2471,-1004.601 192.4161,-1001.802 192.894,-998.292 191.5533,-995.013 188.943,-992.928 313.938,-977.04 312.054,-979.617 311.574,-983.148 312.924,-986.445 315.741,-988.629 319.272,-989.109 322.569,-987.759 324.75,-984.942 325.233,-981.411 323.883,-978.114 321.417,-976.092 554.145,-946.512 552.147,-949.176 551.67,-952.68 553.008,-955.953 555.804,-958.119 559.308,-958.596 562.581,-957.255 564.747,-954.462 565.224,-950.958 563.886,-947.685 561.3,-945.612 654.507,-933.765 698.892,-928.125 745.794,-1297.158 681.381,-1305.342 650.709,-1309.242 651.126,-1305.876 649.788,-1302.6 646.986,-1300.431 643.479,-1299.954 640.203,-1301.295 638.034,-1304.094 637.557,-1307.601 638.802,-1310.754 452.799,-1334.394 472.845,-1492.116 468.381,-1492.683 481.68,-1597.317 488.01,-1647.141 487.68,-1646.994 483.789,-1646.463 480.153,-1647.951 477.747,-1651.056 477.216,-1654.947 478.704,-1658.583 481.809,-1660.989 485.703,-1661.52 489.339,-1660.032 489.621,-1659.807 493.749,-1692.279 495.714,-1707.744 585.591,-1696.32 585.114,-1699.851 586.47,-1703.166 589.299,-1705.356 592.848,-1705.842 596.163,-1704.486 598.356,-1701.654 598.839,-1698.108 597.495,-1694.808 806.961,-1668.186 822.588,-1791.15 830.028,-1849.704 790.032,-1854.786 770.985,-1857.207 804.39,-2120.058 741.297,-2128.077 711.252,-2131.896 704.775,-2139.726 " />
  <polygon id="20336074465" title="" points="50.478,-1297.362 62.6703,-1295.814 65.9184,-1321.374 12.64704,-1328.142 14.80359,-1345.113 15.83052,-1353.192 -20.68509,-1322.997 -38.0736,-1308.618 -20.56335,-1287.444 -12.22521,-1277.358 10.53663,-1274.466 21.3756,-1273.089 23.74563,-1291.737 24.87423,-1300.617 50.478,-1297.362 " />
  <polygon id="20336074994" title="" points="785.274,657.915 784.782,657.603 793.737,611.508 798,589.56 726.573,580.482 713.457,683.703 707.208,732.855 755.025,727.905 777.792,725.547 783.561,680.172 786.306,658.566 785.274,657.915 " />
  <polygon id="20336075035" title="" points="866.835,652.632 866.739,652.506 873.588,598.602 802.533,589.572 785.697,722.043 857.1,731.118 863.835,678.129 867.042,652.899 866.835,652.632 " />
  <polygon id="20336076624" title="" points="1755.318,-1013.586 1744.389,-1024.995 1740.504,-994.422 1766.085,-991.173 1778.265,-989.622 1755.318,-1013.586 " />
  <polygon id="20336076932" title="" points="8.87919,337.233 5.34441,339.033 20.56902,368.91 31.5267,363.327 16.30218,333.45 8.87919,337.233 " />
  <polygon id="20336114002" title="" points="240.102,636.627 245.019,597.939 264.3633,600.396 249.1206,720.33 229.7763,717.873 240.102,636.627 " />
  <polygon id="20336114002" title="" points="82.3578,525.015 86.2071,494.724 105.4557,497.172 119.2038,524.151 125.7504,536.997 120.8223,575.772 118.4757,594.237 88.5324,590.433 74.2737,588.621 82.3578,525.015 " />
  <polygon id="20336114002" title="" points="275.2218,-32.3277 275.3085,-33.0096 239.0199,-37.6218 221.7396,-39.8178 222.7986,-48.1509 157.3251,-56.472 157.0227,-54.0912 142.104,-55.9872 134.9997,-56.8899 142.6362,-116.9754 -171.2637,-156.8691 -177.8808,-169.8537 -380.754,-66.4731 -377.076,-59.2557 -400.062,-47.5413 -337.782,74.6781 -308.124,132.8778 -292.5561,124.944 -285.1422,121.1661 -280.6473,129.9867 -288.9336,134.2092 -242.7573,224.8284 -234.471,220.6059 -229.9761,229.4268 -252.9624,241.1403 -203.1381,338.916 -179.4123,385.476 -156.4251,373.761 -151.9302,382.581 -160.2162,386.805 -77.265,549.588 -68.9787,545.364 -64.4838,554.187 -80.0562,562.122 -87.4716,565.899 -13.91871,710.238 1.653549,702.303 9.06891,698.526 13.56378,707.346 5.2776,711.57 54.0405,807.261 96.3081,812.643 116.4354,815.208 117.6081,805.983 127.4292,807.231 124.1763,832.824 244.7067,848.142 246.1161,837.054 246.7869,831.774 357.498,845.844 358.668,836.619 368.49,837.867 366.288,855.204 365.238,863.46 419.67,870.378 445.59,873.675 447.795,856.338 448.842,848.082 458.664,849.33 457.491,858.552 598.557,876.483 599.73,867.255 609.552,868.503 607.347,885.843 606.297,894.099 774.615,915.489 854.763,925.677 860.415,881.223 863.103,860.055 791.976,851.016 808.239,723.045 785.919,720.207 785.163,726.159 779.541,725.445 725.337,731.058 699.525,733.731 695.811,762.963 694.041,776.886 680.937,775.221 674.697,774.426 685.023,693.174 689.94,654.483 715.236,657.699 722.205,602.862 725.526,576.75 576.72,557.838 575.775,565.278 563.871,563.766 564.816,556.326 416.013,537.414 415.068,544.854 403.164,543.339 404.109,535.899 318.429,525.012 277.6272,519.825 277.4382,521.313 262.3179,519.39 255.1179,518.475 254.3613,524.43 242.457,522.915 243.2136,516.963 208.9887,512.613 222.3123,407.781 228.6567,357.858 215.2644,356.157 216.021,350.205 229.4133,351.906 249.0813,197.1516 235.689,195.4497 236.4453,189.4974 249.8376,191.1996 278.016,-30.5172 275.04,-30.8952 275.2218,-32.3277 " />
  <polygon id="20336114340" title="" points="265.7766,-274.8231 266.9223,-283.8372 288.3213,-281.1174 298.5111,-279.8226 296.1054,-260.8929 294.9597,-251.8785 273.5607,-254.5983 263.3709,-255.8934 265.7766,-274.8231 " />
  <polygon id="20336114340" title="" points="-377.082,-608.247 -376.596,-612.09 -399.795,-615.039 -410.841,-616.443 -412.356,-604.527 -438.342,-607.83 -450.714,-609.402 -447.498,-634.71 -380.364,-626.178 -348.396,-622.116 -351.612,-596.808 -378.108,-600.177 -377.082,-608.247 " />
  <polygon id="20336114340" title="" points="62.1522,-267.7518 64.1775,-283.6881 78.0174,-281.9292 73.764,-248.463 71.7387,-232.5267 57.8988,-234.2856 62.1522,-267.7518 " />
  <polygon id="20336114340" title="" points="-165.6618,-296.7048 -163.6362,-312.642 -149.7966,-310.881 -156.0753,-261.4797 -169.9149,-263.2386 -165.6618,-296.7048 " />
  <polygon id="20336114340" title="" points="-56.1594,-325.485 -53.9634,-342.765 -21.52674,-338.643 -26.13882,-302.352 -28.33503,-285.072 -24.77259,-284.6193 -42.852,-142.3638 -69.6576,-145.7703 -82.4223,-147.3927 -70.1751,-243.7596 -64.3428,-289.6485 -60.7716,-289.1946 -56.1594,-325.485 " />
  <polygon id="20336114340" title="" points="-622.446,-797.7 -624.681,-780.117 -622.863,-780.072 -621.144,-779.484 -619.68,-778.407 -618.606,-776.943 -618.018,-775.224 -617.973,-773.409 -618.471,-771.663 -619.47,-770.145 -620.877,-768.996 -622.563,-768.321 -624.375,-768.183 -626.145,-768.591 -638.988,-667.533 -645.105,-619.41 -643.287,-619.362 -641.571,-618.774 -640.107,-617.7 -639.03,-616.236 -638.442,-614.517 -638.397,-612.702 -638.895,-610.956 -639.894,-609.438 -641.301,-608.289 -642.987,-607.614 -644.799,-607.476 -646.569,-607.884 -647.13,-603.477 -675.894,-588.819 -602.34,-444.48 -579.354,-456.192 -574.86,-447.372 -583.146,-443.151 -551.865,-381.768 -536.97,-352.536 -528.684,-356.76 -524.19,-347.937 -547.179,-336.222 -510.402,-264.0528 -487.413,-275.7684 -482.919,-266.9478 -491.205,-262.7253 -422.55,-128.0061 -389.856,-63.8541 -381.57,-68.0766 -380.754,-66.4731 -177.8808,-169.8537 -171.2637,-156.8691 142.6362,-116.9754 154.6683,-211.65 169.587,-209.754 176.6913,-208.851 177.447,-214.7985 217.7598,-209.6751 236.9565,-207.2352 235.8975,-198.9024 276.2262,-193.7769 295.4304,-191.3361 283.0266,-93.7386 277.1202,-47.2638 437.082,-26.93373 438.408,-37.35 445.848,-36.4044 444.525,-25.98825 537.162,-14.2149 581.274,-8.60853 597.288,-134.6112 604.914,-194.6124 461.466,-212.8431 469.221,-273.8523 552.885,-263.2191 592.728,-258.1557 614.286,-427.791 546.951,-436.35 514.887,-440.424 517.833,-463.608 519.237,-474.648 507.033,-476.199 504.765,-458.343 501.195,-458.796 484.452,-326.958 468.423,-328.995 460.791,-329.964 479.235,-475.197 263.2923,-502.641 261.7794,-490.737 249.8751,-492.249 251.3883,-504.153 131.4828,-519.393 129.9696,-507.489 118.0656,-509.001 119.5785,-520.905 26.03406,-532.794 -18.51084,-538.455 -20.40183,-523.578 -32.8989,-525.165 -31.0077,-540.045 -155.7129,-555.894 -215.0964,-563.439 -187.5801,-779.949 -617.754,-834.618 -622.446,-797.7 " />
  <polygon id="20336114481" title="" points="1846.023,39.8142 1861.422,27.88905 1864.935,0.2307069 1890.687,33.4821 1849.209,68.1822 1829.46,84.7059 1812.753,64.7388 1813.686,64.8573 1846.023,39.8142 " />
  <polygon id="20336114481" title="" points="856.617,794.505 857.409,788.265 886.641,791.979 900.564,793.749 898.896,806.853 898.104,813.093 854.952,807.609 856.617,794.505 " />
  <polygon id="20336114481" title="" points="1038.009,648.162 1038.498,644.322 1091.949,651.117 1090.434,663.021 1036.986,656.226 1038.009,648.162 " />
  <polygon id="20336114481" title="" points="1984.281,-76.131 1983.795,-72.291 1930.509,-79.0629 1932.021,-90.9672 1985.307,-84.1953 1984.281,-76.131 " />
  <polygon id="20336114481" title="" points="929.121,923.859 929.793,918.579 943.725,920.349 962.094,904.983 970.842,897.666 981.423,910.314 1065.594,839.898 1105.677,806.367 1094.466,792.966 1089.126,786.582 1096.719,780.231 1102.686,787.362 1218.654,690.345 1273.878,644.148 1267.911,637.014 1275.504,630.663 1286.682,644.022 1292.007,650.385 1478.436,494.529 1467.225,481.122 1461.888,474.735 1469.481,468.384 1475.448,475.521 1553.451,410.265 1547.481,403.128 1555.074,396.777 1571.634,416.571 1664.823,338.61 1653.603,325.2 1648.263,318.816 1655.856,312.462 1661.823,319.596 1770.888,228.3516 1764.921,221.2185 1772.514,214.8663 1789.074,234.6606 1943.241,105.6876 1932.021,92.2782 1926.681,85.893 1934.274,79.5405 1940.241,86.6736 2081.52,-31.5198 2075.553,-38.6529 2083.146,-45.0051 2099.7,-25.21755 2255.478,-155.5389 2221.35,-196.3314 1892.208,-238.1622 1884.42,-176.874 1880.712,-147.6891 1804.524,-157.3716 1796.166,-91.6002 1797.945,-91.3743 1779.033,57.429 1708.188,48.4251 1674.45,44.1375 1643.145,3.71583 1592.661,42.8145 1560.441,296.3205 1497.513,345.924 1503.024,353.04 1493.535,360.387 1488.024,353.271 1425.156,401.961 1252.776,380.055 1170.69,369.621 1177.233,318.135 1169.793,317.19 1171.308,305.286 1178.748,306.231 1197.66,157.4286 1190.22,156.483 1191.732,144.5787 1199.172,145.5243 1211.958,44.9238 1218.045,-2.981238 1051.515,-24.14565 972.216,-34.224 965.121,21.59931 961.743,48.1818 939.726,45.3837 940.029,43.0029 886.461,36.1947 885.402,44.5278 852.135,40.2999 836.295,38.2869 832.785,65.9067 831.114,79.059 835.578,79.6263 819.819,203.634 812.313,262.6851 825.705,264.3873 824.949,270.3393 811.557,268.6374 798.234,373.47 791.889,423.393 805.281,425.094 804.525,431.046 791.133,429.345 771.465,584.1 924.732,603.579 913.356,693.09 907.938,735.717 808.239,723.045 791.976,851.016 863.103,860.055 857.454,904.509 854.763,925.677 904.182,931.956 927.714,934.947 929.121,923.859 " />
  <polygon id="20336114581" title="" points="1214.184,-181.5933 1227.528,-179.8974 1224.087,-152.8152 1212.189,-154.3272 1206.525,-155.0472 1187.916,-8.62482 1171.788,-10.6746 1164.108,-11.65068 1179.045,-129.186 1186.158,-185.1552 1214.184,-181.5933 " />
  <polygon id="20336114581" title="" points="1217.244,-15.48201 1221.084,-14.99397 1219.761,-4.57776 1368.564,14.33379 1369.509,6.89364 1381.413,8.40657 1380.468,15.84672 1529.271,34.7583 1530.216,27.31812 1542.12,28.83105 1541.175,36.2712 1592.661,42.8145 1643.145,3.71583 1637.934,-3.01308 1651.527,-109.9824 1796.166,-91.6002 1804.524,-157.3716 1880.712,-147.6891 1888.5,-208.9773 1892.208,-238.1622 1878.816,-239.8644 1918.626,-553.095 1503.201,-605.892 1470.579,-349.206 1332.771,-366.72 1267.149,-375.06 1265.256,-360.18 1252.761,-361.77 1254.651,-376.647 1116.558,-394.197 1115.046,-382.293 1103.142,-383.808 1104.654,-395.712 983.04,-411.168 981.525,-399.264 969.621,-400.776 971.133,-412.68 757.2,-439.869 744.696,-341.487 738.741,-294.6387 722.505,-296.7036 714.771,-297.6867 733.242,-442.914 718.956,-444.729 715.176,-414.969 646.83,-423.654 614.286,-427.791 600.066,-315.9 592.911,-259.5957 592.728,-258.1557 716.235,-242.4591 708.291,-179.9619 704.508,-150.2013 650.076,-157.1193 624.156,-160.4136 628.125,-191.6622 612.402,-193.6608 604.914,-194.6124 588.9,-68.6097 581.274,-8.60853 646.896,-0.2685363 678.144,3.7029 679.467,-6.71322 686.907,-5.76765 685.584,4.64847 793.947,18.42036 845.547,24.97839 863.859,-119.094 896.115,-114.9945 911.475,-113.0424 912.534,-121.3752 944.79,-117.2757 960.15,-115.3236 959.394,-109.3716 974.31,-107.4759 981.411,-106.5735 975.183,-57.5625 972.216,-34.224 1207.629,-4.30506 1209.18,-16.5069 1217.244,-15.48201 " />
  <polygon id="20336114868" title="" points="-375.756,-899.397 -377.133,-888.564 -414.63,-893.328 -410.361,-926.913 -372.864,-922.149 -375.756,-899.397 " />
  <polygon id="20336114868" title="" points="-473.37,-911.802 -474.747,-900.969 -491.277,-903.069 -499.149,-904.071 -496.26,-926.823 -494.883,-937.656 -470.478,-934.554 -473.37,-911.802 " />
  <polygon id="20336114868" title="" points="-314.745,-891.642 -316.122,-880.809 -336.486,-883.398 -346.182,-884.628 -341.913,-918.213 -311.853,-914.394 -314.745,-891.642 " />
  <polygon id="20336114868" title="" points="-130.2564,-1041.69 -129.7683,-1045.53 -117.864,-1044.015 -119.3769,-1032.111 -18.57324,-1019.301 29.42856,-1013.199 30.3741,-1020.639 42.8712,-1019.052 41.9256,-1011.612 135.2682,-999.747 179.7171,-994.098 180.6627,-1001.538 192.567,-1000.026 191.6214,-992.586 326.697,-975.42 391.017,-967.245 391.962,-974.685 403.866,-973.173 402.921,-965.733 503.925,-952.896 552.021,-946.782 564.522,-1045.137 570.474,-1091.973 597.258,-1088.568 587.193,-1009.368 582.399,-971.652 649.737,-963.093 681.801,-959.019 703.548,-1130.142 622.452,-1140.447 630.015,-1199.97 671.244,-1194.729 690.876,-1192.236 705.06,-1303.845 668.37,-1308.51 650.898,-1310.73 649.95,-1303.29 638.046,-1304.802 638.991,-1312.242 504.927,-1329.282 441.084,-1337.394 431.358,-1260.873 389.706,-1266.168 390.768,-1274.508 337.185,-1281.318 336.882,-1278.933 314.859,-1281.732 322.35,-1340.682 267.5151,-1347.651 241.4025,-1350.969 227.3106,-1240.089 220.5999,-1187.289 -39.2661,-1220.316 -163.0116,-1236.042 -186.6189,-1264.59 -197.8602,-1278.183 -206.9925,-1270.632 -250.1787,-1322.859 -256.4208,-1317.696 -262.3476,-1324.863 -347.775,-1254.222 -358.287,-1266.939 -483.132,-1163.7 -471.996,-1150.233 -466.692,-1143.819 -474.321,-1137.51 -480.249,-1144.677 -554.505,-1083.27 -589.869,-1054.029 -599.613,-977.343 -604.254,-940.824 -602.439,-940.779 -600.72,-940.191 -599.256,-939.114 -598.182,-937.65 -597.594,-935.931 -597.549,-934.116 -598.047,-932.37 -599.046,-930.852 -600.453,-929.703 -602.139,-929.028 -603.951,-928.89 -605.721,-929.298 -617.754,-834.618 -187.5801,-779.949 -165.4809,-953.832 -154.9575,-1036.632 -138.9189,-1034.595 -131.2812,-1033.623 -130.2564,-1041.69 " />
  <polygon id="20336114980" title="" points="89.6937,-1232.955 98.0457,-1231.893 114.9906,-1365.219 131.1189,-1363.17 138.7989,-1362.195 118.4502,-1202.082 68.7498,-1208.4 72.1539,-1235.184 89.6937,-1232.955 " />
  <polygon id="20336114980" title="" points="357.063,-1437.726 357.306,-1439.646 389.556,-1435.548 404.913,-1433.595 403.854,-1425.261 451.485,-1419.21 445.527,-1372.35 442.692,-1350.036 454.596,-1348.521 465.291,-1432.68 470.385,-1472.754 465.921,-1473.321 480.909,-1591.272 488.049,-1647.438 480.609,-1648.386 482.121,-1660.29 489.561,-1659.342 493.344,-1689.105 495.144,-1703.28 487.704,-1704.225 489.219,-1716.129 501.123,-1714.617 500.178,-1707.177 673.635,-1685.13 674.58,-1692.57 684.699,-1691.286 689.052,-1725.531 615.567,-1814.808 580.572,-1857.321 610.137,-1881.789 624.216,-1893.441 632.619,-1883.277 636.621,-1878.435 715.554,-1943.694 753.141,-1974.771 817.233,-1897.236 847.755,-1860.315 891.69,-1896.633 819.069,-1984.485 784.488,-2026.32 828.471,-2068.428 849.417,-2088.477 883.005,-2047.86 938.538,-2101.038 936.462,-2103.204 948.372,-2114.607 864.081,-2202.633 823.944,-2244.549 764.736,-2195.589 781.122,-2175.774 776.499,-2171.952 770.628,-2179.05 713.406,-2131.734 702.894,-2144.448 617.928,-2074.191 577.47,-2040.735 587.985,-2028.021 466.293,-1927.395 408.345,-1879.476 414.267,-1872.312 406.641,-1866 390.195,-1885.89 284.4804,-1798.47 234.1401,-1756.842 250.5876,-1736.952 242.9577,-1730.643 237.0312,-1737.81 96.8025,-1621.869 102.7287,-1614.702 95.0988,-1608.393 78.6684,-1628.268 14.84811,-1575.492 -15.54252,-1550.361 -4.40589,-1536.894 0.89727,-1530.48 -6.73212,-1524.171 -12.65868,-1531.338 -122.2446,-1440.72 -116.3181,-1433.553 -123.9474,-1427.244 -140.3859,-1447.122 -265.2306,-1343.886 -248.7915,-1324.005 -250.1787,-1322.859 -206.9925,-1270.632 -197.8602,-1278.183 -174.2532,-1249.635 -163.0116,-1236.042 96.8544,-1203.015 220.5999,-1187.289 234.6921,-1298.169 241.4025,-1350.969 296.2389,-1344 322.35,-1340.682 334.527,-1436.493 349.446,-1434.597 356.55,-1433.694 357.063,-1437.726 " />
  <polygon id="20336115100" title="" points="1404.219,-1083.591 1406.895,-1104.642 1420.734,-1102.884 1412.442,-1037.628 1398.603,-1039.386 1404.219,-1083.591 " />
  <polygon id="20336115100" title="" points="1193.004,-1109.916 1195.65,-1130.721 1209.489,-1128.963 1203.936,-1085.268 1201.29,-1064.463 1187.451,-1066.221 1193.004,-1109.916 " />
  <polygon id="20336115100" title="" points="1774.302,-833.778 1808.766,-829.401 1804.983,-799.638 1732.611,-808.836 1698.15,-813.216 1700.712,-833.376 1701.933,-842.976 1774.302,-833.778 " />
  <polygon id="20336115100" title="" points="1734.117,-593.931 1764.042,-590.13 1762.095,-574.803 1669.326,-586.593 1671.273,-601.92 1734.117,-593.931 " />
  <polygon id="20336115100" title="" points="2173.104,-668.751 2208.921,-631.35 2270.535,-690.366 2299.872,-718.467 2245.059,-775.701 2218.959,-802.956 2201.226,-785.976 2192.784,-777.891 2188.635,-782.226 2195.352,-788.658 2089.527,-899.157 2082.81,-892.725 2078.661,-897.057 2097.297,-914.904 2003.817,-1012.515 1959.303,-1058.994 1946.664,-1046.913 1940.646,-1041.159 1938.894,-1042.989 1859.853,-966.24 1802.874,-1025.148 1775.742,-1053.198 1751.58,-1029.774 1740.072,-1018.62 1738.002,-1002.324 1737.015,-994.563 1413.999,-1035.615 1428.093,-1146.498 1434.804,-1199.298 1381.707,-1206.045 1381.935,-1207.833 1332.654,-1214.094 1320.867,-1121.358 1315.254,-1077.195 1332.795,-1074.966 1341.147,-1073.907 1337.742,-1047.12 1304.076,-1051.401 1288.041,-1053.438 1302.135,-1164.321 1308.846,-1217.121 1293.924,-1219.017 1286.82,-1219.92 1286.592,-1218.135 1177.326,-1232.022 1125.294,-1238.634 1120.218,-1198.701 1117.8,-1179.687 1095.78,-1182.489 1096.08,-1184.871 1059.792,-1189.482 1042.512,-1191.678 1041.453,-1183.344 1013.229,-1186.938 999.789,-1188.651 1009.512,-1265.151 875.445,-1282.191 811.605,-1290.306 810.657,-1282.866 798.753,-1284.378 799.701,-1291.818 735.591,-1299.966 705.06,-1303.845 690.876,-1192.236 718.554,-1188.717 721.371,-1210.893 722.715,-1221.453 772.611,-1215.111 796.371,-1212.093 788.43,-1149.594 784.647,-1119.834 729.708,-1126.818 703.548,-1130.142 681.801,-959.019 749.136,-950.46 781.2,-946.386 791.259,-1025.589 796.047,-1063.305 822.846,-1059.9 810.345,-961.545 804.393,-914.709 905.397,-901.872 953.493,-895.758 954.438,-903.198 966.342,-901.686 965.397,-894.246 1164.792,-868.905 1165.74,-876.345 1177.644,-874.833 1176.699,-867.393 1270.245,-855.504 1314.789,-849.843 1315.734,-857.283 1328.232,-855.693 1327.287,-848.253 1530.717,-822.399 1512.078,-675.732 1503.201,-605.892 1918.626,-553.095 1945.764,-766.626 2048.814,-753.528 2097.888,-747.294 2173.104,-668.751 " />
  <polygon id="20336115221" title="" points="1139.613,-1408.869 1167.645,-1405.308 1164.996,-1384.473 1153.68,-1385.913 1102.479,-1392.42 1078.095,-1395.519 1080.744,-1416.351 1139.613,-1408.869 " />
  <polygon id="20336115221" title="" points="859.782,-1666.596 860.088,-1668.996 871.992,-1667.481 871.047,-1660.041 988.749,-1645.083 1044.795,-1637.961 1045.743,-1645.401 1057.647,-1643.886 1056.132,-1631.982 1048.692,-1632.927 1044.909,-1603.164 1043.109,-1588.992 1050.549,-1588.047 1049.037,-1576.143 1041.597,-1577.088 1026.093,-1455.105 1018.71,-1397.019 1014.246,-1397.586 999.213,-1279.305 1011.135,-1277.922 1017.078,-1324.695 1019.91,-1346.967 1052.166,-1342.866 1067.526,-1340.916 1068.585,-1349.247 1100.844,-1345.149 1116.204,-1343.196 1115.448,-1337.244 1137.468,-1334.445 1125.294,-1238.634 1234.56,-1224.747 1286.592,-1218.135 1288.464,-1232.853 1289.355,-1239.861 1366.14,-1230.102 1367.313,-1239.327 1379.73,-1237.749 1385.643,-1236.999 1381.707,-1206.045 1434.804,-1199.298 1420.71,-1088.415 1413.999,-1035.615 1737.015,-994.563 1739.088,-1010.859 1740.072,-1018.62 1764.234,-1042.044 1775.742,-1053.198 1832.721,-994.29 1859.853,-966.24 1938.894,-1042.989 1936.5,-1045.497 1943.217,-1051.932 1754.376,-1249.068 1747.884,-1242.861 1743.738,-1247.199 1762.152,-1264.8 1705.95,-1323.525 1679.187,-1351.488 1660.563,-1333.65 1656.414,-1337.985 1663.131,-1344.42 1534.509,-1478.712 1473.261,-1542.66 1466.538,-1536.222 1462.395,-1540.563 1481.028,-1558.407 1387.551,-1656.015 1343.037,-1702.497 1330.398,-1690.41 1324.38,-1684.656 1320.237,-1688.997 1326.954,-1695.429 1236.846,-1789.518 1193.937,-1834.323 1187.22,-1827.912 1183.077,-1832.253 1195.734,-1844.331 1201.761,-1850.082 1145.673,-1908.648 1118.964,-1936.536 1100.298,-1918.662 1096.149,-1922.994 1102.866,-1929.426 938.538,-2101.038 883.005,-2047.86 849.417,-2088.477 805.431,-2046.372 784.488,-2026.32 857.109,-1938.468 891.69,-1896.633 847.755,-1860.315 832.863,-1878.327 825.774,-1886.904 760.131,-1832.64 782.115,-1806.045 735.87,-1767.816 720.972,-1785.828 713.877,-1794.408 709.251,-1790.583 651.645,-1860.261 624.216,-1893.441 594.651,-1868.973 580.572,-1857.321 654.057,-1768.044 689.052,-1725.531 683.754,-1683.846 802.566,-1668.744 859.143,-1661.556 859.782,-1666.596 " />
</svg>