<?xml version="1.0" encoding="utf-8"?>
<svg xmlns:xsi="http://www.w3.org/2001/XMLSchema-instance" xmlns:xsd="http://www.w3.org/2001/XMLSchema" version="1.1" id="Map" class="gen-by-synoptic-designer" xmlns:xlink="http://www.w3.org/1999/xlink" viewBox="-7346.07428420167 -12599.9790205813 23122.2960832823 24319.1997259649 " xml:space="preserve" height="100%" width="100%" xmlns="http://www.w3.org/2000/svg">
  <polygon id="20336077480" title="" points="1358.625,484.854 1334.046,505.416 1323.459,492.762 1348.038,472.2 1358.625,484.854 " />
  <polygon id="20336077480" title="" points="1011.906,767.43 982.986,791.619 972.378,778.986 1001.319,754.773 1011.906,767.43 " />
  <polygon id="20336077480" title="" points="931.44,598.383 926.682,635.814 910.398,633.744 915.153,596.313 931.44,598.383 " />
  <polygon id="20336077480" title="" points="918.657,698.973 913.899,736.404 897.531,734.325 902.289,696.894 918.657,698.973 " />
  <polygon id="20336077480" title="" points="842.871,747.993 838.332,783.705 802.62,779.166 807.159,743.454 842.871,747.993 " />
  <polygon id="20336077480" title="" points="589.023,761.412 586.98,777.483 549.549,772.728 551.592,756.657 589.023,761.412 " />
  <polygon id="20336077480" title="" points="377.388,736.098 375.543,750.612 338.112,745.854 339.957,731.34 377.388,736.098 " />
  <polygon id="20336077480" title="" points="846.075,401.55 815.25,644.1 215.424,567.867 190.4799,764.136 925.251,857.52 1387.962,470.418 846.075,401.55 " />
  <polygon id="20336077612" title="" points="22.84332,335.466 18.08622,372.897 1.7184,370.815 6.4755,333.387 22.84332,335.466 " />
  <polygon id="20336077612" title="" points="-84.312,246.9804 -99.0102,254.4777 -114.3465,224.4108 -99.6483,216.9135 -84.312,246.9804 " />
  <polygon id="20336077612" title="" points="-205.8369,7.53642 -220.5366,15.02718 -237.4866,-18.2319 -222.7857,-25.72401 -205.8369,7.53642 " />
  <polygon id="20336077612" title="" points="4.82388,-141.4674 29.51967,-335.784 102.4338,-326.517 59.6928,9.77883 -50.4825,-4.22355 -32.4381,-146.2032 4.82388,-141.4674 " />
  <polygon id="20336077612" title="" points="-363.069,-399.588 -367.077,-368.043 -381.066,-369.819 -377.055,-401.367 -363.069,-399.588 " />
  <polygon id="20336077612" title="" points="-334.74,-622.497 -339.495,-585.066 -355.863,-587.145 -354.663,-596.601 -380.565,-599.892 -377.01,-627.867 -334.74,-622.497 " />
  <polygon id="20336077612" title="" points="-423.417,-633.762 -426.474,-609.687 -452.376,-612.978 -449.319,-637.053 -423.417,-633.762 " />
  <polygon id="20336077612" title="" points="-470.445,-918.156 -472.986,-898.176 -489.948,-900.33 -487.41,-920.313 -470.445,-918.156 " />
  <polygon id="20336077612" title="" points="-309.738,-897.732 -312.279,-877.749 -329.241,-879.906 -326.703,-899.889 -309.738,-897.732 " />
  <polygon id="20336077612" title="" points="-279.7065,-1052.487 -284.4636,-1015.056 -300.831,-1017.138 -296.073,-1054.569 -279.7065,-1052.487 " />
  <polygon id="20336077612" title="" points="-290.6016,-1194.447 -280.086,-1181.733 -309.162,-1157.685 -319.68,-1170.399 -319.47,-1170.573 -290.6016,-1194.447 " />
  <polygon id="20336077612" title="" points="-30.3975,-1388.205 -59.4744,-1364.16 -70.0692,-1376.97 -40.8717,-1400.871 -30.3975,-1388.205 " />
  <polygon id="20336077612" title="" points="159.7557,-1360.527 165.957,-1409.322 238.8708,-1400.055 211.7424,-1186.599 114.4728,-1198.962 135.3999,-1363.623 159.7557,-1360.527 " />
  <polygon id="20336077612" title="" points="254.4825,-1522.893 248.8941,-1478.922 173.7789,-1488.468 220.6068,-1527.198 254.4825,-1522.893 " />
  <polygon id="20336077612" title="" points="208.7757,-1607.394 219.291,-1594.68 190.2141,-1570.632 179.6988,-1583.349 179.9067,-1583.52 208.7757,-1607.394 " />
  <polygon id="20336077612" title="" points="56.5515,580.596 102.582,218.4102 86.5173,216.3684 91.2744,178.9374 107.3391,180.9792 147.8664,-137.9034 493.089,-94.0284 529.554,-380.949 -312.54,-487.974 -230.4246,-1134.075 608.694,-1027.431 632.583,-1215.408 279.9195,-1260.228 338.103,-1718.034 -509.907,-1016.793 -559.32,-627.993 56.5515,580.596 " />
  <polygon id="20336077669" title="" points="61.737,587.385 61.3923,590.094 61.8777,591.048 198.18,608.37 281.2614,-45.3465 578.868,-7.52352 634.245,-443.247 -228.6813,-552.918 -165.4788,-1050.219 697.446,-940.548 740.25,-1277.328 444.132,-1314.963 493.302,-1701.849 344.499,-1720.761 286.6281,-1265.424 639.291,-1220.604 613.887,-1020.723 -225.2289,-1127.367 -305.829,-493.167 536.262,-386.145 498.285,-87.3198 153.0621,-131.1948 67.4085,542.76 113.6862,548.64 108.0147,593.265 61.737,587.385 " />
</svg>