<?xml version="1.0" encoding="utf-8"?>
<svg xmlns:xsi="http://www.w3.org/2001/XMLSchema-instance" xmlns:xsd="http://www.w3.org/2001/XMLSchema" version="1.1" id="Map" class="gen-by-synoptic-designer" xmlns:xlink="http://www.w3.org/1999/xlink" viewBox="-7346.07428420167 -12599.9790205813 23122.2960832823 24319.1997259649 " xml:space="preserve" height="100%" width="100%" xmlns="http://www.w3.org/2000/svg">
  <polygon id="20336032903" title="" points="1036.62,-103.1541 1091.973,-96.1194 1186.623,-84.09 1188.513,-98.9703 1192.086,-98.5164 1189.311,-76.689 1188.189,-67.863 1215.927,-64.338 1263.354,-58.3104 1267.932,-94.3419 1268.703,-100.4082 1278.066,-174.0792 1178.439,-186.741 1004.094,-208.899 1003.407,-203.4879 995.154,-138.573 991.92,-113.1105 989.493,-94.0227 1004.868,-92.0688 1031.157,-88.7277 1033.605,-107.9721 1034.94,-118.4883 1038.513,-118.0344 1036.62,-103.1541 " />
  <polygon id="20336032903" title="" points="1088.193,-170.9934 1076.286,-172.5063 1077.801,-184.4106 1089.705,-182.8977 1088.193,-170.9934 " />
  <polygon id="20336032903" title="" points="1233.747,-164.5911 1232.235,-152.6868 1226.283,-153.4431 1227.795,-165.3474 1233.747,-164.5911 " />
  <polygon id="20336032903" title="" points="1240.293,-163.7592 1238.781,-151.8549 1232.829,-152.6115 1234.341,-164.5158 1240.293,-163.7592 " />
  <polygon id="20336034689" title="" points="-103.1526,-1254.951 -104.4267,-1244.925 -93.7395,-1243.566 -87.4128,-1235.916 -76.9737,-1223.292 -74.1516,-1222.932 53.7135,-1206.681 38.8776,-1089.948 29.88609,-1019.199 -17.84433,-1025.265 -118.6194,-1038.072 -117.864,-1044.015 -129.7683,-1045.53 -130.5237,-1039.587 -226.1826,-1051.743 -279.3267,-1058.496 -278.5713,-1064.439 -290.4756,-1065.954 -291.231,-1060.011 -440.034,-1078.923 -439.278,-1084.875 -451.182,-1086.387 -451.938,-1080.435 -600.741,-1099.347 -599.985,-1105.299 -611.889,-1106.811 -612.645,-1100.859 -649.344,-1105.524 -708.063,-1112.985 -665.193,-1148.436 -638.397,-1170.594 -628.356,-1158.45 -619.107,-1166.097 -629.148,-1178.241 -557.973,-1237.095 -513.489,-1273.881 -503.442,-1261.734 -494.196,-1269.381 -504.24,-1281.528 -433.101,-1340.349 -388.641,-1377.114 -378.597,-1364.97 -369.351,-1372.617 -379.392,-1384.761 -369.048,-1393.314 -366.66,-1390.425 -346.17,-1407.366 -333.366,-1417.956 -335.757,-1420.845 -300.879,-1449.684 -279.0807,-1467.708 -278.1561,-1466.592 -214.0941,-1389.117 -103.8108,-1255.746 -103.1526,-1254.951 " />
  <polygon id="20336034689" title="" points="-263.6211,-1277.253 -265.1343,-1265.349 -253.23,-1263.837 -251.7171,-1275.741 -263.6211,-1277.253 " />
  <polygon id="20336034689" title="" points="-424.329,-1297.677 -425.841,-1285.773 -413.937,-1284.261 -412.425,-1296.165 -424.329,-1297.677 " />
  <polygon id="20336034689" title="" points="-273.4551,-1199.877 -261.5511,-1198.362 -260.0382,-1210.266 -271.9422,-1211.781 -273.4551,-1199.877 " />
  <polygon id="20336034689" title="" points="-433.383,-1220.904 -434.256,-1222.338 -434.79,-1223.931 -434.856,-1225.506 -434.895,-1226.283 -434.895,-1226.442 -434.46,-1227.873 -434.205,-1228.755 -434.115,-1228.932 -433.251,-1230.237 -433.194,-1230.324 -433.167,-1230.348 -432.045,-1231.425 -430.611,-1232.298 -429.018,-1232.832 -427.347,-1232.994 -425.682,-1232.784 -424.104,-1232.205 -422.694,-1231.293 -421.524,-1230.087 -420.651,-1228.653 -420.12,-1227.06 -420.054,-1225.485 -420.012,-1224.708 -420.015,-1224.549 -420.447,-1223.118 -420.705,-1222.236 -420.792,-1222.059 -421.656,-1220.754 -421.713,-1220.67 -421.74,-1220.643 -422.862,-1219.566 -424.296,-1218.693 -425.889,-1218.162 -427.56,-1217.997 -429.228,-1218.21 -430.803,-1218.786 -432.213,-1219.698 -433.383,-1220.904 " />
  <polygon id="20336035513" title="" points="28.18404,-1518.384 119.3868,-1593.801 57.8658,-1668.201 21.89193,-1711.707 21.88836,-1711.71 8.52108,-1700.658 7.88085,-1700.13 5.49117,-1703.019 -4.8537,-1694.466 5.18322,-1682.328 -4.06455,-1674.681 -14.10159,-1686.819 -47.4741,-1659.222 -100.8702,-1615.068 -39.3792,-1540.749 -38.4555,-1539.633 -0.947196,-1494.297 28.18404,-1518.384 " />
  <polygon id="20336036157" title="" points="1418.58,11.61846 1459.242,16.7865 1530.405,25.83054 1626.657,38.0634 1633.053,-12.25923 1633.863,-18.62322 1646.325,-116.691 1684.944,-111.7854 1751.754,-103.2981 1761.036,-176.3352 1783.308,-351.582 1661.883,-380.682 1592.499,-397.311 1584.546,-334.722 1586.034,-334.533 1585.686,-331.806 1583.763,-316.677 1576.323,-317.622 1576.719,-320.745 1456.26,-336.057 1427.916,-339.657 1428.804,-346.638 1431.492,-367.788 1437.75,-417.015 1426.587,-418.434 1424.244,-399.99 1420.143,-367.713 1418.628,-355.809 1425.324,-354.957 1424.979,-352.23 1423.056,-337.101 1416.36,-337.95 1415.226,-329.022 1387.194,-332.586 1338.138,-338.82 1334.433,-309.66 1327.947,-258.6264 1336.875,-257.4918 1335.087,-243.4233 1331.958,-218.8029 1325.13,-165.0738 1313.226,-166.5867 1292.394,-169.2345 1278.27,-58.104 1271.781,-7.03851 1307.913,-2.446416 1377.21,6.36072 1416.687,11.37777 1418.58,11.61846 " />
  <polygon id="20336036157" title="" points="1555.935,-175.0539 1557.45,-186.9582 1569.354,-185.4453 1567.839,-173.541 1555.935,-175.0539 " />
  <polygon id="20336036157" title="" points="1744.47,-296.2512 1746.402,-311.451 1746.741,-314.109 1739.301,-315.054 1737.03,-297.1968 1744.47,-296.2512 " />
  <polygon id="20336036157" title="" points="1559.898,-111.0438 1547.994,-112.5567 1549.506,-124.461 1561.41,-122.9481 1559.898,-111.0438 " />
  <polygon id="20336036157" title="" points="1399.191,-131.4684 1400.703,-143.3727 1388.799,-144.8856 1387.287,-132.9813 1399.191,-131.4684 " />
  <polygon id="20336044812" title="" points="1104.033,523.713 1094.112,522.453 1089.393,559.575 1087.035,578.133 1106.874,580.656 1116.795,581.916 1121.514,544.794 1123.872,526.236 1104.033,523.713 " />
  <polygon id="20336044859" title="" points="1160.952,-17.78211 1176.429,-15.81531 1197.459,-181.2843 1125.636,-190.4124 1089.723,-194.9763 1062.24,21.28419 1048.497,129.4143 1109.805,137.2059 1123.269,31.2582 1130.001,-21.71571 1160.952,-17.78211 " />
  <polygon id="20336044893" title="" points="893.622,-115.3113 863.862,-119.0937 844.791,30.9495 904.314,38.5143 934.074,42.2967 953.142,-107.7468 893.622,-115.3113 " />
  <polygon id="20336044927" title="" points="911.163,-217.6698 876.939,-222.0195 873.687,-196.4406 976.359,-183.3921 979.611,-208.9707 911.163,-217.6698 " />
  <polygon id="20336055465" title="" points="932.877,968.571 933.972,968.709 945.318,879.42 950.994,834.774 785.877,813.789 780.522,855.912 725.427,848.91 697.881,845.409 689.523,803.793 709.179,649.137 719.007,571.809 760.779,474.168 781.665,425.349 813.705,213.8622 829.725,108.1188 843.375,-116.8674 850.197,-229.3608 1084.614,-199.5687 1201.821,-184.6728 1180.524,-17.12049 1558.485,30.915 1747.464,54.9327 1749.987,54.2079 1897.599,72.9681 1971.405,82.3482 1976.91,85.8201 2096.745,101.0502 2156.664,108.6654 2401.662,-96.3351 2524.161,-198.8352 2439.168,-300.411 2251.833,-343.74 2158.167,-365.406 1863.372,-332.394 1860.204,-333.48 1838.454,-462.828 1851.804,-567.867 1858.479,-620.385 1892.103,-695.82 1908.912,-733.539 1915.923,-740.139 2050.026,-702.975 2117.076,-684.393 2201.916,-701.868 2244.336,-710.607 2283.627,-748.233 2303.271,-767.043 1726.041,-1369.839 1685.001,-1330.539 1664.481,-1310.889 1561.245,-1418.688 1602.267,-1457.973 1622.778,-1477.617 828.054,-2307.444 821.031,-2302.002 776.823,-2304.789 754.719,-2306.181 738.234,-2304.051 304.365,-1945.287 87.4296,-1765.908 114.2586,-1733.46 127.6731,-1717.239 105.3819,-1541.841 346.641,-1511.181 467.271,-1495.848 433.908,-1233.339 519.468,-1222.464 491.721,-1004.121 477.846,-894.948 420.81,-896.532 392.292,-897.321 387.975,-902.895 404.868,-1035.825 413.316,-1102.293 135.9465,-1137.543 41.2374,-392.337 318.012,-357.162 343.692,-559.236 347.556,-558.744 348.291,-564.531 350.04,-564.309 350.097,-563.997 523.047,-513.072 609.519,-487.611 615.825,-279.384 618.978,-175.2711 583.152,106.623 565.239,247.5702 470.235,581.847 422.733,748.989 473.826,928.143 448.128,1042.215 435.279,1099.251 480.783,1298.253 481.998,1299.945 487.239,1301.034 503.313,1297.689 511.35,1296.018 537.387,1288.875 562.758,1279.638 587.292,1268.364 602.985,1259.544 610.83,1255.134 633.21,1240.032 654.351,1223.658 667.731,1211.028 674.421,1204.713 692.082,1185.09 708.45,1163.619 723.018,1140.885 735.687,1117.041 742.968,1100.142 746.61,1091.694 752.364,1074.639 755.241,1066.11 761.865,1040.019 763.578,1026.528 764.436,1019.781 734.676,1015.998 739.572,977.484 742.017,958.227 866.643,974.064 928.953,981.984 930.693,968.295 932.877,968.571 " />
  <polygon id="20336055507" title="" points="-152.712,-1324.413 -271.6227,-1468.218 -272.067,-1468.641 -273.7203,-1470.777 -227.52,-1508.982 -135.1197,-1585.389 15.74631,-1403.043 46.0272,-1428.099 79.6857,-1387.416 60.5472,-1236.828 -13.06077,-1246.182 -160.2765,-1264.893 -152.712,-1324.413 " />
  <polygon id="20336057332" title="" points="54.8538,-326.514 34.4181,-329.112 17.97774,-199.7526 9.75753,-135.0729 -27.14562,-139.7628 -38.19,-52.8618 -43.7121,-9.41136 21.76119,-1.090269 54.498,3.07026 95.7252,-321.321 54.8538,-326.514 " />
  <polygon id="20336057365" title="" points="419.331,316.779 392.991,313.434 385.239,374.442 437.919,381.138 464.259,384.486 472.014,323.475 419.331,316.779 " />
  <polygon id="20336057398" title="" points="240.0639,-302.976 205.8393,-307.326 202.5864,-281.7318 271.0359,-273.0324 305.262,-268.6827 308.514,-294.2769 240.0639,-302.976 " />
  <polygon id="20336057432" title="" points="235.9062,-198.8505 206.1456,-202.6329 193.4412,-102.6705 187.089,-52.6893 276.3708,-41.3424 295.4274,-191.286 235.9062,-198.8505 " />
  <polygon id="20336057470" title="" points="1640.577,436.326 1657.977,421.767 1639.995,401.625 1605.636,430.371 1588.455,444.747 1599.234,457.629 1604.622,464.07 1604.67,464.022 1605.771,465.444 1640.577,436.326 " />
  <polygon id="20336057506" title="" points="1620.705,458.424 1601.376,474.594 1612.41,487.779 1617.924,494.373 1676.544,445.332 1659.363,426.084 1620.705,458.424 " />
  <polygon id="20336061307" title="" points="107.2533,623.052 103.0116,656.427 102.3366,661.74 129.6993,715.437 243.9048,729.951 255.2262,640.869 260.8869,596.328 191.247,587.478 185.9478,629.175 183.2979,650.025 175.014,648.972 180.7281,604.011 183.5853,581.529 115.7367,556.302 107.2533,623.052 " />
  <polygon id="20336061348" title="" points="-23.78946,315.648 -19.27914,280.1598 -140.6904,264.7296 -149.5761,334.644 -115.2441,339.006 -98.0781,341.187 -99.213,350.115 -144.8457,344.316 -167.6622,341.418 -173.4618,387.051 -176.3616,409.866 -112.4196,417.993 -80.4486,422.055 -32.8101,386.625 -23.78946,315.648 " />
  <polygon id="20336061391" title="" points="501.486,67.7352 504.468,68.1147 495.996,134.7783 546.567,141.2052 556.752,61.05 561.846,20.97237 488.454,11.64468 451.755,6.98082 435.417,135.5466 469.131,139.8312 485.985,141.9735 495.516,66.9768 501.486,67.7352 " />
  <polygon id="20336061436" title="" points="786.471,724.146 786.597,723.153 832.23,728.952 855.048,731.853 871.992,598.527 783.504,587.28 739.26,581.655 738.201,589.989 725.571,588.384 720.117,617.475 717.393,632.019 708.819,699.483 704.532,733.215 780.267,725.373 786.219,726.129 786.471,724.146 " />
  <polygon id="20336063705" title="" points="449.52,24.58524 451.755,6.98082 525.15,16.30851 561.846,20.97237 557.307,56.685 555.039,74.5416 546.567,141.2052 495.996,134.7783 504.468,68.1147 495.516,66.9768 485.985,141.9735 452.274,137.6889 435.417,135.5466 441.834,85.0449 449.52,24.58524 " />
  <polygon id="20336063705" title="" points="-122.0295,347.217 -99.213,350.115 -98.0781,341.187 -149.5761,334.644 -140.6904,264.7296 -19.27914,280.1598 -28.29975,351.138 -32.8101,386.625 -64.569,410.247 -80.4486,422.055 -176.3616,409.866 -170.562,364.233 -167.6622,341.418 -122.0295,347.217 " />
  <polygon id="20336063705" title="" points="188.5974,608.328 191.247,587.478 260.8869,596.328 250.9017,674.895 243.9048,729.951 129.6993,715.437 102.3366,661.74 103.0116,656.427 111.495,589.677 115.7367,556.302 160.9692,573.12 183.5853,581.529 177.8712,626.49 175.014,648.972 183.2979,650.025 188.5974,608.328 " />
  <polygon id="20336063705" title="" points="274.2888,-298.6266 308.514,-294.2769 305.262,-268.6827 202.5864,-281.7318 205.8393,-307.326 274.2888,-298.6266 " />
  <polygon id="20336063705" title="" points="265.6668,-195.0684 295.4274,-191.286 282.723,-91.3236 276.3708,-41.3424 187.089,-52.6893 199.7934,-152.6517 206.1456,-202.6329 265.6668,-195.0684 " />
  <polygon id="20336063705" title="" points="-2.543526,-136.6362 9.75753,-135.0729 26.19798,-264.4323 34.4181,-329.112 95.7252,-321.321 54.498,3.07026 -10.97547,-5.25081 -43.7121,-9.41136 -32.6679,-96.3123 -27.14562,-139.7628 -2.543526,-136.6362 " />
  <polygon id="20336063705" title="" points="445.674,320.127 472.014,323.475 464.259,384.486 411.579,377.79 385.239,374.442 392.991,313.434 445.674,320.127 " />
  <polygon id="20336063705" title="" points="439.143,808.713 422.112,748.989 564.651,247.4496 600.468,-34.3833 618.378,-175.2999 608.934,-487.158 349.929,-563.424 349.161,-557.373 345.042,-557.895 319.32,-355.524 39.5718,-391.077 51.0309,-481.245 -461.241,-546.348 -717.378,-578.901 -544.998,-240.9594 -534.603,-239.6385 -535.926,-229.2222 -445.653,-217.749 -400.515,-212.0127 -399.192,-222.429 -384.312,-220.5378 -385.647,-210.0432 -288.4281,-197.6874 -239.8188,-191.5095 -238.485,-202.0044 -223.6047,-200.1132 -225.6849,-183.7449 -234.6129,-184.8795 -273.5709,121.6548 -266.1306,122.6004 -267.6435,134.5047 -275.0838,133.5591 -285.3933,214.6782 -290.5482,255.2379 -261.7278,311.787 -247.3176,340.062 -241.9716,337.338 -236.5227,348.027 -241.8876,350.763 -220.6929,392.355 -210.0957,413.151 -217.2777,412.239 14.6349,867.342 99.8823,878.178 142.5057,883.593 137.8419,920.292 135.51,938.64 114.876,936.018 104.559,934.707 102.564,962.511 103.3497,989.301 103.7427,1002.696 107.9193,1029.579 110.0073,1043.019 117.3147,1069.014 120.9684,1082.01 131.3658,1106.928 136.5645,1119.387 149.7483,1142.718 156.3402,1154.385 181.3227,1186.641 208.5546,1216.524 239.4879,1242.198 273.2994,1263.942 290.1651,1272.471 298.5978,1276.737 420.021,1292.169 480.732,1299.885 480.138,1298.121 434.664,1099.254 460.359,985.191 473.205,928.161 439.143,808.713 " />
  <polygon id="20336063832" title="" points="722.844,602.928 725.571,588.384 738.201,589.989 739.26,581.655 827.748,592.902 871.992,598.527 858.45,705.069 855.048,731.853 809.415,726.054 786.597,723.153 786.219,726.129 780.267,725.373 704.532,733.215 713.106,665.751 717.393,632.019 722.844,602.928 " />
  <polygon id="20336063832" title="" points="1622.817,415.998 1639.995,401.625 1657.977,421.767 1623.174,450.885 1605.771,465.444 1604.853,464.256 1604.802,464.286 1593.843,451.188 1588.455,444.747 1622.817,415.998 " />
  <polygon id="20336063832" title="" points="1640.034,442.254 1659.363,426.084 1676.544,445.332 1617.924,494.373 1606.893,481.188 1601.376,474.594 1640.034,442.254 " />
  <polygon id="20336063832" title="" points="923.382,-111.5289 953.142,-107.7468 934.074,42.2967 844.791,30.9495 863.862,-119.0937 923.382,-111.5289 " />
  <polygon id="20336063832" title="" points="1161.546,-185.8482 1197.459,-181.2843 1183.437,-70.9716 1176.429,-15.81531 1145.478,-19.74891 1130.001,-21.71571 1116.537,84.2322 1109.805,137.2059 1108.017,136.9791 1068.339,131.9358 1048.497,129.4143 1075.983,-86.8461 1089.723,-194.9763 1161.546,-185.8482 " />
  <polygon id="20336063832" title="" points="945.387,-213.3204 979.611,-208.9707 977.442,-191.9184 976.359,-183.3921 873.687,-196.4406 876.939,-222.0195 945.387,-213.3204 " />
  <polygon id="20336063832" title="" points="1113.951,524.973 1123.872,526.236 1116.795,581.916 1096.956,579.396 1087.035,578.133 1091.751,541.014 1094.112,522.453 1113.951,524.973 " />
  <polygon id="20336063832" title="" points="1012.284,992.574 1047.402,997.038 1049.142,983.349 1061.346,984.9 1059.963,995.778 1170.618,903.207 1163.172,893.592 1172.838,885.507 1181.553,894.741 1257.009,830.808 1294.737,798.84 1287.021,788.88 1296.984,781.164 1305.516,791.235 1381.506,726.849 1419.501,694.656 1411.356,685.041 1421.25,676.764 1429.845,686.589 1505.622,623.196 1543.512,591.498 1535.799,581.535 1545.462,573.45 1553.931,583.575 1668.846,487.437 1660.377,477.312 1669.581,469.614 1677.972,479.013 1754.463,415.02 1792.71,383.025 1784.625,373.359 1793.829,365.661 1802.604,374.748 1862.088,324.912 1891.83,299.9943 1383.516,235.3926 1411.59,14.51379 1178.757,-15.0771 1200.219,-183.9573 851.286,-228.3039 830.904,107.6931 798.822,319.443 782.781,425.319 740.994,522.99 720.102,571.827 700.47,726.306 690.651,803.547 698.562,845.193 753.03,852.114 780.264,855.576 785.616,813.456 896.091,827.496 951.327,834.516 939.954,924.003 934.269,968.748 943.788,969.957 942.048,983.649 1012.284,992.574 " />
  <polygon id="20336076071" title="" points="-238.7337,-1428.33 -230.9442,-1427.34 -231.873,-1420.035 -210.7008,-1394.43 -177.0996,-1353.792 -107.2569,-1269.33 -96.2166,-1255.977 -91.0098,-1255.317 -91.6305,-1250.43 -71.9712,-1226.655 -62.6739,-1299.81 -62.5272,-1300.965 -54.8622,-1361.277 -47.5479,-1418.826 -56.0739,-1429.137 -88.1526,-1467.933 -163.191,-1558.68 -226.7445,-1506.129 -252.1656,-1485.108 -244.5138,-1475.856 -253.7616,-1468.209 -261.4137,-1477.461 -262.9578,-1476.186 -272.067,-1468.641 -263.2848,-1458.021 -238.7337,-1428.33 " />
  <polygon id="20336076488" title="" points="-122.7696,-1592.094 -132.4797,-1584.066 -12.01914,-1438.455 7.39152,-1454.505 17.09685,-1462.53 -103.3491,-1608.153 -122.7696,-1592.094 " />
  <polygon id="20336078293" title="" points="-125.2062,-818.472 -207.147,-828.885 -176.1555,-1072.737 -160.6599,-1194.663 -396.363,-1224.618 -414.561,-1081.446 -414.954,-1081.494 -416.424,-1083.393 -602.229,-1107.006 -695.133,-1118.814 -751.08,-1072.551 -743.604,-1062.894 -753.564,-1055.178 -761.244,-1063.605 -771.678,-1055.523 -768.468,-1051.377 -781.773,-1039.254 -798.963,-1017.204 -807.561,-1006.182 -825.54,-972.423 -818.595,-969.429 -823.821,-956.658 -831.039,-959.61 -839.043,-933.825 -844.11,-893.943 -843.456,-868.2 -843.129,-855.327 -835.374,-816.072 -827.952,-818.217 -824.112,-806.217 -831.06,-802.674 -820.056,-778.533 -814.554,-766.461 -813.252,-767.196 -749.517,-642.132 -717.651,-579.6 -239.6283,-518.85 -0.617172,-488.472 25.57806,-694.587 38.6757,-797.643 -125.2062,-818.472 " />
  <polygon id="20336078327" title="" points="-22.78824,-1157.718 -101.2413,-1167.687 -138.7215,-872.778 18.18441,-852.837 96.6372,-842.868 121.6242,-1039.473 134.1177,-1137.774 -22.78824,-1157.718 " />
  <polygon id="20336078398" title="" points="504.972,-1133.607 507.468,-1153.248 117.0087,-1202.871 137.3577,-1362.984 160.5708,-1360.032 182.0544,-1529.073 100.5102,-1539.438 74.7174,-1336.488 61.821,-1235.016 -87.3789,-1253.976 -161.9787,-1263.459 -156.8097,-1304.13 -154.2252,-1324.467 -233.3337,-1420.134 -272.8878,-1467.966 -341.619,-1411.131 -375.984,-1382.715 -368.277,-1372.761 -378.45,-1364.352 -387.003,-1373.601 -500.928,-1279.398 -493.494,-1269.801 -503.706,-1260.519 -512.313,-1269.984 -588.141,-1207.284 -626.055,-1175.931 -618.072,-1165.62 -628.983,-1157.172 -636.696,-1167.132 -692.481,-1121.007 -506.847,-1097.412 -414.03,-1085.616 -396.219,-1225.767 -159.5244,-1195.686 -206.0091,-829.929 39.6648,-798.705 13.42107,-592.209 0.2991711,-488.961 34.2264,-484.65 51.1899,-482.493 81.5997,-721.77 96.8046,-841.407 -140.2527,-871.473 -102.4296,-1169.079 414.363,-1103.4 499.98,-1094.322 504.972,-1133.607 " />
  <polygon id="20336078442" title="" points="-22.52778,-1510.968 17.76018,-1462.275 -1.824711,-1446.069 -11.61714,-1437.969 15.90516,-1404.684 35.8605,-1421.196 45.8382,-1429.449 79.8093,-1388.391 92.7702,-1490.37 99.2505,-1541.361 102.8217,-1540.905 125.3076,-1717.833 122.2734,-1722.342 86.7285,-1765.326 -103.1037,-1608.357 -22.52778,-1510.968 " />
  <polygon id="20336078485" title="" points="513.987,-1199.496 516.834,-1221.915 432.618,-1232.619 430.53,-1232.883 452.718,-1407.48 463.815,-1494.777 183.4689,-1530.405 168.9225,-1415.949 161.6493,-1358.721 138.4359,-1361.67 125.094,-1256.694 118.4232,-1204.203 378.333,-1171.17 508.287,-1154.655 513.987,-1199.496 " />
  <polygon id="20336078522" title="" points="392.565,-901.488 393.969,-899.859 476.124,-897.078 501.03,-1093.053 443.571,-1099.077 414.84,-1102.089 398.118,-970.527 389.76,-904.746 392.565,-901.488 " />
  <polygon id="20336104709" title="" points="-59.3775,-316.839 -58.0767,-327.075 -48.9603,-398.805 -32.4858,-528.435 -31.7667,-534.093 -86.1645,-541.005 -180.2721,-552.966 -181.0287,-547.014 -192.933,-548.526 -192.1764,-554.478 -246.6831,-561.405 -340.98,-573.39 -341.736,-567.438 -353.64,-568.95 -352.884,-574.902 -407.391,-581.829 -501.687,-593.814 -502.443,-587.862 -514.347,-589.374 -513.591,-595.326 -568.098,-602.256 -662.394,-614.238 -663.15,-608.286 -675.054,-609.801 -674.298,-615.753 -699.162,-618.912 -742.173,-624.378 -717.285,-575.538 -717.264,-575.004 -716.529,-574.056 -707.301,-555.942 -691.332,-524.604 -683.28,-528.708 -677.832,-518.016 -685.884,-513.912 -663.951,-470.874 -619.296,-383.241 -617.778,-380.265 -609.729,-384.366 -604.281,-373.674 -612.33,-369.573 -542.226,-232.002 -541.149,-240.4704 -534.603,-239.6385 -535.452,-232.9644 -537.186,-219.3234 -487.218,-212.9724 -401.775,-202.1118 -400.506,-212.1006 -399.192,-222.429 -384.312,-220.5378 -385.266,-213.0405 -386.895,-200.2206 -335.28,-193.6602 -247.0218,-182.4417 -246.5487,-186.1617 -240.5946,-185.4051 -239.7975,-191.676 -238.485,-202.0044 -234.0207,-201.4371 -220.7826,-305.598 -117.7467,-292.5042 -63.3492,-285.5907 -61.8942,-297.0372 -59.3775,-316.839 " />
  <polygon id="20336104709" title="" points="-219.7872,-337.227 -218.2743,-349.131 -206.3703,-347.616 -207.8832,-335.712 -219.7872,-337.227 " />
  <polygon id="20336104709" title="" points="-380.496,-357.651 -378.981,-369.555 -367.077,-368.043 -368.589,-356.139 -380.496,-357.651 " />
  <polygon id="20336104709" title="" points="-541.203,-378.075 -539.688,-389.979 -527.784,-388.467 -529.299,-376.563 -541.203,-378.075 " />
  <polygon id="20336105471" title="" points="146.1291,-220.6029 150.171,-252.4059 31.1283,-267.5352 16.68927,-153.9225 16.5372,-152.7258 135.5796,-137.5965 145.5231,-215.8365 146.1291,-220.6029 " />
  <polygon id="20336105704" title="" points="-46.1217,-321.204 40.4424,-310.2 90.4794,-303.843 89.7231,-297.8901 101.6274,-296.3772 103.7076,-312.744 291.1995,-288.9168 290.8212,-285.9408 307.191,-283.8606 304.494,-262.6443 302.994,-250.8573 152.4063,-269.9958 150.9273,-258.3582 28.90884,-273.8655 -57.3969,-284.8344 -54.8802,-304.638 -53.4255,-316.083 -46.8783,-315.252 -46.1217,-321.204 " />
  <polygon id="20336107478" title="" points="309.264,-300.231 310.356,-300.09 464.025,-280.5609 458.31,-235.6011 457.848,-231.9591 455.136,-210.6234 454.752,-207.6 434.145,-45.4521 597.873,-24.6438 693.063,-12.54597 722.385,-243.2781 722.943,-247.6548 818.601,-235.4973 871.746,-228.7431 870.801,-221.3031 864.849,-222.0594 863.712,-213.1314 869.664,-212.3748 835.05,59.9784 834.975,60.5724 832.41,80.7672 275.886,10.03797 278.2929,-8.90061 278.5278,-10.75068 302.088,-196.1199 313.143,-283.104 319.095,-282.3477 320.229,-291.2757 308.319,-292.7895 309.264,-300.231 " />
  <polygon id="20336107478" title="" points="672.333,11.44056 672.687,11.89962 674.535,13.50294 675.312,14.22243 676.086,14.64417 677.124,15.18747 677.652,15.40449 678.213,15.52605 681.075,16.14093 682.845,16.09596 683.673,16.03266 684.663,15.69957 687.054,14.98869 688.596,14.05227 689.562,13.34973 690.741,12.24798 691.581,11.031 692.64,9.45243 692.877,8.87388 693.66,6.18813 693.768,5.68869 693.768,3.61572 693.777,2.737788 693.63,2.039379 693.366,0.783348 693.198,0.2560323 692.049,-2.1405 691.956,-2.317155 691.833,-2.474979 690.129,-4.51275 689.718,-4.88499 686.658,-6.81528 686.145,-7.02486 682.611,-7.79211 682.056,-7.81377 678.471,-7.32543 677.946,-7.15656 675.549,-6.00885 675.372,-5.91588 675.213,-5.79366 673.176,-4.08834 672.804,-3.67845 671.562,-1.640379 670.758,-0.366639 669.96,2.662857 669.939,3.17352 670.026,5.9697 670.11,6.58905 670.947,9.12603 670.977,9.22293 671.025,9.31296 672.333,11.44056 " />
  <polygon id="20336107478" title="" points="431.271,-19.19619 431.625,-18.7371 433.476,-17.13378 434.25,-16.41429 435.027,-15.99255 436.062,-15.44925 436.593,-15.23223 437.154,-15.11067 440.013,-14.49579 441.783,-14.54076 442.611,-14.60406 443.604,-14.93715 445.995,-15.64803 447.534,-16.58445 448.5,-17.28699 449.679,-18.38874 450.519,-19.60572 451.581,-21.18429 451.818,-21.76284 452.598,-24.44859 452.709,-24.94803 452.709,-27.021 452.715,-27.89892 452.568,-28.59735 452.304,-29.85336 452.136,-30.3807 450.987,-32.7771 450.894,-32.9538 450.774,-33.1116 449.067,-35.1495 448.659,-35.5218 445.599,-37.452 445.086,-37.6617 441.549,-38.4288 440.997,-38.4504 437.412,-37.9623 436.884,-37.7934 434.487,-36.6456 434.31,-36.5526 434.154,-36.4305 432.114,-34.725 431.742,-34.3152 430.5,-32.277 429.696,-31.0035 428.898,-27.97386 428.88,-27.4632 428.964,-24.66702 429.051,-24.04767 429.885,-21.51069 429.918,-21.41379 429.963,-21.32376 431.271,-19.19619 " />
  <polygon id="20336108239" title="" points="229.5393,-148.7784 236.9688,-207.2385 242.9211,-206.4822 229.5474,-101.2539 222.1176,-42.7938 216.1656,-43.5504 229.5393,-148.7784 " />
  <polygon id="20336108239" title="" points="209.2581,-256.7223 157.602,-263.2872 152.3082,-221.6319 183.8544,-217.6227 169.6536,-105.8868 161.7645,-43.8111 141.4848,-46.3887 130.218,-47.8206 124.923,-6.15564 268.0716,12.03729 269.5596,12.22641 290.5674,-153.0726 302.238,-244.9053 209.2581,-256.7223 " />
  <polygon id="20336108455" title="" points="898.716,-60.2298 905.523,-113.7987 911.475,-113.0424 899.22,-16.61796 892.413,36.951 886.461,36.1947 898.716,-60.2298 " />
  <polygon id="20336108455" title="" points="851.184,-19.36359 837.609,87.4446 958.431,102.8001 962.079,74.1024 964.104,58.1592 932.565,54.1506 954.654,-119.661 974.931,-117.084 986.193,-115.6524 997.764,-206.6793 930.615,-215.2134 893.31,-219.9543 891.987,-209.538 875.616,-211.6185 851.184,-19.36359 " />
  <polygon id="20336108739" title="" points="119.8407,631.086 118.8573,638.823 117.0873,652.752 137.6094,693.024 149.7045,694.56 225.4668,704.19 233.9307,637.593 249.1656,517.719 204.3561,512.025 201.5487,511.668 176.8416,508.53 136.0752,503.346 135.9324,504.471 125.8242,584.007 119.8407,631.086 " />
  <polygon id="20336108739" title="" points="180.9666,578.436 172.7538,643.056 178.7061,643.812 186.9186,579.192 180.9666,578.436 " />
  <polygon id="20336108994" title="" points="753.288,846.099 714.792,841.206 692.277,838.344 694.371,821.871 714.516,663.378 714.825,660.93 724.2,587.166 737.592,588.867 738.729,579.939 874.137,597.15 846.435,815.136 804.78,809.841 780.42,806.745 775.068,848.868 761.325,847.119 753.288,846.099 " />
  <polygon id="20336108994" title="" points="787.872,657.252 782.304,701.064 779.211,725.403 785.163,726.159 790.731,682.35 793.824,658.008 787.872,657.252 " />
  <polygon id="20336117504" title="" points="131.2497,517.521 133.4775,499.992 212.8392,510.078 252.5199,515.121 246.216,564.723 243.0642,589.524 240.0879,589.146 230.328,665.94 225.4482,704.34 166.8891,696.795 137.6094,693.024 117.0873,652.752 125.4594,586.878 129.6453,553.941 126.7941,552.579 131.2497,517.521 " />
  <polygon id="20336117504" title="" points="-25.74837,-96.0375 -2.236446,-93.0495 -4.80843,-72.8121 -6.09441,-62.6937 58.7838,-54.4482 53.4885,-12.78333 50.841,8.04909 7.5888,2.552136 -14.03727,-0.1963425 -14.49114,3.37494 -61.515,-2.601387 -85.0269,-5.58954 -76.8573,-69.8724 -72.7722,-102.0138 -25.74837,-96.0375 " />
  <polygon id="20336117504" title="" points="106.3851,368.931 126.2256,371.454 118.2828,433.95 78.6018,428.907 58.7613,426.387 66.7044,363.888 106.3851,368.931 " />
  <polygon id="20336117504" title="" points="145.0902,888.459 143.1063,888.207 137.4204,932.946 143.3724,933.702 142.2378,942.63 136.2858,941.874 136.4748,940.386 114.7833,937.629 113.778,950.742 113.2752,957.3 112.9683,977.028 113.565,990.168 113.8635,996.738 115.9575,1016.355 119.2422,1035.81 123.7059,1055.028 129.3321,1073.94 136.0992,1092.471 141.3549,1104.528 143.9829,1110.558 149.9631,1122.273 152.9532,1128.132 162.9774,1145.124 174.0177,1161.477 186.0336,1177.125 194.6649,1187.049 198.9804,1192.011 212.8098,1206.084 227.4705,1219.287 242.9085,1231.572 253.68,1239.12 259.0659,1242.894 275.8827,1253.214 287.4924,1259.397 293.2971,1262.487 305.262,1267.95 311.244,1270.683 313.704,1270.986 314.838,1262.058 323.769,1263.192 322.632,1272.12 421.836,1284.729 471.435,1291.032 472.572,1282.104 481.5,1283.238 480.363,1292.169 482.256,1292.418 501.708,1289.004 514.512,1285.941 520.914,1284.411 533.508,1280.571 539.805,1278.651 552.141,1274.052 558.309,1271.754 576.36,1263.738 593.886,1254.639 610.824,1244.484 621.684,1237.041 627.111,1233.318 637.497,1225.224 642.687,1221.177 652.56,1212.465 657.495,1208.109 671.478,1194.162 680.214,1184.313 684.582,1179.39 696.762,1163.844 704.232,1153.005 707.97,1147.584 714.768,1136.307 718.164,1130.67 727.311,1113.168 735.372,1095.138 742.317,1076.652 748.122,1057.776 752.763,1038.579 755.073,1025.619 756.225,1019.139 728.712,1015.641 736.806,951.966 740.853,920.127 746.808,920.883 755.886,849.453 719.151,844.785 700.785,842.451 695.97,817.104 693.564,804.432 702.591,733.413 705.666,733.095 718.785,629.865 725.346,578.25 858.27,595.143 924.729,603.591 925.32,598.956 964.8,603.975 984.543,606.483 965.175,758.865 955.494,835.056 951.21,834.513 932.223,983.91 1012.605,994.128 1052.793,999.234 1170.072,901.122 1162.371,891.918 1171.575,884.217 1179.276,893.421 1255.974,829.257 1294.323,797.172 1286.625,787.968 1295.829,780.27 1303.527,789.474 1380.228,725.307 1418.577,693.225 1410.876,684.021 1420.08,676.32 1427.781,685.524 1542.828,589.275 1535.13,580.071 1544.334,572.373 1552.032,581.577 1667.082,485.328 1659.381,476.124 1668.585,468.423 1676.286,477.627 1791.336,381.378 1783.635,372.174 1792.839,364.476 1800.537,373.68 1889.265,299.4738 1384.107,235.2726 1395.417,146.2722 1011.129,97.4325 1021.215,18.07086 1026.258,-21.60996 1180.734,-1.977444 1257.972,7.83882 1259.673,-5.553 1270.359,-4.19484 1284.732,-117.2856 1291.92,-173.8308 1098.177,-198.4536 1001.307,-210.7653 992.409,-140.7525 987.96,-105.7461 981.411,-106.5783 961.743,48.1818 968.292,49.014 961.029,106.1544 876.513,95.4132 834.255,90.0423 835.386,81.1455 768.921,72.6984 735.687,68.4747 706.185,300.606 691.434,416.673 328.356,370.53 357.858,138.3969 372.609,22.3305 306.144,13.88331 272.9097,9.65973 271.7775,18.56856 121.1919,-0.59313 125.7801,-36.6951 128.0742,-54.7461 134.9997,-56.8899 141.231,-105.9195 144.3465,-130.4343 -241.3509,-179.4528 -278.2725,111.0591 -296.7333,256.3149 -267.3663,313.968 -252.6828,342.795 -241.977,337.338 -236.5284,348.03 -247.2204,353.478 -201.8175,442.578 -179.1159,487.128 -168.4425,481.689 -162.9936,492.378 -173.685,497.829 -128.277,586.923 -105.573,631.473 -96.2181,626.706 -90.7689,637.395 -100.1223,642.162 -32.0103,775.806 -22.66473,771.045 -17.21637,781.737 -26.56191,786.498 0.890277,840.372 14.61636,867.306 104.6145,878.832 149.6133,884.595 149.0583,888.963 145.0902,888.459 " />
  <polygon id="20336117568" title="" points="466.635,-253.5159 469.221,-273.8523 633.897,-252.9237 716.235,-242.4591 708.417,-180.954 704.508,-150.2013 650.94,-157.0095 624.156,-160.4136 626.802,-181.2459 628.125,-191.6622 517.02,-205.7829 461.466,-212.8431 466.635,-253.5159 " />
  <polygon id="20336117568" title="" points="622.833,-148.0194 709.635,-136.9878 693.807,-12.45141 433.401,-45.5466 443.952,-128.5707 449.229,-170.0829 622.833,-148.0194 " />
  <polygon id="20336117568" title="" points="861.357,-123.2109 874.344,-225.3891 1001.118,-209.277 1001.307,-210.7653 1215.582,-183.5325 1322.721,-169.9161 1330.173,-228.552 1333.899,-257.8701 1295.211,-262.7871 1310.319,-381.669 718.983,-456.822 708.063,-370.914 702.606,-327.96 503.805,-353.226 514.722,-439.134 520.182,-482.088 341.319,-504.822 308.568,-247.125 305.592,-247.503 283.8042,-76.0611 272.9097,9.65973 735.687,68.4747 802.152,76.9218 835.386,81.1455 861.357,-123.2109 " />
  <polygon id="20336117619" title="" points="1645.224,-60.3813 1651.527,-109.9824 1721.808,-101.0505 1756.95,-96.5844 1789.938,-356.163 1658.82,-387.588 1593.261,-403.299 1421.394,-425.142 1414.191,-368.469 1310.319,-381.669 1309.563,-375.717 1413.435,-362.517 1411.164,-344.661 1410.03,-335.733 1358.64,-342.264 1332.942,-345.528 1325.646,-288.0981 1321.995,-259.383 1333.899,-257.8701 1326.447,-199.2342 1322.721,-169.9161 1302.186,-172.5261 1291.92,-173.8308 1277.547,-60.7401 1270.359,-4.19484 1364.952,7.82709 1412.25,13.83807 1412.628,10.86201 1559.286,29.50113 1632.618,38.8206 1645.224,-60.3813 " />
  <polygon id="20336117664" title="" points="927.342,-111.0255 959.085,-106.9914 959.388,-109.377 974.07,-107.511 987.96,-105.7461 996.732,-174.7668 1001.118,-209.277 874.344,-225.3891 847.617,-15.10137 834.255,90.0423 918.771,100.7838 961.029,106.1544 968.292,49.014 949.245,46.5933 939.72,45.3828 940.023,43.002 844.794,30.8994 863.859,-119.094 927.342,-111.0255 " />
  <polygon id="20336117708" title="" points="221.5824,12.18132 271.7775,18.56856 305.214,-244.527 157.602,-263.2872 153.2655,-229.1649 151.0971,-212.1039 168.1599,-209.9352 176.6913,-208.851 176.388,-206.4654 255.7497,-196.3794 295.4304,-191.3361 282.7218,-91.3404 276.3678,-41.3427 157.3251,-56.472 157.0227,-54.0912 137.9757,-56.5119 128.4525,-57.7221 121.1919,-0.59313 221.5824,12.18132 " />
  <polygon id="20336123344" title="" points="-268.9284,310.878 -252.6681,342.789 -241.9908,337.347 -236.5419,348.039 -247.2198,353.481 -204.246,437.811 -179.1153,487.128 -168.438,481.686 -162.9891,492.378 -173.667,497.82 -107.3517,627.957 -64.5246,606.273 -104.8668,527.106 -128.4585,480.807 -122.5722,434.493 -119.1297,407.406 -133.4763,405.582 -113.7141,250.0866 -102.1572,159.153 -281.4888,136.3614 -291.108,212.0517 -296.7333,256.3149 -268.9284,310.878 " />
  <polygon id="20336123897" title="" points="-17.77644,446.61 -14.48421,420.705 -115.5585,407.859 -124.4805,478.062 -60.7029,486.168 -23.40621,490.908 -17.77644,446.61 " />
  <polygon id="20336124031" title="" points="-83.8788,560.364 -60.4551,606.33 -46.5579,608.094 -38.4309,609.129 -29.2368,536.784 -23.86008,494.478 -123.933,481.761 -83.8788,560.364 " />
  <polygon id="20336124196" title="" points="114.1155,628.545 119.8827,583.167 130.4256,500.211 96.201,495.861 94.7637,507.171 79.8834,505.278 74.3952,548.46 65.0106,622.305 83.1303,624.606 114.1155,628.545 " />
  <polygon id="20336124500" title="" points="-32.0103,775.806 -22.66473,771.045 -17.21637,781.737 -26.56191,786.498 -11.90943,815.253 13.14627,864.423 16.69386,871.383 19.69758,871.764 20.8557,862.653 22.04901,853.263 30.8343,854.379 45.8574,856.29 43.506,874.791 92.8494,881.061 123.6891,884.982 125.2101,873.015 147.1623,700.287 133.7046,698.577 125.2905,682.065 110.9022,653.829 111.9204,645.816 113.6616,632.115 94.8828,629.73 62.7711,625.65 14.86899,619.56 14.87271,619.53 0.2120535,617.667 -24.8577,614.481 -46.7142,611.703 -63.156,609.615 -96.3597,626.427 -90.7689,637.395 -100.1145,642.159 -32.0103,775.806 " />
  <polygon id="20336125017" title="" points="404.907,684.234 397.917,739.242 464.799,747.741 476.892,652.578 483.882,597.57 441.501,592.185 417.003,589.071 404.907,684.234 " />
  <polygon id="20336125157" title="" points="375.822,901.236 394.92,750.957 390.453,750.39 391.512,742.056 438.333,748.008 464.343,751.314 444.186,909.924 390.612,903.117 375.822,901.236 " />
  <polygon id="20336125291" title="" points="212.4792,711.204 212.8062,708.63 173.6385,703.653 150.7335,700.74 137.025,808.605 129.0084,871.683 171.9315,877.137 197.0331,880.329 197.2584,878.556 194.8776,878.253 206.9301,783.42 213.9783,727.962 216.3591,728.265 217.872,716.361 211.92,715.602 212.4792,711.204 " />
  <polygon id="20336125508" title="" points="1003.803,293.0703 1018.392,294.9243 1019.529,285.9963 1031.433,287.5092 1030.296,296.4372 1051.995,299.1948 1089.963,304.02 1097.559,244.2642 1042.731,237.2958 1016.742,233.9931 1011.399,233.3139 1003.803,293.0703 " />
  <polygon id="20336125704" title="" points="1100.535,244.6425 1131.306,248.5533 1186.695,255.5925 1182.543,288.2679 1180.236,306.42 1171.308,305.286 1170.171,314.214 1092.939,304.398 1100.535,244.6425 " />
  <polygon id="20336125894" title="" points="463.704,435.816 433.944,432.033 429.183,469.482 420.927,534.456 420.855,535.005 417.879,534.627 415.989,549.507 420.453,550.074 418.812,562.98 415.974,585.309 441.015,588.492 484.338,594 486.681,575.568 486.756,574.956 491.517,537.507 503.793,440.91 463.704,435.816 " />
  <polygon id="20336126293" title="" points="50.841,8.04909 51.9,-0.2838756 58.7838,-54.4482 -0.737493,-62.0127 -8.68035,0.484473 50.841,8.04909 " />
  <polygon id="20336132872" title="" points="616.5,-1141.206 619.41,-1164.099 619.548,-1165.188 624.819,-1206.678 657.252,-1202.556 713.358,-1195.425 725.841,-1293.636 677.61,-1299.765 650.817,-1303.17 650.619,-1302.897 650.025,-1302.081 649.554,-1301.628 648.999,-1301.106 648.243,-1300.605 647.901,-1300.398 646.503,-1299.822 646.458,-1299.81 646.365,-1299.792 645.009,-1299.54 644.037,-1299.561 643.458,-1299.57 642.858,-1299.708 641.886,-1299.939 640.551,-1300.566 640.536,-1300.572 640.527,-1300.575 639.309,-1301.49 639.03,-1301.775 638.331,-1302.576 638.259,-1302.69 637.671,-1303.65 637.302,-1304.589 637.179,-1304.904 514.335,-1320.516 446.091,-1329.189 445.95,-1328.1 428.196,-1188.399 425.286,-1165.506 616.218,-1141.242 616.5,-1141.206 " />
  <polygon id="20336133506" title="" points="721.089,-1227.708 751.122,-1223.892 803.079,-1217.289 793.509,-1141.971 790.599,-1119.078 790.878,-1119.042 909.939,-1103.91 981.816,-1094.775 984.114,-1112.85 989.247,-1153.236 1002.621,-1258.461 811.524,-1282.746 811.326,-1282.473 810.735,-1281.657 810.264,-1281.204 809.706,-1280.682 808.95,-1280.178 808.608,-1279.974 807.21,-1279.398 807.168,-1279.386 807.072,-1279.368 805.716,-1279.116 804.747,-1279.137 804.168,-1279.146 803.565,-1279.284 802.593,-1279.515 801.258,-1280.139 801.243,-1280.148 801.234,-1280.151 800.016,-1281.066 799.737,-1281.351 799.038,-1282.152 798.966,-1282.263 798.378,-1283.226 798.009,-1284.165 797.886,-1284.48 729.411,-1293.183 729.273,-1292.091 723.999,-1250.601 721.089,-1227.708 " />
  <polygon id="20336134088" title="" points="1317.807,-845.487 1318.425,-845.145 1319.553,-844.848 1320.768,-844.551 1320.579,-843.057 1218.03,-856.089 1161.06,-863.331 1172.943,-956.82 1180.029,-1012.581 1279.35,-999.957 1339.545,-992.307 1323.225,-863.889 1315.488,-864.873 1313.976,-852.969 1313.97,-852.831 1313.988,-852.282 1314.03,-850.722 1314.186,-850.167 1314.42,-849.318 1315.032,-848.091 1315.044,-848.067 1315.845,-847.011 1316.436,-846.462 1317.075,-845.907 1317.807,-845.487 " />
  <polygon id="20336134088" title="" points="1178.211,-879.297 1166.307,-880.809 1164.792,-868.905 1176.699,-867.393 1178.211,-879.297 " />
  <polygon id="20336134348" title="" points="1345.497,-991.551 1386.864,-986.292 1455.426,-977.58 1496.979,-972.3 1478.082,-823.611 1478.01,-823.05 1475.847,-823.323 1423.911,-829.926 1326.531,-842.301 1328.256,-855.876 1339.338,-943.092 1345.497,-991.551 " />
  <polygon id="20336134588" title="" points="1483.965,-822.294 1540.239,-815.142 1638.72,-802.626 1658.388,-957.381 1652.436,-958.137 1653.948,-970.041 1659.9,-969.285 1662.327,-988.377 1666.332,-1019.886 1663.356,-1020.264 1610.211,-1027.02 1514.553,-1039.176 1502.646,-1040.688 1398.486,-1053.927 1398.486,-1053.924 1393.575,-1015.284 1390.599,-991.866 1433.274,-986.442 1503.687,-977.493 1483.965,-822.294 " />
  <polygon id="20336134986" title="" points="796.575,-1067.361 795.087,-1067.55 792.627,-1048.188 791.136,-1036.452 669.207,-1051.947 595.311,-1061.34 597.846,-1081.278 596.358,-1081.467 531.78,-1089.675 492.642,-1094.649 491.898,-1094.745 473.31,-948.483 473.022,-946.239 398.616,-955.695 416.961,-1100.034 357.666,-1107.57 321.732,-1112.136 326.442,-1149.198 329.298,-1171.656 386.739,-1164.357 421.554,-1159.932 615.462,-1135.287 707.256,-1123.623 786.867,-1113.504 788.271,-1113.327 984.036,-1088.445 1018.5,-1084.065 1085.709,-1075.524 1113.786,-1071.957 1116.057,-1089.822 1145.706,-1086.054 1247.322,-1073.139 1392.534,-1054.683 1392.534,-1054.68 1387.623,-1016.04 1384.647,-992.625 1343.28,-997.881 1240.251,-1010.976 1177.809,-1018.911 1114.014,-1027.017 1078.113,-1031.58 921.342,-1051.506 886.752,-1055.901 830.604,-1063.038 796.575,-1067.361 " />
  <polygon id="20336135505" title="" points="568.416,-956.796 580.32,-955.284 596.358,-1081.467 493.386,-1094.556 474.798,-948.294 474.51,-946.05 489.69,-944.121 521.043,-940.134 577.482,-932.961 578.808,-943.377 566.904,-944.892 568.416,-956.796 " />
  <polygon id="20336135706" title="" points="791.025,-928.503 779.121,-930.018 789.99,-1015.533 796.575,-1067.361 886.008,-1055.997 873.255,-955.656 865.881,-897.651 865.527,-894.843 808.035,-902.148 776.094,-906.207 777.609,-918.114 789.513,-916.599 791.025,-928.503 " />
  <polygon id="20336135896" title="" points="955.005,-907.662 960.213,-907.002 966.801,-958.83 977.67,-1044.348 943.641,-1048.671 887.496,-1055.808 867.369,-897.462 867.015,-894.654 899.22,-890.559 957.189,-883.194 958.701,-895.098 953.493,-895.758 955.005,-907.662 " />
  <polygon id="20336136073" title="" points="1174.833,-1019.289 1138.614,-1023.891 1078.857,-1031.487 1071.483,-973.482 1058.73,-873.141 1058.373,-870.333 1154.352,-858.135 1162.677,-923.637 1174.833,-1019.289 " />
  <polygon id="20336136382" title="" points="1286.919,-221.3403 1282.365,-221.919 1181.538,-234.7332 1145.091,-239.3655 1081.305,-247.4721 1079.817,-247.6611 1047.231,-251.8023 990.207,-259.0497 831.531,-279.216 823.614,-280.2222 760.74,-288.2133 698.016,-296.1846 697.071,-296.3049 701.118,-328.149 629.907,-337.2 505.293,-353.037 501.246,-321.192 499.758,-321.381 467.832,-325.44 411.963,-332.541 316.029,-344.733 314.937,-344.871 312.858,-328.518 309.264,-300.231 406.335,-287.8926 407.43,-287.754 462.447,-280.7616 870.168,-228.9438 871.794,-228.7371 874.722,-228.3651 887.157,-226.7847 894.066,-225.9066 933.132,-220.9416 1001.496,-212.2533 1004.52,-211.869 1104.507,-199.1613 1279.488,-176.9229 1292.109,-175.3188 1319.934,-171.7824 1322.004,-188.0736 1325.628,-216.5835 1286.94,-221.5005 1286.919,-221.3403 " />
  <polygon id="20336137536" title="" points="444.36,-328.422 499.758,-321.381 506.997,-378.357 507.051,-378.777 520.182,-482.088 433.131,-493.152 432.789,-490.446 412.707,-332.445 444.36,-328.422 " />
  <polygon id="20336137536" title="" points="494.733,-456.633 497.337,-456.411 499.749,-456.795 500.316,-456.882 500.796,-457.077 502.317,-457.671 502.791,-457.923 505.665,-460.149 506.025,-460.545 507.09,-461.973 507.288,-462.285 507.642,-463.005 508.077,-463.863 508.875,-466.893 508.869,-468.441 508.836,-470.184 508.32,-471.768 507.777,-473.613 507.522,-474.093 506.973,-474.942 506.457,-475.758 505.593,-476.688 505.143,-477.186 504.924,-477.384 502.773,-478.851 502.254,-479.181 500.574,-479.799 499.533,-480.114 497.772,-480.369 496.857,-480.375 494.688,-480.174 493.899,-479.982 492.66,-479.601 490.308,-478.368 490.197,-478.311 490.095,-478.233 488.19,-476.568 487.803,-476.139 486.726,-474.342 485.919,-473.076 485.52,-471.639 485.067,-469.92 485.046,-469.374 485.076,-466.842 485.091,-466.731 485.157,-466.455 485.523,-464.811 485.898,-463.902 487.059,-461.715 487.488,-461.055 488.148,-460.341 488.76,-459.666 489.06,-459.393 491.346,-457.875 491.859,-457.551 492.423,-457.323 494.424,-456.696 494.565,-456.651 494.733,-456.633 " />
  <polygon id="20336138524" title="" points="815.952,-444.498 802.611,-339.525 795.528,-283.7919 733.818,-291.6345 698.559,-296.1159 718.632,-454.056 718.983,-456.822 781.32,-448.902 815.952,-444.498 " />
  <polygon id="20336138524" title="" points="743.868,-427.293 743.361,-427.029 741.045,-426.156 741.018,-426.147 740.988,-426.144 738.396,-425.775 735.795,-425.997 735.627,-426.012 735.483,-426.06 733.482,-426.687 732.921,-426.915 732.408,-427.239 730.122,-428.757 729.819,-429.03 729.234,-429.678 728.556,-430.407 728.097,-431.118 727.548,-431.949 727.299,-432.423 726.984,-433.206 726.585,-434.175 726.201,-435.891 726.15,-436.107 726.138,-436.194 726.108,-438.807 726.129,-439.281 726.522,-440.781 726.987,-442.458 727.884,-443.862 728.871,-445.512 729.237,-445.917 731.172,-447.606 731.265,-447.681 731.373,-447.735 733.719,-448.965 734.958,-449.343 735.75,-449.538 737.919,-449.739 738.834,-449.733 740.592,-449.475 741.633,-449.163 743.313,-448.542 745.026,-447.375 746.124,-446.631 747.033,-445.641 747.45,-445.197 747.603,-445.002 748.575,-443.475 748.842,-442.962 749.436,-440.955 749.901,-439.527 749.928,-438.033 749.937,-436.257 749.52,-434.616 749.124,-433.206 748.392,-431.757 747.747,-430.797 747.099,-429.921 746.715,-429.498 745.5,-428.385 745.251,-428.19 743.868,-427.293 " />
  <polygon id="20336138779" title="" points="892.494,-271.4682 899.58,-327.201 912.921,-432.174 817.44,-444.309 817.095,-441.606 797.016,-283.6029 884.85,-272.4399 892.494,-271.4682 " />
  <polygon id="20336138932" title="" points="989.463,-259.1442 996.549,-314.877 996.759,-316.539 1009.89,-419.85 914.409,-431.985 914.064,-429.282 901.068,-327.012 893.982,-271.2789 928.704,-266.8665 989.463,-259.1442 " />
  <polygon id="20336139074" title="" points="1180.794,-234.8277 1187.88,-290.5611 1188.09,-292.2231 1201.221,-395.535 1165.953,-400.017 1102.473,-408.084 1102.131,-405.378 1089.132,-303.111 1082.049,-247.3776 1180.794,-234.8277 " />
  <polygon id="20336139229" title="" points="1182.282,-234.6387 1189.368,-290.3721 1202.364,-392.64 1202.709,-395.346 1268.061,-387.039 1304.367,-382.425 1291.236,-279.114 1291.026,-277.452 1283.943,-221.7186 1182.282,-234.6387 " />
  <polygon id="20336139229" title="" points="1254.945,-376.611 1266.849,-375.096 1265.337,-363.192 1253.433,-364.707 1254.945,-376.611 " />
  <polygon id="20336139422" title="" points="320.895,-344.112 324.144,-369.675 327.978,-399.846 340.977,-502.116 341.319,-504.822 399.384,-497.442 431.643,-493.341 418.512,-390.03 418.302,-388.368 411.219,-332.634 378.96,-336.735 320.895,-344.112 " />
  <polygon id="20336140956" title="" points="1005.762,-1235.661 1015.146,-1234.47 1047.429,-1230.366 1045.401,-1214.4 1043.571,-1200.012 1040.595,-1200.39 1039.542,-1192.107 1000.851,-1197.024 1004.655,-1226.961 1005.762,-1235.664 " />
  <polygon id="20336143967" title="" points="-5.76237,-65.3733 -3.28629,-84.8559 -2.249862,-93.039 -25.74144,-96.0246 -35.6079,-97.2786 -46.5996,-98.6754 -72.7707,-102.0015 -78.1605,-59.5914 -80.4243,-41.7792 -82.4487,-25.851 -83.9808,-13.79502 -85.0239,-5.58915 -14.49114,3.37494 -13.9584,-0.816705 -8.33823,-45.0384 -5.754,-65.3721 " />
  <polygon id="20336145708" title="" points="123.6396,434.631 150.5925,438.057 195.0651,443.709 199.2828,410.523 206.2419,355.767 215.1699,356.901 216.1155,349.461 207.1872,348.327 209.6943,328.599 214.0314,294.4734 142.6062,285.396 139.845,307.122 132.1386,367.758 123.6396,434.631 " />
  <polygon id="20336145870" title="" points="231.6003,156.2361 233.9058,138.0957 162.4803,129.018 150.1737,225.8517 143.0598,281.8248 214.4853,290.9022 222.2043,230.1663 226.6662,195.0588 235.5945,196.1937 236.5401,188.7534 227.6118,187.6188 231.6003,156.2361 " />
  <polygon id="20336145991" title="" points="45.081,619.77 61.4391,621.849 77.7495,493.515 49.7769,489.96 33.4188,487.881 23.12703,568.86 17.10849,616.215 45.081,619.77 " />
  <polygon id="20336146306" title="" points="-260.8005,-26.42916 -268.2669,32.3235 -281.0349,132.7902 -185.076,144.9858 -184.191,138.0213 -182.6775,126.1119 -179.106,126.5658 -181.5048,145.4397 -160.0293,148.1691 -123.3063,152.8362 -121.7934,140.9319 -106.3101,142.8996 -100.1904,143.6775 -95.328,105.4188 -105.1014,110.3988 -110.5494,99.7068 -99.8577,94.2588 -95.097,103.6014 -93.8043,93.429 -91.5417,75.6273 -87.4077,43.0989 -123.3132,38.5356 -138.1071,36.6552 -143.8305,35.928 -141.6141,18.489 -137.8908,-10.80843 -214.9386,-20.60052 -260.8005,-26.42916 " />
  <polygon id="20336146306" title="" points="-174.7899,90.0246 -178.3611,89.5707 -175.5963,67.8159 -239.3733,59.7102 -238.9194,56.139 -214.0677,59.2974 -171.5712,64.6983 -174.7899,90.0246 " />
  <polygon id="20336146780" title="" points="-226.4706,-177.5619 -241.353,-179.4531 -248.3619,-124.3047 -260.3466,-30.0003 -182.7909,-20.1438 -144.474,-15.27408 -137.4369,-14.37972 -118.4427,-163.8324 -226.4706,-177.5619 " />
  <polygon id="20336146780" title="" points="-195.405,-93.2511 -206.097,-87.8028 -209.1126,-93.7209 -214.2693,-103.8408 -203.5773,-109.2888 -195.405,-93.2511 " />
  <polygon id="20336147025" title="" points="-66.3024,-124.3674 -68.7471,-105.1314 -44.1585,-102.0063 -29.52261,-100.1463 -22.97076,-151.6986 -47.5593,-154.8237 -62.1951,-156.6837 -66.3024,-124.3674 " />
  <polygon id="20336147202" title="" points="68.2821,-100.6305 110.3733,-95.2812 129.8865,-92.8011 131.6949,-107.0295 134.8233,-131.6445 57.5001,-141.4716 12.80466,-147.1521 5.23008,-148.1145 -7.49523,-149.7318 -9.93996,-130.4958 -14.04711,-98.1795 -1.782567,-96.6207 -0.1673604,-109.3299 68.2821,-100.6305 " />
  <polygon id="20336147397" title="" points="61.2501,-59.5782 62.8584,-72.2319 66.0426,-97.2861 65.3763,-97.3707 2.950035,-105.3045 1.561767,-94.3812 0.2915877,-84.387 -1.842312,-67.5966 37.7082,-62.5701 60.5838,-59.6628 61.2501,-59.5782 " />
  <polygon id="20336147519" title="" points="-18.63774,83.0781 20.85126,88.0968 24.75837,57.354 -83.8365,43.5528 -86.3226,63.1161 -87.7434,74.2953 -18.63774,83.0781 " />
  <polygon id="20336147731" title="" points="-20.06187,493.146 -25.52232,536.112 -34.8597,609.582 -24.40383,610.911 13.54098,615.732 19.7256,567.069 30.3012,483.855 49.2951,486.27 82.3236,490.467 109.5519,493.929 130.8321,496.632 199.329,505.338 202.041,483.999 206.5155,448.794 203.5392,448.416 120.5073,437.862 80.1114,432.729 56.4084,429.717 52.9032,429.27 29.35479,426.276 -10.91292,421.161 -20.06187,493.146 " />
  <polygon id="20336148328" title="" points="105.0744,102.4299 52.5462,95.754 22.18302,91.8951 -88.1973,77.8668 -89.4045,87.3645 -91.5168,103.9854 -96.1206,140.2086 -109.8321,248.0958 -129.4512,402.465 -78.2757,408.969 -12.24468,417.363 11.98011,420.441 53.4045,425.706 56.6586,400.101 62.0283,357.852 128.6919,366.324 129.8337,357.339 158.9091,128.5641 102.6615,121.4157 103.5453,114.4611 105.0744,102.4299 " />
  <polygon id="20336148328" title="" points="-0.834132,280.6224 -14.19474,287.4411 -11.46729,292.7853 1.893327,285.9669 -0.834132,280.6224 " />
  <polygon id="20336148328" title="" points="29.96409,172.3155 41.8683,173.8284 43.3812,161.9241 22.91304,159.3228 21.62706,169.4415 0.2302761,337.8 -2.578434,359.898 0.992838,360.354 2.560005,348.021 3.55554,340.188 24.9714,171.681 29.96409,172.3155 " />
  <polygon id="20336148328" title="" points="9.53805,333.036 11.05098,321.132 22.95522,322.644 21.44229,334.548 9.53805,333.036 " />
  <polygon id="20336148813" title="" points="112.2174,74.7801 106.6866,118.2984 198.9084,130.0188 252.216,136.7937 267.315,17.98941 175.0932,6.26883 121.7856,-0.506088 112.2174,74.7801 " />
  <polygon id="20336149004" title="" points="109.8894,64.5447 107.1258,86.2893 105.5283,98.8584 86.0049,96.3774 76.0353,95.1102 24.42252,88.5507 27.1977,66.7146 28.78353,54.2367 38.9691,55.5312 109.872,64.5423 109.8894,64.5447 " />
  <polygon id="20336149333" title="" points="125.0982,-55.1244 126.6858,-67.617 129.4326,-89.2299 69.6138,-96.8322 68.0076,-84.1944 64.4811,-56.4459 62.0568,-37.371 57.2568,0.396939 63.8043,1.229049 62.2911,13.13328 15.33162,7.16514 15.32163,7.16388 -11.81268,3.71535 -16.36635,3.13662 -41.3337,-0.0365388 -85.0269,-5.58954 -85.2144,-4.11375 -101.5827,-6.19401 -99.6918,-21.07431 -83.3232,-18.99405 -79.5177,-48.9387 -72.9081,-100.9449 -65.7666,-157.1376 -114.8715,-163.3785 -122.0436,-106.9464 -135.5727,-0.494094 -139.1538,27.684 -139.8054,32.8107 -103.5027,37.4244 -85.1682,39.7545 -44.3805,44.9382 26.9979,54.0099 32.8836,54.7578 90.366,62.0634 109.8894,64.5447 118.2084,-0.912489 118.5927,-3.93603 124.4931,-50.3625 125.0982,-55.1244 " />
  <polygon id="20336152666" title="" points="607.368,1242.183 606.537,1241.667 606.081,1241.271 605.373,1240.593 605.01,1240.11 604.458,1239.3 604.212,1238.748 603.837,1237.842 603.714,1237.251 603.534,1236.288 603.546,1235.682 603.567,1234.704 603.957,1233.09 604.23,1232.541 604.695,1231.599 605.355,1230.786 605.739,1230.309 606.564,1229.661 607.044,1229.28 607.989,1228.83 608.544,1228.566 609.564,1228.332 610.161,1228.197 611.211,1228.194 611.823,1228.194 612.846,1228.422 613.443,1228.557 614.391,1229.004 614.946,1229.265 615.771,1229.91 616.254,1230.288 616.917,1231.101 617.304,1231.575 617.772,1232.511 618.048,1233.06 618.297,1234.077 618.444,1234.674 620.721,1237.956 620.799,1238.07 626.961,1233.483 638.055,1225.227 643.896,1220.241 654.414,1211.265 659.91,1205.898 669.807,1196.241 672.42,1193.424 677.121,1188.354 682.053,1182.468 690.936,1171.869 695.469,1165.668 703.623,1154.502 707.733,1148.013 715.128,1136.328 712.71,1134.909 711.564,1134.234 711,1134.15 710.034,1134.006 709.497,1133.808 708.582,1133.469 708.099,1133.166 707.274,1132.647 706.161,1131.573 705.84,1131.102 705.294,1130.295 705.075,1129.767 704.706,1128.864 704.601,1128.303 704.424,1127.343 704.436,1126.773 704.46,1125.798 704.601,1125.207 704.844,1124.196 705.111,1123.653 705.57,1122.72 706.221,1121.91 706.599,1121.436 707.412,1120.785 707.886,1120.407 708.819,1119.951 709.365,1119.684 710.376,1119.441 710.967,1119.3 712.005,1119.285 712.611,1119.276 713.628,1119.489 714.225,1119.612 715.17,1120.041 715.722,1120.29 716.553,1120.917 717.039,1121.28 717.714,1122.072 718.107,1122.534 719.28,1123.158 719.409,1123.227 721.755,1124.475 727.506,1112.796 730.698,1106.307 735.705,1094.292 738.486,1087.617 744.558,1069.062 747.93,1058.757 750.996,1046.106 752.7,1039.077 754.968,1026.258 756.225,1019.139 730.683,1015.89 728.712,1015.641 729.468,1009.689 735.909,959.022 735.909,959.019 735.915,958.971 744.684,889.995 749.556,851.673 685.569,843.54 688.101,823.629 708.897,660 718.248,586.41 720.141,571.53 739.485,573.987 790.176,580.431 877.872,591.576 880.896,591.96 891.159,593.265 898.704,594.222 928.464,598.005 931.488,598.389 948.477,600.549 979.056,604.434 979.05,604.482 990.954,605.997 989.442,617.901 984.978,617.334 975.738,690.048 969.012,742.965 968.457,747.333 976.35,741.273 989.85,730.914 999.714,743.763 965.58,769.962 958.044,829.272 951.984,876.936 941.064,962.874 939.786,972.924 942.762,973.302 940.776,988.926 956.844,990.969 957.315,987.249 1052.658,999.366 1044.96,990.162 1054.164,982.461 1061.862,991.662 1131.429,933.462 1170.078,901.131 1162.371,891.918 1171.575,884.217 1179.282,893.43 1253.241,831.555 1294.332,797.181 1286.625,787.968 1295.829,780.27 1303.536,789.48 1377.495,727.608 1418.583,693.234 1410.876,684.021 1420.08,676.32 1427.787,685.533 1542.837,589.284 1535.13,580.071 1544.334,572.373 1552.041,581.583 1626,519.711 1667.088,485.337 1659.381,476.124 1668.585,468.423 1676.292,477.636 1750.251,415.761 1791.342,381.387 1783.635,372.174 1792.839,364.476 1800.546,373.686 1875.615,310.884 1874.637,309.714 1872.963,307.713 1872.582,307.41 1871.892,306.864 1871.346,306.177 1871.043,305.796 1870.665,305.004 1870.455,304.563 1870.266,303.705 1870.161,303.228 1870.167,302.724 1870.179,301.86 1870.389,301.002 1870.509,300.525 1870.911,299.7348 1871.133,299.2965 1871.706,298.62 1872.021,298.2444 1872.429,297.9414 1873.128,297.4227 1709.202,276.5892 1618.134,265.0152 1596.102,281.9241 1583.862,291.3177 1573.998,278.4666 1595.304,262.1139 1469.55,246.1317 1462.533,245.2398 1396.011,236.7855 1393.035,236.4072 1379.382,343.827 1364.958,341.994 1327.524,337.236 1274.88,330.546 1174.092,317.736 1169.793,317.19 1141.17,313.551 1068.837,304.359 1029.918,299.4132 1018.014,297.9003 1000.449,295.668 1003.44,272.1441 1008.612,231.4476 1013.415,193.6473 1024.959,102.8193 1018.371,101.982 1007.103,100.5498 1012.938,54.6462 1022.913,-23.84949 1030.704,-85.1562 1015.329,-87.1104 989.04,-90.4515 982.482,-38.8488 970.905,52.2474 970.284,57.1299 963.627,109.5087 830.901,92.6403 832.41,80.7672 768.696,72.6696 735.687,68.4747 733.134,88.563 740.574,89.5086 739.629,96.9489 732.189,96.0033 725.106,151.7367 712.71,249.2703 720.15,250.2159 719.205,257.6562 711.765,256.7106 704.373,314.88 691.434,416.673 654.558,411.987 633.486,409.308 632.541,416.748 625.101,415.803 626.046,408.363 471.504,388.722 470.946,393.114 465.942,432.471 481.395,434.436 507.819,437.793 502.893,476.559 480.702,651.147 468.141,749.982 467.676,753.66 454.557,856.869 447.531,912.165 441.021,963.384 427.278,961.635 279.5055,942.855 258.4635,940.182 204.2136,933.288 176.5716,929.775 172.953,929.313 179.0085,881.667 160.3908,879.3 128.5545,875.256 127.2606,885.435 135.339,886.461 149.1531,888.219 146.9601,905.472 142.4271,941.142 124.8636,938.91 114.6591,937.614 114.5928,937.605 114.0426,944.868 113.0526,957.945 112.9608,965.229 112.7958,978.342 113.5176,989.244 114.8175,1008.867 115.869,1016.076 117.762,1029.051 119.2656,1036.182 121.9716,1049.013 123.4533,1048.65 125.9868,1048.032 126.4743,1047.642 127.3077,1046.979 127.8699,1046.709 128.8308,1046.247 129.8709,1046.013 130.4793,1045.875 131.5455,1045.878 132.1689,1045.881 133.2069,1046.124 133.8141,1046.268 134.7717,1046.736 135.3315,1047.009 136.644,1048.074 137.301,1048.914 137.685,1049.406 138.1374,1050.369 138.4017,1050.936 138.6264,1051.977 138.7578,1052.586 138.7491,1053.21 138.7347,1054.275 138.501,1055.259 138.3645,1055.835 137.9274,1056.744 137.6718,1057.278 137.0514,1058.076 136.6884,1058.541 135.9126,1059.189 135.4593,1059.567 134.5638,1060.035 134.04,1060.311 133.4703,1060.467 132.4959,1060.734 131.9058,1060.767 130.8966,1060.821 130.3134,1060.725 129.3159,1060.566 125.3811,1061.697 125.3436,1061.706 127.6611,1068.882 131.8329,1081.794 134.6127,1088.802 139.6164,1101.414 142.8468,1108.227 148.6617,1120.488 150.4416,1123.809 153.6456,1129.791 157.5252,1136.256 164.5089,1147.89 168.8016,1154.088 176.5284,1165.242 181.2153,1171.149 189.6522,1181.775 191.6661,1180.068 192.804,1179.102 193.0746,1178.541 193.5375,1177.584 193.9269,1177.098 194.5923,1176.267 195.0804,1175.88 195.9147,1175.217 196.8759,1174.761 197.4381,1174.491 198.4773,1174.26 199.0851,1174.125 200.1498,1174.131 200.7723,1174.137 201.8088,1174.38 202.4148,1174.524 203.37,1174.995 203.9286,1175.268 204.7548,1175.94 205.2378,1176.333 205.893,1177.173 206.2761,1177.662 206.7267,1178.628 206.9904,1179.192 207.2142,1180.233 207.3453,1180.842 207.3366,1181.463 207.3219,1182.528 207.1023,1183.473 206.9736,1184.022 206.5665,1184.901 206.3286,1185.417 205.7508,1186.194 205.413,1186.647 204.6894,1187.292 204.2661,1187.667 203.775,1187.949 202.9356,1188.432 202.3974,1188.609 201.477,1188.912 198.4623,1191.69 198.4374,1191.711 203.7057,1197.069 213.1887,1206.714 218.7936,1211.718 228.8826,1220.727 234.8007,1225.356 245.4534,1233.693 248.5221,1235.859 254.0457,1239.762 260.3862,1243.797 271.7991,1251.054 278.388,1254.666 290.2479,1261.17 297.0573,1264.347 309.315,1270.065 309.717,1270.236 309.942,1270.332 310.167,1270.428 310.569,1270.599 313.704,1270.995 314.838,1262.058 323.769,1263.192 322.632,1272.132 471.435,1291.041 472.572,1282.104 481.5,1283.238 480.363,1292.178 482.256,1292.418 482.439,1292.391 483.246,1292.274 483.627,1292.22 484.434,1292.1 484.818,1292.043 485.433,1291.95 486.048,1291.851 499.482,1289.37 507.102,1287.885 520.59,1284.444 527.886,1282.521 541.113,1278.183 548.268,1275.783 554.766,1273.284 558.279,1271.91 571.002,1266.267 577.89,1263.177 590.205,1256.691 596.874,1253.16 608.727,1245.861 615.153,1241.901 614.784,1242.105 613.899,1242.567 613.497,1242.714 612.552,1242.978 611.955,1243.077 610.977,1243.143 610.374,1243.107 609.405,1242.969 608.823,1242.807 607.902,1242.471 607.368,1242.183 " />
  <polygon id="20336152666" title="" points="1302.882,508.962 1332.288,486.177 1322.367,473.37 1303.812,487.749 1292.961,496.155 1302.882,508.962 " />
  <polygon id="20336152666" title="" points="1140.84,633.816 1131.321,641.121 1124.016,631.602 1133.535,624.297 1140.84,633.816 " />
  <polygon id="20336152666" title="" points="1484.205,352.641 1491.555,362.127 1501.041,354.777 1493.691,345.291 1484.205,352.641 " />
  <polygon id="20336152666" title="" points="499.383,1071.192 497.868,1083.096 509.775,1084.608 511.287,1072.704 499.383,1071.192 " />
  <polygon id="20336152666" title="" points="337.161,1062.672 337.719,1058.277 338.673,1050.768 350.577,1052.28 349.065,1064.184 337.161,1062.672 " />
  <polygon id="20336152666" title="" points="691.281,941.34 679.377,939.828 677.865,951.732 689.769,953.244 691.281,941.34 " />
  <polygon id="20336152666" title="" points="1161.273,479.409 1149.369,477.897 1150.881,465.993 1162.788,467.505 1161.273,479.409 " />
  <polygon id="20336152666" title="" points="529.065,932.82 530.577,920.916 518.673,919.404 517.161,931.308 529.065,932.82 " />
  <polygon id="20336152666" title="" points="549.678,770.625 537.774,769.113 539.286,757.209 551.19,758.721 549.678,770.625 " />
  <polygon id="20336152666" title="" points="576.696,569.931 561.816,568.041 563.706,553.161 578.589,555.051 576.696,569.931 " />
  <polygon id="20336152666" title="" points="1009.494,460.122 997.59,458.607 999.102,446.703 1011.009,448.215 1009.494,460.122 " />
  <polygon id="20336152666" title="" points="786.573,429.522 787.518,422.082 805.377,424.35 804.429,431.79 786.573,429.522 " />
  <polygon id="20336152666" title="" points="806.997,268.8141 807.945,261.3738 814.485,262.2051 825.801,263.6433 824.856,271.0833 806.997,268.8141 " />
  <polygon id="20336156322" title="" points="233.0262,359.169 233.9718,351.729 225.0438,350.595 232.1148,294.9573 244.5225,197.3283 253.4508,198.4629 254.3964,191.0229 245.4681,189.888 249.6006,157.3737 252.1329,137.448 252.216,136.7937 261.7842,61.5075 267.315,17.98941 279.2193,19.50234 280.35,10.60533 372.609,22.3305 370.983,35.1141 370.056,42.4188 362.616,41.4732 361.668,48.9135 369.108,49.8591 356.586,148.3878 349.629,203.1261 342.189,202.1805 341.244,209.6208 348.684,210.5664 328.356,370.53 364.92,375.177 385.233,377.757 384.288,385.197 391.728,386.145 392.673,378.705 467.931,388.269 464.358,416.391 462.372,432.018 416.541,426.192 403.071,532.185 401.109,547.614 402.594,547.803 399.627,571.164 397.89,584.826 399.375,585.015 387.186,680.901 379.089,744.624 378.549,748.878 377.064,748.689 364.911,844.32 357.966,898.968 357.003,906.543 356.454,910.872 368.358,912.384 369.417,904.053 398.244,907.716 414.258,909.75 410.217,941.529 409.887,944.133 407.976,959.184 205.9992,933.513 209.2941,907.587 224.889,784.881 231.8346,730.23 228.2634,729.777 230.3355,713.472 230.6625,710.898 239.7564,639.345 255.6717,514.119 255.8742,512.526 238.467,510.312 205.281,506.094 210.0384,468.663 212.9214,445.977 219.8805,391.221 224.0982,358.035 233.0262,359.169 " />
  <polygon id="20336157158" title="" points="965.307,743.55 931.695,739.278 912.036,736.782 901.281,735.414 879.981,732.708 869.256,817.092 869.139,818.022 900.624,822.024 954.465,828.867 957.093,808.182 957.132,807.885 963.51,757.692 960.342,753.564 964.434,750.42 965.307,743.55 " />
  <polygon id="20336157405" title="" points="917.805,705.669 922.278,670.473 930.594,605.028 930.987,601.953 946.965,603.984 978.603,608.007 977.538,616.389 981.408,616.878 981.129,619.059 967.332,727.623 915.846,721.08 917.805,705.669 " />
  <polygon id="20336157563" title="" points="187.7457,882.777 182.5797,882.12 176.5242,929.769 202.4277,933.06 207.6498,891.972 195.7455,890.46 196.5792,883.899 187.7457,882.777 " />
  <polygon id="20336157722" title="" points="411.546,959.637 437.451,962.928 439.557,946.341 443.733,913.497 435.039,912.393 417.828,910.203 413.46,944.586 411.546,959.637 " />
  <polygon id="20336157830" title="" points="620.808,-338.355 701.118,-328.149 712.2,-415.347 516.375,-440.235 505.293,-353.037 620.808,-338.355 " />
  <polygon id="20336157935" title="" points="786.45,-999.591 791.136,-1036.452 675.621,-1051.131 595.311,-1061.34 588.573,-1008.321 583.887,-971.463 699.405,-956.781 779.712,-946.575 786.45,-999.591 " />
  <polygon id="20336158665" title="" points="-24.36768,-592.311 -29.11749,-554.937 -39.7224,-556.284 -55.6107,-558.303 -54.2118,-569.313 -50.8608,-595.677 -24.36768,-592.311 " />
  <polygon id="20336158806" title="" points="-19.23966,-632.661 -37.6476,-634.998 -45.7329,-636.027 -49.0836,-609.66 -50.4828,-598.653 -34.5942,-596.634 -23.98947,-595.287 -19.23966,-632.661 " />
  <polygon id="20336158946" title="" points="-14.11164,-673.008 -40.605,-676.377 -43.9557,-650.01 -45.3546,-639.003 -29.46618,-636.984 -18.86142,-635.637 -14.11164,-673.008 " />
  <polygon id="20336159087" title="" points="-24.36768,-592.311 -29.11749,-554.937 -55.6107,-558.303 -50.8608,-595.677 -41.9706,-594.549 -24.36768,-592.311 " />
  <polygon id="20336159219" title="" points="-19.23966,-632.661 -36.8427,-634.896 -45.7329,-636.027 -50.4828,-598.653 -33.912,-596.547 -23.98947,-595.287 -19.23966,-632.661 " />
  <polygon id="20336159352" title="" points="-14.11164,-673.008 -40.605,-676.377 -45.3546,-639.003 -28.78401,-636.897 -18.86142,-635.637 -14.11164,-673.008 " />
  <polygon id="20336159505" title="" points="343.143,-1280.613 348.435,-1279.941 387.786,-1274.94 393.075,-1274.268 432.426,-1269.264 420.885,-1178.469 419.334,-1166.262 330.054,-1177.611 331.125,-1186.041 339.6,-1252.719 340.338,-1258.536 343.143,-1280.613 " />
  <polygon id="20336159778" title="" points="1108.59,-1078.665 1111.959,-1105.161 1120.161,-1169.703 1091.592,-1173.336 1088.616,-1173.714 1091.052,-1192.899 1095.519,-1228.044 1110.705,-1347.525 1123.269,-1345.929 1142.25,-1343.514 1147.545,-1385.181 1107.003,-1390.332 1026.726,-1400.535 1008.951,-1260.678 997.335,-1169.289 995.559,-1155.309 1050.906,-1148.274 1045.416,-1105.059 1043.118,-1086.984 1067.823,-1083.846 1108.59,-1078.665 " />
  <polygon id="20336159778" title="" points="1042.512,-1191.678 1044.771,-1209.453 1061.574,-1341.672 1067.526,-1340.916 1065.267,-1323.141 1048.464,-1190.922 1042.512,-1191.678 " />
  <polygon id="20336160068" title="" points="689.04,-1192.467 718.554,-1188.717 722.715,-1221.453 796.371,-1212.093 784.647,-1119.834 676.515,-1133.577 622.452,-1140.447 627.495,-1180.128 630.015,-1199.97 689.04,-1192.467 " />
  <polygon id="20336160068" title="" points="404.61,-1002.816 398.433,-954.207 517.674,-939.051 577.293,-931.473 588.312,-1018.176 593.823,-1061.529 792.624,-1036.263 776.094,-906.207 1247.502,-846.297 1483.206,-816.342 1503.687,-977.484 1387.62,-992.235 1393.383,-1037.577 1396.266,-1060.248 1113.837,-1096.143 1112.07,-1082.253 1111.188,-1075.311 984.414,-1091.421 997.878,-1197.402 1000.851,-1197.024 1008.942,-1260.681 440.517,-1332.921 432.426,-1269.264 435.402,-1268.886 421.932,-1162.908 356.46,-1171.23 323.724,-1175.391 318.429,-1133.724 315.78,-1112.892 383.238,-1104.318 416.967,-1100.034 404.61,-1002.816 " />
  <polygon id="20336160107" title="" points="1032.597,-1192.989 998.868,-1197.276 997.878,-1197.402 994.092,-1167.609 992.199,-1152.711 1029.102,-1148.022 1047.552,-1145.676 1042.359,-1104.816 1039.764,-1084.389 1111.188,-1075.311 1119.963,-1144.338 1124.349,-1178.853 1105.302,-1181.274 1095.777,-1182.486 1096.086,-1184.919 1032.597,-1192.989 " />
  <polygon id="20336160142" title="" points="1010.652,-1150.365 992.199,-1152.711 984.414,-1091.421 1021.314,-1086.732 1039.764,-1084.389 1044.957,-1125.246 1047.552,-1145.676 1010.652,-1150.365 " />
  <polygon id="20336160172" title="" points="430.911,-1233.561 435.402,-1268.886 369.93,-1277.208 337.191,-1281.369 323.724,-1175.391 389.196,-1167.069 421.932,-1162.908 430.911,-1233.561 " />
  <polygon id="20336160204" title="" points="507.498,-382.293 503.805,-353.226 702.606,-327.96 709.992,-386.091 713.688,-415.158 514.887,-440.424 507.498,-382.293 " />
  <polygon id="20336160235" title="" points="788.817,-1006.302 792.624,-1036.263 593.823,-1061.529 582.399,-971.652 714.933,-954.807 781.2,-946.386 788.817,-1006.302 " />
  <polygon id="20336160274" title="" points="173.1582,505.035 133.4775,499.992 126.7941,552.579 162.909,569.817 180.9666,578.436 186.9186,579.192 186.519,582.339 224.2158,587.127 243.0642,589.524 249.3681,539.922 252.5199,515.121 173.1582,505.035 " />
  <polygon id="20336160316" title="" points="781.416,725.685 779.541,725.445 702.591,733.413 693.564,804.432 698.379,829.776 700.785,842.451 737.517,847.119 755.886,849.453 755.508,852.429 772.011,854.526 780.264,855.576 785.616,813.468 827.64,818.808 848.652,821.478 856.275,761.493 860.088,731.499 785.685,722.043 785.163,726.159 781.416,725.685 " />
  <polygon id="20336160355" title="" points="945.06,601.464 925.32,598.956 908.136,734.169 860.517,728.118 852.606,790.359 848.652,821.478 919.878,830.532 955.494,835.056 974.859,682.674 984.543,606.483 945.06,601.464 " />
  <polygon id="20336160623" title="" points="157.4418,-1199.547 161.3016,-1229.919 167.7864,-1280.943 91.4634,-1373.193 50.5203,-1422.678 46.0329,-1428.102 15.96912,-1403.229 5.53485,-1415.847 -12.30774,-1437.423 -15.85524,-1441.713 -41.2683,-1420.647 -45.1293,-1390.269 -64.5042,-1237.818 -65.763,-1227.915 -19.269,-1222.005 57.4461,-1212.255 95.1801,-1207.461 157.4418,-1199.547 " />
  <polygon id="20336160623" title="" points="68.4822,-1222.95 62.5302,-1223.706 64.0431,-1235.61 69.9951,-1234.854 68.4822,-1222.95 " />
  <polygon id="20336160623" title="" points="61.9374,-1223.781 55.9854,-1224.537 57.4983,-1236.441 63.4503,-1235.685 61.9374,-1223.781 " />
  <polygon id="20336160623" title="" points="-7.7442,-1374.693 -21.60561,-1363.209 -13.95021,-1353.969 -0.0888171,-1365.453 -7.7442,-1374.693 " />
  <polygon id="20336160888" title="" points="117.21,-1471.641 114.0693,-1475.43 123.3078,-1483.089 130.9662,-1473.852 121.7277,-1466.193 117.21,-1471.641 " />
  <polygon id="20336160888" title="" points="68.6994,-1547.217 31.8657,-1516.758 112.3716,-1419.456 168.3405,-1351.809 188.1252,-1368.177 201.8799,-1379.556 269.0661,-1371.018 315.774,-1365.081 331.056,-1485.309 250.6632,-1495.527 194.7735,-1502.631 151.6566,-1554.774 121.6809,-1591.026 68.6994,-1547.217 " />
  <polygon id="20336161065" title="" points="249.0477,-1369.935 202.9731,-1375.788 170.6355,-1349.034 215.5134,-1294.791 202.6779,-1193.799 324.102,-1178.367 334.158,-1257.507 315.549,-1259.871 302.613,-1261.515 310.11,-1320.501 315.321,-1361.511 249.0477,-1369.935 " />
  <polygon id="20336161205" title="" points="121.8864,-1345.833 174.0663,-1282.767 167.7708,-1233.228 163.3938,-1198.791 199.1064,-1194.252 206.562,-1252.914 211.7454,-1293.699 29.09136,-1514.463 1.34769,-1491.522 22.37028,-1466.115 4.64118,-1451.445 -7.68438,-1441.248 16.76841,-1411.677 34.5021,-1426.35 46.8309,-1436.55 121.8864,-1345.833 " />
  <polygon id="20336161395" title="" points="207.6438,-1126.635 315.78,-1112.892 320.241,-1148.004 323.346,-1172.415 167.8017,-1192.182 59.6655,-1205.925 55.2033,-1170.813 52.101,-1146.405 207.6438,-1126.635 " />
  <polygon id="20336161529" title="" points="1260.513,-35.9628 1262.901,-54.7392 1184.166,-64.7457 1186.17,-80.5188 1036.167,-99.5829 1030.59,-55.6938 1026.711,-25.18122 1161.642,-8.03268 1255.449,3.88932 1260.513,-35.9628 " />
  <polygon id="20336161869" title="" points="1079.817,-247.6611 1080.561,-247.5666 1087.644,-303.3 1087.857,-304.962 1100.985,-408.273 1068.984,-412.341 1011.378,-419.661 1011.033,-416.958 998.037,-314.688 990.951,-258.9552 1079.817,-247.6611 " />
  <polygon id="20336162322" title="" points="1368.555,14.40924 1368.942,11.35818 1259.295,-2.576952 1257.972,7.83882 1026.258,-21.60996 1017.333,48.6126 1011.129,97.4325 1395.417,146.2722 1405.122,69.9057 1411.872,16.81413 1380.846,12.87111 1379.901,20.31081 1367.997,18.79788 1368.555,14.40924 " />
  <polygon id="20336162501" title="" points="1202.709,153.3813 1201.935,159.4839 1187.052,157.5927 1188.945,142.7124 1203.825,144.6036 1202.709,153.3813 " />
  <polygon id="20336162501" title="" points="1182.543,312.066 1182.075,315.726 1327.905,334.26 1329.039,325.332 1340.943,326.844 1339.809,335.772 1376.784,340.473 1384.839,277.1064 1390.437,233.0529 1384.485,232.2966 1394.964,149.8437 1178.457,122.3274 1027.935,103.1976 1011.777,230.3379 1116.939,243.7029 1190.049,252.9948 1186.017,284.7336 1182.543,312.066 " />
  <polygon id="20336162813" title="" points="10.58505,-153.4824 11.28855,-159.0177 15.92985,-195.537 25.17633,-268.2918 -6.43752,-272.3094 -214.497,-298.752 -215.5869,-298.8906 -220.0449,-263.8155 -228.0687,-200.6805 -223.6047,-200.1132 -225.7143,-183.5139 -115.9008,-169.5576 -63.2244,-162.8628 -20.42865,-157.4238 -8.52441,-155.9109 10.58505,-153.4824 " />
  <polygon id="20336163057" title="" points="961.701,-906.813 966.909,-906.15 965.397,-894.246 960.189,-894.909 958.677,-883.005 993.75,-878.547 1056.885,-870.522 1057.242,-873.33 1064.616,-931.335 1077.369,-1031.676 1040.307,-1036.386 979.158,-1044.159 972.57,-992.328 961.701,-906.813 " />
  <polygon id="20336163521" title="" points="1037.166,-1087.743 1044.198,-1143.078 994.803,-1149.357 994.446,-1146.549 990.066,-1112.094 987.768,-1094.019 1006.41,-1091.652 1037.166,-1087.743 " />
</svg>