<?xml version="1.0" encoding="utf-8"?>
<svg xmlns:xsi="http://www.w3.org/2001/XMLSchema-instance" xmlns:xsd="http://www.w3.org/2001/XMLSchema" version="1.1" id="Map" class="gen-by-synoptic-designer" xmlns:xlink="http://www.w3.org/1999/xlink" viewBox="-7346.07428420167 -12599.9790205813 23122.2960832823 24319.1997259649 " xml:space="preserve" height="100%" width="100%" xmlns="http://www.w3.org/2000/svg">
  <polygon id="20336049764" title="" points="1142.925,645.993 1137.768,645.336 1136.406,656.049 1123.905,654.462 1125.192,644.343 1092.189,640.149 1101.972,563.169 1106.865,524.676 1085.586,521.973 1067.583,663.633 1124.406,670.854 1143.63,655.155 1153.242,647.304 1142.925,645.993 " />
  <polygon id="20336049798" title="" points="82.6335,548.322 68.8221,546.567 64.0584,584.049 91.6812,587.562 105.4926,589.317 110.2563,551.832 82.6335,548.322 " />
  <polygon id="20336049834" title="" points="98.2977,641.238 98.9028,636.477 90.0036,619.014 85.5543,610.281 78.3213,613.971 97.0872,650.763 98.2977,641.238 " />
  <polygon id="20336049869" title="" points="352.746,736.005 341.658,734.598 340.458,744.036 373.725,748.263 374.922,738.825 352.746,736.005 " />
  <polygon id="20336049903" title="" points="565.11,762.003 554.421,760.644 553.095,771.06 585.162,775.137 586.485,764.721 565.11,762.003 " />
  <polygon id="20336049936" title="" points="666.429,838.689 658.491,837.681 655.353,862.38 679.161,865.407 682.302,840.705 666.429,838.689 " />
  <polygon id="20336049969" title="" points="908.175,699.759 904.107,699.243 899.88,732.507 912.081,734.058 916.308,700.791 908.175,699.759 " />
  <polygon id="20336050005" title="" points="1003.383,761.484 1000.935,758.643 984.246,772.332 975.9,779.178 983.283,788.709 999.948,774.348 1008.279,767.166 1003.383,761.484 " />
  <polygon id="20336050041" title="" points="1350.237,478.443 1347.606,475.299 1328.277,491.469 1318.611,499.557 1335.249,501.672 1355.499,484.731 1350.237,478.443 " />
  <polygon id="20336050077" title="" points="1628.184,246.2343 1625.856,243.2301 1601.043,264.0636 1608.39,273.5508 1624.689,259.3455 1632.837,252.243 1628.184,246.2343 " />
  <polygon id="20336050114" title="" points="1979.31,50.361 1980.066,44.4264 1950.675,69.0135 1935.981,81.3069 1952.493,83.4054 1977.801,62.2305 1979.31,50.361 " />
  <polygon id="20336050146" title="" points="2140.032,-70.0989 2128.944,-71.508 2127.393,-59.3064 2160.657,-55.0788 2162.208,-67.2804 2140.032,-70.0989 " />
  <polygon id="20336050180" title="" points="1644.006,-330.21 1637.409,-331.047 1635.816,-318.522 1635.021,-312.258 1654.812,-309.741 1656.405,-322.269 1657.2,-328.533 1644.006,-330.21 " />
  <polygon id="20336050213" title="" points="1723.389,-322.872 1716.792,-323.709 1715.199,-311.181 1714.404,-304.917 1727.598,-303.24 1734.195,-302.403 1735.785,-314.931 1736.583,-321.195 1723.389,-322.872 " />
  <polygon id="20336050245" title="" points="1580.22,-134.7792 1569.504,-136.1409 1568.145,-125.427 1600.284,-121.3422 1601.646,-132.0558 1580.22,-134.7792 " />
  <polygon id="20336050283" title="" points="1160.862,-17.83281 1176.438,-15.85338 1197.462,-181.2993 1090.026,-194.9535 1062.543,21.30711 1048.8,129.4374 1089.276,134.5812 1109.511,137.1534 1129.713,-21.79164 1160.862,-17.83281 " />
  <polygon id="20336050317" title="" points="911.163,-217.6746 876.939,-222.0243 873.687,-196.4406 942.138,-187.7412 976.362,-183.3918 978.531,-200.4474 979.614,-208.9752 911.163,-217.6746 " />
  <polygon id="20336050350" title="" points="893.616,-115.2615 863.856,-119.0439 844.791,30.9495 904.314,38.5143 934.074,42.2967 946.782,-57.699 953.136,-107.697 893.616,-115.2615 " />
  <polygon id="20336050383" title="" points="1779.279,-564.984 1769.559,-566.22 1765.245,-532.293 1794.411,-528.585 1798.722,-562.512 1779.279,-564.984 " />
  <polygon id="20336050416" title="" points="1767.363,-528.393 1763.292,-528.912 1760.322,-505.545 1758.837,-493.863 1771.05,-492.309 1774.02,-515.676 1775.505,-527.358 1767.363,-528.393 " />
  <polygon id="20336050449" title="" points="240.0639,-302.976 205.8393,-307.326 203.6706,-290.2632 202.5864,-281.7318 305.262,-268.6827 307.428,-285.7455 308.514,-294.2769 240.0639,-302.976 " />
  <polygon id="20336050487" title="" points="81.9828,-213.1902 95.7252,-321.321 34.7157,-329.073 18.25197,-199.5306 10.02003,-134.7588 -27.24261,-139.4946 -38.2635,-52.7778 -43.7739,-9.41922 21.74058,-1.092891 54.498,3.07026 81.9828,-213.1902 " />
  <polygon id="20336050520" title="" points="235.9125,-198.9003 206.1519,-202.6827 193.4391,-102.654 187.0827,-52.6395 246.6039,-45.0747 276.3645,-41.2926 289.0773,-141.3213 295.4337,-191.3358 235.9125,-198.9003 " />
  <polygon id="20336050553" title="" points="97.1604,181.8024 93.0936,181.2855 88.866,214.5501 101.0661,216.1005 105.294,182.8362 97.1604,181.8024 " />
  <polygon id="20336050587" title="" points="-440.253,-633.783 -447.498,-634.704 -449.175,-621.525 -450.012,-614.934 -435.522,-613.092 -428.277,-612.171 -426.6,-625.353 -425.763,-631.944 -440.253,-633.783 " />
  <polygon id="20336050622" title="" points="-320.13,-898.248 -324.393,-898.791 -326.349,-883.422 -313.551,-881.796 -311.598,-897.165 -320.13,-898.248 " />
  <polygon id="20336050654" title="" points="-290.1879,-1051.704 -294.2547,-1052.22 -298.4823,-1018.956 -286.2819,-1017.405 -282.0543,-1050.669 -290.1879,-1051.704 " />
  <polygon id="20336050691" title="" points="-291.5883,-1212.993 -294.0999,-1216.236 -311.052,-1202.214 -319.53,-1195.203 -311.994,-1185.474 -295.0419,-1199.496 -286.5654,-1206.507 -291.5883,-1212.993 " />
  <polygon id="20336050727" title="" points="-36.7095,-1414.014 -28.45557,-1420.629 -35.4492,-1428.792 -52.5267,-1415.568 -61.0653,-1408.953 -53.2173,-1400.781 -36.7095,-1414.014 " />
  <polygon id="20336050765" title="" points="233.7555,-1409.805 247.4727,-1517.736 186.7611,-1525.452 164.9484,-1353.819 148.713,-1355.883 140.5956,-1356.915 127.7031,-1255.473 121.2567,-1204.752 206.3211,-1193.94 233.7555,-1409.805 " />
  <polygon id="20336050799" title="" points="391.971,-1426.824 362.211,-1430.607 349.497,-1330.578 343.14,-1280.562 402.663,-1272.999 432.423,-1269.216 445.134,-1369.245 451.491,-1419.258 391.971,-1426.824 " />
  <polygon id="20336050833" title="" points="354.138,-1200.555 319.914,-1204.905 317.745,-1187.844 316.662,-1179.312 385.11,-1170.612 419.334,-1166.262 421.503,-1183.326 422.589,-1191.858 354.138,-1200.555 " />
  <polygon id="20336050871" title="" points="213.6417,-1599.12 215.9313,-1596.342 233.0799,-1610.13 241.6542,-1617.024 233.8155,-1626.501 216.8262,-1612.437 208.3317,-1605.405 209.0631,-1604.676 213.6417,-1599.12 " />
  <polygon id="20336050907" title="" points="484.131,-1831.404 481.926,-1834.251 465.105,-1820.337 456.693,-1813.38 463.572,-1805.061 488.538,-1825.71 484.131,-1831.404 " />
  <polygon id="20336050941" title="" points="651.708,-1869.342 644.466,-1870.263 642.381,-1853.853 656.865,-1852.014 664.107,-1851.093 666.192,-1867.503 651.708,-1869.342 " />
  <polygon id="20336050976" title="" points="678.036,-1865.997 669.762,-1867.047 667.284,-1847.538 666.042,-1837.782 682.59,-1835.679 690.864,-1834.629 693.342,-1854.138 694.584,-1863.894 678.036,-1865.997 " />
  <polygon id="20336051013" title="" points="961.953,-1817.508 964.68,-1820.154 945.045,-1840.395 926.931,-1842.699 956.499,-1812.216 961.953,-1817.508 " />
  <polygon id="20336051048" title="" points="758.679,-2062.599 740.823,-2064.867 722.517,-1920.825 776.088,-1914.018 788.292,-2010.045 794.394,-2058.06 758.679,-2062.599 " />
  <polygon id="20336051082" title="" points="819.954,-2060.859 802.602,-2063.064 783.54,-1913.07 835.596,-1906.455 854.658,-2056.449 819.954,-2060.859 " />
  <polygon id="20336051116" title="" points="25.27587,-1299.813 17.3397,-1300.821 6.59793,-1216.299 30.4065,-1213.275 41.1483,-1297.794 25.27587,-1299.813 " />
  <polygon id="20336051148" title="" points="1157.757,-1422.609 1146.669,-1424.019 1145.118,-1411.818 1178.382,-1407.591 1179.933,-1419.792 1157.757,-1422.609 " />
  <polygon id="20336051183" title="" points="1272.672,-1499.385 1264.89,-1507.407 1256.07,-1498.851 1271.634,-1482.807 1279.416,-1474.782 1288.236,-1483.338 1272.672,-1499.385 " />
  <polygon id="20336051217" title="" points="1049.676,-1343.235 1019.916,-1347.018 1007.205,-1246.989 1000.848,-1196.973 1090.128,-1185.627 1102.842,-1285.656 1109.199,-1335.669 1049.676,-1343.235 " />
  <polygon id="20336051255" title="" points="1299.693,-1194.999 1279.149,-1197.609 1302.789,-1383.615 1262.115,-1388.784 1241.778,-1391.367 1214.295,-1175.106 1200.552,-1066.977 1282.314,-1056.585 1323.195,-1051.389 1340.781,-1189.776 1299.693,-1194.999 " />
  <polygon id="20336051288" title="" points="1355.469,-1190.331 1347.036,-1191.402 1344.516,-1171.56 1343.253,-1161.642 1368.552,-1158.426 1371.072,-1178.265 1372.332,-1188.186 1355.469,-1190.331 " />
  <polygon id="20336051322" title="" points="1025.241,-1115.265 991.017,-1119.615 987.762,-1094.022 1090.437,-1080.972 1093.689,-1106.565 1025.241,-1115.265 " />
  <polygon id="20336051356" title="" points="1491.81,-1038.705 1480.8,-1040.106 1479.249,-1027.902 1512.282,-1023.705 1513.833,-1035.906 1491.81,-1038.705 " />
  <polygon id="20336051389" title="" points="1446.324,-1247.214 1435.236,-1248.621 1433.685,-1236.42 1455.864,-1233.603 1466.952,-1232.193 1468.503,-1244.394 1446.324,-1247.214 " />
  <polygon id="20336051424" title="" points="1744.854,-1006.278 1737.99,-1013.355 1726.68,-1002.384 1721.025,-996.897 1746.063,-993.717 1758.582,-992.124 1744.854,-1006.278 " />
  <polygon id="20336051460" title="" points="1937.589,-1098.528 1933.884,-1102.179 1889.379,-1059.525 1900.17,-1048.266 1930.053,-1076.91 1944.996,-1091.232 1937.589,-1098.528 " />
  <polygon id="20336051493" title="" points="1694.727,-753.945 1690.662,-754.461 1686.462,-721.428 1698.666,-719.877 1702.863,-752.913 1694.727,-753.945 " />
  <polygon id="20336051527" title="" points="1703.553,-769.458 1692.741,-770.832 1691.19,-758.628 1712.817,-755.88 1723.629,-754.506 1725.18,-766.707 1703.553,-769.458 " />
  <polygon id="20336051562" title="" points="1781.547,-759.543 1770.735,-760.92 1769.31,-749.703 1801.749,-745.581 1803.174,-756.795 1781.547,-759.543 " />
  <polygon id="20336051597" title="" points="1939.245,-784.995 1927.884,-786.438 1926.336,-774.237 1949.052,-771.348 1960.41,-769.905 1961.961,-782.109 1939.245,-784.995 " />
  <polygon id="20336051635" title="" points="1432.716,-1278.051 1438.587,-1324.26 1414.56,-1349.349 1400.979,-1242.474 1394.187,-1189.038 1412.043,-1186.77 1420.971,-1185.633 1432.716,-1278.051 " />
  <polygon id="20336061079" title="" points="33.4347,172.7688 29.96253,172.3278 31.2063,162.5421 -70.2777,149.6445 -72.2949,165.5169 -73.3035,173.4531 1.296459,182.934 38.5965,187.6743 40.3785,173.6514 33.4347,172.7688 " />
  <polygon id="20336062316" title="" points="-481.248,-918.018 -485.514,-918.561 -487.467,-903.192 -474.672,-901.563 -472.719,-916.935 -481.248,-918.018 " />
  <polygon id="20336062348" title="" points="-367.251,-624.51 -375.189,-625.521 -378.216,-601.713 -362.337,-599.694 -354.399,-598.686 -351.372,-622.494 -367.251,-624.51 " />
  <polygon id="20336062382" title="" points="-345.222,-621.711 -349.287,-622.227 -352.107,-600.051 -353.517,-588.963 -341.313,-587.412 -338.496,-609.588 -337.086,-620.679 -345.222,-621.711 " />
  <polygon id="20336062562" title="" points="-68.6364,-320.133 -61.7913,-319.263 -60.5433,-329.085 -48.639,-327.57 -49.887,-317.751 -46.161,-317.277 -43.0971,-341.382 -87.048,-346.968 -109.0236,-349.761 -127.1031,-207.5052 -121.1508,-206.7489 -125.3619,-173.6154 -127.4673,-157.0485 -103.6587,-154.0227 -89.4372,-265.9227 -82.3266,-321.873 -68.6364,-320.133 " />
  <polygon id="20336069994" title="" points="16.42824,336.768 20.49501,337.284 16.26738,370.548 4.06707,368.997 6.88548,346.821 8.2947,335.733 16.42824,336.768 " />
  <polygon id="20336069994" title="" points="-104.0949,221.8452 -100.5636,220.044 -91.1127,238.5729 -86.3871,247.8372 -88.2027,262.1223 -89.1102,269.265 -103.9686,240.135 -111.3978,225.5703 -104.0949,221.8452 " />
  <polygon id="20336069994" title="" points="-213.7782,-3.42165 -208.6614,6.61881 -219.6192,12.20268 -238.7718,-25.37835 -224.0124,-23.50257 -213.7782,-3.42165 " />
  <polygon id="20336069994" title="" points="-368.691,-398.187 -365.415,-397.77 -367.737,-379.515 -368.895,-370.389 -378.717,-371.637 -376.398,-389.892 -375.237,-399.018 -368.691,-398.187 " />
  <polygon id="20336069994" title="" points="720.228,630.408 726.738,579.183 795.288,587.895 783.642,679.521 777.819,725.337 777.792,725.547 730.665,730.428 707.208,732.855 720.228,630.408 " />
  <polygon id="20336069994" title="" points="168.0894,720.081 129.5991,715.188 111.4239,679.557 102.3363,661.74 103.0116,656.427 115.7547,556.161 116.6355,556.272 185.2458,581.784 190.6026,582.465 190.0731,586.632 261.4986,595.71 251.3619,675.468 245.0703,729.864 168.0894,720.081 " />
  <polygon id="20336069994" title="" points="-125.1189,-207.2532 -127.1031,-207.5052 -109.0236,-349.761 -65.0727,-344.175 -43.0971,-341.382 -46.161,-317.277 -49.887,-317.751 -48.639,-327.57 -60.5433,-329.085 -61.7913,-319.263 -75.4815,-321.003 -82.3266,-321.873 -96.5481,-209.9727 -103.6587,-154.0227 -127.4673,-157.0485 -123.2565,-190.182 -121.1508,-206.7489 -125.1189,-207.2532 " />
  <polygon id="20336069994" title="" points="-341.154,-621.195 -337.086,-620.679 -339.906,-598.5 -341.313,-587.412 -353.517,-588.963 -350.697,-611.139 -349.287,-622.227 -341.154,-621.195 " />
  <polygon id="20336069994" title="" points="-359.31,-623.502 -351.372,-622.494 -354.399,-598.686 -370.278,-600.702 -378.216,-601.713 -376.2,-617.583 -375.189,-625.521 -359.31,-623.502 " />
  <polygon id="20336069994" title="" points="-2.62176,158.2428 31.2063,162.5421 29.96253,172.3278 40.3785,173.6514 38.5965,187.6743 -36.0036,178.1934 -73.3035,173.4531 -71.2863,157.5807 -70.2777,149.6445 -2.62176,158.2428 " />
  <polygon id="20336069994" title="" points="-433.008,-632.865 -425.763,-631.944 -427.44,-618.762 -428.277,-612.171 -450.012,-614.934 -448.338,-628.116 -447.498,-634.704 -433.008,-632.865 " />
  <polygon id="20336069994" title="" points="265.6731,-195.1182 295.4337,-191.3358 276.3645,-41.2926 216.8433,-48.8571 187.0827,-52.6395 199.7955,-152.6682 206.1519,-202.6827 265.6731,-195.1182 " />
  <polygon id="20336069994" title="" points="101.2272,182.3193 105.294,182.8362 101.0661,216.1005 88.866,214.5501 93.0936,181.2855 101.2272,182.3193 " />
  <polygon id="20336069994" title="" points="274.2888,-298.6266 308.514,-294.2769 306.345,-277.2141 305.262,-268.6827 236.8113,-277.3821 202.5864,-281.7318 204.7551,-298.7946 205.8393,-307.326 274.2888,-298.6266 " />
  <polygon id="20336069994" title="" points="26.48388,-264.3024 34.7157,-329.073 75.3885,-323.904 95.7252,-321.321 68.2404,-105.06 54.498,3.07026 -43.7739,-9.41922 -27.24261,-139.4946 10.02003,-134.7588 26.48388,-264.3024 " />
  <polygon id="20336069994" title="" points="575.796,763.362 586.485,764.721 585.162,775.137 563.784,772.419 553.095,771.06 554.421,760.644 575.796,763.362 " />
  <polygon id="20336069994" title="" points="363.834,737.415 374.922,738.825 373.725,748.263 340.458,744.036 341.658,734.598 363.834,737.415 " />
  <polygon id="20336069994" title="" points="96.4449,550.077 110.2563,551.832 107.0805,576.822 105.4926,589.317 64.0584,584.049 67.2342,559.062 68.8221,546.567 96.4449,550.077 " />
  <polygon id="20336069994" title="" points="94.4532,627.744 98.9028,636.477 97.0872,650.763 78.3213,613.971 85.5543,610.281 94.4532,627.744 " />
  <polygon id="20336069994" title="" points="674.364,839.697 682.302,840.705 680.208,857.172 679.161,865.407 663.288,863.391 655.353,862.38 657.447,845.913 658.491,837.681 674.364,839.697 " />
  <polygon id="20336069994" title="" points="-679.671,-521.568 -677.856,-518.004 -683.202,-515.28 -615.096,-381.63 -609.744,-384.36 -604.293,-373.668 -609.648,-370.941 -564.246,-281.8398 -541.545,-237.2898 -536.181,-240.0237 -530.733,-229.332 -536.079,-226.6077 -490.671,-137.5116 -467.967,-92.9634 -462.621,-95.688 -457.173,-84.9966 -462.519,-82.272 -394.422,51.3804 -389.076,48.6561 -383.628,59.3475 -388.974,62.0721 -343.566,151.1682 -320.862,195.7161 -315.525,192.9957 -310.074,203.6883 -315.42,206.4126 -270.018,295.5111 -247.3164,340.059 -241.9707,337.335 -236.5218,348.027 -241.8675,350.751 -196.4646,439.851 -173.7633,484.401 -168.4173,481.674 -162.9684,492.366 -168.3147,495.093 -100.2027,628.737 -94.857,626.01 -89.4081,636.702 -94.7619,639.432 -49.3593,728.529 -26.65776,773.079 -21.31245,770.355 -15.86409,781.047 -21.21,783.771 7.52823,840.168 21.89733,868.365 35.0382,870.036 36.6267,857.535 48.531,859.047 46.9425,871.548 115.3884,880.248 116.145,874.296 169.1541,881.031 195.6585,884.4 196.4907,877.854 209.6706,879.528 208.8384,886.074 357.21,904.932 357.966,898.98 369.87,900.492 369.114,906.444 477.144,920.175 476.388,926.127 503.568,929.58 517.161,931.308 518.673,919.404 530.577,920.916 529.821,926.868 678.624,945.78 691.899,841.32 758.364,849.768 791.598,853.992 798.027,803.4 772.434,800.145 790.689,656.502 799.818,584.679 746.448,577.896 719.763,574.506 719.571,575.994 625.131,563.991 577.911,557.988 576.852,566.322 563.757,564.657 564.816,556.326 416.013,537.414 415.068,544.854 403.164,543.339 404.109,535.899 277.6272,519.825 274.8402,517.959 231.1914,512.412 209.367,509.637 222.0756,409.641 228.4299,359.646 214.74,357.906 215.799,349.572 230.0841,351.387 243.0447,249.4074 249.5253,198.4176 235.5378,196.6401 236.5401,188.7534 249.9324,190.4556 269.5059,36.444 273.9699,37.0116 284.5602,-46.3182 436.638,-26.99046 438.087,-38.3994 446.907,-37.2786 445.458,-25.86957 541.098,-13.71456 597.831,-460.125 536.922,-467.865 506.466,-471.735 504.765,-458.343 486.909,-460.614 488.61,-474.006 338.805,-493.044 263.9016,-502.563 262.5903,-492.246 261.9348,-487.089 255.9825,-487.845 257.2938,-498.162 257.9493,-503.319 139.8156,-518.334 137.6976,-501.669 136.6386,-493.335 128.3055,-494.394 130.4235,-511.059 131.4828,-519.393 -18.80844,-538.494 -20.32137,-526.59 -32.2257,-528.102 -30.7128,-540.006 -161.6595,-556.647 -145.7259,-674.169 -137.7594,-732.93 -139.2303,-733.128 -123.7986,-854.553 -478.941,-899.688 -656.514,-922.254 -687.507,-678.396 -750.075,-646.512 -688.65,-525.972 -683.304,-528.696 -679.671,-521.568 " />
  <polygon id="20336070281" title="" points="849.861,595.926 873.546,598.938 862.35,687.03 856.752,731.073 785.697,722.043 796.893,633.951 802.491,589.908 849.861,595.926 " />
  <polygon id="20336070281" title="" points="1840.071,-59.799 1843.35,-85.5915 1917.753,-76.1355 1920.729,-75.7575 1967.154,-69.8571 1990.368,-66.9069 1976.874,39.2739 1946.805,64.4256 1931.772,77.0016 1912.131,74.5053 1902.309,73.257 1901.817,73.0458 1833.366,64.3464 1842.444,-7.0791 1833.516,-8.21379 1840.071,-59.799 " />
  <polygon id="20336070281" title="" points="1978.557,56.2959 1977.801,62.2305 1952.493,83.4054 1935.981,81.3069 1965.369,56.7198 1980.066,44.4264 1978.557,56.2959 " />
  <polygon id="20336070281" title="" points="923.376,-111.4791 953.136,-107.697 934.074,42.2967 844.791,30.9495 863.856,-119.0439 923.376,-111.4791 " />
  <polygon id="20336070281" title="" points="1161.651,-185.8506 1197.462,-181.2993 1176.438,-15.85338 1129.713,-21.79164 1109.511,137.1534 1069.038,132.0093 1048.8,129.4374 1076.286,-86.823 1090.026,-194.9535 1161.651,-185.8506 " />
  <polygon id="20336070281" title="" points="945.39,-213.3249 979.614,-208.9752 976.362,-183.3918 873.687,-196.4406 876.939,-222.0243 945.39,-213.3249 " />
  <polygon id="20336070281" title="" points="1789.002,-563.748 1798.722,-562.512 1795.848,-539.895 1794.411,-528.585 1765.245,-532.293 1768.119,-554.91 1769.559,-566.22 1789.002,-563.748 " />
  <polygon id="20336070281" title="" points="1771.434,-527.877 1775.505,-527.358 1772.535,-503.994 1771.05,-492.309 1758.837,-493.863 1761.807,-517.227 1763.292,-528.912 1771.434,-527.877 " />
  <polygon id="20336070281" title="" points="1729.986,-322.032 1736.583,-321.195 1734.99,-308.667 1734.195,-302.403 1714.404,-304.917 1715.994,-317.445 1716.792,-323.709 1729.986,-322.032 " />
  <polygon id="20336070281" title="" points="1650.603,-329.373 1657.2,-328.533 1655.607,-316.005 1654.812,-309.741 1635.021,-312.258 1637.409,-331.047 1650.603,-329.373 " />
  <polygon id="20336070281" title="" points="2151.12,-68.6898 2162.208,-67.2804 2160.657,-55.0788 2138.481,-57.8973 2127.393,-59.3064 2128.944,-71.508 2151.12,-68.6898 " />
  <polygon id="20336070281" title="" points="1590.933,-133.4175 1601.646,-132.0558 1600.284,-121.3422 1578.858,-124.0653 1568.145,-125.427 1569.504,-136.1409 1590.933,-133.4175 " />
  <polygon id="20336070281" title="" points="1630.509,249.2385 1632.837,252.243 1616.538,266.4483 1608.39,273.5508 1601.043,264.0636 1625.856,243.2301 1630.509,249.2385 " />
  <polygon id="20336070281" title="" points="1352.868,481.587 1355.499,484.731 1335.249,501.672 1318.611,499.557 1337.94,483.384 1347.606,475.299 1352.868,481.587 " />
  <polygon id="20336070281" title="" points="1079.586,569.193 1085.586,521.973 1106.865,524.676 1097.082,601.659 1092.189,640.149 1125.192,644.343 1123.905,654.462 1136.406,656.049 1137.768,645.336 1153.242,647.304 1134.018,663.003 1124.406,670.854 1067.583,663.633 1079.586,569.193 " />
  <polygon id="20336070281" title="" points="1005.831,764.325 1008.279,767.166 991.614,781.527 983.283,788.709 975.9,779.178 992.589,765.489 1000.935,758.643 1005.831,764.325 " />
  <polygon id="20336070281" title="" points="912.24,700.275 916.308,700.791 913.488,722.97 912.081,734.058 899.88,732.507 902.697,710.331 904.107,699.243 912.24,700.275 " />
  <polygon id="20336070281" title="" points="1169.949,308.844 1170.528,304.281 1178.862,305.34 1191.318,207.327 1197.546,158.3214 1189.212,157.2621 1190.877,144.1677 1199.208,145.2267 1211.838,45.8484 1218.204,-4.23747 1218.231,-4.43589 1256.025,0.367659 1274.925,2.769426 1274.4,6.90252 1300.191,10.18053 1313.088,11.81952 1313.655,7.35543 1349.766,11.94465 1367.82,14.23923 1368.879,5.90628 1382.568,7.64613 1381.509,15.97911 1480.017,28.49856 1529.271,34.7583 1530.255,27.02052 1543.35,28.68474 1542.366,36.4224 1592.661,42.8145 1559.415,304.392 1523.214,334.68 1505.115,349.821 1509.891,355.989 1499.304,364.845 1494.528,358.677 1458.282,389.001 1440.156,404.163 1428.582,402.693 1266.075,381.744 1266.642,377.28 1227.951,372.363 1227.384,376.827 1189.59,372.024 1170.69,369.621 1174.977,335.892 1177.122,319.029 1168.788,317.97 1169.949,308.844 " />
  <polygon id="20336070281" title="" points="939.249,969.228 943.215,969.732 942.006,979.254 1047.357,992.643 1048.569,983.121 1062.174,984.849 1068.978,985.713 1169.76,901.401 1162.137,891.558 1171.455,883.761 1179.438,893.304 1255.908,829.329 1294.143,797.343 1286.058,787.68 1295.835,779.499 1304.208,789.507 1418.337,694.029 1410.624,684.066 1420.287,675.981 1428.372,685.647 1542.615,590.07 1534.809,579.99 1544.208,571.599 1553.199,581.67 1666.359,485.952 1658.736,476.109 1668.585,467.778 1677.243,477.369 1753.329,413.715 1791.369,381.888 1783.656,371.928 1792.86,364.227 1801.329,374.352 1891.722,298.0602 1936.92,259.9146 1929.906,250.8597 1997.946,193.9206 2031.966,165.4512 2032.05,164.7825 2024.697,155.2884 2034.276,147.2727 2041.623,156.7602 2119.686,93.6855 2134.545,110.7858 2141.976,119.3361 2159.214,104.9097 2179.515,87.9264 2171.25,78.4158 2180.76,70.1508 2188.989,79.6182 2265.075,15.96594 2303.118,-15.86025 2295.765,-25.35408 2305.428,-33.4389 2313.129,-24.23517 2427.834,-120.1956 2420.133,-129.3996 2429.796,-137.4843 2437.683,-128.0574 2440.578,-130.4799 2417.691,-157.839 2471.685,-203.0121 2498.685,-225.5985 2460.591,-271.1316 2441.544,-293.898 2396.529,-256.2393 2374.023,-237.4098 1938.33,-292.7823 1959.762,-461.427 1970.481,-545.748 1622.877,-589.926 1449.075,-612.015 1436.97,-516.78 1452.447,-514.812 1451.31,-505.884 1436.43,-507.777 1417.14,-355.998 1317.543,-368.655 1267.743,-374.985 1265.775,-359.508 1252.086,-361.248 1254.054,-376.725 1105.251,-395.634 1102.149,-371.232 1092.03,-372.519 1095.132,-396.921 1018.944,-406.605 980.85,-411.444 978.885,-395.97 971.742,-396.879 973.707,-412.353 747.528,-441.099 745.788,-427.41 727.335,-429.753 729.075,-443.445 599.172,-459.954 542.436,-13.54434 632.115,-2.146983 676.953,3.5517 678.693,-10.13817 687.621,-9.00348 685.881,4.68639 788.358,17.71014 839.595,24.22203 837.516,40.5903 836.028,40.4013 827.895,104.3865 832.656,104.9916 812.688,262.1277 826.377,263.8674 825.468,271.0101 811.482,269.2323 791.964,422.796 806.1,424.593 805.173,431.886 791.037,430.089 771.918,580.527 800.934,584.217 773.55,799.683 799.146,802.935 794.694,837.954 792.468,855.462 726.201,847.041 693.069,842.829 684.885,907.212 680.796,939.405 691.956,940.821 691.122,947.37 789.135,959.826 838.14,966.054 838.896,960.102 851.991,961.767 851.235,967.719 903.813,974.4 930.102,977.742 931.311,968.217 939.249,969.228 " />
  <polygon id="20336070776" title="" points="-476.982,-917.475 -472.719,-916.935 -474.672,-901.563 -487.467,-903.192 -485.514,-918.561 -476.982,-917.475 " />
  <polygon id="20336070776" title="" points="776.538,-2060.328 794.394,-2058.06 782.19,-1962.033 776.088,-1914.018 740.373,-1918.557 722.517,-1920.825 740.823,-2064.867 776.538,-2060.328 " />
  <polygon id="20336070776" title="" points="658.95,-1868.421 666.192,-1867.503 664.107,-1851.093 642.381,-1853.853 644.466,-1870.263 658.95,-1868.421 " />
  <polygon id="20336070776" title="" points="686.31,-1864.944 694.584,-1863.894 692.103,-1844.382 690.864,-1834.629 674.316,-1836.732 666.042,-1837.782 669.762,-1867.047 686.31,-1864.944 " />
  <polygon id="20336070776" title="" points="486.336,-1828.557 488.538,-1825.71 463.572,-1805.061 456.693,-1813.38 473.514,-1827.294 481.926,-1834.251 486.336,-1828.557 " />
  <polygon id="20336070776" title="" points="224.5056,-1603.236 215.9313,-1596.342 209.0631,-1604.676 208.3317,-1605.405 225.3207,-1619.469 233.8155,-1626.501 241.6542,-1617.024 224.5056,-1603.236 " />
  <polygon id="20336070776" title="" points="421.731,-1423.041 451.491,-1419.258 432.423,-1269.216 372.9,-1276.779 343.14,-1280.562 362.211,-1430.607 421.731,-1423.041 " />
  <polygon id="20336070776" title="" points="388.362,-1196.208 422.589,-1191.858 420.42,-1174.794 419.334,-1166.262 350.886,-1174.962 316.662,-1179.312 318.828,-1196.376 319.914,-1204.905 388.362,-1196.208 " />
  <polygon id="20336070776" title="" points="156.8307,-1354.851 164.9484,-1353.819 179.49,-1468.242 186.7611,-1525.452 227.2356,-1520.307 247.4727,-1517.736 220.0383,-1301.871 206.3211,-1193.94 121.2567,-1204.752 134.1492,-1306.194 140.5956,-1356.915 156.8307,-1354.851 " />
  <polygon id="20336070776" title="" points="33.2121,-1298.802 41.1483,-1297.794 30.4065,-1213.275 14.5341,-1215.291 6.59793,-1216.299 17.3397,-1300.821 33.2121,-1298.802 " />
  <polygon id="20336070776" title="" points="-44.9634,-1407.396 -53.2173,-1400.781 -61.0653,-1408.953 -43.9878,-1422.18 -35.4492,-1428.792 -28.45557,-1420.629 -44.9634,-1407.396 " />
  <polygon id="20336070776" title="" points="-289.0767,-1209.75 -286.5654,-1206.507 -303.519,-1192.485 -311.994,-1185.474 -319.53,-1195.203 -302.577,-1209.225 -294.0999,-1216.236 -289.0767,-1209.75 " />
  <polygon id="20336070776" title="" points="-286.1211,-1051.185 -282.0543,-1050.669 -286.2819,-1017.405 -298.4823,-1018.956 -295.6638,-1041.132 -294.2547,-1052.22 -286.1211,-1051.185 " />
  <polygon id="20336070776" title="" points="-315.864,-897.708 -311.598,-897.165 -313.551,-881.796 -326.349,-883.422 -324.393,-898.791 -315.864,-897.708 " />
  <polygon id="20336070776" title="" points="-299.1591,-878.652 -123.5715,-856.338 -101.5206,-1029.843 -14.61966,-1018.797 28.83084,-1013.277 30.4194,-1025.775 43.5141,-1024.11 41.9256,-1011.612 141.7227,-998.928 191.6214,-992.586 193.6386,-1008.459 194.6472,-1016.394 203.5755,-1015.26 201.5583,-999.387 200.5497,-991.452 312.489,-977.226 311.754,-978.516 311.319,-981.708 312.54,-984.69 315.087,-986.661 318.279,-987.096 321.261,-985.878 323.232,-983.331 323.667,-980.139 322.449,-977.157 321.417,-976.092 551.724,-946.821 553.239,-958.725 565.143,-957.213 563.631,-945.315 680.787,-930.426 739.368,-922.98 770.634,-1169.001 786.267,-1292.013 695.895,-1303.497 650.709,-1309.242 649.194,-1297.338 637.29,-1298.85 638.802,-1310.754 514.8,-1326.513 452.799,-1334.394 472.845,-1492.116 466.893,-1492.872 486.282,-1645.431 483.285,-1645.296 479.079,-1647.015 476.295,-1650.609 475.68,-1655.115 477.402,-1659.321 480.996,-1662.105 485.499,-1662.717 487.605,-1662.18 493.656,-1709.796 701.88,-1683.333 805.992,-1670.1 828.84,-1849.854 790.269,-1854.756 770.985,-1857.207 793.296,-2032.761 804.45,-2120.535 868.425,-2112.405 911.727,-2154.513 933.378,-2175.567 934.257,-2178.594 932.337,-2181.072 941.1,-2189.463 872.124,-2261.433 837.636,-2297.418 828.987,-2289.129 820.683,-2297.793 829.347,-2306.097 781.623,-2355.93 720.606,-2305.437 731.7,-2292.033 727.8,-2288.298 626.073,-2204.181 631.149,-2197.629 619.791,-2188.833 615.132,-2194.467 500.922,-2100.027 504.594,-2095.284 496.11,-2086.338 491.526,-2092.257 376.278,-1996.959 380.319,-1991.742 370.611,-1983.711 366.57,-1988.931 289.8627,-1925.502 251.5095,-1893.789 255.6447,-1888.449 245.5878,-1880.133 241.2864,-1885.335 164.9142,-1822.185 126.7284,-1790.607 131.2107,-1784.82 120.8931,-1776.831 116.496,-1782.147 40.1241,-1718.994 1.938066,-1687.419 5.98143,-1682.199 -4.30686,-1673.691 -8.51271,-1678.779 -84.8076,-1615.689 -122.9553,-1584.147 -118.9887,-1579.026 -129.2148,-1570.212 -133.5162,-1575.414 -247.7277,-1480.974 -243.5922,-1475.634 -253.9962,-1467.03 -258.2976,-1472.232 -334.515,-1409.208 -372.624,-1377.696 -368.316,-1372.131 -379.224,-1363.683 -383.268,-1368.9 -497.475,-1274.457 -493.332,-1269.105 -503.505,-1260.696 -507.807,-1265.898 -508.161,-1265.622 -596.943,-1192.209 -600.624,-1196.964 -732.867,-1087.611 -676.602,-1019.568 -648.471,-985.545 -642.519,-984.789 -650.334,-923.286 -299.1591,-878.652 " />
  <polygon id="20336071284" title="" points="1919.112,-1088.022 1933.884,-1102.179 1944.996,-1091.232 1915.113,-1062.588 1900.17,-1048.266 1889.442,-1059.459 1889.379,-1059.525 1919.112,-1088.022 " />
  <polygon id="20336071284" title="" points="1733.544,-995.307 1721.025,-996.897 1732.335,-1007.868 1737.99,-1013.355 1751.718,-999.201 1758.582,-992.124 1733.544,-995.307 " />
  <polygon id="20336071284" title="" points="1950.603,-783.552 1961.961,-782.109 1960.41,-769.905 1937.694,-772.794 1926.336,-774.237 1927.884,-786.438 1950.603,-783.552 " />
  <polygon id="20336071284" title="" points="1792.359,-758.169 1803.174,-756.795 1801.749,-745.581 1780.122,-748.329 1769.31,-749.703 1770.735,-760.92 1792.359,-758.169 " />
  <polygon id="20336071284" title="" points="1714.368,-768.081 1725.18,-766.707 1723.629,-754.506 1702.005,-757.254 1691.19,-758.628 1692.741,-770.832 1714.368,-768.081 " />
  <polygon id="20336071284" title="" points="1698.795,-753.429 1702.863,-752.913 1700.064,-730.89 1698.666,-719.877 1686.462,-721.428 1689.261,-743.451 1690.662,-754.461 1698.795,-753.429 " />
  <polygon id="20336071284" title="" points="1502.823,-1037.307 1513.833,-1035.906 1512.282,-1023.705 1479.249,-1027.902 1480.8,-1040.106 1502.823,-1037.307 " />
  <polygon id="20336071284" title="" points="1457.412,-1245.804 1468.503,-1244.394 1466.952,-1232.193 1444.773,-1235.01 1433.685,-1236.42 1435.236,-1248.621 1457.412,-1245.804 " />
  <polygon id="20336071284" title="" points="1426.989,-1232.994 1421.19,-1187.361 1420.971,-1185.633 1403.115,-1187.904 1394.187,-1189.038 1407.768,-1295.913 1414.56,-1349.349 1438.587,-1324.26 1426.989,-1232.994 " />
  <polygon id="20336071284" title="" points="1282.452,-1386.198 1302.789,-1383.615 1279.149,-1197.609 1320.237,-1192.389 1340.781,-1189.776 1323.195,-1051.389 1241.433,-1061.781 1200.552,-1066.977 1241.778,-1391.367 1282.452,-1386.198 " />
  <polygon id="20336071284" title="" points="1280.454,-1491.363 1288.236,-1483.338 1279.416,-1474.782 1256.07,-1498.851 1264.89,-1507.407 1280.454,-1491.363 " />
  <polygon id="20336071284" title="" points="1168.845,-1421.202 1179.933,-1419.792 1178.382,-1407.591 1156.206,-1410.408 1145.118,-1411.818 1146.669,-1424.019 1168.845,-1421.202 " />
  <polygon id="20336071284" title="" points="1363.902,-1189.257 1372.332,-1188.186 1369.812,-1168.347 1368.552,-1158.426 1343.253,-1161.642 1345.776,-1181.481 1347.036,-1191.402 1363.902,-1189.257 " />
  <polygon id="20336071284" title="" points="1059.465,-1110.915 1093.689,-1106.565 1090.437,-1080.972 1021.989,-1089.672 987.762,-1094.022 991.017,-1119.615 1059.465,-1110.915 " />
  <polygon id="20336071284" title="" points="1079.439,-1339.452 1109.199,-1335.669 1096.485,-1235.64 1090.128,-1185.627 1000.848,-1196.973 1013.559,-1297.002 1019.916,-1347.018 1079.439,-1339.452 " />
  <polygon id="20336071284" title="" points="958.137,-1826.901 964.68,-1820.154 956.499,-1812.216 926.931,-1842.699 945.045,-1840.395 958.137,-1826.901 " />
  <polygon id="20336071284" title="" points="837.306,-2058.654 854.658,-2056.449 835.596,-1906.455 800.892,-1910.865 783.54,-1913.07 802.602,-2063.064 837.306,-2058.654 " />
  <polygon id="20336071284" title="" points="802.485,-927.057 806.649,-926.526 805.137,-914.613 958.377,-895.14 1034.997,-885.402 1033.989,-887.061 1033.53,-890.439 1034.82,-893.598 1037.517,-895.686 1040.898,-896.145 1044.054,-894.855 1046.142,-892.158 1046.604,-888.777 1045.311,-885.621 1043.925,-884.265 1155.228,-870.12 1157.295,-886.389 1158.33,-894.525 1168.449,-893.238 1166.382,-876.969 1165.347,-868.833 1315.086,-849.804 1316.976,-864.684 1328.88,-863.172 1326.99,-848.292 1427.184,-835.557 1477.281,-829.191 1464.42,-728.004 1457.991,-677.412 1472.871,-675.519 1471.812,-667.188 1456.932,-669.078 1452.192,-631.779 1449.819,-613.128 1970.631,-546.939 1988.685,-688.995 1997.712,-760.023 2186.775,-735.996 2238.054,-785.109 2263.692,-809.667 2183.607,-893.307 2173.641,-883.764 2164.512,-893.298 2174.046,-902.427 2071.131,-1009.896 2062.029,-1001.181 2052.9,-1010.715 2061.999,-1019.43 1993.389,-1091.076 1959.084,-1126.902 1949.988,-1118.181 1940.856,-1127.712 1949.952,-1136.43 1847.037,-1243.902 1837.935,-1235.187 1828.392,-1245.153 1837.926,-1254.282 1796.793,-1296.354 1776.228,-1317.39 1767.561,-1309.092 1739.778,-1338.102 1725.888,-1352.607 1716.354,-1343.478 1707.639,-1352.577 1717.173,-1361.709 1614.255,-1469.175 1603.854,-1459.218 1594.311,-1469.184 1604.277,-1478.727 1604.754,-1479.099 1584.279,-1500.477 1574.043,-1511.166 1548.822,-1537.623 1536.213,-1550.853 1544.448,-1558.737 1522.173,-1583.151 1511.034,-1595.358 1501.503,-1586.226 1492.371,-1595.76 1501.38,-1604.385 1433.229,-1676.994 1399.155,-1713.297 1389.189,-1703.751 1380.567,-1712.94 1388.661,-1722.093 1320.258,-1793.523 1286.058,-1829.238 1277.391,-1820.937 1268.676,-1830.039 1276.911,-1837.923 1208.301,-1909.569 1173.996,-1945.392 1165.329,-1937.094 1156.2,-1946.628 1165.299,-1955.343 1061.811,-2063.319 1053.147,-2055.015 1044.843,-2063.679 1053.939,-2072.397 985.023,-2144.304 950.565,-2180.256 941.466,-2171.538 936.339,-2176.89 868.935,-2111.343 805.248,-2119.437 772.038,-1858.14 811.185,-1853.163 830.757,-1850.676 815.427,-1730.046 807.762,-1669.731 969.798,-1649.139 1050.816,-1638.843 1046.781,-1607.097 1044.762,-1591.224 1047.618,-1591.341 1051.728,-1589.661 1054.446,-1586.151 1055.046,-1581.753 1053.366,-1577.643 1049.856,-1574.925 1045.455,-1574.328 1042.719,-1575.153 1022.898,-1419.186 1017.087,-1419.924 1003.974,-1316.76 997.419,-1265.178 873.417,-1280.937 811.416,-1288.818 809.901,-1276.911 798.594,-1278.351 799.512,-1290.33 787.605,-1291.842 756.339,-1045.821 740.706,-922.812 792.639,-916.212 794.151,-928.116 802.485,-927.057 " />
  <polygon id="20336071327" title="" points="190.4262,583.854 190.6026,582.465 185.2458,581.784 116.6355,556.272 115.7547,556.161 106.8093,626.547 102.3363,661.74 120.5115,697.371 129.5991,715.188 206.5797,724.971 245.0703,729.864 251.3619,675.468 261.4986,595.71 190.0731,586.632 190.4262,583.854 " />
  <polygon id="20336071371" title="" points="1902.144,73.1865 1902.309,73.257 1931.772,77.0016 1961.838,51.8499 1976.874,39.2739 1990.368,-66.9069 1892.355,-79.3632 1843.35,-85.5915 1836.795,-34.0062 1833.516,-8.21379 1842.444,-7.0791 1833.366,64.3464 1901.817,73.0458 1902.144,73.1865 " />
  <polygon id="20336074843" title="" points="749.589,582.087 726.738,579.183 707.208,732.855 777.792,725.547 795.288,587.895 749.589,582.087 " />
  <polygon id="20336074876" title="" points="826.176,592.917 802.491,589.908 791.295,677.997 785.697,722.043 856.752,731.073 867.948,642.984 873.546,598.938 826.176,592.917 " />
  <polygon id="20336076658" title="" points="-371.964,-398.601 -375.237,-399.018 -377.556,-380.766 -378.717,-371.637 -368.895,-370.389 -366.576,-388.644 -365.415,-397.77 -371.964,-398.601 " />
  <polygon id="20336076696" title="" points="-218.8953,-13.46211 -224.0124,-23.50257 -238.7718,-25.37835 -219.6192,12.20268 -208.6614,6.61881 -218.8953,-13.46211 " />
  <polygon id="20336076733" title="" points="-95.838,229.3083 -100.5636,220.044 -111.3978,225.5703 -96.5394,254.7 -89.1102,269.265 -87.2949,254.9799 -86.3871,247.8372 -95.838,229.3083 " />
  <polygon id="20336076833" title="" points="12.36147,336.249 8.2947,335.733 5.47626,357.909 4.06707,368.997 16.26738,370.548 19.08582,348.372 20.49501,337.284 12.36147,336.249 " />
  <polygon id="20336111161" title="" points="186.6504,581.304 186.519,582.339 222.2316,586.875 240.0879,589.146 239.0667,597.18 264.3633,600.396 249.1197,720.339 236.2233,718.701 229.7751,717.882 231.4194,704.943 137.6172,693.012 123.9324,666.159 117.09,652.731 121.9818,614.241 124.4277,594.993 85.116,589.998 78.36,576.753 81.5745,551.46 129.2034,557.514 129.6567,553.947 181.086,578.493 186.9135,579.234 186.6504,581.304 " />
  <polygon id="20336111161" title="" points="-17.6796,777.483 -15.86346,781.047 -21.20832,783.771 18.06255,860.835 18.69471,855.861 38.535,858.384 48.4554,859.644 47.5098,867.084 196.3128,885.996 197.2584,878.556 209.1627,880.068 208.2171,887.508 357.021,906.42 357.966,898.98 369.87,900.492 368.925,907.932 517.728,926.844 518.673,919.404 530.577,920.916 529.632,928.356 678.435,947.268 679.38,939.828 691.284,941.343 690.339,948.783 839.142,967.692 840.087,960.252 850.206,961.539 863.103,860.055 791.976,851.016 802.662,766.926 808.008,724.878 793.128,722.988 785.685,722.043 785.163,726.159 779.541,725.445 726.198,730.968 699.525,733.731 694.041,776.886 674.697,774.426 684.858,694.464 689.94,654.483 706.803,656.625 715.236,657.699 722.094,603.732 725.526,576.75 576.72,557.838 575.775,565.278 563.871,563.766 564.816,556.326 416.013,537.414 415.068,544.854 403.164,543.339 404.109,535.899 319.788,525.183 277.6272,519.825 277.4382,521.313 262.5579,519.423 255.1179,518.475 254.3613,524.43 242.457,522.915 243.2136,516.963 220.3971,514.065 208.9887,512.613 228.6567,357.858 215.2644,356.157 216.021,350.205 229.4133,351.906 249.0813,197.1516 235.689,195.4497 236.4453,189.4974 249.8376,191.1996 268.6233,43.3884 278.016,-30.5172 275.04,-30.8952 276.3678,-41.3427 157.3251,-56.472 157.0227,-54.0912 134.9997,-56.8899 137.9727,-80.2815 139.4589,-91.977 -186.7149,-133.431 -182.0751,-169.9368 -179.7555,-188.1897 -257.7171,-198.0978 -393.78,-128.7636 -461.811,-94.0962 -457.173,-84.9966 -462.534,-82.2636 -417.126,6.83247 -394.422,51.3804 -389.076,48.6561 -383.628,59.3475 -388.98,62.0763 -343.572,151.1724 -320.868,195.7203 -315.525,192.9957 -310.074,203.6874 -315.429,206.4159 -270.0207,295.512 -247.3167,340.059 -241.9707,337.335 -236.5218,348.027 -241.8759,350.757 -196.4679,439.851 -173.7639,484.401 -168.4179,481.674 -162.969,492.366 -168.3231,495.096 -100.2111,628.74 -94.8651,626.016 -89.4162,636.708 -94.7697,639.435 -26.65758,773.079 -21.31182,770.355 -17.6796,777.483 " />
  <polygon id="20336111298" title="" points="73.8315,-248.994 71.7387,-232.5267 57.8988,-234.2856 62.0847,-267.2205 64.1775,-283.6881 78.0174,-281.9292 73.8315,-248.994 " />
  <polygon id="20336111298" title="" points="-153.9822,-277.9473 -156.0753,-261.4797 -169.9149,-263.2386 -165.7293,-296.1738 -163.6362,-312.642 -149.7966,-310.881 -153.9822,-277.9473 " />
  <polygon id="20336111298" title="" points="265.7385,-274.5225 266.9223,-283.8372 298.5111,-279.8226 296.1435,-261.1932 294.9597,-251.8785 263.3709,-255.8934 265.7385,-274.5225 " />
  <polygon id="20336111298" title="" points="-376.872,-609.918 -376.251,-614.79 -399.084,-617.691 -410.499,-619.14 -412.356,-604.527 -437.928,-607.779 -450.714,-609.402 -447.498,-634.71 -381.429,-626.313 -348.396,-622.116 -351.612,-596.808 -369.276,-599.052 -378.108,-600.177 -376.872,-609.918 " />
  <polygon id="20336111298" title="" points="-56.0688,-326.199 -53.9634,-342.765 -32.3388,-340.017 -21.52674,-338.643 -25.73769,-305.508 -27.84318,-288.9423 -24.28074,-288.4893 -38.7795,-174.4071 -46.029,-117.366 -72.4092,-120.7185 -85.5993,-122.3949 -71.1006,-236.4774 -63.8511,-293.5185 -60.2799,-293.0646 -56.0688,-326.199 " />
  <polygon id="20336111298" title="" points="-462.081,-94.6269 -461.811,-94.0962 -325.749,-163.4307 -257.7171,-198.0978 -179.7555,-188.1897 -186.7149,-133.431 30.7344,-105.795 139.4589,-91.977 154.6683,-211.65 176.6913,-208.851 176.388,-206.4654 255.7497,-196.3794 295.4304,-191.3361 277.1202,-47.2638 383.763,-33.7104 437.082,-26.93373 438.408,-37.35 445.848,-36.4044 444.525,-25.98825 581.274,-8.60853 597.033,-132.6111 604.914,-194.6124 509.283,-206.7663 461.466,-212.8431 466.635,-253.5159 469.221,-273.8523 551.559,-263.388 592.728,-258.1557 614.286,-427.791 514.887,-440.424 517.407,-460.263 518.667,-470.184 506.466,-471.735 504.765,-458.343 501.195,-458.796 484.452,-326.958 460.791,-329.964 479.235,-475.197 263.9019,-502.563 262.0122,-487.683 256.0599,-488.439 257.9499,-503.319 179.5905,-513.279 140.4108,-518.259 137.385,-494.448 128.4567,-495.585 131.4828,-519.393 31.4871,-532.101 -18.51084,-538.455 -20.40183,-523.578 -32.8989,-525.165 -31.0077,-540.045 -161.6595,-556.647 -121.9074,-869.433 -250.2747,-885.747 -314.457,-893.904 -316.35,-879.024 -346.407,-882.843 -344.142,-900.678 -375.093,-904.611 -377.358,-886.776 -560.487,-910.05 -652.05,-921.687 -682.656,-680.868 -731.166,-656.148 -755.421,-643.788 -714.471,-563.427 -693.996,-523.245 -683.304,-528.696 -677.856,-518.004 -683.727,-515.01 -615.624,-381.363 -609.744,-384.36 -604.293,-373.668 -610.173,-370.671 -564.765,-281.5749 -542.064,-237.027 -536.181,-240.0237 -530.733,-229.3317 -536.079,-226.6077 -490.671,-137.5119 -467.967,-92.964 -462.621,-95.6883 -462.081,-94.6269 " />
  <polygon id="20336111443" title="" points="1037.994,648.291 1038.498,644.322 1074.132,648.852 1091.949,651.117 1090.434,663.021 1036.986,656.226 1037.994,648.291 " />
  <polygon id="20336111443" title="" points="856.59,794.712 857.409,788.265 886.179,791.922 900.564,793.749 898.923,806.646 898.104,813.093 869.337,809.436 854.952,807.609 856.59,794.712 " />
  <polygon id="20336111443" title="" points="930.543,974.268 930.858,971.79 942.762,973.302 941.817,980.742 1012.881,989.775 1048.413,994.29 1044.96,990.162 1054.164,982.461 1061.856,991.659 1134.012,931.296 1170.09,901.113 1162.38,891.927 1171.584,884.229 1179.3,893.421 1294.35,797.172 1286.634,787.98 1295.838,780.279 1303.554,789.474 1418.601,693.225 1410.885,684.03 1420.089,676.332 1427.805,685.524 1504.5,621.363 1542.846,589.284 1535.139,580.083 1544.343,572.382 1552.038,581.583 1667.1,485.337 1659.39,476.133 1668.594,468.435 1676.304,477.636 1753.002,413.472 1791.354,381.39 1783.644,372.186 1792.848,364.485 1800.558,373.689 1942.611,254.8464 1935.417,246.2469 2000.22,192.0348 2032.62,164.9289 2024.613,155.3586 2033.817,147.6573 2041.812,157.2114 2078.58,126.4524 2096.964,111.0726 2089.146,101.7309 2098.35,94.0311 2106.159,103.362 2117.664,93.7341 2027.238,-14.35698 2031.204,-45.5691 2033.187,-61.1751 2001.045,-65.2599 1984.974,-67.3023 1985.58,-72.0639 1930.509,-79.0629 1932.174,-92.1576 1893.78,-97.0371 1874.583,-99.4767 1862.337,-3.1236 1881.237,21.28011 1890.687,33.4821 1829.46,84.7059 1812.753,64.7388 1784.469,61.1439 1770.327,59.3466 1770.705,56.3706 1678.647,44.6706 1632.618,38.8206 1632.087,42.9873 1593.267,38.0535 1560.441,296.3205 1518.489,329.388 1497.513,345.924 1503.024,353.04 1493.535,360.387 1488.024,353.271 1446.111,385.731 1425.156,401.961 1170.69,369.621 1177.233,318.135 1169.793,317.19 1171.308,305.286 1178.748,306.231 1197.66,157.4286 1190.22,156.483 1191.732,144.5787 1199.172,145.5243 1218.045,-2.981238 972.216,-34.224 961.743,48.1818 939.726,45.3837 940.029,43.0029 837.354,29.95386 831.114,79.059 835.578,79.6263 812.313,262.6851 825.705,264.3873 824.949,270.3393 811.557,268.6374 791.889,423.393 805.281,425.094 804.525,431.046 791.133,429.345 778.02,532.515 771.465,584.1 924.732,603.579 913.536,691.671 907.938,735.717 856.986,729.24 856.752,731.073 824.256,726.945 808.008,724.878 797.319,808.971 791.976,851.016 863.103,860.055 853.875,932.67 849.261,968.979 903.027,975.813 929.913,979.23 930.543,974.268 " />
  <polygon id="20336111588" title="" points="1633.449,-201.7959 1630.839,-181.2612 1615.959,-183.1524 1621.179,-224.2218 1623.786,-244.7568 1638.669,-242.8656 1633.449,-201.7959 " />
  <polygon id="20336111588" title="" points="1213.74,-181.65 1227.528,-179.8974 1224.087,-152.8152 1212.378,-154.3032 1206.525,-155.0472 1187.916,-8.62482 1172.043,-10.64205 1164.108,-11.65068 1178.808,-127.3203 1186.158,-185.1552 1213.74,-181.65 " />
  <polygon id="20336111588" title="" points="679.026,-3.2412 679.467,-6.71322 686.907,-5.76765 685.584,4.64847 792.228,18.20175 845.547,24.97839 857.754,-71.07 863.859,-119.094 959.091,-106.9905 959.394,-109.3716 981.411,-106.5735 975.282,-58.3404 972.216,-34.224 1207.629,-4.30506 1209.18,-16.5069 1221.084,-14.99397 1219.761,-4.57776 1368.564,14.33379 1369.509,6.89364 1381.413,8.40657 1380.468,15.84672 1529.271,34.7583 1530.216,27.31812 1542.12,28.83105 1541.175,36.2712 1584.624,41.7933 1585.23,37.032 1632.087,42.9873 1651.527,-109.9824 1797.951,-91.3734 1788.873,-19.94793 1780.539,-21.00699 1770.327,59.3466 1799.235,63.0204 1813.686,64.8573 1861.422,27.88905 1864.935,0.2307069 1862.337,-3.1236 1874.583,-99.4767 1912.977,-94.5975 1932.174,-92.1576 1931.946,-90.372 1967.469,-85.8573 1985.232,-83.6001 1983.795,-72.291 1985.58,-72.0639 1984.974,-67.3023 2017.116,-63.2175 2033.187,-61.1751 2027.238,-14.35698 2089.422,59.9754 2120.514,97.1415 2121.792,96.0735 2134.836,111.6669 2141.361,119.4636 2179.329,87.7014 2171.628,78.4977 2175.078,75.6126 2175.345,75.3897 2180.832,70.7991 2188.533,80.0031 2348.067,-53.4618 2427.834,-120.1941 2420.133,-129.3996 2429.337,-137.0994 2437.038,-127.8954 2443.938,-133.6695 2428.8,-151.758 2421.231,-160.8024 2498.679,-225.5949 2460.831,-270.81 2441.904,-293.4174 2374.833,-237.3066 1938.33,-292.7823 1959.825,-461.922 1970.574,-546.492 1623.366,-590.619 1449.765,-612.681 1441.569,-548.202 1437.471,-515.961 1455.327,-513.69 1454.382,-506.25 1436.526,-508.521 1417.14,-355.998 1317.144,-368.706 1267.149,-375.06 1265.256,-360.18 1252.761,-361.77 1254.651,-376.647 1104.654,-395.712 1102.638,-379.839 1101.63,-371.904 1092.702,-373.038 1094.718,-388.911 1095.726,-396.846 1018.617,-406.647 980.061,-411.546 978.171,-396.666 972.219,-397.422 974.109,-412.302 829.503,-430.68 757.2,-439.869 738.729,-294.6396 722.757,-296.6712 714.771,-297.6867 733.242,-442.914 718.956,-444.729 715.176,-414.969 614.286,-427.791 600.291,-317.676 593.295,-262.62 592.728,-258.1557 716.235,-242.4591 708.417,-180.954 704.508,-150.2013 624.156,-160.4136 628.125,-191.6622 612.651,-193.629 604.914,-194.6124 589.152,-70.6098 581.274,-8.60853 645.855,-0.400917 678.144,3.7029 679.026,-3.2412 " />
  <polygon id="20336111686" title="" points="-478.614,-935.589 -470.478,-934.554 -473.475,-910.974 -474.975,-899.184 -434.895,-894.09 -414.858,-891.543 -411.861,-915.123 -410.361,-926.913 -385.362,-923.736 -372.864,-922.149 -375.093,-904.611 -344.142,-900.678 -341.913,-918.213 -311.853,-914.394 -313.59,-900.735 -314.457,-893.904 -121.9074,-869.433 -108.3162,-976.371 -101.5206,-1029.843 29.42856,-1013.199 31.3197,-1028.079 43.8168,-1026.492 41.9256,-1011.612 179.7171,-994.098 181.23,-1006.002 193.1343,-1004.49 191.6214,-992.586 324.552,-975.693 391.017,-967.245 392.529,-979.149 404.436,-977.637 402.921,-965.733 552.021,-946.782 570.474,-1091.973 597.258,-1088.568 582.399,-971.652 681.801,-959.019 703.548,-1130.142 649.485,-1137.012 622.452,-1140.447 627.495,-1180.128 630.015,-1199.97 670.59,-1194.813 690.876,-1192.236 705.06,-1303.845 529.077,-1326.21 441.084,-1337.394 432.42,-1269.216 368.931,-1277.286 337.185,-1281.318 336.882,-1278.933 314.859,-1281.732 326.019,-1369.548 272.0544,-1376.409 245.0712,-1379.838 220.5996,-1187.286 -171.2799,-1237.095 -127.3875,-1273.401 -105.4413,-1291.557 -257.2146,-1475.097 -335.205,-1410.606 -374.199,-1378.359 -369.414,-1372.575 -378.663,-1364.928 -383.445,-1370.712 -499.044,-1275.123 -494.259,-1269.336 -503.508,-1261.689 -508.29,-1267.476 -623.889,-1171.887 -619.104,-1166.1 -628.353,-1158.453 -636,-1167.702 -676.284,-1134.39 -696.426,-1117.734 -688.782,-1108.491 -698.031,-1100.844 -705.678,-1110.093 -732.495,-1087.914 -644.454,-981.447 -652.05,-921.687 -499.377,-902.286 -496.38,-925.866 -494.883,-937.656 -478.614,-935.589 " />
  <polygon id="20336112013" title="" points="89.4153,-1232.991 98.0457,-1231.893 111.7881,-1340.022 118.6593,-1394.088 142.4679,-1391.061 118.4502,-1202.082 85.3167,-1206.294 68.7498,-1208.4 72.1539,-1235.184 89.4153,-1232.991 " />
  <polygon id="20336112013" title="" points="356.349,-1432.107 356.247,-1431.312 419.739,-1423.242 451.485,-1419.21 445.623,-1373.094 442.692,-1350.036 454.596,-1348.521 465.12,-1431.342 470.385,-1472.754 465.627,-1473.357 487.731,-1647.267 487.242,-1647.042 483.396,-1646.517 479.802,-1647.987 477.426,-1651.056 476.901,-1654.905 478.371,-1658.499 481.44,-1660.875 485.286,-1661.4 488.88,-1659.93 489.297,-1659.588 493.38,-1691.715 495.423,-1707.78 683.754,-1683.846 689.052,-1725.531 580.572,-1857.321 609.669,-1881.399 624.216,-1893.441 632.484,-1883.436 636.621,-1878.435 753.141,-1974.771 816.216,-1898.466 847.755,-1860.315 877.047,-1884.528 891.69,-1896.633 820.221,-1983.093 784.488,-2026.32 939.045,-2174.277 932.817,-2180.772 941.448,-2189.04 872.247,-2261.301 837.645,-2297.43 828.987,-2289.129 820.683,-2297.793 829.374,-2306.121 797.52,-2339.388 781.593,-2356.023 740.97,-2322.408 720.657,-2305.599 728.538,-2296.077 724.389,-2292.621 732.039,-2283.375 722.775,-2275.716 717.996,-2281.494 655.686,-2229.984 624.531,-2204.232 629.328,-2198.427 620.082,-2190.78 615.282,-2196.582 499.794,-2101.086 504.594,-2095.284 495.345,-2087.637 490.548,-2093.439 413.484,-2029.713 374.949,-1997.85 379.635,-1991.958 370.389,-1984.311 365.577,-1990.095 288.5115,-1926.372 249.9786,-1894.509 254.7726,-1888.71 245.5248,-1881.063 240.732,-1886.859 163.6674,-1823.133 125.1351,-1791.27 129.9636,-1785.522 120.7158,-1777.875 115.9317,-1783.659 0.334998,-1688.07 5.1189,-1682.283 -4.12884,-1674.636 -8.91276,-1680.423 -122.5074,-1586.373 -120.5511,-1578.366 -128.9733,-1571.4 -133.7607,-1577.184 -210.8253,-1513.455 -249.3576,-1481.592 -244.5702,-1475.811 -252.4308,-1469.31 -105.4413,-1291.557 -149.3337,-1255.248 -171.2799,-1237.095 220.5996,-1187.286 245.0712,-1379.838 299.0373,-1372.977 326.019,-1369.548 334.527,-1436.493 349.209,-1434.627 356.55,-1433.694 356.349,-1432.107 " />
  <polygon id="20336112139" title="" points="1404.132,-1082.892 1406.895,-1104.642 1420.734,-1102.884 1415.205,-1059.378 1412.442,-1037.628 1398.603,-1039.386 1404.132,-1082.892 " />
  <polygon id="20336112139" title="" points="1192.917,-1109.223 1195.65,-1130.721 1209.489,-1128.963 1204.023,-1085.964 1201.29,-1064.463 1187.451,-1066.221 1192.917,-1109.223 " />
  <polygon id="20336112139" title="" points="1781.325,-938.733 1815.741,-934.359 1814.226,-922.452 1823.154,-921.318 1822.248,-914.181 1710.072,-928.437 1711.686,-941.133 1712.493,-947.481 1781.325,-938.733 " />
  <polygon id="20336112139" title="" points="1773.153,-833.925 1808.766,-829.401 1804.983,-799.638 1733.76,-808.692 1698.15,-813.216 1700.673,-833.058 1701.933,-842.976 1773.153,-833.925 " />
  <polygon id="20336112139" title="" points="1733.118,-594.06 1764.042,-590.13 1762.056,-574.503 1700.211,-582.363 1669.287,-586.293 1671.273,-601.92 1733.118,-594.06 " />
  <polygon id="20336112139" title="" points="2124.681,-743.889 2188.164,-735.819 2238.594,-784.113 2263.809,-808.26 2182.539,-893.121 2173.872,-884.82 2165.571,-893.487 2174.238,-901.788 2070.489,-1010.121 2061.822,-1001.823 2053.524,-1010.487 2062.191,-1018.788 1958.442,-1127.121 1949.775,-1118.823 1948.53,-1120.122 1825.281,-1002.09 1792.254,-1036.161 1775.742,-1053.198 1752.48,-1030.65 1740.852,-1019.376 1768.845,-990.516 1532.283,-1020.582 1413.999,-1035.615 1427.868,-1144.737 1434.804,-1199.298 1399.407,-1203.798 1381.707,-1206.045 1381.935,-1207.833 1332.654,-1214.094 1321.053,-1122.828 1315.254,-1077.195 1332.516,-1075.002 1341.147,-1073.907 1338.876,-1056.048 1337.742,-1047.12 1288.041,-1053.438 1301.91,-1162.56 1308.846,-1217.121 1294.161,-1218.987 1286.82,-1219.92 1286.592,-1218.135 1179.06,-1231.8 1125.294,-1238.634 1120.299,-1199.334 1117.8,-1179.687 1095.78,-1182.489 1096.08,-1184.871 1032.591,-1192.938 1000.848,-1196.973 1009.512,-1265.151 705.06,-1303.845 690.876,-1192.236 718.554,-1188.717 721.326,-1210.542 722.715,-1221.453 771.819,-1215.213 796.371,-1212.093 788.556,-1150.587 784.647,-1119.834 730.581,-1126.707 703.548,-1130.142 681.801,-959.019 748.068,-950.595 781.2,-946.386 796.047,-1063.305 813.903,-1061.037 822.831,-1059.903 804.393,-914.709 953.493,-895.758 955.005,-907.662 966.909,-906.15 965.397,-894.246 1098.327,-877.353 1164.792,-868.905 1166.307,-880.809 1178.211,-879.297 1176.699,-867.393 1268.76,-855.693 1314.789,-849.843 1316.682,-864.723 1329.177,-863.133 1327.287,-848.253 1427.283,-835.545 1477.281,-829.191 1464.357,-727.509 1457.895,-676.668 1475.901,-674.379 1474.956,-666.939 1456.95,-669.228 1449.765,-612.681 1796.97,-568.554 1970.574,-546.492 1997.712,-760.023 2124.681,-743.889 " />
  <polygon id="20336112471" title="" points="1138.677,-1408.989 1167.645,-1405.308 1165.878,-1391.418 1164.996,-1384.473 1107.063,-1391.838 1078.095,-1395.519 1079.862,-1409.406 1080.744,-1416.351 1138.677,-1408.989 " />
  <polygon id="20336112471" title="" points="1045.158,-1605.126 1043.109,-1588.992 1043.916,-1589.388 1047.762,-1589.913 1051.356,-1588.443 1053.732,-1585.374 1054.257,-1581.528 1052.787,-1577.934 1049.718,-1575.558 1045.872,-1575.033 1042.278,-1576.503 1041.597,-1577.088 1018.71,-1397.019 1014.246,-1397.586 999.213,-1279.305 1011.135,-1277.922 1019.91,-1346.967 1115.145,-1334.865 1115.448,-1337.244 1130.127,-1335.378 1137.468,-1334.445 1129.353,-1270.572 1125.294,-1238.634 1232.826,-1224.969 1286.592,-1218.135 1289.355,-1239.861 1340.544,-1233.354 1366.14,-1230.102 1367.313,-1239.327 1379.532,-1237.776 1385.643,-1236.999 1381.707,-1206.045 1417.104,-1201.548 1434.804,-1199.298 1420.935,-1090.176 1413.999,-1035.615 1650.564,-1005.549 1768.845,-990.516 1740.852,-1019.376 1764.111,-1041.924 1775.742,-1053.198 1808.769,-1019.127 1825.281,-1002.09 1948.53,-1120.122 1941.474,-1127.49 1950.141,-1135.788 1880.976,-1208.013 1846.392,-1244.124 1827.978,-1226.49 1819.68,-1235.157 1838.094,-1252.788 1796.586,-1296.168 1775.835,-1317.858 1767.162,-1309.569 1612.932,-1470.573 1535.82,-1551.078 1544.502,-1559.391 1521.669,-1583.217 1510.251,-1595.127 1497.972,-1583.367 1491.831,-1577.487 1483.53,-1586.154 1501.947,-1603.791 1432.62,-1676.124 1397.958,-1712.292 1389.561,-1704.243 1381.257,-1712.907 1389.681,-1720.98 1320.516,-1793.211 1285.935,-1829.325 1277.46,-1821.204 1269.159,-1829.868 1277.637,-1837.995 1173.846,-1946.289 1165.362,-1938.165 1157.058,-1946.829 1165.584,-1955.001 1061.832,-2063.34 1053.261,-2055.126 1044.96,-2063.79 1053.531,-2072.007 949.785,-2180.352 941.148,-2172.084 939.045,-2174.277 784.488,-2026.32 855.957,-1939.863 891.69,-1896.633 862.401,-1872.42 847.755,-1860.315 833.1,-1878.042 825.774,-1886.904 760.131,-1832.64 774.786,-1814.91 782.115,-1806.045 735.87,-1767.816 721.209,-1785.543 713.877,-1794.408 709.251,-1790.583 624.216,-1893.441 595.122,-1869.36 580.572,-1857.321 652.893,-1769.463 689.052,-1725.531 685.518,-1697.742 683.754,-1683.846 1049.259,-1637.391 1045.158,-1605.126 " />
</svg>