<?xml version="1.0" encoding="utf-8"?>
<svg xmlns:xsi="http://www.w3.org/2001/XMLSchema-instance" xmlns:xsd="http://www.w3.org/2001/XMLSchema" version="1.1" id="Map" class="gen-by-synoptic-designer" xmlns:xlink="http://www.w3.org/1999/xlink" viewBox="-7346.07428420167 -12599.9790205813 23122.2960832823 24319.1997259649 " xml:space="preserve" height="100%" width="100%" xmlns="http://www.w3.org/2000/svg">
  <polygon id="20336057915" title="" points="19.80264,697.236 16.58769,722.532 -50.0157,714.066 -123.6447,569.577 -174.8328,469.125 -98.295,478.854 -45.0849,485.616 -67.7676,664.092 -70.5207,685.755 -17.23944,692.529 19.80264,697.236 " />
  <polygon id="20336058039" title="" points="-17.48388,431.967 -3.26508,433.776 9.6879,331.857 -262.4046,297.2754 -177.3045,464.277 -98.9742,474.231 -44.5173,481.152 -37.9362,429.369 -17.48388,431.967 " />
  <polygon id="20336058173" title="" points="34.0266,497.946 54.7758,500.577 75.1611,340.176 39.1722,335.604 14.15199,332.424 0.915336,436.575 -2.074422,460.098 -4.15296,476.454 6.26325,477.777 4.18119,494.16 34.0266,497.946 " />
  <polygon id="20336058306" title="" points="1742.589,-1193.019 1775.571,-1188.828 1826.052,-1237.173 1768.998,-1296.75 1729.332,-1338.171 1718.247,-1327.557 1710.543,-1320.177 1701.462,-1248.723 1695.15,-1199.049 1742.589,-1193.019 " />
  <polygon id="20336058425" title="" points="1608.552,-1358.232 1646.157,-1353.453 1701.393,-1295.775 1704.558,-1320.678 1717.335,-1332.915 1726.218,-1341.42 1567.917,-1506.717 1557.576,-1425.354 1550.388,-1368.789 1554.858,-1368.21 1554.462,-1365.105 1608.552,-1358.232 " />
  <polygon id="20336058556" title="" points="-280.3653,-1062.222 -281.7615,-1051.236 -293.6658,-1052.751 -291.6576,-1068.549 -290.2617,-1079.535 -278.3574,-1078.023 -280.3653,-1062.222 " />
  <polygon id="20336058556" title="" points="-378.804,-1223.826 -413.205,-1228.2 -430.845,-1089.399 -443.109,-992.901 -266.4693,-970.452 -236.5797,-1205.634 -291.2934,-1212.588 -329.331,-1217.421 -329.316,-1217.538 -378.804,-1223.826 " />
  <polygon id="20336058710" title="" points="1903.611,-861.357 1960.968,-854.067 1965.321,-888.3 1968.345,-912.099 1885.842,-922.584 1828.485,-929.874 1824.135,-895.641 1821.108,-871.842 1903.611,-861.357 " />
  <polygon id="20336141832" title="" points="1629.702,488.436 1605.897,459.981 1591.218,442.434 1597.479,437.196 1634.202,406.476 1663.173,382.236 1667.175,378.888 1674.576,379.83 1709.55,421.635 1629.702,488.436 " />
  <polygon id="20336158041" title="" points="164.7657,-530.295 173.238,-529.221 176.5485,-555.267 177.9876,-566.592 158.5017,-569.07 150.0294,-570.147 146.7189,-544.098 145.2798,-532.773 164.7657,-530.295 " />
  <polygon id="20336158139" title="" points="169.8939,-570.645 178.3659,-569.568 181.6764,-595.617 183.1158,-606.942 163.6296,-609.42 155.1576,-610.494 151.8471,-584.448 150.4077,-573.123 169.8939,-570.645 " />
  <polygon id="20336158237" title="" points="175.0218,-610.995 183.4941,-609.918 186.8046,-635.967 188.2437,-647.292 168.7578,-649.767 160.2855,-650.844 156.975,-624.798 155.5359,-613.47 175.0218,-610.995 " />
</svg>