<?xml version="1.0" encoding="utf-8"?>
<svg xmlns:xsi="http://www.w3.org/2001/XMLSchema-instance" xmlns:xsd="http://www.w3.org/2001/XMLSchema" version="1.1" id="Map" class="gen-by-synoptic-designer" xmlns:xlink="http://www.w3.org/1999/xlink" viewBox="-7346.07428420167 -12599.9790205813 23122.2960832823 24319.1997259649 " xml:space="preserve" height="100%" width="100%" xmlns="http://www.w3.org/2000/svg">
  <polygon id="20336060484" title="" points="1569.06,-1505.526 1567.794,-1505.685 1560.129,-1445.373 1550.394,-1368.777 1554.858,-1368.21 1554.462,-1365.096 1680.606,-1349.064 1707.729,-1345.617 1709.424,-1358.958 1630.893,-1440.957 1625.499,-1446.591 1613.616,-1458.999 1612.701,-1459.956 1600.818,-1472.364 1569.06,-1505.526 " />
  <polygon id="20336060635" title="" points="1714.764,-1353.381 1797.549,-1266.939 1862.733,-1198.872 1861.569,-1189.716 1860.093,-1178.085 1787.43,-1187.319 1695.15,-1199.049 1714.764,-1353.381 " />
  <polygon id="20336060749" title="" points="1876.974,-1124.655 1849.443,-1128.156 1840.659,-1059.036 1833.741,-1004.61 1896.237,-996.669 1911.939,-1120.212 1876.974,-1124.655 " />
  <polygon id="20336060921" title="" points="-333.417,-1219.569 -325.011,-1226.52 -314.334,-1235.349 -399.246,-1338.036 -408.75,-1263.249 -413.016,-1229.688 -377.949,-1225.23 -333.417,-1219.569 " />
  <polygon id="20336141832" title="" points="1433.631,437.148 1430.874,432.726 1428.702,429.246 1425.777,424.932 1423.476,421.536 1420.389,417.336 1417.959,414.03 1456.362,383.031 1486.599,358.623 1485.42,367.887 1494.348,369.024 1495.863,357.117 1584.108,368.334 1653.594,377.166 1652.847,383.037 1587.36,437.823 1591.209,442.425 1628.859,410.931 1658.502,386.13 1659.546,377.919 1674.6,379.833 1695.975,405.384 1709.562,421.626 1709.556,421.629 1569.93,538.443 1534.755,567.87 1459.992,630.414 1457.943,633.528 1459.338,628.56 1460.433,624.651 1461.639,619.638 1462.59,615.69 1463.604,610.632 1464.405,606.651 1465.23,601.56 1465.881,597.552 1466.514,592.434 1467.012,588.402 1467.453,583.266 1467.798,579.219 1468.047,574.068 1468.239,570.012 1468.293,564.855 1468.335,560.793 1468.194,555.639 1468.083,551.58 1467.747,546.432 1467.483,542.382 1466.955,537.249 1466.541,533.211 1465.818,528.105 1465.251,524.082 1471.944,524.934 1480.446,526.014 1483.092,505.182 1468.212,503.292 1465.566,524.124 1465.266,524.172 1464.345,519.042 1463.619,515.004 1462.506,509.913 1461.627,505.905 1460.319,500.859 1459.29,496.887 1457.79,491.895 1456.611,487.965 1454.925,483.036 1453.596,479.151 1451.721,474.288 1450.248,470.46 1448.19,465.672 1446.573,461.901 1444.335,457.194 1442.574,453.489 1440.159,448.869 1438.257,445.233 1435.671,440.712 1433.631,437.148 " />
  <polygon id="20336142044" title="" points="1674.327,213.9591 1674.579,211.9926 1516.854,191.9472 1513.878,191.5689 1502.556,280.6476 1493.643,350.787 1583.55,362.214 1654.344,371.211 1654.722,368.235 1671.372,370.35 1684.482,372.015 1683.348,380.94 1700.589,401.55 1714.164,417.777 1767.48,373.173 1809.462,338.052 1823.085,230.8662 1722.861,218.1285 1689.459,213.8838 1688.892,218.3478 1674.012,216.4566 1674.327,213.9591 " />
  <polygon id="20336158535" title="" points="160.9215,-530.784 173.238,-529.221 175.8954,-550.128 177.9876,-566.592 162.3459,-568.581 150.0294,-570.147 147.372,-549.237 145.2798,-532.773 160.9215,-530.784 " />
  <polygon id="20336163238" title="" points="1573.653,119.0262 1479.261,107.0298 1473.969,148.6554 1469.805,181.4313 1508.493,186.3483 1510.005,174.444 1518.933,175.5789 1517.421,187.4829 1684.074,208.6632 1693.53,134.2617 1573.653,119.0262 " />
  <polygon id="20336163393" title="" points="1469.142,139.0494 1473.309,106.2732 1384.026,94.9263 1378.737,136.5519 1374.57,169.3278 1424.52,175.6761 1463.853,180.6747 1469.142,139.0494 " />
  <polygon id="20336058856" title="" points="702.036,802.086 695.481,801.252 698.505,777.444 713.385,779.334 711.693,792.657 710.361,803.145 702.036,802.086 " />
  <polygon id="20336058856" title="" points="541.329,781.662 534.774,780.828 536.466,767.508 537.798,757.02 552.678,758.91 550.986,772.23 549.654,782.718 541.329,781.662 " />
  <polygon id="20336058856" title="" points="380.622,761.238 374.064,760.404 375.759,747.084 377.091,736.596 391.971,738.486 390.279,751.806 388.947,762.294 380.622,761.238 " />
  <polygon id="20336058856" title="" points="219.9132,740.811 213.3582,739.98 216.384,716.172 231.2643,718.062 228.2385,741.87 219.9132,740.811 " />
  <polygon id="20336058856" title="" points="852.45,851.079 862.239,774.06 150.9603,683.664 137.2842,791.271 128.7405,858.498 840.018,948.894 852.45,851.079 " />
  <polygon id="20336059232" title="" points="1103.805,853.146 1097.247,852.315 1098.942,838.995 1100.274,828.504 1115.154,830.397 1113.462,843.717 1112.13,854.205 1103.805,853.146 " />
  <polygon id="20336059232" title="" points="1028.724,932.061 1090.101,939.861 1248.993,806.934 1240.263,807.699 1231.512,808.149 1222.749,808.29 1213.989,808.116 1205.238,807.627 1196.514,806.829 1187.82,805.719 1179.174,804.3 1170.582,802.572 1162.059,800.541 1153.611,798.204 1145.256,795.567 1136.997,792.636 1128.849,789.408 1120.824,785.895 1112.925,782.097 1109.946,805.542 1030.47,795.441 967.89,787.488 959.334,854.811 951.576,915.84 950.775,922.155 1028.724,932.061 " />
  <polygon id="20336059499" title="" points="-340.713,-670.662 -333.216,-729.648 -412.143,-739.68 -474.288,-747.579 -485.397,-660.177 -494.142,-591.354 -416.049,-581.43 -354.561,-573.615 -352.974,-586.101 -351.723,-595.935 -350.235,-595.746 -340.713,-670.662 " />
  <polygon id="20336059724" title="" points="1569.06,-1505.526 1567.794,-1505.685 1550.394,-1368.777 1554.858,-1368.21 1554.462,-1365.096 1646.163,-1353.444 1662.462,-1336.425 1701.393,-1295.772 1702.788,-1306.734 1704.558,-1320.66 1714.101,-1329.801 1726.227,-1341.414 1638.291,-1433.232 1613.616,-1458.999 1612.701,-1459.956 1569.06,-1505.526 " />
  <polygon id="20336059921" title="" points="-224.2929,-1407.468 -219.0618,-1401.144 -237.8169,-1385.634 -252.5847,-1373.421 -243.981,-1363.017 -273.7779,-1338.378 -201.0807,-1329.138 -187.0371,-1439.637 -175.9794,-1526.646 -224.742,-1486.251 -263.1378,-1454.445 -239.8764,-1426.314 -229.7265,-1425.024 -230.9367,-1415.505 -224.2929,-1407.468 " />
  <polygon id="20336060148" title="" points="852.135,901.149 845.97,949.65 936.741,961.188 941.847,921.018 942.906,912.687 892.122,906.231 852.135,901.149 " />
  <polygon id="20336060275" title="" points="1718.823,-1328.091 1710.54,-1320.162 1695.15,-1199.049 1775.571,-1188.828 1803.813,-1215.876 1826.052,-1237.173 1771.944,-1293.675 1729.338,-1338.162 1718.823,-1328.091 " />
  <polygon id="20336141282" title="" points="-375.159,-379.653 -373.194,-379.404 -372.342,-386.1 -459.504,-397.176 -528.135,-405.9 -460.62,-273.4089 -419.901,-268.2339 -387.84,-264.159 -381.762,-311.985 -376.977,-349.644 -381.441,-350.211 -377.658,-379.971 -375.159,-379.653 " />
  <polygon id="20336141425" title="" points="1853.703,-10.06362 1861.284,-69.7158 1718.739,-87.8325 1709.109,-12.07395 1701.528,47.5785 1844.076,65.6949 1853.703,-10.06362 " />
  <polygon id="20336141832" title="" points="1629.702,488.436 1621.851,479.052 1591.218,442.434 1593.282,440.706 1605.393,430.578 1667.175,378.888 1674.576,379.83 1702.416,413.109 1709.55,421.635 1629.702,488.436 " />
  <polygon id="20336158337" title="" points="160.9215,-530.784 173.238,-529.221 175.8954,-550.128 177.9876,-566.592 150.0294,-570.147 147.372,-549.237 145.2798,-532.773 160.9215,-530.784 " />
  <polygon id="20336158436" title="" points="166.0497,-571.134 178.3659,-569.568 181.0233,-590.478 183.1158,-606.942 167.4738,-608.931 155.1576,-610.494 150.4077,-573.123 166.0497,-571.134 " />
</svg>