<?xml version="1.0" encoding="utf-8"?>
<svg xmlns:xsi="http://www.w3.org/2001/XMLSchema-instance" xmlns:xsd="http://www.w3.org/2001/XMLSchema" version="1.1" id="Map" class="gen-by-synoptic-designer" xmlns:xlink="http://www.w3.org/1999/xlink" viewBox="-7346.07428420167 -12599.9790205813 23122.2960832823 24319.1997259649 " xml:space="preserve" height="100%" width="100%" xmlns="http://www.w3.org/2000/svg">
  <polygon id="20336044971" title="" points="1142.925,645.993 1137.768,645.336 1136.406,656.049 1123.905,654.462 1125.192,644.343 1092.189,640.149 1101.972,563.169 1106.865,524.676 1085.586,521.973 1073.583,616.413 1067.583,663.633 1124.406,670.854 1143.63,655.155 1153.242,647.304 1142.925,645.993 " />
  <polygon id="20336045009" title="" points="1432.716,-1278.051 1438.587,-1324.26 1422.57,-1340.985 1414.56,-1349.349 1400.979,-1242.474 1394.187,-1189.038 1420.971,-1185.633 1432.716,-1278.051 " />
  <polygon id="20336045042" title="" points="25.27587,-1299.813 17.3397,-1300.821 6.59793,-1216.299 30.4065,-1213.275 41.1483,-1297.794 25.27587,-1299.813 " />
  <polygon id="20336045075" title="" points="353.097,733.242 342.009,731.835 340.458,744.036 362.634,746.856 373.725,748.263 375.273,736.062 353.097,733.242 " />
  <polygon id="20336045107" title="" points="666.429,838.689 658.491,837.681 656.4,854.148 655.353,862.38 671.226,864.399 679.161,865.407 681.255,848.94 682.302,840.705 666.429,838.689 " />
  <polygon id="20336045141" title="" points="564.498,760.413 553.41,759.003 551.898,770.907 574.074,773.727 585.162,775.137 586.674,763.233 564.498,760.413 " />
  <polygon id="20336045175" title="" points="908.175,699.759 904.107,699.243 901.29,721.419 899.88,732.507 912.081,734.058 914.898,711.882 916.308,700.791 908.175,699.759 " />
  <polygon id="20336045213" title="" points="1003.686,760.875 1001.058,757.731 975.333,779.238 983.247,788.664 1000.38,774.33 1008.945,767.163 1003.686,760.875 " />
  <polygon id="20336045250" title="" points="1350.237,478.443 1347.606,475.299 1328.277,491.469 1318.611,499.557 1335.249,501.672 1348.749,490.377 1355.499,484.731 1350.237,478.443 " />
  <polygon id="20336045284" title="" points="82.6335,548.322 68.8221,546.567 65.6463,571.557 64.0584,584.049 105.4926,589.317 108.6684,564.327 110.2563,551.832 82.6335,548.322 " />
  <polygon id="20336045319" title="" points="98.2977,641.238 98.9028,636.477 85.5543,610.281 78.3213,613.971 90.8319,638.499 97.0872,650.763 98.2977,641.238 " />
  <polygon id="20336045353" title="" points="97.1604,181.8024 93.0936,181.2855 88.866,214.5501 101.0661,216.1005 105.294,182.8362 97.1604,181.8024 " />
  <polygon id="20336045391" title="" points="81.9828,-213.1902 95.7252,-321.321 34.7157,-329.073 18.25197,-199.5306 10.02003,-134.7588 -14.82174,-137.916 -27.24261,-139.4946 -38.2635,-52.7778 -43.7739,-9.41922 54.498,3.07026 81.9828,-213.1902 " />
  <polygon id="20336045424" title="" points="235.9125,-198.9003 206.1519,-202.6827 187.0827,-52.6395 246.6039,-45.0747 276.3645,-41.2926 295.4337,-191.3358 235.9125,-198.9003 " />
  <polygon id="20336045459" title="" points="240.0639,-302.976 205.8393,-307.326 203.6706,-290.2632 202.5864,-281.7318 271.0359,-273.0324 305.262,-268.6827 308.514,-294.2769 240.0639,-302.976 " />
  <polygon id="20336045493" title="" points="-440.253,-633.783 -447.498,-634.704 -449.187,-621.432 -450.03,-614.799 -428.295,-612.036 -426.606,-625.308 -425.763,-631.944 -440.253,-633.783 " />
  <polygon id="20336045527" title="" points="-367.251,-624.51 -375.189,-625.521 -377.208,-609.648 -378.216,-601.713 -362.337,-599.694 -354.399,-598.686 -352.38,-614.556 -351.372,-622.494 -367.251,-624.51 " />
  <polygon id="20336045560" title="" points="-345.228,-621.711 -349.287,-622.227 -352.107,-600.051 -353.517,-588.963 -341.334,-587.415 -338.514,-609.591 -337.104,-620.679 -345.228,-621.711 " />
  <polygon id="20336045593" title="" points="-481.326,-917.424 -485.592,-917.964 -487.545,-902.595 -474.747,-900.969 -472.794,-916.338 -481.326,-917.424 " />
  <polygon id="20336045626" title="" points="-320.616,-896.997 -324.882,-897.54 -326.184,-887.295 -326.838,-882.171 -314.04,-880.545 -312.087,-895.914 -320.616,-896.997 " />
  <polygon id="20336045659" title="" points="-290.1879,-1051.704 -294.2547,-1052.22 -297.0732,-1030.044 -298.4823,-1018.956 -286.2819,-1017.405 -282.0543,-1050.669 -290.1879,-1051.704 " />
  <polygon id="20336045695" title="" points="-291.5883,-1212.993 -294.0999,-1216.236 -319.53,-1195.203 -311.994,-1185.474 -286.5654,-1206.507 -291.5883,-1212.993 " />
  <polygon id="20336045730" title="" points="-35.9964,-1413.714 -27.38997,-1420.845 -35.2137,-1430.334 -52.4481,-1416.081 -61.0653,-1408.953 -53.2095,-1399.455 -35.9964,-1413.714 " />
  <polygon id="20336045768" title="" points="213.4209,-1598.544 215.8113,-1595.652 233.04,-1609.899 241.6542,-1617.024 233.8155,-1626.501 207.9252,-1605.192 208.6404,-1604.328 213.4209,-1598.544 " />
  <polygon id="20336045806" title="" points="484.68,-1832.154 482.067,-1835.316 456.219,-1813.953 464.058,-1804.476 489.906,-1825.833 484.68,-1832.154 " />
  <polygon id="20336045839" title="" points="651.708,-1869.342 644.466,-1870.263 642.381,-1853.853 664.107,-1851.093 666.192,-1867.503 651.708,-1869.342 " />
  <polygon id="20336045872" title="" points="678.036,-1865.997 669.762,-1867.047 667.284,-1847.538 666.042,-1837.782 682.59,-1835.679 690.864,-1834.629 693.342,-1854.138 694.584,-1863.894 678.036,-1865.997 " />
  <polygon id="20336045906" title="" points="556.818,-2060.175 519.519,-2029.332 552.783,-1989.105 664.683,-2081.634 631.416,-2121.861 556.818,-2060.175 " />
  <polygon id="20336045947" title="" points="499.368,-2044.263 510.834,-2030.4 633.423,-2131.77 611.382,-2160.234 600.36,-2174.463 504.549,-2095.236 496.11,-2086.338 495.201,-2087.508 476.439,-2071.992 499.368,-2044.263 " />
  <polygon id="20336045980" title="" points="819.954,-2060.859 802.602,-2063.064 783.54,-1913.07 835.596,-1906.455 854.658,-2056.449 819.954,-2060.859 " />
  <polygon id="20336046012" title="" points="758.679,-2062.599 740.823,-2064.867 728.619,-1968.84 722.517,-1920.825 758.229,-1916.286 776.088,-1914.018 788.292,-2010.045 794.394,-2058.06 758.679,-2062.599 " />
  <polygon id="20336046049" title="" points="962.658,-1817.328 965.598,-1820.181 952.227,-1834.014 945.54,-1840.932 932.469,-1842.594 925.932,-1843.425 946.494,-1822.224 956.775,-1811.625 962.658,-1817.328 " />
  <polygon id="20336046083" title="" points="1157.757,-1422.609 1146.669,-1424.019 1145.118,-1411.818 1167.294,-1408.998 1178.382,-1407.591 1179.933,-1419.792 1157.757,-1422.609 " />
  <polygon id="20336046118" title="" points="1272.672,-1499.385 1264.89,-1507.407 1256.07,-1498.851 1279.416,-1474.782 1288.236,-1483.338 1272.672,-1499.385 " />
  <polygon id="20336046153" title="" points="1049.676,-1343.235 1019.916,-1347.018 1007.205,-1246.989 1000.848,-1196.973 1090.128,-1185.627 1102.842,-1285.656 1109.199,-1335.669 1049.676,-1343.235 " />
  <polygon id="20336046185" title="" points="1025.241,-1115.265 991.017,-1119.615 987.762,-1094.022 1090.437,-1080.972 1093.689,-1106.565 1025.241,-1115.265 " />
  <polygon id="20336046225" title="" points="1299.693,-1194.999 1279.149,-1197.609 1302.789,-1383.615 1262.115,-1388.784 1241.778,-1391.367 1214.295,-1175.106 1200.552,-1066.977 1282.314,-1056.585 1323.195,-1051.389 1334.919,-1143.648 1340.781,-1189.776 1299.693,-1194.999 " />
  <polygon id="20336046259" title="" points="1491.81,-1038.705 1480.8,-1040.106 1479.249,-1027.902 1512.282,-1023.705 1513.833,-1035.906 1491.81,-1038.705 " />
  <polygon id="20336046293" title="" points="1355.469,-1190.331 1347.036,-1191.402 1344.516,-1171.56 1343.253,-1161.642 1360.119,-1159.497 1368.552,-1158.426 1371.072,-1178.265 1372.332,-1188.186 1355.469,-1190.331 " />
  <polygon id="20336046328" title="" points="1744.854,-1006.278 1737.99,-1013.355 1721.025,-996.897 1746.063,-993.717 1758.582,-992.124 1744.854,-1006.278 " />
  <polygon id="20336046365" title="" points="1937.589,-1098.528 1933.884,-1102.179 1904.214,-1073.742 1889.379,-1059.525 1900.17,-1048.266 1944.996,-1091.232 1937.589,-1098.528 " />
  <polygon id="20336046400" title="" points="1939.245,-784.995 1927.884,-786.438 1926.336,-774.237 1960.41,-769.905 1961.961,-782.109 1939.245,-784.995 " />
  <polygon id="20336046433" title="" points="1781.547,-759.543 1770.735,-760.92 1769.184,-748.716 1801.623,-744.594 1803.174,-756.795 1781.547,-759.543 " />
  <polygon id="20336046467" title="" points="1703.553,-769.458 1692.741,-770.832 1691.19,-758.628 1712.817,-755.88 1723.629,-754.506 1725.18,-766.707 1703.553,-769.458 " />
  <polygon id="20336046499" title="" points="1694.727,-753.945 1690.662,-754.461 1686.462,-721.428 1698.666,-719.877 1702.863,-752.913 1694.727,-753.945 " />
  <polygon id="20336046532" title="" points="1779.702,-565.305 1769.604,-566.589 1765.245,-532.293 1785.438,-529.725 1795.533,-528.444 1799.892,-562.74 1779.702,-565.305 " />
  <polygon id="20336046564" title="" points="1767.363,-528.393 1763.292,-528.912 1758.837,-493.863 1771.05,-492.309 1775.505,-527.358 1767.363,-528.393 " />
  <polygon id="20336046599" title="" points="1723.389,-322.872 1716.792,-323.709 1715.199,-311.181 1714.404,-304.917 1734.195,-302.403 1736.583,-321.195 1723.389,-322.872 " />
  <polygon id="20336046631" title="" points="1644.006,-330.21 1637.409,-331.047 1635.021,-312.258 1648.215,-310.581 1654.812,-309.741 1657.2,-328.533 1644.006,-330.21 " />
  <polygon id="20336046665" title="" points="2140.032,-70.0989 2128.944,-71.508 2127.393,-59.3064 2160.657,-55.0788 2162.208,-67.2804 2140.032,-70.0989 " />
  <polygon id="20336046698" title="" points="1580.784,-136.2195 1569.693,-137.6289 1568.145,-125.427 1601.409,-121.1994 1602.96,-133.4013 1580.784,-136.2195 " />
  <polygon id="20336046737" title="" points="1160.862,-17.83281 1176.438,-15.85338 1197.462,-181.2993 1090.026,-194.9535 1048.8,129.4374 1089.276,134.5812 1109.511,137.1534 1129.713,-21.79164 1160.862,-17.83281 " />
  <polygon id="20336046770" title="" points="911.163,-217.6746 876.939,-222.0243 873.687,-196.4406 976.362,-183.3918 979.614,-208.9752 911.163,-217.6746 " />
  <polygon id="20336046803" title="" points="893.616,-115.2615 863.856,-119.0439 844.791,30.9495 904.314,38.5143 934.074,42.2967 946.782,-57.699 953.136,-107.697 893.616,-115.2615 " />
  <polygon id="20336046839" title="" points="1628.829,245.7618 1626.198,242.6184 1600.476,264.1257 1608.39,273.5508 1634.094,252.0486 1628.829,245.7618 " />
  <polygon id="20336046871" title="" points="354.138,-1200.555 319.914,-1204.905 317.745,-1187.844 316.662,-1179.312 419.334,-1166.262 421.503,-1183.326 422.589,-1191.858 354.138,-1200.555 " />
  <polygon id="20336046904" title="" points="391.971,-1426.824 362.211,-1430.607 349.497,-1330.578 343.14,-1280.562 402.663,-1272.999 432.423,-1269.216 445.134,-1369.245 451.491,-1419.258 391.971,-1426.824 " />
  <polygon id="20336046943" title="" points="233.7555,-1409.805 247.4727,-1517.736 206.9982,-1522.878 186.7611,-1525.452 164.9484,-1353.819 140.5956,-1356.915 121.2567,-1204.752 206.3211,-1193.94 233.7555,-1409.805 " />
  <polygon id="20336046979" title="" points="1979.31,50.361 1980.066,44.4264 1935.981,81.3069 1952.493,83.4054 1977.801,62.2305 1979.31,50.361 " />
  <polygon id="20336047013" title="" points="1446.324,-1247.214 1435.236,-1248.621 1433.685,-1236.42 1455.864,-1233.603 1466.952,-1232.193 1468.503,-1244.394 1446.324,-1247.214 " />
  <polygon id="20336061158" title="" points="33.4347,172.7688 29.96253,172.3278 31.2063,162.5421 -36.4503,153.9435 -70.2786,149.6442 -72.3258,165.7515 -73.3494,173.805 1.251351,183.2862 38.5518,188.0265 40.3785,173.6514 33.4347,172.7688 " />
  <polygon id="20336061469" title="" points="-372.804,-404.688 -376.869,-405.204 -379.689,-383.028 -381.099,-371.94 -368.895,-370.389 -366.078,-392.565 -364.668,-403.653 -372.804,-404.688 " />
  <polygon id="20336061507" title="" points="-218.8326,-13.33884 -223.9179,-23.31768 -238.6776,-25.19346 -219.6192,12.20268 -208.6614,6.61881 -218.8326,-13.33884 " />
  <polygon id="20336061544" title="" points="-87.2637,254.7372 -86.3559,247.5948 -100.5648,219.7383 -111.3987,225.2646 -96.519,254.4363 -89.0793,269.0223 -87.2637,254.7372 " />
  <polygon id="20336062426" title="" points="-68.6364,-320.133 -61.7913,-319.263 -60.5433,-329.085 -48.639,-327.57 -49.887,-317.751 -46.161,-317.277 -44.1183,-333.348 -43.0971,-341.382 -87.048,-346.968 -109.0236,-349.761 -127.1031,-207.5052 -121.1508,-206.7489 -125.3619,-173.6154 -127.4673,-157.0485 -111.5949,-155.0313 -103.6587,-154.0227 -89.4372,-265.9227 -82.3266,-321.873 -68.6364,-320.133 " />
  <polygon id="20336064163" title="" points="16.42824,336.768 20.49501,337.284 17.6766,359.46 16.26738,370.548 4.06707,368.997 8.2947,335.733 16.42824,336.768 " />
  <polygon id="20336064163" title="" points="502.977,937.194 510.99,938.214 509.634,948.894 493.608,946.857 485.595,945.837 486.951,935.157 502.977,937.194 " />
  <polygon id="20336064163" title="" points="445.383,929.469 456.471,930.879 454.92,943.08 432.744,940.26 421.656,938.853 423.207,926.649 445.383,929.469 " />
  <polygon id="20336064163" title="" points="386.913,922.443 394.926,923.463 393.567,934.143 377.541,932.106 369.528,931.086 370.884,920.406 386.913,922.443 " />
  <polygon id="20336064163" title="" points="720.228,630.408 726.738,579.183 772.437,584.991 795.288,587.895 783.642,679.521 777.819,725.337 777.792,725.547 777.579,725.571 707.208,732.855 720.228,630.408 " />
  <polygon id="20336064163" title="" points="-125.1189,-207.2532 -127.1031,-207.5052 -109.0236,-349.761 -65.0727,-344.175 -43.0971,-341.382 -45.1398,-325.311 -46.161,-317.277 -49.887,-317.751 -48.639,-327.57 -60.5433,-329.085 -61.7913,-319.263 -75.4815,-321.003 -82.3266,-321.873 -96.5481,-209.9727 -103.6587,-154.0227 -119.5311,-156.0399 -127.4673,-157.0485 -123.2565,-190.182 -121.1508,-206.7489 -125.1189,-207.2532 " />
  <polygon id="20336064163" title="" points="-88.1715,261.8799 -89.0793,269.0223 -111.3987,225.2646 -100.5648,219.7383 -86.3559,247.5948 -88.1715,261.8799 " />
  <polygon id="20336064163" title="" points="-213.747,-3.36003 -208.6614,6.61881 -219.6192,12.20268 -238.6776,-25.19346 -223.9179,-23.31768 -213.747,-3.36003 " />
  <polygon id="20336064163" title="" points="-368.736,-404.172 -364.668,-403.653 -367.488,-381.477 -368.895,-370.389 -381.099,-371.94 -378.279,-394.116 -376.869,-405.204 -368.736,-404.172 " />
  <polygon id="20336064163" title="" points="-2.622108,158.2428 31.2063,162.5421 29.96253,172.3278 40.3785,173.6514 38.5518,188.0265 -36.0489,178.5456 -73.3494,173.805 -71.3022,157.698 -70.2786,149.6442 -2.622108,158.2428 " />
  <polygon id="20336064163" title="" points="-341.166,-621.195 -337.104,-620.679 -339.924,-598.503 -341.334,-587.415 -353.517,-588.963 -350.697,-611.139 -349.287,-622.227 -341.166,-621.195 " />
  <polygon id="20336064163" title="" points="-359.31,-623.502 -351.372,-622.494 -353.388,-606.621 -354.399,-598.686 -370.278,-600.702 -378.216,-601.713 -375.189,-625.521 -359.31,-623.502 " />
  <polygon id="20336064163" title="" points="-433.008,-632.865 -425.763,-631.944 -427.452,-618.672 -428.295,-612.036 -450.03,-614.799 -447.498,-634.704 -433.008,-632.865 " />
  <polygon id="20336064163" title="" points="265.6731,-195.1182 295.4337,-191.3358 276.3645,-41.2926 216.8433,-48.8571 187.0827,-52.6395 199.7955,-152.6682 206.1519,-202.6827 265.6731,-195.1182 " />
  <polygon id="20336064163" title="" points="101.2272,182.3193 105.294,182.8362 101.0661,216.1005 88.866,214.5501 93.0936,181.2855 101.2272,182.3193 " />
  <polygon id="20336064163" title="" points="274.2888,-298.6266 308.514,-294.2769 306.345,-277.2141 305.262,-268.6827 202.5864,-281.7318 205.8393,-307.326 274.2888,-298.6266 " />
  <polygon id="20336064163" title="" points="26.48388,-264.3024 34.7157,-329.073 95.7252,-321.321 54.498,3.07026 -11.01672,-5.25606 -43.7739,-9.41922 -27.24261,-139.4946 -2.400849,-136.3374 10.02003,-134.7588 26.48388,-264.3024 " />
  <polygon id="20336064163" title="" points="246.8532,711.84 244.86,730.059 129.6927,715.422 102.3366,661.74 103.0116,656.427 115.7547,556.161 116.6355,556.272 185.2458,581.784 190.6026,582.465 190.0731,586.632 261.4986,595.71 251.3619,675.468 250.8393,675.402 246.8532,711.84 " />
  <polygon id="20336064163" title="" points="575.586,761.823 586.674,763.233 585.162,775.137 551.898,770.907 553.41,759.003 575.586,761.823 " />
  <polygon id="20336064163" title="" points="364.185,734.652 375.273,736.062 373.725,748.263 340.458,744.036 342.009,731.835 364.185,734.652 " />
  <polygon id="20336064163" title="" points="96.4449,550.077 110.2563,551.832 107.0805,576.822 105.4926,589.317 64.0584,584.049 67.2342,559.062 68.8221,546.567 96.4449,550.077 " />
  <polygon id="20336064163" title="" points="94.4532,627.744 98.9028,636.477 97.0872,650.763 84.5766,626.235 78.3213,613.971 85.5543,610.281 94.4532,627.744 " />
  <polygon id="20336064163" title="" points="674.364,839.697 682.302,840.705 679.161,865.407 655.353,862.38 657.447,845.913 658.491,837.681 674.364,839.697 " />
  <polygon id="20336064163" title="" points="-679.671,-521.568 -677.856,-518.004 -683.202,-515.28 -637.8,-426.18 -615.096,-381.63 -609.744,-384.36 -604.293,-373.668 -609.648,-370.941 -564.246,-281.8398 -541.545,-237.2898 -536.181,-240.0237 -530.733,-229.332 -536.079,-226.6077 -490.671,-137.5116 -467.967,-92.9634 -462.621,-95.688 -457.173,-84.9966 -462.519,-82.272 -394.422,51.3804 -389.076,48.6561 -383.628,59.3475 -388.974,62.0721 -343.566,151.1682 -320.862,195.7161 -315.525,192.9957 -310.074,203.6883 -315.42,206.4126 -270.018,295.5111 -247.3164,340.059 -241.9707,337.335 -236.5218,348.027 -241.8675,350.751 -173.7633,484.401 -168.4173,481.674 -162.9684,492.366 -168.3147,495.093 -122.9067,584.187 -100.2027,628.737 -94.857,626.01 -89.4081,636.702 -94.7619,639.432 -26.65776,773.079 -21.31245,770.355 -15.86409,781.047 -21.21,783.771 4.97142,835.149 18.06213,860.838 18.69471,855.861 48.7725,859.683 47.2719,871.491 150.2439,884.577 142.5153,945.387 105.0168,940.62 103.2015,954.906 102.2937,962.049 103.1526,989.634 103.5819,1003.428 107.6496,1029.918 109.6836,1043.163 117.1413,1069.737 120.8703,1083.024 136.1034,1119.576 156.534,1155.582 173.178,1177.074 181.5165,1187.841 199.9521,1207.293 209.1702,1217.019 239.6871,1242.255 274.548,1264.584 290.9751,1272.876 299.1885,1277.019 423.762,1292.853 486.051,1300.767 513.42,1294.86 527.106,1291.905 552.045,1283.247 564.516,1278.918 600.603,1261.206 623.376,1246.332 634.761,1238.895 655.551,1221.354 665.946,1212.585 684.168,1192.932 693.279,1183.107 717.519,1149.546 730.248,1126.416 736.614,1114.854 751.563,1077.537 761.847,1038.675 764.22,1024.701 740.169,1021.647 728.145,1020.117 733.83,975.378 736.674,953.007 838.455,965.943 839.817,955.23 853.506,956.97 852.126,967.83 872.166,970.377 882.186,971.652 895.461,867.192 791.598,853.992 798.027,803.4 780.966,801.231 772.434,800.145 799.818,584.679 719.763,574.506 719.571,575.994 625.131,563.991 577.911,557.988 576.852,566.322 563.757,564.657 564.816,556.326 416.013,537.414 415.068,544.854 403.164,543.339 404.109,535.899 277.6272,519.825 274.8402,517.959 209.367,509.637 222.0756,409.641 228.4299,359.646 214.74,357.906 215.799,349.572 230.0841,351.387 243.0447,249.4074 249.5253,198.4176 235.5378,196.6401 236.5401,188.7534 249.9324,190.4556 269.5059,36.444 273.9699,37.0116 281.0301,-18.54156 284.5602,-46.3182 437.082,-26.93373 438.786,-40.326 446.226,-39.3804 444.525,-25.98816 508.905,-17.80575 541.098,-13.71456 597.831,-460.125 536.922,-467.865 506.466,-471.735 504.765,-458.343 492.861,-459.855 486.909,-460.614 488.61,-474.006 256.0803,-503.556 139.8156,-518.334 136.6386,-493.335 128.3055,-494.394 131.4828,-519.393 37.6401,-531.318 -9.28122,-537.282 -10.79412,-525.378 -23.09775,-526.941 -29.24955,-527.724 -27.73662,-539.628 -161.6595,-556.647 -136.5702,-754.059 -124.0254,-852.765 -650.463,-919.671 -657.729,-867.408 -661.362,-841.275 -665.976,-841.86 -670.893,-803.172 -665.733,-802.626 -681.603,-677.757 -687.333,-678.486 -732.417,-655.512 -754.959,-644.025 -749.022,-630.942 -743.712,-634.026 -688.65,-525.972 -683.304,-528.696 -679.671,-521.568 " />
  <polygon id="20336064743" title="" points="1840.071,-59.799 1843.35,-85.5915 1892.952,-79.2876 1989.468,-67.0209 1976.013,38.8491 1946.625,64.1982 1931.931,76.8729 1866.222,68.5218 1833.366,64.3464 1842.444,-7.0791 1833.516,-8.21379 1840.071,-59.799 " />
  <polygon id="20336064743" title="" points="1978.557,56.2959 1977.801,62.2305 1952.493,83.4054 1935.981,81.3069 1980.066,44.4264 1978.557,56.2959 " />
  <polygon id="20336064743" title="" points="849.144,595.497 873.441,598.584 873.936,598.647 857.1,731.118 809.499,725.07 785.697,722.043 802.533,589.572 849.144,595.497 " />
  <polygon id="20336064743" title="" points="923.376,-111.4791 953.136,-107.697 940.428,-7.70124 934.074,42.2967 874.554,34.7319 844.791,30.9495 857.502,-69.0459 863.856,-119.0439 923.376,-111.4791 " />
  <polygon id="20336064743" title="" points="1161.651,-185.8506 1197.462,-181.2993 1176.438,-15.85338 1129.713,-21.79164 1109.511,137.1534 1069.038,132.0093 1048.8,129.4374 1090.026,-194.9535 1161.651,-185.8506 " />
  <polygon id="20336064743" title="" points="945.39,-213.3249 979.614,-208.9752 976.362,-183.3918 907.914,-192.0909 873.687,-196.4406 876.939,-222.0243 945.39,-213.3249 " />
  <polygon id="20336064743" title="" points="1789.797,-564.024 1799.892,-562.74 1796.988,-539.874 1795.533,-528.444 1775.343,-531.009 1765.245,-532.293 1768.152,-555.156 1769.604,-566.589 1789.797,-564.024 " />
  <polygon id="20336064743" title="" points="1771.434,-527.877 1775.505,-527.358 1772.535,-503.994 1771.05,-492.309 1758.837,-493.863 1761.807,-517.227 1763.292,-528.912 1771.434,-527.877 " />
  <polygon id="20336064743" title="" points="1729.986,-322.032 1736.583,-321.195 1734.99,-308.667 1734.195,-302.403 1714.404,-304.917 1715.994,-317.445 1716.792,-323.709 1729.986,-322.032 " />
  <polygon id="20336064743" title="" points="1650.603,-329.373 1657.2,-328.533 1655.607,-316.005 1654.812,-309.741 1641.618,-311.418 1635.021,-312.258 1636.614,-324.783 1637.409,-331.047 1650.603,-329.373 " />
  <polygon id="20336064743" title="" points="2151.12,-68.6898 2162.208,-67.2804 2160.657,-55.0788 2127.393,-59.3064 2128.944,-71.508 2151.12,-68.6898 " />
  <polygon id="20336064743" title="" points="1591.872,-134.8104 1602.96,-133.4013 1601.409,-121.1994 1579.233,-124.0179 1568.145,-125.427 1569.693,-137.6289 1591.872,-134.8104 " />
  <polygon id="20336064743" title="" points="1631.463,248.9052 1634.094,252.0486 1608.39,273.5508 1600.476,264.1257 1626.198,242.6184 1631.463,248.9052 " />
  <polygon id="20336064743" title="" points="1352.868,481.587 1355.499,484.731 1341.999,496.026 1335.249,501.672 1318.611,499.557 1337.94,483.384 1347.606,475.299 1352.868,481.587 " />
  <polygon id="20336064743" title="" points="1079.586,569.193 1085.586,521.973 1106.865,524.676 1097.082,601.659 1092.189,640.149 1125.192,644.343 1123.905,654.462 1136.406,656.049 1137.768,645.336 1153.242,647.304 1134.018,663.003 1124.406,670.854 1067.583,663.633 1079.586,569.193 " />
  <polygon id="20336064743" title="" points="1006.317,764.019 1008.945,767.163 991.812,781.497 983.247,788.664 975.333,779.238 1001.058,757.731 1006.317,764.019 " />
  <polygon id="20336064743" title="" points="912.24,700.275 916.308,700.791 912.081,734.058 899.88,732.507 904.107,699.243 912.24,700.275 " />
  <polygon id="20336064743" title="" points="1169.949,308.844 1170.528,304.281 1178.862,305.34 1197.546,158.3214 1189.212,157.2621 1190.877,144.1677 1199.208,145.2267 1211.838,45.8484 1218.156,-3.84066 1218.231,-4.43589 1256.025,0.367659 1274.925,2.769426 1274.4,6.90252 1313.088,11.81952 1313.655,7.35543 1349.766,11.94465 1367.82,14.23923 1368.879,5.90628 1382.568,7.64613 1381.509,15.97911 1529.271,34.7583 1530.255,27.02052 1543.35,28.68474 1542.366,36.4224 1592.661,42.8145 1559.415,304.392 1523.214,334.68 1505.115,349.821 1509.891,355.989 1499.304,364.845 1494.528,358.677 1458.282,389.001 1440.156,404.163 1428.582,402.693 1266.075,381.744 1266.642,377.28 1227.951,372.363 1227.384,376.827 1189.59,372.024 1170.69,369.621 1174.977,335.892 1177.122,319.029 1168.788,317.97 1169.949,308.844 " />
  <polygon id="20336064743" title="" points="939.249,969.228 943.215,969.732 941.25,985.206 1046.601,998.595 1048.569,983.121 1062.174,984.849 1068.978,985.713 1169.76,901.401 1162.137,891.558 1171.455,883.761 1179.438,893.304 1255.908,829.329 1294.143,797.343 1286.058,787.68 1295.835,779.499 1304.208,789.507 1418.337,694.029 1410.624,684.066 1420.287,675.981 1428.372,685.647 1542.615,590.07 1534.809,579.99 1544.208,571.599 1553.199,581.67 1666.359,485.952 1658.736,476.109 1668.585,467.778 1677.243,477.369 1791.369,381.888 1783.656,371.928 1792.86,364.227 1801.329,374.352 1890.285,298.6155 1883.424,289.7571 1907.637,269.1426 1899.471,259.5486 1909.521,250.9917 1917.852,260.9472 1993.929,197.283 2031.966,165.4512 2032.05,164.7825 2024.697,155.2884 2034.276,147.2727 2041.623,156.7602 2107.812,101.3922 2130.045,126.9753 2131.146,128.3985 2159.214,104.9097 2179.515,87.9264 2171.25,78.4158 2180.76,70.1508 2188.989,79.6182 2265.075,15.96594 2303.118,-15.86025 2295.765,-25.35408 2305.428,-33.4389 2313.129,-24.23517 2389.599,-88.2087 2427.834,-120.1956 2420.133,-129.3996 2429.796,-137.4843 2437.683,-128.0574 2459.607,-146.3976 2434.587,-176.3028 2496.555,-228.1443 2441.544,-293.898 2396.529,-256.2393 2374.023,-237.4098 1938.33,-292.7823 1970.481,-545.748 1622.877,-589.926 1449.075,-612.015 1436.97,-516.78 1456.611,-514.284 1455.477,-505.356 1436.43,-507.777 1423.572,-406.59 1417.14,-355.998 985.611,-410.841 985.77,-410.49 986.367,-406.107 984.693,-402.015 981.195,-399.306 976.812,-398.709 972.72,-400.383 970.011,-403.878 969.414,-408.261 971.088,-412.356 971.328,-412.656 747.528,-441.099 745.788,-427.41 727.335,-429.753 729.075,-443.445 599.172,-459.954 561.348,-162.3474 542.436,-13.54434 632.115,-2.146983 676.953,3.5517 678.693,-10.13817 687.621,-9.00348 685.881,4.68639 839.595,24.22203 837.516,40.5903 836.028,40.4013 830.607,83.058 827.895,104.3865 832.656,104.9916 819.342,209.7489 812.688,262.1277 826.377,263.8674 825.468,271.0101 811.482,269.2323 791.964,422.796 806.1,424.593 805.173,431.886 791.037,430.089 778.29,530.382 771.918,580.527 791.262,582.987 800.934,584.217 782.679,727.86 773.55,799.683 790.614,801.852 799.146,802.935 794.91,836.268 792.792,852.933 861.936,861.72 896.508,866.115 883.08,971.766 914.427,975.75 930.102,977.742 931.311,968.217 939.249,969.228 " />
  <polygon id="20336065206" title="" points="594.117,-2091.018 631.416,-2121.861 664.683,-2081.634 590.082,-2019.948 552.783,-1989.105 519.519,-2029.332 594.117,-2091.018 " />
  <polygon id="20336065206" title="" points="776.538,-2060.328 794.394,-2058.06 776.088,-1914.018 722.517,-1920.825 734.721,-2016.855 740.823,-2064.867 776.538,-2060.328 " />
  <polygon id="20336065206" title="" points="658.95,-1868.421 666.192,-1867.503 664.107,-1851.093 642.381,-1853.853 644.466,-1870.263 658.95,-1868.421 " />
  <polygon id="20336065206" title="" points="686.31,-1864.944 694.584,-1863.894 692.103,-1844.382 690.864,-1834.629 674.316,-1836.732 666.042,-1837.782 669.762,-1867.047 686.31,-1864.944 " />
  <polygon id="20336065206" title="" points="487.293,-1828.995 489.906,-1825.833 472.674,-1811.595 464.058,-1804.476 456.219,-1813.953 482.067,-1835.316 487.293,-1828.995 " />
  <polygon id="20336065206" title="" points="224.4255,-1602.774 215.8113,-1595.652 208.6401,-1604.328 207.9252,-1605.192 233.8155,-1626.501 241.6542,-1617.024 224.4255,-1602.774 " />
  <polygon id="20336065206" title="" points="421.731,-1423.041 451.491,-1419.258 432.423,-1269.216 372.9,-1276.779 343.14,-1280.562 362.211,-1430.607 421.731,-1423.041 " />
  <polygon id="20336065206" title="" points="388.362,-1196.208 422.589,-1191.858 420.42,-1174.794 419.334,-1166.262 350.886,-1174.962 316.662,-1179.312 318.828,-1196.376 319.914,-1204.905 388.362,-1196.208 " />
  <polygon id="20336065206" title="" points="156.8307,-1354.851 164.9484,-1353.819 179.49,-1468.242 186.7611,-1525.452 227.2356,-1520.307 247.4727,-1517.736 206.3211,-1193.94 121.2567,-1204.752 140.5956,-1356.915 156.8307,-1354.851 " />
  <polygon id="20336065206" title="" points="33.2121,-1298.802 41.1483,-1297.794 30.4065,-1213.275 14.5341,-1215.291 6.59793,-1216.299 17.3397,-1300.821 33.2121,-1298.802 " />
  <polygon id="20336065206" title="" points="-44.6031,-1406.586 -53.2095,-1399.455 -61.0653,-1408.953 -43.8309,-1423.209 -35.2137,-1430.334 -27.38997,-1420.845 -44.6031,-1406.586 " />
  <polygon id="20336065206" title="" points="-289.0767,-1209.75 -286.5654,-1206.507 -311.994,-1185.474 -319.53,-1195.203 -294.0999,-1216.236 -289.0767,-1209.75 " />
  <polygon id="20336065206" title="" points="-286.1211,-1051.185 -282.0543,-1050.669 -284.8728,-1028.493 -286.2819,-1017.405 -298.4823,-1018.956 -294.2547,-1052.22 -286.1211,-1051.185 " />
  <polygon id="20336065206" title="" points="-316.353,-896.457 -312.087,-895.914 -314.04,-880.545 -326.838,-882.171 -324.882,-897.54 -316.353,-896.457 " />
  <polygon id="20336065206" title="" points="-477.06,-916.881 -472.794,-916.338 -474.747,-900.969 -487.545,-902.595 -485.592,-917.964 -477.06,-916.881 " />
  <polygon id="20336065206" title="" points="-106.1985,-959.721 -104.5596,-972.618 -108.726,-973.149 -101.5206,-1029.843 191.6214,-992.586 194.6472,-1016.394 203.5755,-1015.26 200.5497,-991.452 312.489,-977.226 311.754,-978.516 311.319,-981.708 312.54,-984.69 315.087,-986.661 318.279,-987.096 321.261,-985.878 323.232,-983.331 323.667,-980.139 322.449,-977.157 321.417,-976.092 551.724,-946.821 553.239,-958.725 565.143,-957.213 563.631,-945.315 741.153,-922.755 788.052,-1291.785 650.709,-1309.242 649.194,-1297.338 637.29,-1298.85 638.802,-1310.754 452.799,-1334.394 472.845,-1492.116 466.893,-1492.872 486.282,-1645.431 483.285,-1645.296 479.079,-1647.015 476.295,-1650.609 475.68,-1655.115 477.402,-1659.321 480.996,-1662.105 485.499,-1662.717 487.605,-1662.18 491.637,-1693.923 493.656,-1709.796 702.576,-1683.243 807.036,-1669.968 822.264,-1789.806 829.881,-1849.722 770.985,-1857.207 804.387,-2120.028 730.977,-2129.358 694.272,-2134.023 679.998,-2151.285 672.861,-2159.916 661.95,-2151.465 628.053,-2195.232 619.791,-2188.833 615.132,-2194.467 500.922,-2100.027 504.597,-2095.278 568.44,-2148.069 600.36,-2174.463 622.401,-2146.002 633.423,-2131.77 510.834,-2030.4 487.902,-2058.129 476.439,-2071.992 495.201,-2087.508 491.526,-2092.257 414.696,-2028.726 376.278,-1996.959 380.319,-1991.742 370.611,-1983.711 366.57,-1988.931 289.8627,-1925.502 251.5095,-1893.789 255.6447,-1888.449 245.5878,-1880.133 241.2864,-1885.335 126.7284,-1790.607 131.2107,-1784.82 120.8931,-1776.831 116.496,-1782.147 40.1241,-1718.994 1.938066,-1687.419 5.98143,-1682.199 -4.30686,-1673.691 -8.51271,-1678.779 -122.9553,-1584.147 -118.9887,-1579.026 -129.2148,-1570.212 -133.5162,-1575.414 -209.6571,-1512.453 -247.7277,-1480.974 -243.5922,-1475.634 -253.9962,-1467.03 -258.2976,-1472.232 -334.515,-1409.208 -372.624,-1377.696 -368.316,-1372.131 -379.224,-1363.683 -383.268,-1368.9 -459.405,-1305.939 -497.475,-1274.457 -493.332,-1269.105 -503.505,-1260.696 -507.807,-1265.898 -508.161,-1265.622 -567.348,-1216.68 -596.943,-1192.209 -600.624,-1196.964 -688.785,-1124.061 -732.867,-1087.611 -648.471,-985.545 -642.519,-984.789 -650.562,-921.498 -299.3862,-876.867 -123.7986,-854.553 -113.643,-934.458 -109.4766,-933.93 -106.1985,-959.721 " />
  <polygon id="20336065798" title="" points="1919.112,-1088.022 1933.884,-1102.179 1944.996,-1091.232 1900.17,-1048.266 1889.442,-1059.459 1889.379,-1059.525 1889.574,-1059.711 1919.112,-1088.022 " />
  <polygon id="20336065798" title="" points="1733.544,-995.307 1721.025,-996.897 1737.99,-1013.355 1751.718,-999.201 1758.582,-992.124 1733.544,-995.307 " />
  <polygon id="20336065798" title="" points="1950.603,-783.552 1961.961,-782.109 1960.41,-769.905 1926.336,-774.237 1927.884,-786.438 1950.603,-783.552 " />
  <polygon id="20336065798" title="" points="1792.359,-758.169 1803.174,-756.795 1801.623,-744.594 1779.996,-747.342 1769.184,-748.716 1770.735,-760.92 1792.359,-758.169 " />
  <polygon id="20336065798" title="" points="1714.368,-768.081 1725.18,-766.707 1723.629,-754.506 1702.005,-757.254 1691.19,-758.628 1692.741,-770.832 1714.368,-768.081 " />
  <polygon id="20336065798" title="" points="1698.795,-753.429 1702.863,-752.913 1700.064,-730.89 1698.666,-719.877 1686.462,-721.428 1689.261,-743.451 1690.662,-754.461 1698.795,-753.429 " />
  <polygon id="20336065798" title="" points="1502.823,-1037.307 1513.833,-1035.906 1512.282,-1023.705 1490.259,-1026.504 1479.249,-1027.902 1480.8,-1040.106 1502.823,-1037.307 " />
  <polygon id="20336065798" title="" points="1457.412,-1245.804 1468.503,-1244.394 1466.952,-1232.193 1444.773,-1235.01 1433.685,-1236.42 1435.236,-1248.621 1457.412,-1245.804 " />
  <polygon id="20336065798" title="" points="1426.989,-1232.994 1421.043,-1186.209 1420.971,-1185.633 1394.187,-1189.038 1407.768,-1295.913 1414.56,-1349.349 1430.58,-1332.624 1438.587,-1324.26 1426.989,-1232.994 " />
  <polygon id="20336065798" title="" points="1282.452,-1386.198 1302.789,-1383.615 1279.149,-1197.609 1340.781,-1189.776 1329.057,-1097.52 1323.195,-1051.389 1241.433,-1061.781 1200.552,-1066.977 1241.778,-1391.367 1282.452,-1386.198 " />
  <polygon id="20336065798" title="" points="1280.454,-1491.363 1288.236,-1483.338 1279.416,-1474.782 1256.07,-1498.851 1264.89,-1507.407 1280.454,-1491.363 " />
  <polygon id="20336065798" title="" points="1168.845,-1421.202 1179.933,-1419.792 1178.382,-1407.591 1156.206,-1410.408 1145.118,-1411.818 1146.669,-1424.019 1168.845,-1421.202 " />
  <polygon id="20336065798" title="" points="1363.902,-1189.257 1372.332,-1188.186 1369.812,-1168.347 1368.552,-1158.426 1343.253,-1161.642 1345.776,-1181.481 1347.036,-1191.402 1363.902,-1189.257 " />
  <polygon id="20336065798" title="" points="1059.465,-1110.915 1093.689,-1106.565 1091.52,-1089.504 1090.437,-1080.972 987.762,-1094.022 989.931,-1111.083 991.017,-1119.615 1059.465,-1110.915 " />
  <polygon id="20336065798" title="" points="1079.439,-1339.452 1109.199,-1335.669 1096.485,-1235.64 1090.128,-1185.627 1000.848,-1196.973 1019.916,-1347.018 1079.439,-1339.452 " />
  <polygon id="20336065798" title="" points="958.911,-1827.099 965.598,-1820.181 956.775,-1811.625 936.57,-1832.457 925.932,-1843.425 939.258,-1841.73 945.54,-1840.932 958.911,-1827.099 " />
  <polygon id="20336065798" title="" points="837.306,-2058.654 854.658,-2056.449 835.596,-1906.455 800.892,-1910.865 783.54,-1913.07 802.602,-2063.064 837.306,-2058.654 " />
  <polygon id="20336065798" title="" points="802.485,-927.057 806.649,-926.526 805.137,-914.613 958.377,-895.14 1034.997,-885.402 1033.989,-887.061 1033.53,-890.439 1034.82,-893.598 1037.517,-895.686 1040.898,-896.145 1044.054,-894.855 1046.142,-892.158 1046.604,-888.777 1045.311,-885.621 1043.925,-884.265 1155.228,-870.12 1158.33,-894.525 1168.449,-893.238 1166.382,-876.969 1165.347,-868.833 1265.172,-856.149 1315.086,-849.804 1316.598,-861.708 1328.502,-860.196 1326.99,-848.292 1477.281,-829.191 1457.991,-677.412 1470.291,-675.849 1476.441,-675.066 1475.382,-666.732 1456.932,-669.078 1449.819,-613.128 1797.027,-569.001 1970.631,-546.939 1988.685,-688.995 1997.712,-760.023 2162.55,-739.074 2244.969,-728.601 2285.706,-767.607 2276.991,-776.709 2286.522,-785.838 2183.607,-893.307 2173.641,-883.764 2164.512,-893.298 2174.046,-902.427 2071.131,-1009.896 2062.029,-1001.181 2052.9,-1010.715 2061.999,-1019.43 1959.084,-1126.902 1949.988,-1118.181 1940.856,-1127.712 1949.952,-1136.43 1847.037,-1243.902 1837.935,-1235.187 1828.392,-1245.153 1837.926,-1254.282 1786.05,-1308.45 1777.383,-1300.149 1772.367,-1304.073 1741.38,-1336.431 1725.888,-1352.607 1716.354,-1343.478 1707.639,-1352.577 1717.173,-1361.709 1614.255,-1469.175 1603.854,-1459.218 1594.311,-1469.184 1604.277,-1478.727 1604.754,-1479.099 1574.043,-1511.166 1573.308,-1512.114 1581.543,-1519.998 1511.034,-1595.358 1501.503,-1586.226 1492.371,-1595.76 1501.38,-1604.385 1433.229,-1676.994 1399.155,-1713.297 1389.189,-1703.751 1380.567,-1712.94 1388.661,-1722.093 1320.258,-1793.523 1286.058,-1829.238 1277.391,-1820.937 1268.676,-1830.039 1276.911,-1837.923 1173.996,-1945.392 1165.329,-1937.094 1156.2,-1946.628 1165.299,-1955.343 1096.305,-2027.328 1061.811,-2063.319 1053.147,-2055.015 1044.843,-2063.679 1053.939,-2072.397 985.023,-2144.304 950.565,-2180.256 941.466,-2171.538 932.337,-2181.072 941.1,-2189.463 837.636,-2297.418 828.987,-2289.129 820.683,-2297.793 829.347,-2306.097 781.623,-2355.93 720.606,-2305.437 731.7,-2292.033 727.8,-2288.298 659.982,-2232.219 626.073,-2204.181 623.367,-2201.283 628.629,-2196.369 650.916,-2167.59 662.061,-2153.199 672.972,-2161.65 694.764,-2135.292 805.473,-2121.222 783.183,-1945.833 772.038,-1858.14 811.878,-1853.076 831.798,-1850.544 808.803,-1669.599 970.143,-1649.094 1050.816,-1638.843 1044.762,-1591.224 1047.618,-1591.341 1051.728,-1589.661 1054.446,-1586.151 1055.046,-1581.753 1053.366,-1577.643 1049.856,-1574.925 1045.455,-1574.328 1042.719,-1575.153 1022.898,-1419.186 1017.087,-1419.924 1003.974,-1316.76 997.419,-1265.178 811.416,-1288.818 809.901,-1276.911 798.594,-1278.351 799.512,-1290.33 788.796,-1291.692 741.897,-922.659 792.639,-916.212 794.151,-928.116 802.485,-927.057 " />
  <polygon id="20336074622" title="" points="190.4262,583.854 190.6026,582.465 185.2458,581.784 116.6355,556.272 115.7547,556.161 102.9738,656.724 102.3366,661.74 120.5742,697.527 129.6927,715.422 206.4711,725.181 244.86,730.059 248.8464,693.621 250.8393,675.402 251.3619,675.468 261.4986,595.71 190.0731,586.632 190.4262,583.854 " />
  <polygon id="20336074659" title="" points="749.589,582.087 726.738,579.183 707.208,732.855 754.266,727.983 777.792,725.547 795.288,587.895 749.589,582.087 " />
  <polygon id="20336074694" title="" points="826.335,592.599 802.533,589.572 791.31,677.886 785.697,722.043 857.1,731.118 868.323,642.804 873.936,598.647 826.335,592.599 " />
  <polygon id="20336074735" title="" points="1961.319,51.5238 1976.013,38.8491 1989.468,-67.0209 1843.35,-85.5915 1836.795,-34.0062 1833.516,-8.21379 1842.444,-7.0791 1833.366,64.3464 1899.075,72.6975 1931.931,76.8729 1961.319,51.5238 " />
  <polygon id="20336076521" title="" points="378.897,921.426 370.884,920.406 369.528,931.086 393.567,934.143 394.926,923.463 378.897,921.426 " />
  <polygon id="20336076555" title="" points="434.295,928.059 423.207,926.649 421.656,938.853 443.832,941.67 454.92,943.08 456.471,930.879 434.295,928.059 " />
  <polygon id="20336076588" title="" points="494.964,936.177 486.951,935.157 485.595,945.837 501.621,947.874 509.634,948.894 510.99,938.214 494.964,936.177 " />
  <polygon id="20336076899" title="" points="12.36147,336.249 8.2947,335.733 4.06707,368.997 16.26738,370.548 20.49501,337.284 12.36147,336.249 " />
  <polygon id="20336077749" title="" points="340.776,-879.384 343.374,-899.823 372.282,-864.996 335.583,-838.506 340.776,-879.384 " />
  <polygon id="20336077749" title="" points="279.0735,-878.721 276.4758,-858.285 247.5693,-893.112 284.2686,-919.599 279.0735,-878.721 " />
  <polygon id="20336077749" title="" points="120.6465,-836.697 123.2439,-857.136 142.515,-833.916 152.1504,-822.306 115.4511,-795.819 120.6465,-836.697 " />
  <polygon id="20336077749" title="" points="81.6903,-752.466 79.0926,-732.027 50.1861,-766.854 86.8854,-793.344 81.6903,-752.466 " />
  <polygon id="20336077749" title="" points="190.1985,-797.583 192.7962,-818.022 221.7027,-783.192 185.0031,-756.705 190.1985,-797.583 " />
  <polygon id="20336077749" title="" points="259.353,-723.555 256.7556,-703.116 237.4845,-726.333 227.8491,-737.943 252.3153,-755.604 264.5484,-764.433 259.353,-723.555 " />
  <polygon id="20336077749" title="" points="303.378,-713.265 305.976,-733.704 325.248,-710.484 334.884,-698.877 310.416,-681.216 298.1841,-672.387 303.378,-713.265 " />
  <polygon id="20336077749" title="" points="316.809,-590.694 314.214,-570.255 294.9417,-593.472 285.306,-605.082 322.005,-631.572 316.809,-590.694 " />
  <polygon id="20336077749" title="" points="243.1014,-595.683 240.504,-575.244 221.2329,-598.461 211.5975,-610.071 248.2968,-636.561 243.1014,-595.683 " />
  <polygon id="20336077749" title="" points="130.5267,-667.278 127.929,-646.839 99.0225,-681.666 135.7218,-708.156 130.5267,-667.278 " />
  <polygon id="20336077749" title="" points="593.763,-474.873 593.754,-475.185 341.64,-548.64 372.636,-792.522 388.134,-914.463 462.63,-912.006 465.342,-933.348 466.701,-944.019 190.5168,-979.119 52.4253,-996.669 14.60223,-699.063 -4.30932,-550.26 593.781,-474.246 593.763,-474.873 " />
  <polygon id="20336077814" title="" points="535.332,110.5713 532.737,131.0103 503.829,96.183 540.528,69.6933 535.332,110.5713 " />
  <polygon id="20336077814" title="" points="446.763,138.9345 444.165,159.3735 415.26,124.5462 439.725,106.8864 451.959,98.0568 446.763,138.9345 " />
  <polygon id="20336077814" title="" points="527.682,223.4412 525.084,243.8802 496.176,209.0529 532.878,182.5632 527.682,223.4412 " />
  <polygon id="20336077814" title="" points="407.613,239.5824 410.211,219.1434 429.483,242.3619 439.116,253.971 414.651,271.6305 402.417,280.4604 407.613,239.5824 " />
  <polygon id="20336077814" title="" points="482.322,343.893 479.724,364.332 450.816,329.505 475.284,311.844 487.518,303.015 482.322,343.893 " />
  <polygon id="20336077814" title="" points="470.493,470.145 467.895,490.584 448.623,467.367 438.99,455.757 475.689,429.267 470.493,470.145 " />
  <polygon id="20336077814" title="" points="388.8,422.544 386.202,442.983 357.297,408.156 393.996,381.666 388.8,422.544 " />
  <polygon id="20336077814" title="" points="570.591,83.5737 580.803,3.42828 445.788,-13.73085 378.282,-22.31043 333.021,333.825 310.389,511.893 415.431,525.234 467.955,531.906 522.765,339.879 550.17,243.8643 570.591,83.5737 " />
  <polygon id="20336077874" title="" points="1450.383,152.2314 1447.785,172.6704 1428.513,149.4519 1418.877,137.8428 1443.345,120.183 1455.576,111.3534 1450.383,152.2314 " />
  <polygon id="20336077874" title="" points="1314.168,57.9066 1316.766,37.4676 1345.674,72.2952 1321.206,89.955 1308.975,98.7846 1314.168,57.9066 " />
  <polygon id="20336077874" title="" points="1280.55,125.2845 1277.952,145.7235 1258.68,122.505 1249.047,110.8959 1273.512,93.2364 1285.746,84.4065 1280.55,125.2845 " />
  <polygon id="20336077874" title="" points="1337.391,217.1154 1334.796,237.5544 1315.524,214.3362 1305.888,202.7271 1330.353,185.0673 1342.587,176.2374 1337.391,217.1154 " />
  <polygon id="20336077874" title="" points="1413.768,277.9023 1411.17,298.3413 1391.901,275.1231 1382.265,263.514 1406.73,245.8542 1418.964,237.0243 1413.768,277.9023 " />
  <polygon id="20336077874" title="" points="1280.037,282.5325 1277.439,302.973 1258.17,279.7533 1248.534,268.1442 1285.233,241.6545 1280.037,282.5325 " />
  <polygon id="20336077874" title="" points="1312.839,21.46524 1228.398,10.73355 1184.109,359.229 1437.432,391.425 1481.721,42.9285 1312.839,21.46524 " />
  <polygon id="20336077930" title="" points="869.022,-1608.837 871.62,-1629.276 890.889,-1606.059 900.525,-1594.449 863.826,-1567.959 869.022,-1608.837 " />
  <polygon id="20336077930" title="" points="783.243,-1523.133 780.645,-1502.694 761.373,-1525.911 751.737,-1537.521 788.436,-1564.011 783.243,-1523.133 " />
  <polygon id="20336077930" title="" points="800.664,-1388.562 798.069,-1368.123 778.797,-1391.343 769.161,-1402.953 805.86,-1429.44 800.664,-1388.562 " />
  <polygon id="20336077930" title="" points="718.584,-1360.359 715.986,-1339.92 687.081,-1374.747 711.546,-1392.408 723.78,-1401.237 718.584,-1360.359 " />
  <polygon id="20336077930" title="" points="635.4,-1440.177 637.998,-1460.616 657.267,-1437.399 666.903,-1425.789 642.438,-1408.131 630.204,-1399.299 635.4,-1440.177 " />
  <polygon id="20336077930" title="" points="711.948,-1668.165 593.898,-1683.168 549.735,-1335.681 903.888,-1290.672 948.048,-1638.159 711.948,-1668.165 " />
  <polygon id="20336109529" title="" points="186.6504,581.304 186.519,582.339 240.0879,589.146 239.0667,597.18 264.3633,600.396 254.2008,680.358 249.1197,720.339 236.2233,718.701 229.7751,717.882 231.4194,704.943 168.8847,696.99 137.6172,693.012 123.9324,666.159 117.09,652.731 124.4277,594.993 85.116,589.998 78.36,576.753 81.5745,551.46 129.2034,557.514 129.6567,553.947 181.086,578.493 186.9135,579.234 186.6504,581.304 " />
  <polygon id="20336109529" title="" points="-17.6796,777.483 -15.86346,781.047 -26.57211,786.504 -3.47196,831.843 8.0781,854.511 34.9962,857.934 48.4554,859.644 46.9425,871.548 111.4341,879.678 143.6802,883.743 136.4811,940.386 122.3412,938.589 115.2714,937.689 113.7243,957.36 113.4969,970.509 113.3835,977.085 113.961,990.225 114.2499,996.795 116.3205,1016.415 119.5878,1035.87 122.5554,1048.683 124.0392,1055.091 129.6579,1074.003 134.1681,1086.357 136.4232,1092.537 144.3096,1110.621 150.2949,1122.333 153.2874,1128.189 163.3233,1145.172 174.3795,1161.513 186.4149,1177.146 199.3839,1192.014 213.2379,1206.06 223.0296,1214.841 227.9256,1219.23 238.2363,1227.396 243.3915,1231.479 254.1825,1239 259.5777,1242.759 270.8085,1249.605 276.4239,1253.028 293.8665,1262.247 305.85,1267.671 311.841,1270.38 425.502,1284.828 482.334,1292.049 501.84,1288.656 521.103,1284.069 540.045,1278.312 552.417,1273.704 558.6,1271.4 576.696,1263.36 588.408,1257.273 594.264,1254.228 605.58,1247.43 611.238,1244.034 622.116,1236.555 627.555,1232.814 637.953,1224.681 643.152,1220.616 653.028,1211.859 657.969,1207.482 671.952,1193.463 685.05,1178.613 697.209,1162.989 704.661,1152.093 708.387,1146.645 718.539,1129.644 727.629,1112.055 732.96,1099.977 735.624,1093.938 740.199,1081.557 742.488,1075.368 746.298,1062.729 748.2,1056.408 752.739,1037.136 754.968,1024.125 756.084,1017.621 741.93,1015.821 734.853,1014.921 741.867,959.715 735.915,958.959 736.674,953.007 748.578,954.519 748.371,956.157 839.142,967.692 840.087,960.252 850.206,961.539 858.804,893.883 863.103,860.055 791.976,851.016 802.662,766.926 808.008,724.878 793.128,722.988 785.685,722.043 785.163,726.159 779.541,725.445 726.198,730.968 699.525,733.731 694.041,776.886 674.697,774.426 684.858,694.464 689.94,654.483 706.803,656.625 715.236,657.699 722.094,603.732 725.526,576.75 626.322,564.141 576.72,557.838 575.775,565.278 563.871,563.766 564.816,556.326 465.615,543.717 416.013,537.414 415.068,544.854 403.164,543.339 404.109,535.899 277.6272,519.825 277.4382,521.313 255.1179,518.475 254.3613,524.43 242.457,522.915 243.2136,516.963 208.9887,512.613 228.6567,357.858 215.2644,356.157 216.021,350.205 229.4133,351.906 242.5254,248.7366 249.0813,197.1516 235.689,195.4497 236.4453,189.4974 249.8376,191.1996 268.6233,43.3884 278.016,-30.5172 275.04,-30.8952 276.3678,-41.3427 157.3251,-56.472 157.0227,-54.0912 142.3407,-55.9569 134.9997,-56.8899 135.7902,-63.1092 -92.13,-92.076 -206.0901,-106.5594 -213.7026,-102.6801 -109.6338,101.544 -310.074,203.6874 -315.429,206.4159 -270.0207,295.512 -247.3167,340.059 -241.9707,337.335 -236.5218,348.027 -241.8759,350.757 -173.7639,484.401 -168.4179,481.674 -162.969,492.366 -168.3231,495.096 -100.2111,628.74 -94.8651,626.016 -89.4162,636.708 -94.7697,639.435 -49.3617,728.532 -26.65758,773.079 -21.31182,770.355 -17.6796,777.483 " />
  <polygon id="20336109885" title="" points="-376.872,-609.918 -376.251,-614.79 -399.084,-617.691 -410.499,-619.14 -412.356,-604.527 -450.714,-609.402 -448.569,-626.274 -447.498,-634.71 -381.429,-626.313 -348.396,-622.116 -350.541,-605.244 -351.612,-596.808 -369.276,-599.052 -378.108,-600.177 -376.872,-609.918 " />
  <polygon id="20336109885" title="" points="-56.0688,-326.199 -53.9634,-342.765 -21.52674,-338.643 -25.73769,-305.508 -27.84318,-288.9423 -24.28074,-288.4893 -49.698,-88.4976 -89.2683,-93.5268 -63.8511,-293.5185 -60.2799,-293.0646 -56.0688,-326.199 " />
  <polygon id="20336109885" title="" points="273.9006,-254.5551 263.3709,-255.8934 265.7385,-274.5225 266.9223,-283.8372 287.9814,-281.1606 298.5111,-279.8226 296.1435,-261.1932 294.9597,-251.8785 273.9006,-254.5551 " />
  <polygon id="20336109885" title="" points="-179.013,-34.6053 -213.7026,-102.6801 -206.0901,-106.5594 21.83013,-77.5926 135.7902,-63.1092 154.6683,-211.65 169.3503,-209.784 176.6913,-208.851 176.388,-206.4654 295.4304,-191.3361 277.1202,-47.2638 383.763,-33.7104 437.082,-26.93373 438.786,-40.326 446.226,-39.3804 444.525,-25.98825 581.274,-8.60853 597.033,-132.6111 604.914,-194.6124 509.283,-206.7663 461.466,-212.8431 469.221,-273.8523 592.728,-258.1557 614.286,-427.791 548.019,-436.212 514.887,-440.424 517.407,-460.263 518.667,-470.184 502.896,-472.188 484.452,-326.958 468.669,-328.962 460.779,-329.967 473.082,-426.786 479.235,-475.197 333.933,-493.662 261.2811,-502.896 262.3062,-501.258 262.7256,-498.18 261.5499,-495.306 259.0944,-493.404 256.017,-492.984 253.1421,-494.16 251.2404,-496.614 250.8213,-499.692 251.997,-502.569 253.3995,-503.898 178.0737,-513.471 140.4108,-518.259 137.385,-494.448 128.4567,-495.585 130.4739,-511.455 131.4828,-519.393 31.4871,-532.101 -18.51084,-538.455 -20.40183,-523.578 -32.8989,-525.165 -31.0077,-540.045 -161.6595,-556.647 -121.9074,-869.433 -250.2747,-885.747 -314.457,-893.904 -316.35,-879.024 -336.387,-881.571 -346.407,-882.843 -344.898,-894.732 -344.142,-900.678 -364.776,-903.3 -375.093,-904.611 -376.602,-892.722 -377.358,-886.776 -560.487,-910.05 -652.05,-921.687 -672.441,-761.244 -682.635,-681.021 -755.478,-643.902 -693.996,-523.248 -683.304,-528.696 -677.856,-518.004 -683.727,-515.01 -638.325,-425.913 -615.624,-381.363 -609.744,-384.36 -604.293,-373.668 -610.173,-370.671 -564.765,-281.5749 -542.064,-237.027 -536.181,-240.0237 -530.733,-229.3317 -536.079,-226.6077 -467.967,-92.964 -462.621,-95.6883 -457.173,-84.9966 -462.528,-82.2663 -394.422,51.3804 -389.076,48.6561 -383.628,59.3475 -388.98,62.0763 -320.868,195.7203 -315.525,192.9957 -310.074,203.6874 -176.4474,135.5916 -109.6338,101.544 -179.013,-34.6053 " />
  <polygon id="20336110039" title="" points="1037.994,648.291 1038.498,644.322 1074.132,648.852 1091.949,651.117 1090.434,663.021 1054.803,658.491 1036.986,656.226 1037.994,648.291 " />
  <polygon id="20336110039" title="" points="856.59,794.712 857.409,788.265 886.179,791.922 900.564,793.749 898.923,806.646 898.104,813.093 869.337,809.436 854.952,807.609 856.59,794.712 " />
  <polygon id="20336110039" title="" points="930.543,974.268 930.858,971.79 942.762,973.302 941.25,985.206 1052.658,999.366 1044.96,990.162 1054.14,982.461 1061.862,991.665 1134.015,931.299 1170.09,901.113 1162.38,891.927 1171.584,884.229 1179.3,893.421 1256.001,829.257 1294.35,797.172 1286.634,787.98 1295.838,780.279 1303.554,789.474 1380.252,725.307 1418.601,693.225 1410.885,684.03 1420.089,676.332 1427.805,685.524 1542.846,589.284 1535.139,580.083 1544.343,572.382 1552.038,581.583 1667.1,485.337 1659.39,476.133 1668.594,468.435 1676.304,477.636 1791.354,381.39 1783.644,372.186 1792.848,364.485 1800.558,373.689 1860.402,323.67 1890.324,298.6596 1883.124,290.0658 1908.396,268.9116 1900.362,259.3071 1909.563,251.6061 1917.6,261.2079 2032.62,164.9289 2024.613,155.3586 2033.817,147.6573 2041.812,157.2114 2096.964,111.0726 2089.146,101.7309 2098.35,94.0311 2106.159,103.362 2108.589,101.3289 2131.014,128.1354 2179.329,87.7014 2171.631,78.5007 2173.908,76.5948 2061.681,-57.5538 2010.543,-64.0527 1984.974,-67.3023 1985.58,-72.0639 1948.866,-76.7301 1930.509,-79.0629 1932.174,-92.1576 1893.78,-97.0371 1874.583,-99.4767 1866.42,-35.2413 1862.337,-3.1236 1881.237,21.28011 1890.687,33.4821 1829.46,84.7059 1818.321,71.3946 1812.753,64.7388 1784.469,61.1439 1770.327,59.3466 1770.705,56.3706 1632.618,38.8206 1632.087,42.9873 1606.206,39.6981 1593.267,38.0535 1560.441,296.3205 1518.489,329.388 1497.513,345.924 1503.024,353.04 1491.456,361.998 1485.942,354.885 1445.418,386.268 1425.156,401.961 1170.69,369.621 1177.233,318.135 1169.793,317.19 1171.308,305.286 1178.748,306.231 1197.66,157.4286 1190.22,156.483 1191.732,144.5787 1199.172,145.5243 1218.045,-2.981238 975.39,-33.8205 972.216,-34.224 965.235,20.71323 961.743,48.1818 947.067,46.3164 939.726,45.3837 940.029,43.0029 837.354,29.95386 833.196,62.6904 831.114,79.059 835.578,79.6263 812.313,262.6851 825.705,264.3873 824.949,270.3393 811.557,268.6374 791.889,423.393 805.281,425.094 804.525,431.046 791.133,429.345 778.02,532.515 771.465,584.1 873.642,597.087 924.732,603.579 907.938,735.717 873.969,731.4 856.986,729.24 856.752,731.073 808.008,724.878 797.319,808.971 791.976,851.016 863.103,860.055 849.261,968.979 903.027,975.813 929.913,979.23 930.543,974.268 " />
  <polygon id="20336110175" title="" points="1633.449,-201.7959 1630.839,-181.2612 1615.959,-183.1524 1621.179,-224.2218 1623.786,-244.7568 1638.669,-242.8656 1633.449,-201.7959 " />
  <polygon id="20336110175" title="" points="1213.74,-181.65 1227.528,-179.8974 1225.233,-161.8425 1224.087,-152.8152 1206.525,-155.0472 1187.916,-8.62482 1172.043,-10.64205 1164.108,-11.65068 1186.158,-185.1552 1213.74,-181.65 " />
  <polygon id="20336110175" title="" points="708.417,-180.954 704.508,-150.2013 624.156,-160.4136 628.125,-191.6622 612.651,-193.629 604.914,-194.6124 589.152,-70.6098 581.274,-8.60853 645.855,-0.400917 678.144,3.7029 679.845,-9.68928 687.288,-8.74371 685.584,4.64847 792.228,18.20175 845.547,24.97839 857.754,-71.07 863.859,-119.094 959.091,-106.9905 959.394,-109.3716 981.411,-106.5735 975.282,-58.3404 972.216,-34.224 1207.629,-4.30506 1209.18,-16.5069 1221.084,-14.99397 1219.761,-4.57776 1368.564,14.33379 1369.509,6.89364 1381.413,8.40657 1380.468,15.84672 1529.271,34.7583 1530.216,27.31812 1542.12,28.83105 1541.175,36.2712 1570.143,39.9528 1584.624,41.7933 1585.23,37.032 1632.087,42.9873 1645.047,-58.9926 1651.527,-109.9824 1797.951,-91.3734 1788.873,-19.94793 1780.539,-21.00699 1770.327,59.3466 1813.686,64.8573 1845.51,40.2117 1861.422,27.88905 1863.765,9.45015 1864.935,0.2307069 1862.337,-3.1236 1870.503,-67.359 1874.583,-99.4767 1912.977,-94.5975 1932.174,-92.1576 1931.946,-90.372 1985.232,-83.6001 1983.795,-72.291 1985.58,-72.0639 1984.974,-67.3023 2036.112,-60.8034 2061.681,-57.5538 2173.908,76.5948 2175.078,75.6126 2175.345,75.3915 2180.832,70.7991 2188.533,80.0031 2427.834,-120.1941 2420.133,-129.3996 2429.337,-137.0994 2437.038,-127.8954 2493.276,-174.9456 2521.398,-198.471 2482.218,-245.2659 2462.628,-268.6635 2433.237,-244.0557 2418.543,-231.7518 1938.33,-292.7823 1959.825,-461.922 1970.574,-546.492 1623.366,-590.619 1449.765,-612.681 1441.569,-548.202 1437.471,-515.961 1455.327,-513.69 1454.382,-506.25 1436.526,-508.521 1417.14,-355.998 1317.144,-368.706 1267.149,-375.06 1265.256,-360.18 1252.761,-361.77 1254.651,-376.647 1154.652,-389.358 1104.654,-395.712 1102.638,-379.839 1101.63,-371.904 1092.702,-373.038 1094.718,-388.911 1095.726,-396.846 757.2,-439.869 744.894,-343.05 738.741,-294.6387 714.771,-297.6867 727.464,-397.482 733.809,-447.378 719.526,-449.193 715.176,-414.969 647.916,-423.516 614.286,-427.791 592.728,-258.1557 675.066,-247.6914 716.235,-242.4591 708.417,-180.954 " />
  <polygon id="20336110275" title="" points="-478.614,-935.589 -470.478,-934.554 -473.475,-910.974 -474.975,-899.184 -434.895,-894.09 -414.858,-891.543 -411.861,-915.123 -410.361,-926.913 -385.362,-923.736 -372.864,-922.149 -375.093,-904.611 -354.459,-901.989 -344.142,-900.678 -341.913,-918.213 -321.873,-915.669 -311.853,-914.394 -314.457,-893.904 -121.9074,-869.433 -101.5206,-1029.843 29.42856,-1013.199 30.3741,-1020.639 42.8712,-1019.052 41.9256,-1011.612 133.7865,-999.936 179.7171,-994.098 180.6627,-1001.538 192.567,-1000.026 191.6214,-992.586 324.552,-975.693 391.017,-967.245 391.962,-974.685 403.866,-973.173 402.921,-965.733 502.323,-953.1 552.021,-946.782 570.474,-1091.973 597.258,-1088.568 587.352,-1010.625 582.399,-971.652 648.666,-963.228 681.801,-959.019 703.548,-1130.142 649.485,-1137.012 622.452,-1140.447 630.015,-1199.97 670.59,-1194.813 690.876,-1192.236 705.06,-1303.845 441.084,-1337.394 435.309,-1291.941 432.42,-1269.216 368.931,-1277.286 337.185,-1281.318 336.882,-1278.933 314.859,-1281.732 322.299,-1340.277 326.019,-1369.548 272.0544,-1376.409 245.0712,-1379.838 228.7569,-1251.468 220.5996,-1187.286 -40.6662,-1220.493 -171.2994,-1237.095 -105.4413,-1291.557 -203.4342,-1410.06 -252.4308,-1469.31 -253.8144,-1468.167 -258.6018,-1473.948 -374.199,-1378.359 -369.414,-1372.575 -378.663,-1364.928 -383.445,-1370.712 -460.512,-1306.986 -499.044,-1275.123 -494.259,-1269.336 -503.508,-1261.689 -508.29,-1267.476 -597.855,-1193.415 -600.723,-1196.883 -618.078,-1182.525 -626.754,-1175.346 -619.107,-1166.097 -628.356,-1158.45 -636.006,-1167.696 -732.867,-1087.611 -673.98,-1016.4 -644.538,-980.793 -652.05,-921.687 -499.377,-902.286 -496.38,-925.866 -494.883,-937.656 -478.614,-935.589 " />
  <polygon id="20336110493" title="" points="89.4153,-1232.991 98.0457,-1231.893 111.7881,-1340.022 118.6593,-1394.088 142.4679,-1391.061 118.4502,-1202.082 85.3167,-1206.294 68.7498,-1208.4 71.0193,-1226.256 72.1539,-1235.184 89.4153,-1232.991 " />
  <polygon id="20336110493" title="" points="356.349,-1432.107 356.247,-1431.312 451.485,-1419.21 445.623,-1373.094 442.692,-1350.036 454.596,-1348.521 465.12,-1431.342 470.385,-1472.754 465.627,-1473.357 487.731,-1647.267 487.242,-1647.042 483.396,-1646.517 479.802,-1647.987 477.426,-1651.056 476.901,-1654.905 478.371,-1658.499 481.44,-1660.875 485.286,-1661.4 488.88,-1659.93 489.297,-1659.588 493.38,-1691.715 495.423,-1707.78 614.361,-1692.663 673.83,-1685.106 680.328,-1736.226 670.359,-1748.283 665.376,-1754.313 694.626,-1778.493 709.251,-1790.583 550.917,-1982.124 471.75,-2077.893 407.217,-2024.532 374.949,-1997.85 379.635,-1991.958 370.389,-1984.311 365.577,-1990.095 249.9786,-1894.509 254.7726,-1888.71 245.5248,-1881.063 240.732,-1886.859 163.6674,-1823.133 125.1351,-1791.27 129.9636,-1785.522 120.7158,-1777.875 115.9317,-1783.659 0.334998,-1688.07 5.1189,-1682.283 -4.12884,-1674.636 -8.91276,-1680.423 -84.6426,-1617.723 -122.5074,-1586.373 -120.5511,-1578.366 -128.9733,-1571.4 -133.7607,-1577.184 -210.8253,-1513.455 -249.3576,-1481.592 -244.5702,-1475.811 -252.4308,-1469.31 -154.4379,-1350.807 -105.4413,-1291.557 -171.2994,-1237.095 89.9667,-1203.888 220.5996,-1187.286 236.9142,-1315.653 245.0712,-1379.838 299.0373,-1372.977 326.019,-1369.548 334.527,-1436.493 356.55,-1433.694 356.349,-1432.107 " />
  <polygon id="20336110624" title="" points="1781.325,-938.733 1815.741,-934.359 1814.226,-922.452 1823.154,-921.318 1822.248,-914.181 1710.072,-928.437 1712.493,-947.481 1781.325,-938.733 " />
  <polygon id="20336110624" title="" points="1404.132,-1082.892 1406.895,-1104.642 1420.734,-1102.884 1412.442,-1037.628 1398.603,-1039.386 1404.132,-1082.892 " />
  <polygon id="20336110624" title="" points="1192.917,-1109.223 1195.65,-1130.721 1209.489,-1128.963 1204.023,-1085.964 1201.29,-1064.463 1187.451,-1066.221 1192.917,-1109.223 " />
  <polygon id="20336110624" title="" points="1733.118,-594.06 1764.042,-590.13 1762.095,-574.803 1700.25,-582.663 1669.326,-586.593 1671.273,-601.92 1733.118,-594.06 " />
  <polygon id="20336110624" title="" points="1773.153,-833.925 1808.766,-829.401 1804.983,-799.638 1733.76,-808.692 1698.15,-813.216 1700.673,-833.058 1701.933,-842.976 1773.153,-833.925 " />
  <polygon id="20336110624" title="" points="2162.547,-739.074 2244.966,-728.601 2278.047,-760.284 2294.586,-776.124 2275.914,-795.624 2266.575,-805.371 2257.908,-797.07 2249.61,-805.737 2258.277,-814.038 2182.539,-893.121 2173.872,-884.82 2165.571,-893.487 2174.238,-901.788 2070.489,-1010.121 2061.822,-1001.823 2053.524,-1010.487 2062.191,-1018.788 1958.442,-1127.121 1949.775,-1118.823 1948.53,-1120.122 1866.363,-1041.435 1825.281,-1002.09 1792.254,-1036.161 1775.742,-1053.198 1740.852,-1019.376 1636.818,-1126.614 1584.804,-1180.236 1399.407,-1203.798 1381.707,-1206.045 1381.935,-1207.833 1349.082,-1212.006 1332.654,-1214.094 1321.053,-1122.828 1315.254,-1077.195 1341.147,-1073.907 1337.742,-1047.12 1304.61,-1051.332 1288.041,-1053.438 1301.91,-1162.56 1308.846,-1217.121 1286.82,-1219.92 1286.592,-1218.135 1179.06,-1231.8 1125.294,-1238.634 1117.8,-1179.687 1103.118,-1181.556 1095.78,-1182.489 1096.08,-1184.871 1032.591,-1192.938 1000.848,-1196.973 1009.512,-1265.151 806.544,-1290.948 705.06,-1303.845 690.876,-1192.236 718.554,-1188.717 721.326,-1210.542 722.715,-1221.453 796.371,-1212.093 788.556,-1150.587 784.647,-1119.834 730.581,-1126.707 703.548,-1130.142 681.801,-959.019 781.2,-946.386 796.047,-1063.305 822.831,-1059.903 804.393,-914.709 953.493,-895.758 954.438,-903.198 966.342,-901.686 965.397,-894.246 1164.792,-868.905 1165.74,-876.345 1177.644,-874.833 1176.699,-867.393 1268.76,-855.693 1314.789,-849.843 1315.734,-857.283 1328.232,-855.693 1327.287,-848.253 1477.281,-829.191 1464.357,-727.509 1457.895,-676.668 1475.901,-674.379 1474.956,-666.939 1456.95,-669.228 1449.765,-612.681 1796.97,-568.554 1970.574,-546.492 1988.667,-688.848 1997.712,-760.023 2162.547,-739.074 " />
  <polygon id="20336111016" title="" points="1138.677,-1408.989 1167.645,-1405.308 1164.996,-1384.473 1078.095,-1395.519 1080.744,-1416.351 1138.677,-1408.989 " />
  <polygon id="20336111016" title="" points="1045.158,-1605.126 1043.109,-1588.992 1043.916,-1589.388 1047.762,-1589.913 1051.356,-1588.443 1053.732,-1585.374 1054.257,-1581.528 1052.787,-1577.934 1049.718,-1575.558 1045.872,-1575.033 1042.278,-1576.503 1041.597,-1577.088 1018.71,-1397.019 1014.246,-1397.586 999.213,-1279.305 1011.135,-1277.922 1016.985,-1323.951 1019.91,-1346.967 1115.145,-1334.865 1115.448,-1337.244 1137.468,-1334.445 1125.294,-1238.634 1232.826,-1224.969 1286.592,-1218.135 1288.434,-1232.619 1289.355,-1239.861 1366.14,-1230.102 1367.313,-1239.327 1379.532,-1237.776 1385.643,-1236.999 1383.018,-1216.365 1381.707,-1206.045 1517.106,-1188.84 1584.804,-1180.236 1688.835,-1072.995 1740.852,-1019.376 1775.742,-1053.198 1808.769,-1019.127 1825.281,-1002.09 1907.448,-1080.78 1948.53,-1120.122 1941.474,-1127.49 1950.141,-1135.788 1880.976,-1208.013 1846.392,-1244.124 1827.978,-1226.49 1819.68,-1235.157 1838.094,-1252.788 1785.183,-1308.039 1776.486,-1299.726 1708.713,-1370.508 1573.164,-1512.072 1581.831,-1520.373 1534.11,-1570.206 1510.248,-1595.124 1491.831,-1577.487 1483.53,-1586.154 1495.809,-1597.911 1501.947,-1603.791 1432.62,-1676.124 1397.958,-1712.292 1389.561,-1704.243 1381.257,-1712.907 1389.681,-1720.98 1320.516,-1793.211 1285.935,-1829.325 1277.46,-1821.204 1269.159,-1829.868 1277.637,-1837.995 1173.846,-1946.289 1165.362,-1938.165 1157.058,-1946.829 1165.584,-1955.001 1096.416,-2027.226 1061.832,-2063.34 1053.261,-2055.126 1044.96,-2063.79 1053.531,-2072.007 949.785,-2180.352 941.148,-2172.084 932.817,-2180.772 941.448,-2189.04 872.247,-2261.301 837.645,-2297.43 828.987,-2289.129 820.683,-2297.793 829.374,-2306.121 797.52,-2339.388 781.593,-2356.023 720.657,-2305.599 728.538,-2296.077 724.389,-2292.621 732.039,-2283.375 722.775,-2275.716 717.996,-2281.494 624.531,-2204.232 629.328,-2198.427 620.082,-2190.78 615.282,-2196.582 594.126,-2179.089 583.545,-2170.341 660.177,-2077.668 698.49,-2031.33 670.695,-2008.443 656.796,-1996.998 703.083,-1941.162 749.271,-1979.451 825.774,-1886.904 760.131,-1832.64 774.786,-1814.91 782.115,-1806.045 733.557,-1765.905 718.902,-1783.635 711.573,-1792.503 680.775,-1767.042 665.376,-1754.313 675.342,-1742.256 680.328,-1736.226 673.83,-1685.106 1049.259,-1637.391 1045.158,-1605.126 " />
  <polygon id="20336140956" title="" points="1000.851,-1197.024 1002.084,-1206.726 1005.762,-1235.664 1005.762,-1235.664 1047.429,-1230.366 1043.571,-1200.012 1040.595,-1200.39 1039.542,-1192.107 1000.851,-1197.024 " />
  <polygon id="20336159505" title="" points="343.143,-1280.613 387.786,-1274.94 408.945,-1272.249 432.426,-1269.264 425.541,-1215.087 423.621,-1199.991 419.334,-1166.262 356.46,-1174.254 330.054,-1177.611 334.341,-1211.34 341.814,-1270.146 343.143,-1280.613 " />
  <polygon id="20336159778" title="" points="1061.574,-1341.672 1027.701,-1345.977 1019.916,-1346.967 1017.867,-1330.842 1000.854,-1196.973 1034.727,-1192.668 1042.512,-1191.678 1051.548,-1262.778 1061.574,-1341.672 " />
  <polygon id="20336159778" title="" points="1067.526,-1340.916 1075.314,-1339.926 1109.193,-1335.621 1093.692,-1213.656 1090.128,-1185.627 1048.464,-1190.922 1067.526,-1340.916 " />
</svg>