<?xml version="1.0" encoding="utf-8"?>
<svg xmlns:xsi="http://www.w3.org/2001/XMLSchema-instance" xmlns:xsd="http://www.w3.org/2001/XMLSchema" version="1.1" id="Map" class="gen-by-synoptic-designer" xmlns:xlink="http://www.w3.org/1999/xlink" viewBox="-7346.07428420167 -12599.9790205813 23122.2960832823 24319.1997259649 " xml:space="preserve" height="100%" width="100%" xmlns="http://www.w3.org/2000/svg">
  <polygon id="20336047049" title="" points="1432.716,-1278.051 1438.587,-1324.26 1422.57,-1340.985 1414.56,-1349.349 1400.979,-1242.474 1394.187,-1189.038 1420.971,-1185.633 1432.716,-1278.051 " />
  <polygon id="20336047083" title="" points="82.6335,548.322 68.8221,546.567 65.6463,571.557 64.0584,584.049 105.4926,589.317 108.6684,564.327 110.2563,551.832 82.6335,548.322 " />
  <polygon id="20336047117" title="" points="666.429,838.689 658.491,837.681 656.4,854.148 655.353,862.38 671.226,864.399 679.161,865.407 681.255,848.94 682.302,840.705 666.429,838.689 " />
  <polygon id="20336047157" title="" points="788.505,657.321 789.51,657.447 795.309,611.832 798.207,589.023 725.556,578.583 705.912,733.128 777.657,725.64 786.498,657.066 788.505,657.321 " />
  <polygon id="20336047190" title="" points="826.335,592.599 802.533,589.572 791.31,677.886 785.697,722.043 857.1,731.118 868.323,642.804 873.936,598.647 826.335,592.599 " />
  <polygon id="20336047227" title="" points="1979.31,50.361 1980.066,44.4264 1935.981,81.3069 1952.493,83.4054 1977.801,62.2305 1979.31,50.361 " />
  <polygon id="20336047264" title="" points="1160.862,-17.83281 1176.438,-15.85338 1197.462,-181.2993 1090.026,-194.9535 1048.8,129.4374 1089.276,134.5812 1109.511,137.1534 1129.713,-21.79164 1160.862,-17.83281 " />
  <polygon id="20336047298" title="" points="893.616,-115.2615 863.856,-119.0439 844.791,30.9495 904.314,38.5143 934.074,42.2967 946.782,-57.699 953.136,-107.697 893.616,-115.2615 " />
  <polygon id="20336047331" title="" points="911.163,-217.6746 876.939,-222.0243 873.687,-196.4406 976.362,-183.3918 979.614,-208.9752 911.163,-217.6746 " />
  <polygon id="20336047369" title="" points="81.9828,-213.1902 95.7252,-321.321 34.7157,-329.073 13.34571,-160.9263 -11.49606,-164.0835 -23.91693,-165.6621 -43.7739,-9.41922 54.498,3.07026 81.9828,-213.1902 " />
  <polygon id="20336047402" title="" points="235.9125,-198.9003 206.1519,-202.6827 187.0827,-52.6395 246.6039,-45.0747 276.3645,-41.2926 295.4337,-191.3358 235.9125,-198.9003 " />
  <polygon id="20336047436" title="" points="240.0639,-302.976 205.8393,-307.326 203.6706,-290.2632 202.5864,-281.7318 271.0359,-273.0324 305.262,-268.6827 308.514,-294.2769 240.0639,-302.976 " />
  <polygon id="20336047470" title="" points="-440.253,-633.783 -447.498,-634.704 -449.187,-621.432 -450.03,-614.799 -428.295,-612.036 -426.606,-625.308 -425.763,-631.944 -440.253,-633.783 " />
  <polygon id="20336047504" title="" points="-377.073,-625.758 -385.011,-626.769 -387.027,-610.896 -388.038,-602.961 -372.159,-600.942 -364.218,-599.934 -362.202,-615.804 -361.194,-623.742 -377.073,-625.758 " />
  <polygon id="20336047542" title="" points="233.7555,-1409.805 247.4727,-1517.736 206.9982,-1522.878 186.7611,-1525.452 164.9484,-1353.819 140.5956,-1356.915 121.2567,-1204.752 206.3211,-1193.94 233.7555,-1409.805 " />
  <polygon id="20336047577" title="" points="354.138,-1200.555 319.914,-1204.905 317.745,-1187.844 316.662,-1179.312 419.334,-1166.262 421.503,-1183.326 422.589,-1191.858 354.138,-1200.555 " />
  <polygon id="20336047611" title="" points="391.971,-1426.824 362.211,-1430.607 349.497,-1330.578 343.14,-1280.562 402.663,-1272.999 432.423,-1269.216 445.134,-1369.245 451.491,-1419.258 391.971,-1426.824 " />
  <polygon id="20336047647" title="" points="484.68,-1832.154 482.067,-1835.316 456.219,-1813.953 464.058,-1804.476 489.906,-1825.833 484.68,-1832.154 " />
  <polygon id="20336047684" title="" points="1299.693,-1194.999 1279.149,-1197.609 1302.789,-1383.615 1262.115,-1388.784 1241.778,-1391.367 1214.295,-1175.106 1200.552,-1066.977 1282.314,-1056.585 1323.195,-1051.389 1334.919,-1143.648 1340.781,-1189.776 1299.693,-1194.999 " />
  <polygon id="20336047717" title="" points="1049.676,-1343.235 1019.916,-1347.018 1007.205,-1246.989 1000.848,-1196.973 1090.128,-1185.627 1102.842,-1285.656 1109.199,-1335.669 1049.676,-1343.235 " />
  <polygon id="20336047749" title="" points="1025.241,-1115.265 991.017,-1119.615 987.762,-1094.022 1090.437,-1080.972 1093.689,-1106.565 1025.241,-1115.265 " />
  <polygon id="20336047783" title="" points="1355.469,-1190.331 1347.036,-1191.402 1344.516,-1171.56 1343.253,-1161.642 1360.119,-1159.497 1368.552,-1158.426 1371.072,-1178.265 1372.332,-1188.186 1355.469,-1190.331 " />
  <polygon id="20336062026" title="" points="190.4262,583.854 190.6026,582.465 185.2458,581.784 116.6355,556.272 115.7547,556.161 102.3366,661.74 129.8718,715.722 244.3962,730.278 261.4986,595.71 190.0731,586.632 190.4262,583.854 " />
  <polygon id="20336062066" title="" points="1961.991,51.6618 1976.904,39.0411 1985.88,-31.5909 1990.368,-66.9069 1843.35,-85.5915 1836.795,-34.0062 1833.516,-8.21379 1842.444,-7.0791 1833.366,64.3464 1899.237,72.7179 1932.171,76.9035 1961.991,51.6618 " />
  <polygon id="20336062473" title="" points="-68.6364,-320.133 -61.7913,-319.263 -60.5433,-329.085 -48.639,-327.57 -49.887,-317.751 -46.161,-317.277 -44.1183,-333.348 -43.0971,-341.382 -87.048,-346.968 -109.0236,-349.761 -127.1031,-207.5052 -121.1508,-206.7489 -127.7322,-154.9653 -138.2097,-156.297 -140.2521,-140.2263 -141.2733,-132.1911 -105.5862,-127.6554 -82.3266,-321.873 -68.6364,-320.133 " />
  <polygon id="20336066296" title="" points="1426.989,-1232.994 1421.043,-1186.209 1420.971,-1185.633 1394.187,-1189.038 1407.768,-1295.913 1414.56,-1349.349 1430.58,-1332.624 1438.587,-1324.26 1426.989,-1232.994 " />
  <polygon id="20336066296" title="" points="1282.452,-1386.198 1302.789,-1383.615 1279.149,-1197.609 1340.781,-1189.776 1329.057,-1097.52 1323.195,-1051.389 1241.433,-1061.781 1200.552,-1066.977 1241.778,-1391.367 1282.452,-1386.198 " />
  <polygon id="20336066296" title="" points="1363.902,-1189.257 1372.332,-1188.186 1369.812,-1168.347 1368.552,-1158.426 1343.253,-1161.642 1345.776,-1181.481 1347.036,-1191.402 1363.902,-1189.257 " />
  <polygon id="20336066296" title="" points="1059.465,-1110.915 1093.689,-1106.565 1091.52,-1089.504 1090.437,-1080.972 987.762,-1094.022 989.931,-1111.083 991.017,-1119.615 1059.465,-1110.915 " />
  <polygon id="20336066296" title="" points="1079.439,-1339.452 1109.199,-1335.669 1096.485,-1235.64 1090.128,-1185.627 1000.848,-1196.973 1019.916,-1347.018 1079.439,-1339.452 " />
  <polygon id="20336066296" title="" points="1046.781,-1607.097 1044.762,-1591.224 1047.618,-1591.341 1051.728,-1589.661 1054.446,-1586.151 1055.046,-1581.753 1053.366,-1577.643 1049.856,-1574.925 1045.455,-1574.328 1042.719,-1575.153 1022.898,-1419.186 1017.087,-1419.924 1003.974,-1316.76 997.419,-1265.178 811.416,-1288.818 809.901,-1276.911 798.594,-1278.351 799.512,-1290.33 787.155,-1291.899 740.253,-922.869 792.639,-916.212 794.151,-928.116 806.649,-926.526 805.137,-914.613 958.377,-895.14 1034.997,-885.402 1033.989,-887.061 1033.53,-890.439 1034.82,-893.598 1037.517,-895.686 1040.898,-896.145 1044.054,-894.855 1046.142,-892.158 1046.604,-888.777 1045.311,-885.621 1043.925,-884.265 1155.228,-870.12 1158.33,-894.525 1168.449,-893.238 1166.382,-876.969 1165.347,-868.833 1265.172,-856.149 1315.086,-849.804 1316.598,-861.708 1328.502,-860.196 1326.99,-848.292 1477.281,-829.191 1457.991,-677.412 1470.291,-675.849 1476.441,-675.066 1475.382,-666.732 1456.932,-669.078 1449.819,-613.128 1797.027,-569.001 1970.631,-546.939 1988.685,-688.995 1997.712,-760.023 2102.331,-746.727 2154.639,-740.079 2234.925,-656.247 2325.921,-743.4 2305.629,-764.586 2295.483,-775.182 2285.706,-767.607 2276.991,-776.709 2286.522,-785.838 2183.607,-893.307 2173.641,-883.764 2164.512,-893.298 2174.046,-902.427 2071.131,-1009.896 2062.029,-1001.181 2052.9,-1010.715 2061.999,-1019.43 1959.084,-1126.902 1949.988,-1118.181 1940.856,-1127.712 1949.952,-1136.43 1847.037,-1243.902 1837.935,-1235.187 1828.392,-1245.153 1837.926,-1254.282 1815.651,-1277.541 1804.515,-1289.169 1795.191,-1280.241 1748.988,-1328.487 1725.888,-1352.607 1716.354,-1343.478 1707.639,-1352.577 1717.173,-1361.709 1614.255,-1469.175 1603.854,-1459.218 1594.311,-1469.184 1604.277,-1478.727 1604.754,-1479.099 1574.043,-1511.166 1548.624,-1537.833 1535.913,-1551.165 1544.145,-1559.049 1511.034,-1595.358 1501.503,-1586.226 1492.371,-1595.76 1501.38,-1604.385 1433.229,-1676.994 1399.155,-1713.297 1389.189,-1703.751 1380.567,-1712.94 1388.661,-1722.093 1320.258,-1793.523 1286.058,-1829.238 1277.391,-1820.937 1268.676,-1830.039 1276.911,-1837.923 1173.996,-1945.392 1165.329,-1937.094 1156.2,-1946.628 1165.299,-1955.343 1096.305,-2027.328 1061.811,-2063.319 1053.147,-2055.015 1044.843,-2063.679 1053.939,-2072.397 985.023,-2144.304 950.565,-2180.256 941.466,-2171.538 939.99,-2173.08 779.946,-2022.135 786.36,-2014.029 783.843,-2011.95 783.897,-2011.884 756.417,-1989.165 742.677,-1977.807 789.849,-1920.777 813.435,-1892.262 813.141,-1891.989 818.484,-1885.527 707.682,-1793.934 702.516,-1789.131 702.255,-1789.449 673.377,-1765.578 658.938,-1753.641 653.532,-1711.095 650.829,-1689.822 917.487,-1655.835 1050.816,-1638.843 1046.781,-1607.097 " />
  <polygon id="20336066739" title="" points="487.293,-1828.995 489.906,-1825.833 472.674,-1811.595 464.058,-1804.476 456.219,-1813.953 482.067,-1835.316 487.293,-1828.995 " />
  <polygon id="20336066739" title="" points="421.731,-1423.041 451.491,-1419.258 432.423,-1269.216 372.9,-1276.779 343.14,-1280.562 362.211,-1430.607 421.731,-1423.041 " />
  <polygon id="20336066739" title="" points="388.362,-1196.208 422.589,-1191.858 420.42,-1174.794 419.334,-1166.262 350.886,-1174.962 316.662,-1179.312 318.828,-1196.376 319.914,-1204.905 388.362,-1196.208 " />
  <polygon id="20336066739" title="" points="156.8307,-1354.851 164.9484,-1353.819 179.49,-1468.242 186.7611,-1525.452 227.2356,-1520.307 247.4727,-1517.736 206.3211,-1193.94 121.2567,-1204.752 140.5956,-1356.915 156.8307,-1354.851 " />
  <polygon id="20336066739" title="" points="-299.4531,-878.691 -123.5715,-856.338 -108.8709,-972.006 -101.5206,-1029.843 191.6214,-992.586 194.6472,-1016.394 203.5755,-1015.26 200.5497,-991.452 312.489,-977.226 311.754,-978.516 311.319,-981.708 312.54,-984.69 315.087,-986.661 318.279,-987.096 321.261,-985.878 323.232,-983.331 323.667,-980.139 322.449,-977.157 321.417,-976.092 551.724,-946.821 553.239,-958.725 565.143,-957.213 563.631,-945.315 739.068,-923.019 785.97,-1292.052 695.796,-1303.512 650.709,-1309.242 649.194,-1297.338 637.29,-1298.85 638.802,-1310.754 452.799,-1334.394 472.845,-1492.116 466.893,-1492.872 486.282,-1645.431 483.285,-1645.296 479.079,-1647.015 476.295,-1650.609 475.68,-1655.115 477.402,-1659.321 480.996,-1662.105 485.499,-1662.717 487.605,-1662.18 491.637,-1693.923 493.656,-1709.796 650.829,-1689.822 656.235,-1732.368 658.938,-1753.641 702.057,-1789.533 625.722,-1881.24 668.856,-1916.895 690.42,-1934.721 723.543,-1965.519 740.103,-1980.918 742.623,-1977.873 786.36,-2014.029 779.946,-2022.135 939.99,-2173.08 932.337,-2181.072 941.1,-2189.463 837.636,-2297.418 828.987,-2289.129 820.683,-2297.793 829.347,-2306.097 781.623,-2355.93 720.606,-2305.437 731.7,-2292.033 727.8,-2288.298 625.941,-2204.07 630.186,-2198.592 619.611,-2190.399 615.132,-2194.467 500.922,-2100.027 505.782,-2095.134 496.11,-2086.338 491.526,-2092.257 414.696,-2028.726 376.278,-1996.959 380.319,-1991.742 370.611,-1983.711 366.57,-1988.931 289.8627,-1925.502 251.5095,-1893.789 255.6447,-1888.449 245.5878,-1880.133 241.2864,-1885.335 126.7284,-1790.607 131.2107,-1784.82 120.8931,-1776.831 116.496,-1782.147 40.1241,-1718.994 1.938066,-1687.419 5.98143,-1682.199 -4.30686,-1673.691 -8.51271,-1678.779 -122.9553,-1584.147 -118.9887,-1579.026 -129.2148,-1570.212 -133.5162,-1575.414 -209.6571,-1512.453 -247.7277,-1480.974 -243.5922,-1475.634 -253.9962,-1467.03 -258.2976,-1472.232 -334.515,-1409.208 -372.624,-1377.696 -368.316,-1372.131 -379.224,-1363.683 -383.268,-1368.9 -459.405,-1305.939 -497.475,-1274.457 -493.332,-1269.105 -503.505,-1260.696 -507.807,-1265.898 -508.161,-1265.622 -567.348,-1216.68 -596.943,-1192.209 -600.624,-1196.964 -688.785,-1124.061 -732.867,-1087.611 -677.19,-1019.64 -649.353,-985.656 -643.401,-984.9 -651.216,-923.397 -299.4531,-878.691 " />
  <polygon id="20336067251" title="" points="1840.071,-59.799 1843.35,-85.5915 1892.952,-79.2876 1917.753,-76.1355 1990.368,-66.9069 1981.392,3.7251 1976.904,39.0411 1947.081,64.2828 1932.171,76.9035 1866.303,68.532 1833.366,64.3464 1842.444,-7.0791 1833.516,-8.21379 1840.071,-59.799 " />
  <polygon id="20336067251" title="" points="1978.557,56.2959 1977.801,62.2305 1952.493,83.4054 1935.981,81.3069 1980.066,44.4264 1978.557,56.2959 " />
  <polygon id="20336067251" title="" points="850.134,595.623 873.936,598.647 857.1,731.118 809.499,725.07 785.697,722.043 802.533,589.572 850.134,595.623 " />
  <polygon id="20336067251" title="" points="923.376,-111.4791 953.136,-107.697 940.428,-7.70124 934.074,42.2967 874.554,34.7319 844.791,30.9495 857.502,-69.0459 863.856,-119.0439 923.376,-111.4791 " />
  <polygon id="20336067251" title="" points="1161.651,-185.8506 1197.462,-181.2993 1176.438,-15.85338 1129.713,-21.79164 1109.511,137.1534 1069.038,132.0093 1048.8,129.4374 1090.026,-194.9535 1161.651,-185.8506 " />
  <polygon id="20336067251" title="" points="945.39,-213.3249 979.614,-208.9752 976.362,-183.3918 907.914,-192.0909 873.687,-196.4406 876.939,-222.0243 945.39,-213.3249 " />
  <polygon id="20336067251" title="" points="1169.949,308.844 1170.528,304.281 1178.862,305.34 1197.546,158.3214 1189.212,157.2621 1190.877,144.1677 1199.208,145.2267 1211.838,45.8484 1218.156,-3.84066 1218.231,-4.43589 1256.025,0.367659 1274.925,2.769426 1274.4,6.90252 1313.088,11.81952 1313.655,7.35543 1349.766,11.94465 1367.82,14.23923 1368.879,5.90628 1382.568,7.64613 1381.509,15.97911 1529.271,34.7583 1530.255,27.02052 1543.35,28.68474 1542.366,36.4224 1592.661,42.8145 1559.415,304.392 1523.214,334.68 1505.115,349.821 1509.891,355.989 1499.304,364.845 1494.528,358.677 1458.282,389.001 1440.156,404.163 1428.582,402.693 1266.075,381.744 1266.642,377.28 1227.951,372.363 1227.384,376.827 1189.59,372.024 1170.69,369.621 1174.977,335.892 1177.122,319.029 1168.788,317.97 1169.949,308.844 " />
  <polygon id="20336067251" title="" points="939.249,969.228 943.215,969.732 942.006,979.254 1047.357,992.643 1048.569,983.121 1062.174,984.849 1068.978,985.713 1169.76,901.401 1162.137,891.558 1171.455,883.761 1179.438,893.304 1255.908,829.329 1294.143,797.343 1286.058,787.68 1295.835,779.499 1304.208,789.507 1418.337,694.029 1410.624,684.066 1420.287,675.981 1428.372,685.647 1542.615,590.07 1534.809,579.99 1544.208,571.599 1553.199,581.67 1666.359,485.952 1658.736,476.109 1668.585,467.778 1677.243,477.369 1791.369,381.888 1783.656,371.928 1792.86,364.227 1801.329,374.352 1869.516,315.951 1862.658,307.092 1907.637,269.1426 1899.471,259.5486 1909.521,250.9917 1917.852,260.9472 1993.929,197.283 2031.966,165.4512 2032.05,164.7825 2024.697,155.2884 2034.276,147.2727 2041.623,156.7602 2118.528,92.7363 2134.032,110.5773 2141.784,119.4978 2159.214,104.9097 2179.515,87.9264 2171.25,78.4158 2180.76,70.1508 2188.989,79.6182 2265.075,15.96594 2303.118,-15.86025 2295.765,-25.35408 2305.428,-33.4389 2313.129,-24.23517 2389.599,-88.2087 2427.834,-120.1956 2420.133,-129.3996 2429.796,-137.4843 2437.683,-128.0574 2444.124,-133.4463 2427.447,-153.3831 2419.107,-163.3515 2496.555,-228.1443 2441.544,-293.898 2396.529,-256.2393 2374.023,-237.4098 1938.33,-292.7823 1970.481,-545.748 1622.877,-589.926 1449.075,-612.015 1436.97,-516.78 1456.611,-514.284 1455.477,-505.356 1436.43,-507.777 1423.572,-406.59 1417.14,-355.998 985.611,-410.841 985.77,-410.49 986.367,-406.107 984.693,-402.015 981.195,-399.306 976.812,-398.709 972.72,-400.383 970.011,-403.878 969.414,-408.261 971.088,-412.356 971.328,-412.656 747.528,-441.099 745.788,-427.41 727.335,-429.753 729.075,-443.445 599.172,-459.954 561.348,-162.3474 542.436,-13.54434 632.115,-2.146983 676.953,3.5517 678.693,-10.13817 687.621,-9.00348 685.881,4.68639 839.595,24.22203 837.516,40.5903 836.028,40.4013 830.607,83.058 827.895,104.3865 832.656,104.9916 819.342,209.7489 812.688,262.1277 826.377,263.8674 825.468,271.0101 811.482,269.2323 791.964,422.796 806.1,424.593 805.173,431.886 791.037,430.089 778.29,530.382 771.918,580.527 791.262,582.987 800.934,584.217 782.679,727.86 773.55,799.683 790.614,801.852 799.146,802.935 794.91,836.268 792.792,852.933 864.366,862.029 850.938,967.68 930.102,977.742 931.311,968.217 939.249,969.228 " />
  <polygon id="20336067507" title="" points="-131.2245,-155.4093 -127.7322,-154.9653 -121.1508,-206.7489 -127.1031,-207.5052 -109.0236,-349.761 -65.0727,-344.175 -43.0971,-341.382 -45.1398,-325.311 -46.161,-317.277 -49.887,-317.751 -48.639,-327.57 -60.5433,-329.085 -61.7913,-319.263 -75.4815,-321.003 -82.3266,-321.873 -105.5862,-127.6554 -129.3777,-130.6791 -141.2733,-132.1911 -139.2309,-148.2618 -138.2097,-156.297 -131.2245,-155.4093 " />
  <polygon id="20336067507" title="" points="111.5148,679.734 102.3366,661.74 115.7547,556.161 116.6355,556.272 185.2458,581.784 190.6026,582.465 190.0731,586.632 261.4986,595.71 244.3962,730.278 129.8718,715.722 111.5148,679.734 " />
  <polygon id="20336067507" title="" points="773.991,585.543 798.207,589.023 792.411,634.641 789.51,657.447 786.498,657.066 777.657,725.64 705.912,733.128 725.556,578.583 773.991,585.543 " />
  <polygon id="20336067507" title="" points="-369.132,-624.75 -361.194,-623.742 -363.21,-607.869 -364.218,-599.934 -388.038,-602.961 -386.019,-618.831 -385.011,-626.769 -369.132,-624.75 " />
  <polygon id="20336067507" title="" points="-433.008,-632.865 -425.763,-631.944 -427.452,-618.672 -428.295,-612.036 -450.03,-614.799 -447.498,-634.704 -433.008,-632.865 " />
  <polygon id="20336067507" title="" points="265.6731,-195.1182 295.4337,-191.3358 276.3645,-41.2926 216.8433,-48.8571 187.0827,-52.6395 199.7955,-152.6682 206.1519,-202.6827 265.6731,-195.1182 " />
  <polygon id="20336067507" title="" points="274.2888,-298.6266 308.514,-294.2769 306.345,-277.2141 305.262,-268.6827 202.5864,-281.7318 205.8393,-307.326 274.2888,-298.6266 " />
  <polygon id="20336067507" title="" points="27.59244,-273.0249 34.7157,-329.073 95.7252,-321.321 54.498,3.07026 -11.01672,-5.25606 -43.7739,-9.41922 -30.5361,-113.5812 -23.91693,-165.6621 0.924831,-162.5049 13.34571,-160.9263 27.59244,-273.0249 " />
  <polygon id="20336067507" title="" points="96.4449,550.077 110.2563,551.832 107.0805,576.822 105.4926,589.317 64.0584,584.049 67.2342,559.062 68.8221,546.567 96.4449,550.077 " />
  <polygon id="20336067507" title="" points="674.364,839.697 682.302,840.705 679.161,865.407 655.353,862.38 657.447,845.913 658.491,837.681 674.364,839.697 " />
  <polygon id="20336067507" title="" points="-679.671,-521.568 -677.856,-518.004 -683.202,-515.28 -637.8,-426.18 -615.096,-381.63 -609.744,-384.36 -604.293,-373.668 -609.648,-370.941 -564.246,-281.8398 -541.545,-237.2898 -536.181,-240.0237 -530.733,-229.332 -536.079,-226.6077 -490.671,-137.5116 -467.967,-92.9634 -462.621,-95.688 -457.173,-84.9966 -462.519,-82.272 -394.422,51.3804 -389.076,48.6561 -383.628,59.3475 -388.974,62.0721 -343.566,151.1682 -320.862,195.7161 -315.525,192.9957 -310.074,203.6883 -315.42,206.4126 -270.018,295.5111 -247.3164,340.059 -241.9707,337.335 -236.5218,348.027 -241.8675,350.751 -173.7633,484.401 -168.4173,481.674 -162.9684,492.366 -168.3147,495.093 -122.9067,584.187 -100.2027,628.737 -94.857,626.01 -89.4081,636.702 -94.7619,639.432 -26.65776,773.079 -21.31245,770.355 -15.86409,781.047 -21.21,783.771 4.97142,835.149 18.06213,860.838 18.69471,855.861 48.7725,859.683 47.2719,871.491 145.7004,883.998 194.9148,890.253 196.4907,877.854 209.6706,879.528 208.0818,892.026 202.1298,891.27 198.7644,917.751 197.0817,930.99 193.7355,972.255 196.1127,999.351 197.3013,1012.899 204.1815,1039.017 207.6213,1052.079 218.469,1077.012 223.893,1089.48 239.0775,1111.926 246.6699,1123.149 275.3718,1152.558 295.6734,1168.152 305.823,1175.949 318.159,1183.623 324.327,1187.46 316.869,1246.128 313.143,1275.462 479.802,1296.642 487.2,1238.43 490.899,1209.324 504.576,1205.016 511.416,1202.865 536.076,1192.374 548.409,1187.127 571.338,1172.499 582.804,1165.185 613.113,1137.87 629.601,1117.128 637.845,1106.757 650.931,1083.138 657.474,1071.33 666.489,1045.878 670.995,1033.155 675.768,1005.666 678.153,991.92 681.501,965.577 683.175,952.407 677.568,951.696 679.173,939.045 692.268,940.71 691.437,947.259 789.447,959.715 838.455,965.943 839.817,955.23 850.83,956.628 862.725,863.031 815.307,857.004 791.598,853.992 798.027,803.4 780.966,801.231 772.434,800.145 799.818,584.679 719.763,574.506 719.571,575.994 625.131,563.991 577.911,557.988 576.852,566.322 563.757,564.657 564.816,556.326 416.013,537.414 415.068,544.854 403.164,543.339 404.109,535.899 277.6272,519.825 274.8402,517.959 209.367,509.637 222.0756,409.641 228.4299,359.646 214.74,357.906 215.799,349.572 230.0841,351.387 243.0447,249.4074 249.5253,198.4176 235.5378,196.6401 236.5401,188.7534 249.9324,190.4556 269.5059,36.444 273.9699,37.0116 281.0301,-18.54156 284.5602,-46.3182 436.638,-26.99046 438.087,-38.3994 446.907,-37.2786 445.458,-25.86957 509.217,-17.76624 541.098,-13.71456 597.831,-460.125 536.922,-467.865 506.466,-471.735 504.765,-458.343 492.861,-459.855 486.909,-460.614 488.61,-474.006 256.0803,-503.556 139.8156,-518.334 136.6386,-493.335 128.3055,-494.394 131.4828,-519.393 31.2885,-532.125 -18.80844,-538.494 -20.32137,-526.59 -32.2257,-528.102 -30.7128,-540.006 -118.0104,-551.1 -161.6595,-556.647 -123.7986,-854.553 -650.709,-921.519 -660.783,-842.265 -665.82,-802.638 -665.733,-802.626 -681.603,-677.757 -687.333,-678.486 -732.417,-655.512 -754.959,-644.025 -749.022,-630.942 -743.712,-634.026 -688.65,-525.972 -683.304,-528.696 -679.671,-521.568 " />
  <polygon id="20336078560" title="" points="649.599,-1896.765 629.187,-1877.787 702.255,-1789.449 707.682,-1793.934 813.141,-1891.989 765.939,-1949.088 742.338,-1977.639 690.42,-1934.721 649.599,-1896.765 " />
  <polygon id="20336102037" title="" points="186.6504,581.304 186.519,582.339 240.0879,589.146 239.0667,597.18 264.3633,600.396 254.2008,680.358 249.1197,720.339 236.2233,718.701 229.7751,717.882 231.4194,704.943 168.8847,696.99 137.6172,693.012 123.9324,666.159 117.09,652.731 124.4277,594.993 85.116,589.998 78.36,576.753 81.5745,551.46 129.2034,557.514 129.6567,553.947 181.086,578.493 186.9135,579.234 186.6504,581.304 " />
  <polygon id="20336102037" title="" points="-17.6796,777.483 -15.86346,781.047 -21.20832,783.771 19.42794,863.514 137.3511,878.502 196.3128,885.996 197.2584,878.556 209.1627,880.068 207.6498,891.972 202.3422,891.297 197.3451,930.618 194.8467,950.277 193.9752,966.957 194.2437,983.661 195.6507,1000.305 198.1899,1016.817 201.8493,1033.116 206.6118,1049.127 212.4555,1064.778 219.3531,1079.991 227.2719,1094.7 236.1759,1108.833 246.0231,1122.327 256.7676,1135.119 268.3599,1147.146 280.7451,1158.354 293.8665,1168.695 307.662,1178.112 318.771,1184.343 324.327,1187.46 317.25,1243.152 313.71,1270.998 424.815,1285.116 480.369,1292.178 487.446,1236.486 490.986,1208.64 503.301,1205.385 509.46,1203.759 525.171,1198.092 540.462,1191.363 555.258,1183.608 569.49,1174.863 583.092,1165.167 596.001,1154.565 608.157,1143.108 619.506,1130.847 629.988,1117.842 639.561,1104.15 648.177,1089.84 655.797,1074.975 662.385,1059.624 666.069,1049.115 667.911,1043.859 672.351,1027.755 675.678,1011.387 683.175,952.407 677.868,951.732 679.38,939.828 691.284,941.343 690.339,948.783 839.142,967.692 840.087,960.252 850.206,961.539 858.804,893.883 863.103,860.055 791.976,851.016 802.662,766.926 808.008,724.878 793.128,722.988 785.685,722.043 785.163,726.159 779.541,725.445 726.198,730.968 699.525,733.731 694.041,776.886 674.697,774.426 684.858,694.464 689.94,654.483 706.803,656.625 715.236,657.699 722.094,603.732 725.526,576.75 626.322,564.141 576.72,557.838 575.775,565.278 563.871,563.766 564.816,556.326 465.615,543.717 416.013,537.414 415.068,544.854 403.164,543.339 404.109,535.899 277.6272,519.825 277.4382,521.313 255.1179,518.475 254.3613,524.43 242.457,522.915 243.2136,516.963 208.9887,512.613 228.6567,357.858 215.2644,356.157 216.021,350.205 229.4133,351.906 242.5254,248.7366 249.0813,197.1516 235.689,195.4497 236.4453,189.4974 249.8376,191.1996 268.6233,43.3884 278.016,-30.5172 275.04,-30.8952 276.3678,-41.3427 157.3251,-56.472 157.0227,-54.0912 142.3407,-55.9569 134.9997,-56.8899 135.8043,-63.2202 -92.0073,-92.1729 -205.9131,-106.6494 -419.493,2.187147 -402.78,34.9827 -394.422,51.3804 -389.076,48.6561 -383.628,59.3475 -388.98,62.0763 -320.868,195.7203 -315.525,192.9957 -310.074,203.6874 -315.429,206.4159 -270.0207,295.512 -247.3167,340.059 -241.9707,337.335 -236.5218,348.027 -241.8759,350.757 -173.7639,484.401 -168.4179,481.674 -162.969,492.366 -168.3231,495.096 -100.2111,628.74 -94.8651,626.016 -89.4162,636.708 -94.7697,639.435 -49.3617,728.532 -26.65758,773.079 -21.31182,770.355 -17.6796,777.483 " />
  <polygon id="20336102359" title="" points="-376.872,-609.918 -376.251,-614.79 -399.084,-617.691 -410.499,-619.14 -412.356,-604.527 -450.714,-609.402 -448.569,-626.274 -447.498,-634.71 -381.429,-626.313 -348.396,-622.116 -350.541,-605.244 -351.612,-596.808 -369.276,-599.052 -378.108,-600.177 -376.872,-609.918 " />
  <polygon id="20336102359" title="" points="-56.0688,-326.199 -53.9634,-342.765 -21.52674,-338.643 -25.73769,-305.508 -27.84318,-288.9423 -24.28074,-288.4893 -49.698,-88.4976 -89.2683,-93.5268 -63.8511,-293.5185 -60.2799,-293.0646 -56.0688,-326.199 " />
  <polygon id="20336102359" title="" points="-277.1067,-70.3707 -205.9131,-106.6494 21.8985,-77.6967 135.8043,-63.2202 154.6683,-211.65 169.3503,-209.784 176.6913,-208.851 176.388,-206.4654 295.4304,-191.3361 277.1202,-47.2638 383.763,-33.7104 437.082,-26.93373 438.408,-37.35 445.848,-36.4044 444.525,-25.98825 581.274,-8.60853 597.033,-132.6111 604.914,-194.6124 509.283,-206.7663 461.466,-212.8431 469.221,-273.8523 592.728,-258.1557 614.286,-427.791 548.019,-436.212 514.887,-440.424 517.407,-460.263 518.667,-470.184 506.466,-471.735 504.765,-458.343 501.195,-458.796 490.032,-370.905 484.452,-326.958 468.678,-328.962 460.791,-329.964 479.235,-475.197 333.933,-493.662 261.2811,-502.896 262.3062,-501.258 262.7256,-498.18 261.5499,-495.306 259.0944,-493.404 256.017,-492.984 253.1421,-494.16 251.2404,-496.614 250.8213,-499.692 251.997,-502.569 253.3995,-503.898 178.0737,-513.471 140.4108,-518.259 137.385,-494.448 128.4567,-495.585 130.4739,-511.455 131.4828,-519.393 31.4871,-532.101 -18.51084,-538.455 -20.40183,-523.578 -32.8989,-525.165 -31.0077,-540.045 -161.6595,-556.647 -123.7986,-854.553 -272.2047,-873.414 -346.407,-882.843 -344.898,-894.732 -344.142,-900.678 -364.776,-903.3 -375.093,-904.611 -376.602,-892.722 -377.358,-886.776 -560.487,-910.05 -652.05,-921.687 -682.656,-680.868 -731.166,-656.148 -755.421,-643.788 -714.471,-563.427 -693.996,-523.245 -683.304,-528.696 -677.856,-518.004 -683.727,-515.01 -638.325,-425.913 -615.624,-381.363 -609.744,-384.36 -604.293,-373.668 -610.173,-370.671 -564.765,-281.5749 -542.064,-237.027 -536.181,-240.0237 -530.733,-229.3317 -536.079,-226.6077 -467.967,-92.964 -462.621,-95.6883 -457.173,-84.9966 -462.534,-82.2636 -433.842,-25.96308 -419.493,2.187207 -277.1067,-70.3707 " />
  <polygon id="20336102501" title="" points="1037.994,648.291 1038.498,644.322 1074.132,648.852 1091.949,651.117 1090.434,663.021 1054.803,658.491 1036.986,656.226 1037.994,648.291 " />
  <polygon id="20336102501" title="" points="856.59,794.712 857.409,788.265 886.179,791.922 900.564,793.749 898.923,806.646 898.104,813.093 869.337,809.436 854.952,807.609 856.59,794.712 " />
  <polygon id="20336102501" title="" points="930.543,974.268 930.858,971.79 942.762,973.302 941.817,980.742 1018.842,990.531 1057.353,995.427 1170.09,901.113 1162.38,891.927 1171.584,884.229 1179.3,893.421 1256.001,829.257 1294.35,797.172 1286.634,787.98 1295.838,780.279 1303.554,789.474 1380.252,725.307 1418.601,693.225 1410.885,684.03 1420.089,676.332 1427.805,685.524 1542.846,589.284 1535.139,580.083 1544.343,572.382 1552.038,581.583 1667.1,485.337 1659.39,476.133 1668.594,468.435 1676.304,477.636 1791.354,381.39 1783.644,372.186 1792.848,364.485 1800.558,373.689 1942.611,254.8464 1935.417,246.2469 2032.62,164.9289 2024.613,155.3586 2033.817,147.6573 2041.812,157.2114 2096.964,111.0726 2089.146,101.7309 2098.35,94.0311 2106.159,103.362 2117.664,93.7341 2057.379,21.67341 2027.238,-14.35698 2031.204,-45.5691 2033.187,-61.1751 1984.974,-67.3023 1985.58,-72.0639 1948.866,-76.7301 1930.509,-79.0629 1932.174,-92.1576 1893.78,-97.0371 1874.583,-99.4767 1866.42,-35.2413 1862.337,-3.1236 1881.237,21.28011 1890.687,33.4821 1829.46,84.7059 1818.321,71.3946 1812.753,64.7388 1784.469,61.1439 1770.327,59.3466 1770.705,56.3706 1632.618,38.8206 1632.087,42.9873 1606.206,39.6981 1593.267,38.0535 1560.441,296.3205 1518.489,329.388 1497.513,345.924 1503.024,353.04 1493.535,360.387 1488.024,353.271 1446.111,385.731 1425.156,401.961 1170.69,369.621 1177.233,318.135 1169.793,317.19 1171.308,305.286 1178.748,306.231 1197.66,157.4286 1190.22,156.483 1191.732,144.5787 1199.172,145.5243 1218.045,-2.981238 1054.158,-23.80971 972.216,-34.224 965.235,20.71323 961.743,48.1818 947.067,46.3164 939.726,45.3837 940.029,43.0029 837.354,29.95386 833.196,62.6904 831.114,79.059 835.578,79.6263 812.313,262.6851 825.705,264.3873 824.949,270.3393 811.557,268.6374 791.889,423.393 805.281,425.094 804.525,431.046 791.133,429.345 778.02,532.515 771.465,584.1 873.642,597.087 924.732,603.579 907.938,735.717 873.969,731.4 856.986,729.24 856.752,731.073 808.008,724.878 797.319,808.971 791.976,851.016 863.103,860.055 849.261,968.979 903.027,975.813 929.913,979.23 930.543,974.268 " />
  <polygon id="20336102934" title="" points="1633.449,-201.7959 1630.839,-181.2612 1615.959,-183.1524 1621.179,-224.2218 1623.786,-244.7568 1638.669,-242.8656 1633.449,-201.7959 " />
  <polygon id="20336102934" title="" points="1213.74,-181.65 1227.528,-179.8974 1225.233,-161.8425 1224.087,-152.8152 1206.525,-155.0472 1187.916,-8.62482 1172.043,-10.64205 1164.108,-11.65068 1186.158,-185.1552 1213.74,-181.65 " />
  <polygon id="20336102934" title="" points="1217.115,-15.49827 1221.084,-14.99397 1219.761,-4.57776 1368.564,14.33379 1369.509,6.89364 1381.413,8.40657 1380.468,15.84672 1529.271,34.7583 1530.216,27.31812 1542.12,28.83105 1541.175,36.2712 1570.143,39.9528 1584.624,41.7933 1585.23,37.032 1632.087,42.9873 1645.047,-58.9926 1651.527,-109.9824 1797.951,-91.3734 1788.873,-19.94793 1780.539,-21.00699 1770.327,59.3466 1813.686,64.8573 1845.51,40.2117 1861.422,27.88905 1863.765,9.45015 1864.935,0.2307069 1862.337,-3.1236 1870.503,-67.359 1874.583,-99.4767 1912.977,-94.5975 1932.174,-92.1576 1931.946,-90.372 1985.232,-83.6001 1983.795,-72.291 1985.58,-72.0639 1984.974,-67.3023 2033.187,-61.1751 2029.221,-29.96298 2027.238,-14.35698 2120.514,97.1415 2121.792,96.0735 2141.361,119.4636 2166.672,98.289 2179.329,87.7014 2171.628,78.4977 2175.078,75.6117 2175.345,75.3906 2180.832,70.7991 2188.533,80.0031 2427.834,-120.1941 2420.133,-129.3996 2429.337,-137.0994 2437.038,-127.8954 2493.276,-174.9456 2521.398,-198.471 2462.628,-268.6635 2433.237,-244.0557 2418.543,-231.7515 2098.401,-272.4387 1938.33,-292.7823 1959.825,-461.922 1970.574,-546.492 1623.366,-590.619 1449.765,-612.681 1441.569,-548.202 1437.471,-515.961 1455.327,-513.69 1454.382,-506.25 1436.526,-508.521 1417.14,-355.998 1317.144,-368.706 1267.149,-375.06 1265.256,-360.18 1252.761,-361.77 1254.651,-376.647 1154.652,-389.358 1104.654,-395.712 1102.638,-379.839 1101.63,-371.904 1092.702,-373.038 1094.718,-388.911 1095.726,-396.846 1020.396,-406.419 982.731,-411.207 983.757,-409.566 984.174,-406.491 983.001,-403.614 980.544,-401.715 977.466,-401.295 974.592,-402.471 972.69,-404.925 972.27,-408.003 973.446,-410.877 974.85,-412.209 829.749,-430.65 757.2,-439.869 738.729,-294.6396 722.757,-296.6712 714.771,-297.6867 727.086,-394.506 733.242,-442.914 717.468,-444.918 713.688,-415.158 647.421,-423.579 614.286,-427.791 599.913,-314.7 592.728,-258.1557 675.066,-247.6914 716.235,-242.4591 704.508,-150.2013 624.156,-160.4136 628.125,-191.6622 612.651,-193.629 604.914,-194.6124 589.152,-70.6098 581.274,-8.60853 645.855,-0.400917 678.144,3.7029 679.467,-6.71322 686.907,-5.76765 685.584,4.64847 792.228,18.20175 845.547,24.97839 857.754,-71.07 863.859,-119.094 959.091,-106.9905 959.394,-109.3716 981.411,-106.5735 975.282,-58.3404 972.216,-34.224 1207.629,-4.30506 1209.18,-16.5069 1217.115,-15.49827 " />
  <polygon id="20336103032" title="" points="-478.614,-935.589 -470.478,-934.554 -473.475,-910.974 -474.975,-899.184 -434.895,-894.09 -414.858,-891.543 -411.861,-915.123 -410.361,-926.913 -385.362,-923.736 -372.864,-922.149 -375.093,-904.611 -354.459,-901.989 -344.142,-900.678 -341.913,-918.213 -321.873,-915.669 -311.853,-914.394 -316.35,-879.024 -123.7986,-854.553 -101.5206,-1029.843 29.42856,-1013.199 30.3741,-1020.639 42.8712,-1019.052 41.9256,-1011.612 133.7865,-999.936 179.7171,-994.098 180.6627,-1001.538 192.567,-1000.026 191.6214,-992.586 324.552,-975.693 391.017,-967.245 391.962,-974.685 403.866,-973.173 402.921,-965.733 502.323,-953.1 552.021,-946.782 570.474,-1091.973 597.258,-1088.568 587.352,-1010.625 582.399,-971.652 648.666,-963.228 681.801,-959.019 703.548,-1130.142 649.485,-1137.012 622.452,-1140.447 630.015,-1199.97 670.59,-1194.813 690.876,-1192.236 705.06,-1303.845 441.084,-1337.394 435.309,-1291.941 432.42,-1269.216 368.931,-1277.286 337.185,-1281.318 336.882,-1278.933 314.859,-1281.732 322.299,-1340.277 326.019,-1369.548 272.0544,-1376.409 245.0712,-1379.838 228.7569,-1251.468 220.5996,-1187.286 -171.2823,-1237.095 -105.4662,-1291.587 -257.2146,-1475.097 -335.205,-1410.606 -374.199,-1378.359 -369.414,-1372.575 -378.663,-1364.928 -383.445,-1370.712 -460.512,-1306.986 -499.044,-1275.123 -494.259,-1269.336 -503.508,-1261.689 -508.29,-1267.476 -623.889,-1171.887 -619.104,-1166.1 -628.353,-1158.453 -636,-1167.702 -696.426,-1117.734 -688.782,-1108.491 -698.031,-1100.844 -705.678,-1110.093 -732.495,-1087.914 -673.8,-1016.937 -644.454,-981.447 -652.05,-921.687 -499.377,-902.286 -496.38,-925.866 -494.883,-937.656 -478.614,-935.589 " />
  <polygon id="20336103359" title="" points="89.4153,-1232.991 98.0457,-1231.893 111.7881,-1340.022 118.6593,-1394.088 142.4679,-1391.061 118.4502,-1202.082 85.3167,-1206.294 68.7498,-1208.4 71.0193,-1226.256 72.1539,-1235.184 89.4153,-1232.991 " />
  <polygon id="20336103359" title="" points="356.349,-1432.107 356.247,-1431.312 451.485,-1419.21 445.623,-1373.094 442.692,-1350.036 454.596,-1348.521 465.12,-1431.342 470.385,-1472.754 465.627,-1473.357 487.731,-1647.267 487.242,-1647.042 483.396,-1646.517 479.802,-1647.987 477.426,-1651.056 476.901,-1654.905 478.371,-1658.499 481.44,-1660.875 485.286,-1661.4 488.88,-1659.93 489.297,-1659.588 493.38,-1691.715 495.423,-1707.78 620.976,-1691.823 683.754,-1683.846 687.285,-1711.638 689.052,-1725.531 616.734,-1813.392 580.572,-1857.321 609.669,-1881.399 624.216,-1893.441 636.621,-1878.435 753.141,-1974.771 847.755,-1860.315 891.69,-1896.633 820.221,-1983.093 784.488,-2026.32 887.526,-2124.96 939.045,-2174.277 932.817,-2180.772 941.448,-2189.04 872.247,-2261.301 837.645,-2297.43 828.987,-2289.129 820.683,-2297.793 829.374,-2306.121 797.52,-2339.388 781.593,-2356.023 720.657,-2305.599 728.538,-2296.077 724.389,-2292.621 732.039,-2283.375 722.775,-2275.716 717.996,-2281.494 624.531,-2204.232 629.328,-2198.427 620.082,-2190.78 615.282,-2196.582 499.794,-2101.086 504.594,-2095.284 495.345,-2087.637 490.548,-2093.439 413.484,-2029.713 374.949,-1997.85 379.635,-1991.958 370.389,-1984.311 365.577,-1990.095 249.9786,-1894.509 254.7726,-1888.71 245.5248,-1881.063 240.732,-1886.859 163.6674,-1823.133 125.1351,-1791.27 129.9636,-1785.522 120.7158,-1777.875 115.9317,-1783.659 0.334998,-1688.07 5.1189,-1682.283 -4.12884,-1674.636 -8.91276,-1680.423 -84.6426,-1617.723 -122.5074,-1586.373 -120.5511,-1578.366 -128.9733,-1571.4 -133.7607,-1577.184 -210.8253,-1513.455 -249.3576,-1481.592 -244.5702,-1475.811 -252.4308,-1469.31 -105.4662,-1291.587 -171.2823,-1237.095 220.5996,-1187.286 236.9142,-1315.653 245.0712,-1379.838 299.0373,-1372.977 326.019,-1369.548 334.527,-1436.493 356.55,-1433.694 356.349,-1432.107 " />
  <polygon id="20336103489" title="" points="1781.325,-938.733 1815.741,-934.359 1814.226,-922.452 1823.154,-921.318 1822.248,-914.181 1710.072,-928.437 1712.493,-947.481 1781.325,-938.733 " />
  <polygon id="20336103489" title="" points="1404.132,-1082.892 1406.895,-1104.642 1420.734,-1102.884 1412.442,-1037.628 1398.603,-1039.386 1404.132,-1082.892 " />
  <polygon id="20336103489" title="" points="1192.917,-1109.223 1195.65,-1130.721 1209.489,-1128.963 1204.023,-1085.964 1201.29,-1064.463 1187.451,-1066.221 1192.917,-1109.223 " />
  <polygon id="20336103489" title="" points="1773.153,-833.925 1808.766,-829.401 1804.983,-799.638 1733.76,-808.692 1698.15,-813.216 1700.673,-833.058 1701.933,-842.976 1773.153,-833.925 " />
  <polygon id="20336103489" title="" points="1733.118,-594.06 1764.042,-590.13 1762.095,-574.803 1700.25,-582.663 1669.326,-586.593 1671.273,-601.92 1733.118,-594.06 " />
  <polygon id="20336103489" title="" points="2133.861,-742.722 2201.934,-734.07 2238.372,-696.021 2256.591,-676.998 2302.815,-721.263 2325.927,-743.397 2286.36,-784.713 2266.575,-805.371 2257.908,-797.07 2249.61,-805.737 2258.277,-814.038 2207.784,-866.76 2182.539,-893.121 2173.872,-884.82 2165.571,-893.487 2174.238,-901.788 2070.489,-1010.121 2061.822,-1001.823 2053.524,-1010.487 2062.191,-1018.788 1958.442,-1127.121 1949.775,-1118.823 1948.53,-1120.122 1866.363,-1041.435 1825.281,-1002.09 1792.254,-1036.161 1775.742,-1053.198 1740.852,-1019.376 1759.515,-1000.137 1768.845,-990.516 1532.283,-1020.582 1413.999,-1035.615 1434.804,-1199.298 1381.707,-1206.045 1381.935,-1207.833 1349.082,-1212.006 1332.654,-1214.094 1321.053,-1122.828 1315.254,-1077.195 1341.147,-1073.907 1337.742,-1047.12 1304.61,-1051.332 1288.041,-1053.438 1301.91,-1162.56 1308.846,-1217.121 1286.82,-1219.92 1286.592,-1218.135 1179.06,-1231.8 1125.294,-1238.634 1117.8,-1179.687 1103.118,-1181.556 1095.78,-1182.489 1096.08,-1184.871 1032.591,-1192.938 1000.848,-1196.973 1009.512,-1265.151 806.544,-1290.948 705.06,-1303.845 690.876,-1192.236 718.554,-1188.717 721.326,-1210.542 722.715,-1221.453 796.371,-1212.093 788.556,-1150.587 784.647,-1119.834 730.581,-1126.707 703.548,-1130.142 681.801,-959.019 781.2,-946.386 796.047,-1063.305 822.831,-1059.903 804.393,-914.709 953.493,-895.758 954.438,-903.198 966.342,-901.686 965.397,-894.246 1164.792,-868.905 1165.74,-876.345 1177.644,-874.833 1176.699,-867.393 1268.76,-855.693 1314.789,-849.843 1315.734,-857.283 1328.232,-855.693 1327.287,-848.253 1477.281,-829.191 1464.357,-727.509 1457.895,-676.668 1475.901,-674.379 1474.956,-666.939 1456.95,-669.228 1449.765,-612.681 1796.97,-568.554 1970.574,-546.492 1988.667,-688.848 1997.712,-760.023 2133.861,-742.722 " />
  <polygon id="20336103822" title="" points="1138.677,-1408.989 1167.645,-1405.308 1164.996,-1384.473 1078.095,-1395.519 1080.744,-1416.351 1138.677,-1408.989 " />
  <polygon id="20336103822" title="" points="1045.158,-1605.126 1043.109,-1588.992 1043.916,-1589.388 1047.762,-1589.913 1051.356,-1588.443 1053.732,-1585.374 1054.257,-1581.528 1052.787,-1577.934 1049.718,-1575.558 1045.872,-1575.033 1042.278,-1576.503 1041.597,-1577.088 1018.71,-1397.019 1014.246,-1397.586 999.213,-1279.305 1011.135,-1277.922 1016.985,-1323.951 1019.91,-1346.967 1115.145,-1334.865 1115.448,-1337.244 1137.468,-1334.445 1125.294,-1238.634 1232.826,-1224.969 1286.592,-1218.135 1288.434,-1232.619 1289.355,-1239.861 1366.14,-1230.102 1367.313,-1239.327 1379.532,-1237.776 1385.643,-1236.999 1383.018,-1216.365 1381.707,-1206.045 1434.804,-1199.298 1413.999,-1035.615 1650.564,-1005.549 1768.845,-990.516 1750.182,-1009.755 1740.852,-1019.376 1775.742,-1053.198 1808.769,-1019.127 1825.281,-1002.09 1907.448,-1080.78 1948.53,-1120.122 1941.474,-1127.49 1950.141,-1135.788 1880.976,-1208.013 1846.392,-1244.124 1827.978,-1226.49 1819.68,-1235.157 1838.094,-1252.788 1815.264,-1276.626 1803.852,-1288.545 1795.185,-1280.247 1622.274,-1460.799 1535.82,-1551.078 1544.502,-1559.391 1521.669,-1583.217 1510.251,-1595.127 1491.831,-1577.487 1483.53,-1586.154 1501.947,-1603.791 1432.62,-1676.124 1397.958,-1712.292 1389.561,-1704.243 1381.257,-1712.907 1389.681,-1720.98 1320.516,-1793.211 1285.935,-1829.325 1277.46,-1821.204 1269.159,-1829.868 1277.637,-1837.995 1173.846,-1946.289 1165.362,-1938.165 1157.058,-1946.829 1165.584,-1955.001 1096.416,-2027.226 1061.832,-2063.34 1053.261,-2055.126 1044.96,-2063.79 1053.531,-2072.007 949.785,-2180.352 941.148,-2172.084 939.045,-2174.277 836.007,-2075.64 784.488,-2026.32 891.69,-1896.633 847.755,-1860.315 833.1,-1878.042 825.774,-1886.904 760.131,-1832.64 774.786,-1814.91 782.115,-1806.045 735.87,-1767.816 721.209,-1785.543 713.877,-1794.408 709.251,-1790.583 652.56,-1859.154 624.216,-1893.441 595.122,-1869.36 580.572,-1857.321 652.893,-1769.463 689.052,-1725.531 683.754,-1683.846 927.423,-1652.877 1049.259,-1637.391 1045.158,-1605.126 " />
  <polygon id="20336118048" title="" points="255.129,-1592.157 244.6578,-1583.496 254.9835,-1571.013 226.3194,-1547.301 215.9937,-1559.784 182.2527,-1531.872 165.3822,-1517.919 262.8603,-1505.529 271.6677,-1574.829 276.0714,-1609.479 255.129,-1592.157 " />
  <polygon id="20336118085" title="" points="484.941,-1775.517 481.65,-1779.495 363.726,-1681.956 371.373,-1672.707 360.432,-1663.659 476.442,-1648.914 486.495,-1728.012 491.52,-1767.558 484.941,-1775.517 " />
  <polygon id="20336118123" title="" points="1382.427,-1374.204 1379.64,-1377.075 1388.253,-1385.43 1282.587,-1494.354 1271.406,-1483.545 1240.875,-1515.129 1223.931,-1381.824 1332.684,-1368 1387.059,-1361.091 1387.995,-1368.459 1382.427,-1374.204 " />
  <polygon id="20336118160" title="" points="1948.068,-9.82851 1983.222,-39.2373 1985.43,-56.6055 1986.534,-65.2899 1982.961,-65.7435 1985.232,-83.6001 1877.334,-97.3131 1866.726,-13.84494 1861.422,27.88905 1877.763,48.9894 1948.068,-9.82851 " />
  <polygon id="20336118194" title="" points="1816.557,74.8959 1810.332,67.4553 1756.26,60.5829 1743.453,161.3514 1800.489,113.6352 1829.007,89.7771 1816.557,74.8959 " />
  <polygon id="20336118232" title="" points="-229.2498,-199.3185 -225.2817,-198.8142 -226.7946,-186.9102 -238.6989,-188.4231 -237.186,-200.3271 -229.2498,-199.3185 " />
  <polygon id="20336118232" title="" points="-199.0578,-121.9725 -189.3573,-126.9156 -170.7141,-273.6075 -263.4201,-285.3897 -309.774,-291.2808 -248.8968,-171.8175 -218.4588,-112.086 -199.0578,-121.9725 " />
  <polygon id="20336159505" title="" points="343.143,-1280.613 387.786,-1274.94 432.426,-1269.264 428.775,-1240.53 425.421,-1214.16 378.864,-1220.076 336.141,-1225.506 336.855,-1231.137 340.338,-1258.536 340.815,-1262.298 343.143,-1280.613 " />
  <polygon id="20336159778" title="" points="1061.574,-1341.672 1019.916,-1346.967 1008.951,-1260.678 1002.234,-1207.833 1000.854,-1196.973 1011.831,-1195.578 1042.512,-1191.678 1058.325,-1316.103 1061.574,-1341.672 " />
  <polygon id="20336159778" title="" points="1067.526,-1340.916 1109.193,-1335.621 1105.683,-1308.021 1090.128,-1185.627 1059.444,-1189.527 1048.464,-1190.922 1051.713,-1216.491 1067.526,-1340.916 " />
</svg>