<?xml version="1.0" encoding="utf-8"?>
<svg xmlns:xsi="http://www.w3.org/2001/XMLSchema-instance" xmlns:xsd="http://www.w3.org/2001/XMLSchema" version="1.1" id="Map" class="gen-by-synoptic-designer" xmlns:xlink="http://www.w3.org/1999/xlink" viewBox="-7346.07428420167 -12599.9790205813 23122.2960832823 24319.1997259649 " xml:space="preserve" height="100%" width="100%" xmlns="http://www.w3.org/2000/svg">
  <polygon id="20336051678" title="" points="1142.76,645.969 1137.768,645.336 1136.406,656.049 1123.905,654.462 1125.192,644.343 1092.189,640.149 1106.865,524.676 1092.45,522.846 1085.586,521.973 1073.391,617.937 1067.583,663.633 1106.076,668.526 1124.406,670.854 1153.242,647.304 1142.76,645.969 " />
  <polygon id="20336051712" title="" points="25.01985,-1299.843 17.3397,-1300.821 6.59793,-1216.299 30.4065,-1213.275 41.1483,-1297.794 25.01985,-1299.843 " />
  <polygon id="20336051749" title="" points="1432.905,-1279.542 1438.587,-1324.26 1422.312,-1341.255 1414.56,-1349.349 1394.187,-1189.038 1420.971,-1185.633 1432.905,-1279.542 " />
  <polygon id="20336051788" title="" points="234.198,-1413.285 247.4727,-1517.736 206.3454,-1522.962 186.7611,-1525.452 164.9484,-1353.819 148.4511,-1355.916 140.5956,-1356.915 121.2567,-1204.752 206.3211,-1193.94 234.198,-1413.285 " />
  <polygon id="20336051821" title="" points="353.034,-1200.696 319.914,-1204.905 316.662,-1179.312 386.214,-1170.471 419.334,-1166.262 422.589,-1191.858 353.034,-1200.696 " />
  <polygon id="20336051855" title="" points="391.011,-1426.944 362.211,-1430.607 343.14,-1280.562 403.623,-1272.876 432.423,-1269.216 451.491,-1419.258 391.011,-1426.944 " />
  <polygon id="20336051889" title="" points="1024.137,-1115.406 991.017,-1119.615 988.812,-1102.278 987.762,-1094.022 1090.437,-1080.972 1092.639,-1098.309 1093.689,-1106.565 1024.137,-1115.406 " />
  <polygon id="20336051928" title="" points="1299.03,-1195.083 1279.149,-1197.609 1302.789,-1383.615 1261.458,-1388.868 1241.778,-1391.367 1200.552,-1066.977 1323.195,-1051.389 1340.781,-1189.776 1299.03,-1195.083 " />
  <polygon id="20336051961" title="" points="1048.716,-1343.358 1019.916,-1347.018 1006.998,-1245.375 1000.848,-1196.973 1061.328,-1189.287 1090.128,-1185.627 1103.046,-1287.27 1109.199,-1335.669 1048.716,-1343.358 " />
  <polygon id="20336051994" title="" points="758.103,-2062.671 740.823,-2064.867 728.424,-1967.292 722.517,-1920.825 758.805,-1916.214 776.088,-1914.018 788.487,-2011.593 794.394,-2058.06 758.103,-2062.671 " />
  <polygon id="20336052026" title="" points="819.393,-2060.931 802.602,-2063.064 783.54,-1913.07 818.802,-1908.588 835.596,-1906.455 854.658,-2056.449 819.393,-2060.931 " />
  <polygon id="20336052060" title="" points="892.656,-115.3836 863.856,-119.0439 850.941,-17.43534 844.791,30.9495 905.274,38.6364 934.074,42.2967 946.989,-59.3118 953.136,-107.697 892.656,-115.3836 " />
  <polygon id="20336052093" title="" points="910.059,-217.815 876.939,-222.0243 873.687,-196.4406 976.362,-183.3918 978.564,-200.7225 979.614,-208.9752 910.059,-217.815 " />
  <polygon id="20336052132" title="" points="1161.363,-17.76894 1176.438,-15.85338 1190.682,-127.9296 1197.462,-181.2993 1090.026,-194.9535 1048.8,129.4374 1109.511,137.1534 1123.197,29.48091 1129.713,-21.79164 1161.363,-17.76894 " />
  <polygon id="20336052170" title="" points="82.4259,-216.6783 95.7252,-321.321 54.3963,-326.574 34.7157,-329.073 17.98641,-197.4411 10.02003,-134.7588 -15.22239,-137.967 -27.24261,-139.4946 -38.4414,-51.3789 -43.7739,-9.41922 22.79724,-0.958593 54.498,3.07026 82.4259,-216.6783 " />
  <polygon id="20336052204" title="" points="238.9599,-303.117 205.8393,-307.326 203.6358,-289.9878 202.5864,-281.7318 305.262,-268.6827 307.464,-286.0206 308.514,-294.2769 238.9599,-303.117 " />
  <polygon id="20336052238" title="" points="234.9525,-199.0224 206.1519,-202.6827 187.0827,-52.6395 276.3645,-41.2926 295.4337,-191.3358 234.9525,-199.0224 " />
  <polygon id="20336052272" title="" points="82.188,548.265 68.8221,546.567 64.0584,584.049 92.1267,587.616 105.4926,589.317 110.2563,551.832 82.188,548.265 " />
  <polygon id="20336052311" title="" points="102.5142,660.339 103.0116,656.427 97.3251,653.58 99.4818,636.612 89.7894,618.27 85.1739,609.537 74.217,615.126 92.679,651.321 101.4702,668.556 102.5142,660.339 " />
  <polygon id="20336052346" title="" points="666.171,838.656 658.491,837.681 656.367,854.412 655.353,862.38 671.481,864.432 679.161,865.407 681.288,848.673 682.302,840.705 666.171,838.656 " />
  <polygon id="20336052379" title="" points="352.74,733.197 342.009,731.835 340.458,744.036 362.994,746.901 373.725,748.263 375.273,736.062 352.74,733.197 " />
  <polygon id="20336052413" title="" points="564.141,760.368 553.41,759.003 551.898,770.907 574.431,773.772 585.162,775.137 586.674,763.233 564.141,760.368 " />
  <polygon id="20336052446" title="" points="97.029,181.7856 93.0936,181.2855 90.2298,203.8197 88.866,214.5501 101.0661,216.1005 103.9302,193.5666 105.294,182.8362 97.029,181.7856 " />
  <polygon id="20336052480" title="" points="-290.319,-1051.719 -294.2547,-1052.22 -298.4823,-1018.956 -286.2819,-1017.405 -283.4181,-1039.938 -282.0543,-1050.669 -290.319,-1051.719 " />
  <polygon id="20336052515" title="" points="-291.6693,-1213.098 -294.0999,-1216.236 -311.325,-1201.986 -319.53,-1195.203 -311.994,-1185.474 -294.7683,-1199.721 -286.5654,-1206.507 -291.6693,-1213.098 " />
  <polygon id="20336052552" title="" points="-35.7189,-1413.945 -27.38997,-1420.845 -35.2311,-1430.331 -52.7316,-1415.85 -61.0653,-1408.953 -53.2095,-1399.455 -35.7189,-1413.945 " />
  <polygon id="20336052590" title="" points="213.498,-1598.451 215.8113,-1595.652 241.6542,-1617.024 233.8155,-1626.501 216.2769,-1612.065 207.9252,-1605.192 208.6404,-1604.328 213.498,-1598.451 " />
  <polygon id="20336052627" title="" points="484.596,-1832.256 482.067,-1835.316 456.219,-1813.953 464.058,-1804.476 481.569,-1818.942 489.906,-1825.833 484.596,-1832.256 " />
  <polygon id="20336052661" title="" points="651.474,-1869.372 644.466,-1870.263 642.381,-1853.853 657.099,-1851.984 664.107,-1851.093 666.192,-1867.503 651.474,-1869.372 " />
  <polygon id="20336052693" title="" points="677.769,-1866.03 669.762,-1867.047 666.042,-1837.782 682.857,-1835.646 690.864,-1834.629 694.584,-1863.894 677.769,-1866.03 " />
  <polygon id="20336052729" title="" points="962.04,-1817.595 964.68,-1820.154 945.045,-1840.395 932.775,-1841.955 926.931,-1842.699 956.499,-1812.216 962.04,-1817.595 " />
  <polygon id="20336052761" title="" points="1157.4,-1422.657 1146.669,-1424.019 1145.118,-1411.818 1178.382,-1407.591 1179.933,-1419.792 1157.4,-1422.657 " />
  <polygon id="20336052795" title="" points="1272.423,-1499.643 1264.89,-1507.407 1256.07,-1498.851 1279.416,-1474.782 1288.236,-1483.338 1272.423,-1499.643 " />
  <polygon id="20336052829" title="" points="1355.196,-1190.364 1347.036,-1191.402 1344.474,-1171.242 1343.253,-1161.642 1368.552,-1158.426 1371.114,-1178.586 1372.332,-1188.186 1355.196,-1190.364 " />
  <polygon id="20336052862" title="" points="1491.456,-1038.75 1480.8,-1040.106 1479.249,-1027.902 1512.282,-1023.705 1513.833,-1035.906 1491.456,-1038.75 " />
  <polygon id="20336052896" title="" points="1445.967,-1247.259 1435.236,-1248.621 1433.685,-1236.42 1456.221,-1233.558 1466.952,-1232.193 1468.503,-1244.394 1445.967,-1247.259 " />
  <polygon id="20336052933" title="" points="1936.986,-1099.152 1933.17,-1102.923 1903.011,-1074.039 1888.65,-1060.287 1900.17,-1048.266 1944.996,-1091.232 1936.986,-1099.152 " />
  <polygon id="20336052969" title="" points="1744.632,-1006.506 1737.99,-1013.355 1726.497,-1002.207 1721.025,-996.897 1758.582,-992.124 1744.632,-1006.506 " />
  <polygon id="20336053002" title="" points="1938.879,-785.04 1927.884,-786.438 1926.336,-774.237 1949.418,-771.303 1960.41,-769.905 1961.961,-782.109 1938.879,-785.04 " />
  <polygon id="20336053035" title="" points="1781.199,-759.588 1770.735,-760.92 1769.31,-749.703 1801.749,-745.581 1803.174,-756.795 1781.199,-759.588 " />
  <polygon id="20336053069" title="" points="1703.205,-769.5 1692.741,-770.832 1691.19,-758.628 1713.165,-755.835 1723.629,-754.506 1725.18,-766.707 1703.205,-769.5 " />
  <polygon id="20336053102" title="" points="1694.598,-753.963 1690.662,-754.461 1687.818,-732.084 1686.462,-721.428 1698.666,-719.877 1701.51,-742.254 1702.863,-752.913 1694.598,-753.963 " />
  <polygon id="20336053135" title="" points="1779.327,-564.978 1769.559,-566.22 1766.637,-543.237 1765.245,-532.293 1795.533,-528.444 1799.847,-562.371 1779.327,-564.978 " />
  <polygon id="20336053170" title="" points="1767.231,-528.411 1763.292,-528.912 1760.274,-505.167 1758.837,-493.863 1771.05,-492.309 1774.068,-516.054 1775.505,-527.358 1767.231,-528.411 " />
  <polygon id="20336053204" title="" points="1723.176,-322.899 1716.792,-323.709 1715.172,-310.98 1714.404,-304.917 1727.808,-303.213 1734.195,-302.403 1736.583,-321.195 1723.176,-322.899 " />
  <polygon id="20336053238" title="" points="1643.793,-330.237 1637.409,-331.047 1635.021,-312.258 1648.428,-310.554 1654.812,-309.741 1656.429,-322.47 1657.2,-328.533 1643.793,-330.237 " />
  <polygon id="20336053270" title="" points="1580.424,-136.2651 1569.693,-137.6289 1568.145,-125.427 1601.409,-121.1994 1602.96,-133.4013 1580.424,-136.2651 " />
  <polygon id="20336053302" title="" points="2139.675,-70.1445 2128.944,-71.508 2127.393,-59.3064 2160.657,-55.0788 2162.208,-67.2804 2139.675,-70.1445 " />
  <polygon id="20336053338" title="" points="1628.109,246.1374 1625.856,243.2301 1601.043,264.0636 1608.39,273.5508 1632.837,252.243 1628.109,246.1374 " />
  <polygon id="20336053374" title="" points="1350.153,478.341 1347.606,475.299 1318.611,499.557 1335.249,501.672 1355.499,484.731 1350.153,478.341 " />
  <polygon id="20336053412" title="" points="1003.305,761.394 1000.935,758.643 983.976,772.554 975.9,779.178 983.283,788.709 1000.215,774.114 1008.279,767.166 1003.305,761.394 " />
  <polygon id="20336053446" title="" points="908.043,699.741 904.107,699.243 899.88,732.507 912.081,734.058 916.308,700.791 908.043,699.741 " />
  <polygon id="20336061119" title="" points="33.3225,172.7547 29.96253,172.3278 31.2063,162.5421 -70.2777,149.6445 -73.3035,173.4531 2.499684,183.087 38.5965,187.6743 40.3785,173.6514 33.3225,172.7547 " />
  <polygon id="20336062607" title="" points="-68.4156,-320.106 -61.7913,-319.263 -60.5433,-329.085 -48.639,-327.57 -49.887,-317.751 -46.161,-317.277 -44.0856,-333.606 -43.0971,-341.382 -87.7569,-347.058 -109.0236,-349.761 -127.1031,-207.5052 -121.1508,-206.7489 -125.4297,-173.0808 -127.4673,-157.0485 -111.339,-154.9989 -103.6587,-154.0227 -82.3266,-321.873 -68.4156,-320.106 " />
  <polygon id="20336062640" title="" points="-440.487,-633.813 -447.498,-634.704 -450.03,-614.799 -428.295,-612.036 -425.763,-631.944 -440.487,-633.813 " />
  <polygon id="20336062675" title="" points="-367.506,-624.543 -375.189,-625.521 -378.216,-601.713 -362.082,-599.661 -354.399,-598.686 -351.372,-622.494 -367.506,-624.543 " />
  <polygon id="20336062708" title="" points="-345.351,-621.729 -349.287,-622.227 -352.152,-599.694 -353.517,-588.963 -341.313,-587.412 -338.451,-609.948 -337.086,-620.679 -345.351,-621.729 " />
  <polygon id="20336062745" title="" points="1979.334,50.1696 1980.066,44.4264 1935.981,81.306 1937.04,81.4413 1952.493,83.4054 1969.638,69.0612 1977.801,62.2305 1979.334,50.1696 " />
  <polygon id="20336062780" title="" points="-212.196,8.42007 -208.6614,6.61881 -219.0591,-13.78584 -224.0106,-23.50233 -238.7694,-25.37808 -219.6192,12.20268 -212.196,8.42007 " />
  <polygon id="20336062815" title="" points="-87.5316,254.5842 -86.6532,247.6722 -100.8297,219.879 -111.6492,225.3921 -96.5613,255.0006 -89.3766,269.0997 -87.5316,254.5842 " />
  <polygon id="20336071416" title="" points="190.4319,583.809 190.6026,582.465 185.2458,581.784 116.6355,556.272 115.7547,556.161 106.6611,627.711 102.3306,661.785 120.9837,698.352 129.8658,715.767 244.7418,730.368 249.4647,693.207 251.7135,675.513 251.3619,675.468 261.4986,595.71 213.1137,589.56 190.0731,586.632 190.4319,583.809 " />
  <polygon id="20336071461" title="" points="1960.944,52.5459 1974.789,40.965 1975.17,37.9632 1977.009,38.1972 1990.368,-66.9069 1890.774,-79.5642 1843.35,-85.5915 1836.687,-33.1743 1833.516,-8.21379 1842.444,-7.0791 1833.366,64.3464 1900.098,72.8274 1931.874,76.8657 1960.944,52.5459 " />
  <polygon id="20336071745" title="" points="16.55943,336.783 20.49501,337.284 17.63115,359.817 16.26738,370.548 4.06707,368.997 6.93093,346.464 8.2947,335.733 16.55943,336.783 " />
  <polygon id="20336071745" title="" points="-368.583,-398.172 -365.415,-397.77 -367.773,-379.221 -368.895,-370.389 -378.717,-371.637 -376.359,-390.186 -375.237,-399.018 -368.583,-398.172 " />
  <polygon id="20336071745" title="" points="715.767,665.52 719.841,633.456 725.1,578.589 772.68,584.637 795.336,587.517 786.306,658.566 780.558,703.797 777.819,725.337 777.792,725.547 777.579,725.571 729.909,730.506 707.208,732.855 715.767,665.52 " />
  <polygon id="20336071745" title="" points="-91.2264,238.7067 -86.6532,247.6722 -89.3766,269.0997 -104.3814,239.6544 -111.6492,225.3921 -100.8297,219.879 -91.2264,238.7067 " />
  <polygon id="20336071745" title="" points="-216.0843,10.40142 -219.6192,12.20268 -238.7694,-25.37808 -224.0106,-23.50233 -213.6126,-3.09768 -208.6614,6.61881 -216.0843,10.40142 " />
  <polygon id="20336071745" title="" points="-341.022,-621.177 -337.086,-620.679 -341.313,-587.412 -353.517,-588.963 -350.652,-611.499 -349.287,-622.227 -341.022,-621.177 " />
  <polygon id="20336071745" title="" points="-359.055,-623.469 -351.372,-622.494 -353.421,-606.366 -354.399,-598.686 -370.533,-600.735 -378.216,-601.713 -376.167,-617.841 -375.189,-625.521 -359.055,-623.469 " />
  <polygon id="20336071745" title="" points="-432.774,-632.835 -425.763,-631.944 -428.295,-612.036 -450.03,-614.799 -448.314,-628.284 -447.498,-634.704 -432.774,-632.835 " />
  <polygon id="20336071745" title="" points="-125.1831,-207.2613 -127.1031,-207.5052 -109.0236,-349.761 -64.3638,-344.085 -43.0971,-341.382 -45.1725,-325.053 -46.161,-317.277 -49.887,-317.751 -48.639,-327.57 -60.5433,-329.085 -61.7913,-319.263 -75.7023,-321.03 -82.3266,-321.873 -103.6587,-154.0227 -119.7873,-156.0726 -127.4673,-157.0485 -123.1884,-190.7166 -121.1508,-206.7489 -125.1831,-207.2613 " />
  <polygon id="20336071745" title="" points="-1.530537,158.3817 31.2063,162.5421 29.96253,172.3278 40.3785,173.6514 38.5965,187.6743 -37.2066,178.0404 -73.3035,173.4531 -70.2777,149.6445 -1.530537,158.3817 " />
  <polygon id="20336071745" title="" points="266.6331,-194.9961 295.4337,-191.3358 276.3645,-41.2926 187.0827,-52.6395 206.1519,-202.6827 266.6331,-194.9961 " />
  <polygon id="20336071745" title="" points="101.3583,182.3358 105.294,182.8362 101.0661,216.1005 88.866,214.5501 93.0936,181.2855 101.3583,182.3358 " />
  <polygon id="20336071745" title="" points="275.3928,-298.4862 308.514,-294.2769 305.262,-268.6827 235.707,-277.5225 202.5864,-281.7318 205.8393,-307.326 275.3928,-298.4862 " />
  <polygon id="20336071745" title="" points="26.74944,-266.3919 34.7157,-329.073 95.7252,-321.321 54.498,3.07026 -12.07341,-5.39034 -43.7739,-9.41922 -32.5752,-97.5348 -27.24261,-139.4946 -2.000175,-136.2864 10.02003,-134.7588 26.74944,-266.3919 " />
  <polygon id="20336071745" title="" points="575.946,761.868 586.674,763.233 585.162,775.137 551.898,770.907 553.41,759.003 575.946,761.868 " />
  <polygon id="20336071745" title="" points="364.545,734.697 375.273,736.062 373.725,748.263 351.189,745.401 340.458,744.036 342.009,731.835 364.545,734.697 " />
  <polygon id="20336071745" title="" points="96.8904,550.134 110.2563,551.832 107.0292,577.224 105.4926,589.317 64.0584,584.049 67.2855,558.657 68.8221,546.567 96.8904,550.134 " />
  <polygon id="20336071745" title="" points="98.0208,648.108 97.3251,653.58 103.0116,656.427 111.6441,588.504 115.7547,556.161 116.6355,556.272 185.2458,581.784 190.6026,582.465 190.0731,586.632 238.4583,592.782 261.4986,595.71 251.3619,675.468 251.7135,675.513 246.9909,712.671 244.7418,730.368 129.8658,715.767 111.213,679.197 102.3306,661.785 96.6282,659.064 81.4464,629.298 74.217,615.126 85.1739,609.537 94.8663,627.879 99.4818,636.612 98.0208,648.108 " />
  <polygon id="20336071745" title="" points="674.622,839.73 682.302,840.705 680.175,857.439 679.161,865.407 655.353,862.38 657.48,845.649 658.491,837.681 674.622,839.73 " />
  <polygon id="20336071745" title="" points="-679.614,-521.451 -677.856,-518.004 -683.202,-515.28 -637.065,-424.743 -615.096,-381.63 -609.744,-384.36 -604.293,-373.668 -609.648,-370.941 -541.545,-237.2898 -536.181,-240.0237 -530.733,-229.332 -536.079,-226.6077 -467.967,-92.9634 -462.621,-95.688 -457.173,-84.9966 -462.519,-82.272 -416.388,8.2668 -394.422,51.3804 -389.076,48.6561 -383.628,59.3475 -388.974,62.0721 -342.834,152.6052 -320.862,195.7161 -315.525,192.9957 -310.074,203.6883 -315.42,206.4126 -269.2857,296.9481 -247.3164,340.059 -241.9707,337.335 -236.5218,348.027 -241.8675,350.751 -195.7323,441.288 -173.7633,484.401 -168.4173,481.674 -162.9684,492.366 -168.3147,495.093 -100.2027,628.737 -94.857,626.01 -89.4081,636.702 -94.7619,639.432 -26.65776,773.079 -21.31245,770.355 -15.86409,781.047 -21.21,783.771 7.99173,841.077 21.89733,868.365 35.0382,870.036 36.6267,857.535 48.531,859.047 46.9425,871.548 93.309,877.44 115.3884,880.248 116.145,874.296 195.6585,884.4 196.4907,877.854 209.6706,879.528 208.8384,886.074 357.21,904.932 357.966,898.98 369.87,900.492 369.114,906.444 442.296,915.747 477.144,920.175 476.388,926.127 517.161,931.308 518.673,919.404 530.577,920.916 529.821,926.868 721.344,951.21 812.547,962.802 821.541,892.038 825.822,858.342 802.638,855.396 791.598,853.992 795.954,819.72 798.027,803.4 780.69,801.195 772.434,800.145 790.983,654.186 799.818,584.679 745.587,577.788 719.763,574.506 719.571,575.994 577.911,557.988 576.852,566.322 563.757,564.657 564.816,556.326 416.013,537.414 415.068,544.854 403.164,543.339 404.109,535.899 277.6272,519.825 274.8402,517.959 230.4873,512.322 209.367,509.637 228.4299,359.646 217.0428,358.197 218.1021,349.863 230.0841,351.387 243.2538,247.7628 249.5253,198.4176 237.5112,196.8909 238.5135,189.0042 249.9324,190.4556 263.1918,86.1252 269.5059,36.444 273.9699,37.0116 281.1441,-19.43757 284.5602,-46.3182 387.579,-33.2253 436.638,-26.99046 438.087,-38.3994 446.907,-37.2786 445.458,-25.86957 510.246,-17.63553 541.098,-13.71456 579.531,-316.122 597.831,-460.125 535.938,-467.991 506.466,-471.735 504.387,-455.367 486.531,-457.638 488.61,-474.006 336.387,-493.35 263.9016,-502.563 261.9348,-487.089 255.9825,-487.845 257.9493,-503.319 139.8156,-518.334 136.6386,-493.335 128.3055,-494.394 131.4828,-519.393 -18.80844,-538.494 -20.69961,-523.614 -32.6037,-525.126 -30.7128,-540.006 -161.6595,-556.647 -131.985,-775.437 -133.8216,-775.686 -127.1856,-827.901 -124.0254,-852.765 -484.896,-898.629 -656.739,-920.469 -677.619,-756.18 -687.564,-677.946 -733.437,-654.57 -755.283,-643.44 -713.787,-562.008 -694.026,-523.23 -683.304,-528.696 -679.614,-521.451 " />
  <polygon id="20336072232" title="" points="1840.179,-60.6309 1843.35,-85.5915 1893.75,-79.1859 1917.753,-76.1355 1967.721,-69.7848 1990.281,-66.9177 1990.368,-66.9069 1981.308,4.37904 1977.009,38.1972 1975.17,37.9632 1974.789,40.965 1931.874,76.8657 1901.817,73.0458 1855.446,67.1526 1833.366,64.3464 1842.444,-7.0791 1833.516,-8.21379 1840.179,-60.6309 " />
  <polygon id="20336072232" title="" points="1936.476,81.369 1935.981,81.306 1936.455,80.9091 1965.999,56.1951 1980.066,44.4264 1978.533,56.4873 1977.801,62.2305 1960.656,76.5747 1952.493,83.4054 1937.04,81.4413 1936.596,81.384 1936.476,81.369 " />
  <polygon id="20336072232" title="" points="799.74,611.565 802.644,588.717 850.221,594.762 872.877,597.642 868.953,634.839 867.084,652.551 860.322,705.774 857.1,731.118 808.731,724.971 785.697,722.043 791.079,679.707 793.641,659.547 799.74,611.565 " />
  <polygon id="20336072232" title="" points="924.336,-111.3573 953.136,-107.697 934.074,42.2967 844.791,30.9495 863.856,-119.0439 924.336,-111.3573 " />
  <polygon id="20336072232" title="" points="1162.806,-185.7039 1197.462,-181.2993 1176.438,-15.85338 1129.713,-21.79164 1116.027,85.8807 1109.511,137.1534 1048.8,129.4374 1090.026,-194.9535 1162.806,-185.7039 " />
  <polygon id="20336072232" title="" points="946.494,-213.1845 979.614,-208.9752 977.412,-191.6445 976.362,-183.3918 873.687,-196.4406 875.892,-213.7716 876.939,-222.0243 946.494,-213.1845 " />
  <polygon id="20336072232" title="" points="1790.076,-563.613 1799.847,-562.371 1796.925,-539.388 1795.533,-528.444 1765.245,-532.293 1769.559,-566.22 1790.076,-563.613 " />
  <polygon id="20336072232" title="" points="1771.566,-527.859 1775.505,-527.358 1772.487,-503.616 1771.05,-492.309 1758.837,-493.863 1761.855,-517.605 1763.292,-528.912 1771.566,-527.859 " />
  <polygon id="20336072232" title="" points="1730.199,-322.005 1736.583,-321.195 1734.963,-308.463 1734.195,-302.403 1714.404,-304.917 1716.021,-317.646 1716.792,-323.709 1730.199,-322.005 " />
  <polygon id="20336072232" title="" points="1650.816,-329.346 1657.2,-328.533 1655.583,-315.804 1654.812,-309.741 1641.405,-311.445 1635.021,-312.258 1637.409,-331.047 1650.816,-329.346 " />
  <polygon id="20336072232" title="" points="2151.477,-68.6442 2162.208,-67.2804 2160.657,-55.0788 2127.393,-59.3064 2128.944,-71.508 2151.477,-68.6442 " />
  <polygon id="20336072232" title="" points="1592.229,-134.7651 1602.96,-133.4013 1601.409,-121.1994 1568.145,-125.427 1569.693,-137.6289 1592.229,-134.7651 " />
  <polygon id="20336072232" title="" points="1630.584,249.3357 1632.837,252.243 1608.39,273.5508 1601.043,264.0636 1625.856,243.2301 1630.584,249.3357 " />
  <polygon id="20336072232" title="" points="1352.952,481.689 1355.499,484.731 1335.249,501.672 1318.611,499.557 1347.606,475.299 1352.952,481.689 " />
  <polygon id="20336072232" title="" points="1079.778,567.669 1085.586,521.973 1100.001,523.806 1106.865,524.676 1092.189,640.149 1125.192,644.343 1123.905,654.462 1136.406,656.049 1137.768,645.336 1153.242,647.304 1124.406,670.854 1085.913,665.964 1067.583,663.633 1079.778,567.669 " />
  <polygon id="20336072232" title="" points="1005.912,764.418 1008.279,767.166 991.347,781.761 983.283,788.709 975.9,779.178 992.859,765.267 1000.935,758.643 1005.912,764.418 " />
  <polygon id="20336072232" title="" points="912.372,700.293 916.308,700.791 912.081,734.058 899.88,732.507 904.107,699.243 912.372,700.293 " />
  <polygon id="20336072232" title="" points="1169.967,308.697 1170.528,304.281 1178.862,305.34 1191.519,205.7463 1197.546,158.3214 1189.212,157.2621 1190.877,144.1677 1199.208,145.2267 1212.042,44.2455 1218.156,-3.84066 1218.231,-4.43589 1256.637,0.445134 1274.925,2.769426 1274.4,6.90252 1300.608,10.23339 1313.088,11.81952 1313.655,7.35543 1367.82,14.23923 1368.879,5.90628 1382.568,7.64613 1381.509,15.97911 1481.607,28.70049 1529.271,34.7583 1530.255,27.02052 1543.35,28.68474 1542.366,36.4224 1576.437,40.7526 1592.661,42.8145 1559.415,304.392 1522.632,335.169 1505.115,349.821 1509.891,355.989 1499.304,364.845 1494.528,358.677 1440.156,404.163 1428.582,402.693 1318.494,388.503 1266.075,381.744 1266.642,377.28 1240.431,373.95 1227.951,372.363 1227.384,376.827 1188.978,371.946 1170.69,369.621 1175.046,335.349 1177.122,319.029 1168.788,317.97 1169.967,308.697 " />
  <polygon id="20336072232" title="" points="939.375,969.243 943.215,969.732 942.006,979.254 949.257,980.175 948.501,986.127 998.814,944.985 1022.772,925.392 1082.046,932.925 1110.27,936.513 1111.218,935.778 1883.424,289.7571 1907.637,269.1426 1899.471,259.5486 1909.521,250.9917 1917.852,260.9472 1995.156,196.2564 2031.966,165.4512 2032.05,164.7825 2024.697,155.2884 2034.276,147.2727 2041.623,156.7602 2104.212,104.4036 2108.175,101.4615 2136.501,77.7573 2150.253,66.2523 2156.802,60.774 2166.591,52.2027 2498.67,-225.6132 2441.544,-293.898 2395.803,-255.6318 2374.023,-237.4098 1938.33,-292.7823 1960.11,-464.145 1970.481,-545.748 1617.27,-590.637 1449.075,-612.015 1440.876,-547.5 1436.97,-516.78 1439.589,-518.649 1443.324,-519.159 1446.813,-517.731 1449.12,-514.752 1449.63,-511.017 1448.202,-507.531 1445.223,-505.221 1441.488,-504.714 1437.999,-506.139 1436.43,-507.777 1417.14,-355.998 1267.743,-374.985 1265.775,-359.508 1252.086,-361.248 1254.054,-376.725 1153.251,-389.535 1105.251,-395.634 1103.097,-378.702 1102.074,-370.635 1091.955,-371.922 1094.106,-388.857 1095.132,-396.921 1017.714,-406.761 980.85,-411.444 978.96,-396.564 971.817,-397.473 973.707,-412.353 747.528,-441.099 745.32,-423.741 732.822,-425.328 726.87,-426.087 729.075,-443.445 599.172,-459.954 560.739,-157.5474 542.436,-13.54434 633.561,-1.963155 676.953,3.5517 678.693,-10.13817 687.621,-9.00348 685.881,4.68639 839.595,24.22203 837.516,40.5903 836.028,40.4013 830.52,83.7459 827.895,104.3865 832.656,104.9916 812.688,262.1277 826.377,263.8674 825.468,271.0101 811.482,269.2323 798.261,373.26 791.964,422.796 806.1,424.593 805.173,431.886 791.037,430.089 778.086,531.999 771.918,580.527 800.934,584.217 782.385,730.179 773.55,799.683 799.146,802.935 794.841,836.805 792.792,852.933 826.989,856.311 817.809,928.527 813.438,962.916 892.467,972.96 930.102,977.742 931.311,968.217 939.375,969.243 " />
  <polygon id="20336072749" title="" points="1941.183,-1095.003 1944.996,-1091.232 1900.17,-1048.266 1888.65,-1060.287 1918.809,-1089.168 1933.17,-1102.923 1941.183,-1095.003 " />
  <polygon id="20336072749" title="" points="1733.139,-995.358 1721.025,-996.897 1732.518,-1008.045 1737.99,-1013.355 1751.94,-998.973 1758.582,-992.124 1733.139,-995.358 " />
  <polygon id="20336072749" title="" points="1950.969,-783.504 1961.961,-782.109 1960.41,-769.905 1937.328,-772.839 1926.336,-774.237 1927.884,-786.438 1950.969,-783.504 " />
  <polygon id="20336072749" title="" points="1792.71,-758.127 1803.174,-756.795 1801.749,-745.581 1779.774,-748.374 1769.31,-749.703 1770.735,-760.92 1792.71,-758.127 " />
  <polygon id="20336072749" title="" points="1714.716,-768.039 1725.18,-766.707 1723.629,-754.506 1701.654,-757.299 1691.19,-758.628 1692.741,-770.832 1714.716,-768.039 " />
  <polygon id="20336072749" title="" points="1698.927,-753.411 1702.863,-752.913 1700.019,-730.533 1698.666,-719.877 1686.462,-721.428 1689.306,-743.805 1690.662,-754.461 1698.927,-753.411 " />
  <polygon id="20336072749" title="" points="1503.177,-1037.262 1513.833,-1035.906 1512.282,-1023.705 1489.905,-1026.549 1479.249,-1027.902 1480.8,-1040.106 1503.177,-1037.262 " />
  <polygon id="20336072749" title="" points="1457.772,-1245.759 1468.503,-1244.394 1466.952,-1232.193 1433.685,-1236.42 1435.236,-1248.621 1457.772,-1245.759 " />
  <polygon id="20336072749" title="" points="1426.803,-1231.521 1421.19,-1187.361 1420.971,-1185.633 1394.187,-1189.038 1414.56,-1349.349 1430.838,-1332.354 1438.587,-1324.26 1426.803,-1231.521 " />
  <polygon id="20336072749" title="" points="1283.106,-1386.114 1302.789,-1383.615 1279.149,-1197.609 1340.781,-1189.776 1323.195,-1051.389 1200.552,-1066.977 1228.479,-1286.727 1241.778,-1391.367 1283.106,-1386.114 " />
  <polygon id="20336072749" title="" points="1280.706,-1491.102 1288.236,-1483.338 1279.416,-1474.782 1263.6,-1491.087 1256.07,-1498.851 1264.89,-1507.407 1280.706,-1491.102 " />
  <polygon id="20336072749" title="" points="1169.202,-1421.157 1179.933,-1419.792 1178.382,-1407.591 1145.118,-1411.818 1146.669,-1424.019 1169.202,-1421.157 " />
  <polygon id="20336072749" title="" points="1364.172,-1189.224 1372.332,-1188.186 1369.77,-1168.026 1368.552,-1158.426 1351.413,-1160.604 1343.253,-1161.642 1345.815,-1181.802 1347.036,-1191.402 1364.172,-1189.224 " />
  <polygon id="20336072749" title="" points="1060.569,-1110.774 1093.689,-1106.565 1090.437,-1080.972 987.762,-1094.022 991.017,-1119.615 1060.569,-1110.774 " />
  <polygon id="20336072749" title="" points="1080.399,-1339.329 1109.199,-1335.669 1096.281,-1234.029 1090.128,-1185.627 1000.848,-1196.973 1013.766,-1298.616 1019.916,-1347.018 1080.399,-1339.329 " />
  <polygon id="20336072749" title="" points="958.347,-1826.685 964.68,-1820.154 956.499,-1812.216 926.931,-1842.699 939.204,-1841.139 945.045,-1840.395 958.347,-1826.685 " />
  <polygon id="20336072749" title="" points="837.867,-2058.582 854.658,-2056.449 835.596,-1906.455 783.54,-1913.07 802.602,-2063.064 837.867,-2058.582 " />
  <polygon id="20336072749" title="" points="802.617,-927.039 806.649,-926.526 805.137,-914.613 1034.997,-885.402 1033.989,-887.061 1033.53,-890.439 1034.82,-893.598 1037.517,-895.686 1040.898,-896.145 1044.054,-894.855 1046.142,-892.158 1046.604,-888.777 1045.311,-885.621 1043.925,-884.265 1155.228,-870.12 1157.328,-886.653 1158.33,-894.525 1168.449,-893.238 1165.347,-868.833 1315.086,-849.804 1316.976,-864.684 1328.88,-863.172 1326.99,-848.292 1428.798,-835.353 1477.281,-829.191 1464.213,-726.372 1457.991,-677.412 1460.412,-679.089 1464.066,-679.587 1467.48,-678.189 1469.736,-675.276 1470.234,-671.622 1468.839,-668.208 1465.923,-665.952 1462.269,-665.454 1458.858,-666.849 1456.932,-669.078 1452.114,-631.176 1449.819,-613.128 1970.631,-546.939 1988.976,-691.287 1997.712,-760.023 2103.948,-746.523 2154.537,-740.094 2208.819,-683.412 2234.667,-656.421 2325.666,-743.568 2294.958,-775.635 2286.12,-767.175 2276.991,-776.709 2286.522,-785.838 2183.607,-893.307 2173.641,-883.764 2164.512,-893.298 2174.046,-902.427 2104.329,-975.228 2071.131,-1009.896 2062.029,-1001.181 2052.9,-1010.715 2061.999,-1019.43 1959.084,-1126.902 1949.988,-1118.181 1940.856,-1127.712 1949.952,-1136.43 1847.037,-1243.902 1837.935,-1235.187 1828.392,-1245.153 1837.926,-1254.282 1767.123,-1328.214 1757.799,-1319.286 1725.888,-1352.607 1716.354,-1343.478 1707.639,-1352.577 1717.173,-1361.709 1614.255,-1469.175 1603.854,-1459.218 1594.311,-1469.184 1604.277,-1478.727 1604.754,-1479.099 1583.949,-1500.822 1574.043,-1511.166 1545.549,-1541.103 1553.784,-1548.987 1524.825,-1580.4 1511.034,-1595.358 1501.503,-1586.226 1492.371,-1595.76 1501.38,-1604.385 1432.131,-1678.164 1399.155,-1713.297 1389.189,-1703.751 1380.567,-1712.94 1388.661,-1722.093 1319.157,-1794.675 1286.058,-1829.238 1277.391,-1820.937 1268.676,-1830.039 1276.911,-1837.923 1173.996,-1945.392 1165.329,-1937.094 1156.2,-1946.628 1165.299,-1955.343 1095.195,-2028.489 1061.811,-2063.319 1053.147,-2055.015 1044.843,-2063.679 1053.939,-2072.397 950.565,-2180.256 941.466,-2171.538 936.279,-2176.956 867.81,-2111.388 805.236,-2119.341 782.748,-1942.398 772.038,-1858.14 828.228,-1850.997 805.23,-1670.055 1050.816,-1638.843 1046.715,-1606.587 1044.762,-1591.224 1047.618,-1591.341 1051.728,-1589.661 1054.446,-1586.151 1055.046,-1581.753 1053.366,-1577.643 1049.856,-1574.925 1045.455,-1574.328 1042.719,-1575.153 1022.898,-1419.186 1017.087,-1419.924 997.419,-1265.178 811.416,-1288.818 809.901,-1276.911 798.594,-1278.351 799.512,-1290.33 788.349,-1291.749 756.579,-1041.759 741.45,-922.716 776.127,-918.309 792.639,-916.212 794.151,-928.116 802.617,-927.039 " />
  <polygon id="20336074914" title="" points="747.756,581.469 725.1,578.589 719.841,633.456 711.285,700.791 707.208,732.855 755.025,727.905 777.792,725.547 795.336,587.517 747.756,581.469 " />
  <polygon id="20336074954" title="" points="871.011,615.354 872.877,597.642 825.3,591.597 802.644,588.717 785.697,722.043 834.066,728.19 857.1,731.118 863.865,677.895 867.084,652.551 871.011,615.354 " />
  <polygon id="20336075609" title="" points="-476.922,-916.863 -472.794,-916.338 -474.747,-900.969 -487.545,-902.595 -485.592,-917.964 -476.922,-916.863 " />
  <polygon id="20336075609" title="" points="-316.215,-896.439 -312.087,-895.914 -314.04,-880.545 -326.838,-882.171 -324.882,-897.54 -316.215,-896.439 " />
  <polygon id="20336075609" title="" points="777.114,-2060.256 794.394,-2058.06 776.088,-1914.018 739.797,-1918.629 722.517,-1920.825 734.919,-2018.403 740.823,-2064.867 777.114,-2060.256 " />
  <polygon id="20336075609" title="" points="659.184,-1868.394 666.192,-1867.503 664.107,-1851.093 649.389,-1852.962 642.381,-1853.853 644.466,-1870.263 659.184,-1868.394 " />
  <polygon id="20336075609" title="" points="686.577,-1864.911 694.584,-1863.894 690.864,-1834.629 674.049,-1836.765 666.042,-1837.782 669.762,-1867.047 686.577,-1864.911 " />
  <polygon id="20336075609" title="" points="487.377,-1828.893 489.906,-1825.833 472.395,-1811.364 464.058,-1804.476 456.219,-1813.953 482.067,-1835.316 487.377,-1828.893 " />
  <polygon id="20336075609" title="" points="224.1477,-1602.546 215.8113,-1595.652 208.6401,-1604.328 207.9252,-1605.192 225.4638,-1619.628 233.8155,-1626.501 241.6542,-1617.024 224.1477,-1602.546 " />
  <polygon id="20336075609" title="" points="422.691,-1422.918 451.491,-1419.258 438.573,-1317.615 432.423,-1269.216 371.94,-1276.902 343.14,-1280.562 356.058,-1382.205 362.211,-1430.607 422.691,-1422.918 " />
  <polygon id="20336075609" title="" points="389.466,-1196.067 422.589,-1191.858 420.384,-1174.518 419.334,-1166.262 316.662,-1179.312 318.864,-1196.649 319.914,-1204.905 389.466,-1196.067 " />
  <polygon id="20336075609" title="" points="157.0926,-1354.818 164.9484,-1353.819 186.7611,-1525.452 247.4727,-1517.736 206.3211,-1193.94 121.2567,-1204.752 140.5956,-1356.915 157.0926,-1354.818 " />
  <polygon id="20336075609" title="" points="33.468,-1298.772 41.1483,-1297.794 33.8715,-1240.539 30.4065,-1213.275 6.59793,-1216.299 17.3397,-1300.821 33.468,-1298.772 " />
  <polygon id="20336075609" title="" points="-44.8806,-1406.355 -53.2095,-1399.455 -61.0653,-1408.953 -43.5645,-1423.437 -35.2311,-1430.331 -27.38997,-1420.845 -44.8806,-1406.355 " />
  <polygon id="20336075609" title="" points="-288.9957,-1209.645 -286.5654,-1206.507 -303.792,-1192.26 -311.994,-1185.474 -319.53,-1195.203 -302.304,-1209.45 -294.0999,-1216.236 -288.9957,-1209.645 " />
  <polygon id="20336075609" title="" points="-285.99,-1051.17 -282.0543,-1050.669 -286.2819,-1017.405 -298.4823,-1018.956 -294.2547,-1052.22 -285.99,-1051.17 " />
  <polygon id="20336075609" title="" points="29.56797,-1023.834 30.2025,-1028.826 44.4876,-1027.011 42.5208,-1011.537 191.6214,-992.586 193.6713,-1008.714 194.6472,-1016.394 203.5755,-1015.26 200.5497,-991.452 276.3786,-981.813 312.489,-977.226 311.754,-978.516 311.319,-981.708 312.54,-984.69 315.087,-986.661 318.279,-987.096 321.261,-985.878 323.232,-983.331 323.667,-980.139 322.449,-977.157 321.417,-976.092 477.432,-956.262 551.724,-946.821 553.239,-958.725 565.143,-957.213 563.631,-945.315 740.139,-923.121 771.912,-1173.111 787.041,-1292.151 694.686,-1303.728 650.709,-1309.242 649.194,-1297.338 637.29,-1298.85 638.802,-1310.754 512.802,-1326.768 452.799,-1334.394 472.845,-1492.116 466.893,-1492.872 480.027,-1596.219 486.282,-1645.431 483.285,-1645.296 479.079,-1647.015 476.295,-1650.609 475.68,-1655.115 477.402,-1659.321 480.996,-1662.105 485.499,-1662.717 487.605,-1662.18 491.703,-1694.436 493.656,-1709.796 804.06,-1670.346 819.534,-1792.116 826.905,-1850.1 770.985,-1857.207 804.423,-2120.322 846.873,-2114.928 867.09,-2112.36 935.451,-2177.823 932.337,-2181.072 941.1,-2189.463 871.011,-2262.594 837.636,-2297.418 828.987,-2289.129 820.683,-2297.793 829.347,-2306.097 797.019,-2339.856 781.623,-2355.93 740.289,-2321.727 720.606,-2305.437 731.7,-2292.033 727.8,-2288.298 625.62,-2203.806 630.684,-2197.269 619.791,-2188.833 615.132,-2194.467 500.922,-2100.027 504.594,-2095.284 496.11,-2086.338 491.526,-2092.257 413.454,-2027.7 376.278,-1996.959 380.319,-1991.742 370.611,-1983.711 366.57,-1988.931 251.5095,-1893.789 255.6447,-1888.449 245.5878,-1880.133 241.2864,-1885.335 126.7284,-1790.607 131.2107,-1784.82 120.8931,-1776.831 116.496,-1782.147 1.938066,-1687.419 5.98143,-1682.199 -4.30686,-1673.691 -8.51271,-1678.779 -122.9553,-1584.147 -118.9887,-1579.026 -129.2148,-1570.212 -133.5162,-1575.414 -210.8853,-1511.436 -247.7277,-1480.974 -243.5922,-1475.634 -253.9962,-1467.03 -258.2976,-1472.232 -335.745,-1408.191 -372.624,-1377.696 -368.316,-1372.131 -379.224,-1363.683 -383.268,-1368.9 -460.635,-1304.922 -497.475,-1274.457 -493.332,-1269.105 -503.505,-1260.696 -507.807,-1265.898 -508.161,-1265.622 -568.302,-1215.891 -596.943,-1192.209 -600.624,-1196.964 -689.913,-1123.134 -732.432,-1087.974 -648.462,-985.611 -653.916,-942.693 -656.514,-922.254 -295.6419,-876.393 -123.7986,-854.553 -108.7071,-973.296 -101.5206,-1029.843 28.23564,-1013.352 29.56797,-1023.834 " />
  <polygon id="20336075643" title="" points="-481.461,-917.439 -485.592,-917.964 -487.545,-902.595 -474.747,-900.969 -472.794,-916.338 -481.461,-917.439 " />
  <polygon id="20336075677" title="" points="-320.754,-897.015 -324.882,-897.54 -326.838,-882.171 -314.04,-880.545 -312.087,-895.914 -320.754,-897.015 " />
  <polygon id="20336076766" title="" points="-372.069,-398.616 -375.237,-399.018 -378.717,-371.637 -368.895,-370.389 -365.415,-397.77 -372.069,-398.616 " />
  <polygon id="20336076800" title="" points="12.23028,336.234 8.2947,335.733 4.06707,368.997 16.26738,370.548 19.13127,348.015 20.49501,337.284 12.23028,336.234 " />
  <polygon id="20336112617" title="" points="186.6462,581.337 186.519,582.339 240.0879,589.146 239.0667,597.18 256.2033,599.358 264.3633,600.396 249.1197,720.339 229.7751,717.882 231.4194,704.943 137.6172,693.012 123.7116,665.724 117.09,652.731 124.4277,594.993 85.116,589.998 78.36,576.753 81.5745,551.46 113.8392,555.561 129.2034,557.514 129.6567,553.947 164.496,570.576 181.086,578.493 186.9135,579.234 186.6462,581.337 " />
  <polygon id="20336112617" title="" points="-17.62101,777.597 -15.86346,781.047 -26.56656,786.492 14.53572,867.429 17.18178,867.765 18.69471,855.861 48.4446,859.641 46.9317,871.548 195.7455,890.46 197.2584,878.556 209.1627,880.068 207.6498,891.972 356.451,910.884 357.966,898.98 369.87,900.492 368.358,912.396 517.161,931.308 518.673,919.404 530.577,920.916 529.065,932.82 677.868,951.732 679.38,939.828 691.284,941.343 690.339,948.783 791.142,961.593 839.142,967.692 840.087,960.252 850.206,961.539 858.942,892.791 863.103,860.055 791.976,851.016 802.026,771.945 806.811,734.292 791.922,728.754 784.833,726.12 779.541,725.445 725.337,731.058 699.525,733.731 695.811,762.963 694.041,776.886 674.697,774.426 689.94,654.483 707.076,656.661 715.236,657.699 725.526,576.75 624.723,563.937 576.72,557.838 575.775,565.278 563.871,563.766 564.816,556.326 464.016,543.513 416.013,537.414 415.068,544.854 403.164,543.339 404.109,535.899 318.429,525.012 277.6272,519.825 277.4382,521.313 262.3179,519.39 255.1179,518.475 254.3613,524.43 242.457,522.915 243.2136,516.963 208.9887,512.613 222.3123,407.781 228.6567,357.858 215.2644,356.157 216.021,350.205 229.4133,351.906 242.7366,247.0725 249.0813,197.1516 235.689,195.4497 236.4453,189.4974 249.8376,191.1996 278.016,-30.5172 275.04,-30.8952 276.3678,-41.3427 157.3251,-56.472 157.0227,-54.0912 142.104,-55.9872 134.9997,-56.8899 139.4589,-91.977 -81.4974,-120.0588 -186.7149,-133.431 -182.0004,-170.5257 -179.7555,-188.1897 -232.5681,-194.9016 -257.7171,-198.0978 -461.811,-94.0962 -457.173,-84.9966 -462.528,-82.2663 -416.391,8.26866 -394.422,51.3804 -389.076,48.6561 -383.628,59.3475 -388.98,62.0763 -342.84,152.6094 -320.868,195.7203 -315.525,192.9957 -310.074,203.6874 -315.429,206.4159 -269.2881,296.949 -247.3167,340.059 -241.9707,337.335 -236.5218,348.027 -241.8759,350.757 -173.7639,484.401 -168.4179,481.674 -162.969,492.366 -168.3231,495.096 -100.2111,628.74 -94.8651,626.016 -89.4162,636.708 -94.7697,639.435 -48.6291,729.969 -26.65758,773.079 -21.31182,770.355 -17.62101,777.597 " />
  <polygon id="20336112752" title="" points="73.764,-248.463 71.7387,-232.5267 57.8988,-234.2856 62.1522,-267.7518 64.1775,-283.6881 78.0174,-281.9292 73.764,-248.463 " />
  <polygon id="20336112752" title="" points="-154.0497,-277.416 -156.0753,-261.4797 -169.9149,-263.2386 -163.6362,-312.642 -149.7966,-310.881 -154.0497,-277.416 " />
  <polygon id="20336112752" title="" points="265.7766,-274.8231 266.9223,-283.8372 298.5111,-279.8226 296.1054,-260.8929 294.9597,-251.8785 263.3709,-255.8934 265.7766,-274.8231 " />
  <polygon id="20336112752" title="" points="-376.851,-610.074 -376.251,-614.79 -399.45,-617.736 -410.499,-619.14 -412.356,-604.527 -450.714,-609.402 -448.536,-626.547 -447.498,-634.71 -380.364,-626.178 -348.396,-622.116 -351.612,-596.808 -369.561,-599.091 -378.108,-600.177 -376.851,-610.074 " />
  <polygon id="20336112752" title="" points="-56.001,-326.733 -53.9634,-342.765 -31.9902,-339.972 -21.52674,-338.643 -27.84318,-288.9423 -24.28074,-288.4893 -39.0135,-172.5669 -46.029,-117.366 -85.5993,-122.3949 -70.8666,-238.3173 -63.8511,-293.5185 -60.2799,-293.0646 -56.001,-326.733 " />
  <polygon id="20336112752" title="" points="-462.072,-94.6098 -461.811,-94.0962 -257.7171,-198.0978 -204.9045,-191.3859 -179.7555,-188.1897 -184.4697,-151.095 -186.7149,-133.431 34.2417,-105.3492 139.4589,-91.977 149.7621,-173.0457 154.6683,-211.65 176.6913,-208.851 176.388,-206.4654 295.4304,-191.3361 277.1202,-47.2638 437.082,-26.93373 438.408,-37.35 445.848,-36.4044 444.525,-25.98825 581.274,-8.60853 597.288,-134.6112 604.914,-194.6124 461.466,-212.8431 469.221,-273.8523 552.885,-263.2191 592.728,-258.1557 607.332,-373.071 614.286,-427.791 514.887,-440.424 517.449,-460.584 518.667,-470.184 506.466,-471.735 504.765,-458.343 501.195,-458.796 484.452,-326.958 468.423,-328.995 460.791,-329.964 479.235,-475.197 333.363,-493.734 263.9016,-502.563 262.0104,-487.683 256.0581,-488.439 257.9493,-503.319 178.3266,-513.438 140.4108,-518.259 138.3612,-502.131 137.385,-494.448 128.4567,-495.585 130.5066,-511.713 131.4828,-519.393 -18.51084,-538.455 -20.40183,-523.578 -32.8989,-525.165 -31.0077,-540.045 -161.6595,-556.647 -136.0116,-758.454 -123.7986,-854.553 -652.05,-921.687 -672.822,-758.247 -682.713,-680.418 -731.646,-655.482 -754.947,-643.608 -749.925,-633.75 -747.531,-629.058 -737.01,-634.308 -731.649,-623.574 -742.083,-618.363 -693.687,-523.392 -683.304,-528.696 -677.856,-518.004 -683.727,-515.01 -615.624,-381.363 -609.744,-384.36 -604.293,-373.668 -610.173,-370.671 -564.033,-280.1379 -542.064,-237.027 -536.181,-240.0237 -530.733,-229.3317 -536.079,-226.6077 -489.939,-136.0749 -467.967,-92.964 -462.621,-95.6883 -462.072,-94.6098 " />
  <polygon id="20336112870" title="" points="856.617,794.505 857.409,788.265 886.641,791.979 900.564,793.749 898.896,806.853 898.104,813.093 868.872,809.379 854.952,807.609 856.617,794.505 " />
  <polygon id="20336112870" title="" points="1038.009,648.162 1038.498,644.322 1091.949,651.117 1090.434,663.021 1054.227,658.419 1036.986,656.226 1038.009,648.162 " />
  <polygon id="20336112870" title="" points="930.552,974.19 930.858,971.79 942.762,973.302 941.817,980.742 953.199,982.188 1021.32,925.2 1092.663,934.266 2032.62,164.9289 2024.613,155.3586 2033.817,147.6573 2041.812,157.2114 2079.171,125.9562 2096.964,111.0726 2089.146,101.7309 2098.35,94.0311 2106.159,103.362 2141.901,73.4508 2158.923,59.2074 2069.586,-44.4522 2030.931,-49.3653 2032.443,-61.2696 2000.286,-65.3562 1984.974,-67.3023 1985.58,-72.0639 1948.275,-76.8054 1930.509,-79.0629 1932.174,-92.1576 1893.162,-97.1157 1874.583,-99.4767 1866.288,-34.2054 1862.337,-3.1236 1890.687,33.4821 1829.46,84.7059 1812.753,64.7388 1784.013,61.086 1770.327,59.3466 1770.705,56.3706 1677.162,44.4819 1632.618,38.8206 1632.087,42.9873 1593.267,38.0535 1571.031,213.0087 1560.441,296.3205 1497.513,345.924 1503.024,353.04 1493.535,360.387 1488.024,353.271 1445.436,386.256 1425.156,401.961 1252.776,380.055 1170.69,369.621 1177.233,318.135 1169.793,317.19 1171.308,305.286 1178.748,306.231 1191.558,205.4295 1197.66,157.4286 1190.22,156.483 1191.732,144.5787 1199.172,145.5243 1211.958,44.9238 1218.045,-2.981238 1051.515,-24.14565 972.216,-34.224 965.121,21.59931 961.743,48.1818 939.726,45.3837 940.029,43.0029 837.354,29.95386 831.114,79.059 835.578,79.6263 812.313,262.6851 825.705,264.3873 824.949,270.3393 811.557,268.6374 798.234,373.47 791.889,423.393 805.281,425.094 804.525,431.046 791.133,429.345 777.81,534.18 771.465,584.1 924.732,603.579 913.356,693.09 907.938,735.717 873.423,731.328 856.986,729.24 854.109,751.878 822.069,739.965 806.811,734.292 796.761,813.363 791.976,851.016 863.103,860.055 853.725,933.843 849.261,968.979 903.894,975.924 929.913,979.23 930.552,974.19 " />
  <polygon id="20336112994" title="" points="1214.184,-181.5933 1227.528,-179.8974 1224.087,-152.8152 1206.525,-155.0472 1193.919,-55.8579 1187.916,-8.62482 1171.788,-10.6746 1164.108,-11.65068 1186.158,-185.1552 1214.184,-181.5933 " />
  <polygon id="20336112994" title="" points="1217.244,-15.48201 1221.084,-14.99397 1219.761,-4.57776 1320.561,8.23329 1368.564,14.33379 1369.509,6.89364 1381.413,8.40657 1380.468,15.84672 1529.271,34.7583 1530.216,27.31812 1542.12,28.83105 1541.175,36.2712 1584.624,41.7933 1585.23,37.032 1632.087,42.9873 1651.527,-109.9824 1750.716,-97.3764 1797.951,-91.3734 1791.801,-42.9885 1788.873,-19.94793 1780.539,-21.00699 1773.621,33.426 1770.327,59.3466 1799.7,63.0798 1813.686,64.8573 1861.422,27.88905 1863.801,9.15276 1864.935,0.2307069 1862.337,-3.1236 1870.632,-68.3952 1874.583,-99.4767 1913.595,-94.5186 1932.174,-92.1576 1931.946,-90.372 1968.042,-85.7844 1985.232,-83.6001 1983.795,-72.291 1985.58,-72.0639 1984.974,-67.3023 2017.131,-63.2157 2032.443,-61.2696 2030.931,-49.3653 2069.586,-44.4522 2158.923,59.2074 2389.242,-133.536 2498.919,-225.3186 2441.904,-293.4174 2396.469,-255.4068 2374.833,-237.3066 1938.33,-292.7823 1960.173,-464.649 1970.574,-546.492 1617.768,-591.33 1449.765,-612.681 1441.437,-547.161 1437.471,-515.961 1455.327,-513.69 1454.382,-506.25 1436.526,-508.521 1417.14,-355.998 1267.149,-375.06 1265.256,-360.18 1252.761,-361.77 1254.651,-376.647 1153.041,-389.562 1104.654,-395.712 1102.605,-379.584 1101.63,-371.904 1092.702,-373.038 1094.751,-389.166 1095.726,-396.846 866.403,-425.991 757.2,-439.869 744.687,-341.487 738.729,-294.6396 714.771,-297.6867 727.284,-396.066 733.242,-442.914 718.956,-444.729 716.394,-424.569 715.176,-414.969 614.286,-427.791 600.066,-315.9 593.295,-262.62 592.728,-258.1557 716.235,-242.4591 708.291,-179.9619 704.508,-150.2013 624.156,-160.4136 626.844,-181.5819 628.125,-191.6622 604.914,-194.6124 588.9,-68.6097 581.274,-8.60853 646.896,-0.2685363 678.144,3.7029 679.467,-6.71322 686.907,-5.76765 685.584,4.64847 793.947,18.42036 845.547,24.97839 857.952,-72.6192 863.859,-119.094 959.091,-106.9905 959.394,-109.3716 974.31,-107.4759 981.411,-106.5735 975.183,-57.5625 972.216,-34.224 1131.69,-13.9563 1207.629,-4.30506 1209.18,-16.5069 1217.244,-15.48201 " />
  <polygon id="20336113090" title="" points="-478.35,-935.556 -470.478,-934.554 -473.523,-910.593 -474.975,-899.184 -414.858,-891.543 -411.813,-915.504 -410.361,-926.913 -384.96,-923.685 -372.864,-922.149 -375.909,-898.188 -377.358,-886.776 -346.407,-882.843 -343.362,-906.804 -341.913,-918.213 -311.853,-914.394 -314.901,-890.433 -316.35,-879.024 -185.9118,-862.446 -123.7986,-854.553 -108.7071,-973.296 -101.5206,-1029.843 29.42856,-1013.199 31.3197,-1028.079 43.8168,-1026.492 41.9256,-1011.612 179.7171,-994.098 181.23,-1006.002 193.1343,-1004.49 191.6214,-992.586 326.697,-975.42 391.017,-967.245 392.529,-979.149 404.436,-977.637 402.921,-965.733 503.925,-952.896 552.021,-946.782 564.522,-1045.137 570.474,-1091.973 588.618,-1089.666 597.258,-1088.568 587.193,-1009.368 582.399,-971.652 649.737,-963.093 681.801,-959.019 696.534,-1074.939 703.548,-1130.142 622.452,-1140.447 627.576,-1180.77 630.015,-1199.97 690.876,-1192.236 700.485,-1267.842 705.06,-1303.845 441.084,-1337.394 432.42,-1269.216 367.905,-1277.415 337.185,-1281.318 336.882,-1278.933 314.859,-1281.732 326.019,-1369.548 271.1838,-1376.517 245.0712,-1379.838 220.5996,-1187.286 -171.2799,-1237.095 -105.4413,-1291.557 -257.2146,-1475.097 -336.462,-1409.565 -374.199,-1378.359 -369.414,-1372.575 -378.663,-1364.928 -383.445,-1370.712 -461.754,-1305.957 -499.044,-1275.123 -494.259,-1269.336 -503.508,-1261.689 -508.29,-1267.476 -623.889,-1171.887 -619.107,-1166.097 -628.356,-1158.45 -635.991,-1167.684 -695.295,-1118.679 -723.534,-1095.342 -715.887,-1086.096 -725.133,-1078.449 -670.581,-1011.945 -644.604,-980.277 -652.05,-921.687 -548.625,-908.544 -499.377,-902.286 -496.332,-926.247 -494.883,-937.656 -478.35,-935.556 " />
  <polygon id="20336113416" title="" points="89.6937,-1232.955 98.0457,-1231.893 112.0098,-1341.768 118.6593,-1394.088 142.4679,-1391.061 126.1977,-1263.042 118.4502,-1202.082 68.7498,-1208.4 71.0559,-1226.544 72.1539,-1235.184 89.6937,-1232.955 " />
  <polygon id="20336113416" title="" points="356.346,-1432.08 356.247,-1431.312 420.765,-1423.113 451.485,-1419.21 445.527,-1372.35 442.692,-1350.036 454.596,-1348.521 470.385,-1472.754 465.627,-1473.357 480.6,-1591.167 487.731,-1647.267 487.242,-1647.042 483.396,-1646.517 479.802,-1647.987 477.426,-1651.056 476.901,-1654.905 478.371,-1658.499 481.44,-1660.875 485.286,-1661.4 488.88,-1659.93 489.297,-1659.588 493.446,-1692.234 495.423,-1707.78 683.754,-1683.846 687.342,-1712.085 689.052,-1725.531 687.294,-1727.67 735.867,-1767.822 713.877,-1794.408 709.251,-1790.583 636.627,-1878.441 715.554,-1943.697 753.141,-1974.771 740.718,-1989.798 768.63,-2012.877 781.92,-2023.866 888.36,-2125.758 939.045,-2174.277 932.817,-2180.772 941.448,-2189.04 837.645,-2297.43 828.987,-2289.129 820.683,-2297.793 829.374,-2306.121 781.593,-2356.023 740.313,-2321.865 720.657,-2305.599 728.538,-2296.077 724.389,-2292.621 732.039,-2283.375 722.775,-2275.716 717.996,-2281.494 654.681,-2229.153 624.531,-2204.232 629.328,-2198.427 620.082,-2190.78 615.282,-2196.582 537.048,-2131.893 499.794,-2101.086 504.594,-2095.284 495.345,-2087.637 490.548,-2093.439 374.949,-1997.85 379.635,-1991.958 370.389,-1984.311 365.577,-1990.095 287.2683,-1925.343 249.9786,-1894.509 254.7726,-1888.71 245.5248,-1881.063 240.732,-1886.859 162.4242,-1822.104 125.1351,-1791.27 129.9636,-1785.522 120.7158,-1777.875 115.9317,-1783.659 37.6242,-1718.904 0.334998,-1688.07 5.1189,-1682.283 -4.12884,-1674.636 -8.91276,-1680.423 -122.5074,-1586.373 -120.5511,-1578.366 -128.9733,-1571.4 -133.7607,-1577.184 -249.3576,-1481.592 -244.5702,-1475.811 -252.4308,-1469.31 -152.8572,-1348.896 -105.4413,-1291.557 -171.2799,-1237.095 220.5996,-1187.286 245.0712,-1379.838 299.9076,-1372.869 326.019,-1369.548 334.527,-1436.493 349.446,-1434.597 356.55,-1433.694 356.346,-1432.08 " />
  <polygon id="20336113540" title="" points="1404.219,-1083.591 1406.895,-1104.642 1420.734,-1102.884 1415.118,-1058.679 1412.442,-1037.628 1398.603,-1039.386 1404.219,-1083.591 " />
  <polygon id="20336113540" title="" points="1193.004,-1109.916 1195.65,-1130.721 1209.489,-1128.963 1203.936,-1085.268 1201.29,-1064.463 1187.451,-1066.221 1193.004,-1109.916 " />
  <polygon id="20336113540" title="" points="1774.302,-833.778 1808.766,-829.401 1806.201,-809.238 1804.983,-799.638 1732.611,-808.836 1698.15,-813.216 1700.712,-833.376 1701.933,-842.976 1774.302,-833.778 " />
  <polygon id="20336113540" title="" points="1734.117,-593.931 1764.042,-590.13 1762.095,-574.803 1699.251,-582.789 1669.326,-586.593 1671.273,-601.92 1734.117,-593.931 " />
  <polygon id="20336113540" title="" points="2065.323,-751.665 2097.519,-747.684 2172.99,-668.871 2208.927,-631.344 2270.535,-690.348 2299.872,-718.443 2235.051,-786.153 2204.184,-818.397 2230.236,-843.339 2197.926,-877.062 2182.539,-893.121 2173.872,-884.82 2165.571,-893.487 2174.238,-901.788 2103.957,-975.174 2070.489,-1010.121 2061.822,-1001.823 2053.524,-1010.487 2062.191,-1018.788 1958.442,-1127.121 1949.775,-1118.823 1948.53,-1120.122 1865.04,-1040.166 1825.281,-1002.09 1775.742,-1053.198 1740.852,-1019.376 1768.845,-990.516 1528.467,-1021.068 1413.999,-1035.615 1428.093,-1146.498 1434.804,-1199.298 1398.834,-1203.87 1381.707,-1206.045 1381.935,-1207.833 1348.551,-1212.075 1332.654,-1214.094 1320.867,-1121.358 1315.254,-1077.195 1332.795,-1074.966 1341.147,-1073.907 1337.742,-1047.12 1304.076,-1051.401 1288.041,-1053.438 1302.135,-1164.321 1308.846,-1217.121 1286.82,-1219.92 1286.592,-1218.135 1177.326,-1232.022 1125.294,-1238.634 1120.218,-1198.701 1117.8,-1179.687 1095.78,-1182.489 1096.08,-1184.871 1000.848,-1196.973 1009.512,-1265.151 705.06,-1303.845 695.451,-1228.239 690.876,-1192.236 718.554,-1188.717 722.715,-1221.453 772.611,-1215.111 796.371,-1212.093 784.647,-1119.834 729.708,-1126.818 703.548,-1130.142 688.815,-1014.219 681.801,-959.019 781.2,-946.386 779.121,-930.018 791.025,-928.503 789.513,-916.599 900.597,-902.481 953.493,-895.758 955.005,-907.662 966.909,-906.15 965.397,-894.246 1164.792,-868.905 1166.307,-880.809 1178.211,-879.297 1176.699,-867.393 1270.245,-855.504 1314.789,-849.843 1316.682,-864.723 1329.177,-863.133 1327.287,-848.253 1428.894,-835.341 1477.281,-829.191 1457.895,-676.668 1470.093,-675.117 1475.901,-674.379 1474.956,-666.939 1462.758,-668.49 1456.95,-669.228 1449.765,-612.681 1802.571,-567.843 1970.574,-546.492 1997.712,-760.023 2065.323,-751.665 " />
  <polygon id="20336113871" title="" points="1139.613,-1408.869 1167.645,-1405.308 1165.851,-1391.193 1164.996,-1384.473 1153.68,-1385.913 1102.479,-1392.42 1078.095,-1395.519 1079.889,-1409.631 1080.744,-1416.351 1139.613,-1408.869 " />
  <polygon id="20336113871" title="" points="1045.092,-1604.604 1043.109,-1588.992 1043.916,-1589.388 1047.762,-1589.913 1051.356,-1588.443 1053.732,-1585.374 1054.257,-1581.528 1052.787,-1577.934 1049.718,-1575.558 1045.872,-1575.033 1042.278,-1576.503 1041.597,-1577.088 1019.466,-1402.971 1018.71,-1397.019 1014.246,-1397.586 999.213,-1279.305 1011.135,-1277.922 1019.91,-1346.967 1115.145,-1334.865 1115.448,-1337.244 1130.364,-1335.348 1137.468,-1334.445 1129.221,-1269.54 1125.294,-1238.634 1234.56,-1224.747 1286.592,-1218.135 1288.464,-1232.853 1289.355,-1239.861 1366.14,-1230.102 1367.313,-1239.327 1379.73,-1237.749 1385.643,-1236.999 1382.976,-1216.032 1381.707,-1206.045 1417.677,-1201.476 1434.804,-1199.298 1420.71,-1088.415 1413.999,-1035.615 1654.38,-1005.063 1768.845,-990.516 1740.852,-1019.376 1775.742,-1053.198 1793.154,-1035.234 1801.446,-1026.681 1865.706,-1088.271 1889.376,-1063.473 1948.53,-1120.122 1941.474,-1127.49 1950.141,-1135.788 1879.86,-1209.177 1846.392,-1244.124 1827.978,-1226.49 1819.68,-1235.157 1832.154,-1247.1 1838.094,-1252.788 1775.757,-1317.783 1767.084,-1309.494 1610.625,-1472.934 1536.12,-1550.763 1544.757,-1559.031 1521.378,-1583.481 1510.248,-1595.124 1491.831,-1577.487 1483.53,-1586.154 1496.007,-1598.103 1501.947,-1603.791 1431.504,-1677.291 1397.958,-1712.292 1389.561,-1704.243 1381.257,-1712.907 1389.681,-1720.98 1319.403,-1794.375 1285.935,-1829.325 1277.46,-1821.204 1269.159,-1829.868 1277.637,-1837.995 1207.329,-1911.354 1173.846,-1946.289 1165.362,-1938.165 1157.058,-1946.829 1165.584,-1955.001 1095.3,-2028.39 1061.832,-2063.34 1053.261,-2055.126 1044.96,-2063.79 1053.531,-2072.007 983.25,-2145.402 949.785,-2180.352 941.148,-2172.084 939.045,-2174.277 781.92,-2023.866 740.718,-1989.798 798.336,-1920.096 825.774,-1886.904 760.131,-1832.64 775.02,-1814.628 782.112,-1806.051 717.879,-1752.954 687.294,-1727.67 689.052,-1725.531 683.754,-1683.846 931.356,-1652.376 1049.259,-1637.391 1045.092,-1604.604 " />
</svg>