<?xml version="1.0" encoding="UTF-8" standalone="no"?>
<svg
   xmlns:dc="http://purl.org/dc/elements/1.1/"
   xmlns:cc="http://creativecommons.org/ns#"
   xmlns:rdf="http://www.w3.org/1999/02/22-rdf-syntax-ns#"
   xmlns:svg="http://www.w3.org/2000/svg"
   xmlns="http://www.w3.org/2000/svg"
   xmlns:sodipodi="http://sodipodi.sourceforge.net/DTD/sodipodi-0.dtd"
   xmlns:inkscape="http://www.inkscape.org/namespaces/inkscape"
   version="1.1"
   id="Map"
   class="gen-by-synoptic-designer"
   viewBox="-15.066807 -9.9622019 1535.8583 760.55228"
   xml:space="preserve"
   sodipodi:docname="R+1-edit.svg"
   width="1535.8583"
   height="760.55231"
   inkscape:version="0.92.2 (5c3e80d, 2017-08-06)"><metadata
     id="metadata1251"><rdf:RDF><cc:Work
         rdf:about=""><dc:format>image/svg+xml</dc:format><dc:type
           rdf:resource="http://purl.org/dc/dcmitype/StillImage" /></cc:Work></rdf:RDF></metadata><defs
     id="defs1249" /><sodipodi:namedview
     pagecolor="#ffffff"
     bordercolor="#666666"
     borderopacity="1"
     objecttolerance="10"
     gridtolerance="10"
     guidetolerance="10"
     inkscape:pageopacity="0"
     inkscape:pageshadow="2"
     inkscape:window-width="1920"
     inkscape:window-height="1017"
     id="namedview1247"
     showgrid="false"
     inkscape:zoom="0.43355089"
     inkscape:cx="720.25322"
     inkscape:cy="460.31754"
     inkscape:window-x="-8"
     inkscape:window-y="-8"
     inkscape:window-maximized="1"
     inkscape:current-layer="Map" /><polygon
     id="23929072162"
     points="46.8213,-19.9329 49.4581,-19.9329 51.2913,-19.9329 51.2913,-21.3486 51.2913,-22.3329 46.8213,-22.3329 46.8213,-20.9171 "
     transform="matrix(22.344569,0,0,22.344569,318.81572,523.4386)" /><polygon
     id="23929063303"
     points="0.559,-3.10286 0.559,-2.70286 1.65031,-2.70286 2.409,-2.70286 2.409,-3.08629 2.409,-3.35286 2.79243,-3.35286 3.059,-3.35286 3.059,-5.66525 3.059,-7.27286 0.359,-7.27286 0.359,-8.23286 -1.00956,-8.23286 -1.961,-8.23286 -1.961,-6.3157 -1.961,-4.98286 -3.861,-4.98286 -3.861,-3.10286 "
     transform="matrix(22.344569,0,0,22.344569,318.81572,523.4386)" /><polygon
     id="23929064591"
     points="-0.299182,1.70714 -0.881,1.70714 -0.881,-0.09286 0.137182,-0.09286 0.719,-0.09286 0.719,1.70714 "
     transform="matrix(22.344569,0,0,22.344569,318.81572,523.4386)" /><polygon
     id="polygon1036"
     points="-1.061,0.688958 -1.061,1.70714 -2.84282,1.70714 -3.861,1.70714 -3.861,-0.0746782 -3.861,-1.09286 -2.07918,-1.09286 -1.061,-1.09286 "
     transform="matrix(22.344569,0,0,22.344569,318.81572,523.4386)" /><polygon
     id="23929065190"
     points="44.6313,-1.25286 43.4858,-1.25286 42.8313,-1.25286 42.8313,-2.27104 42.8313,-2.85286 43.9767,-2.85286 44.6313,-2.85286 "
     transform="matrix(22.344569,0,0,22.344569,318.81572,523.4386)" /><polygon
     id="polygon1041"
     points="41.1713,-2.73286 39.3895,-2.73286 38.3713,-2.73286 38.3713,-4.51468 38.3713,-5.53286 41.1713,-5.53286 41.1713,-3.75104 "
     transform="matrix(22.344569,0,0,22.344569,318.81572,523.4386)" /><polygon
     id="23929065233"
     points="39.4113,-15.8629 39.4113,-16.8952 39.4113,-17.6129 37.5613,-17.6129 37.5613,-15.8629 37.5113,-15.8629 37.5113,-17.6526 37.5113,-17.6629 36.8613,-17.6629 36.8613,-18.3129 35.3913,-18.3129 35.3913,-13.9122 35.3913,-10.8529 37.975,-10.8529 39.7713,-10.8529 39.7713,-11.2304 39.7713,-11.4929 40.5971,-11.4929 41.1713,-11.4929 41.1713,-14.0629 40.3454,-14.0629 39.7713,-14.0629 39.7713,-15.8629 "
     transform="matrix(22.344569,0,0,22.344569,318.81572,523.4386)" /><polygon
     id="23929065532"
     points="49.3918,-16.9229 48.0713,-16.9229 48.0713,-14.0729 49.9707,-14.0729 51.2913,-14.0729 51.2913,-16.9229 "
     transform="matrix(22.344569,0,0,22.344569,318.81572,523.4386)" /><polygon
     id="23929065620"
     points="33.0913,-2.73286 34.743,-2.73286 35.8913,-2.73286 35.8913,-5.41098 35.8913,-7.27286 33.0913,-7.27286 33.0913,-4.59474 "
     transform="matrix(22.344569,0,0,22.344569,318.81572,523.4386)" /><polygon
     id="23929065767"
     points="43.4813,-6.19286 43.2313,-6.19286 43.2313,-3.13286 44.9113,-3.13286 44.9113,-1.90286 45.5613,-1.90286 45.5613,-1.51943 45.5613,-1.25286 47.2913,-1.25286 47.2913,-8.14286 45.206,-8.14286 43.7563,-8.14286 43.2106,-8.14286 42.8313,-8.14286 42.8313,-7.40549 42.8313,-6.89286 43.4813,-6.89286 43.4813,-6.47993 "
     transform="matrix(22.344569,0,0,22.344569,318.81572,523.4386)" /><polygon
     id="23929066004"
     points="31.0613,-1.27286 33.2613,-1.27286 33.2613,-2.02793 33.2613,-2.55286 31.9517,-2.55286 31.0413,-2.55286 31.0413,-3.37871 31.0413,-3.95286 32.8913,-3.95286 32.8913,-7.27286 29.7648,-7.27286 27.2213,-7.27286 27.2213,-3.73349 27.2213,-1.27286 30.3613,-1.27286 30.3613,-1.52286 30.7742,-1.52286 31.0613,-1.52286 "
     transform="matrix(22.344569,0,0,22.344569,318.81572,523.4386)" /><polygon
     id="23929066282"
     points="33.2313,0.12714 33.2313,0.540067 33.2313,0.82714 31.2079,0.82714 29.8013,0.82714 29.8013,3.06874 29.8013,4.62714 34.7413,4.62714 34.7413,1.26474 34.7413,-1.07286 33.6736,-1.07286 32.9313,-1.07286 32.9313,-0.364986 32.9313,0.12714 "
     transform="matrix(22.344569,0,0,22.344569,318.81572,523.4386)" /><polygon
     id="23929066458"
     points="40.9713,1.65714 41.7971,1.65714 42.3713,1.65714 42.3713,2.4535 42.3713,3.00714 42.8255,3.00714 43.1413,3.00714 43.1413,4.09845 43.1413,4.85714 44.9913,4.85714 44.9913,3.32714 45.0413,3.32714 45.0413,4.52714 45.6913,4.52714 45.6913,5.17714 46.6351,5.17714 47.2913,5.17714 47.2913,1.54929 47.2913,-0.97286 42.9213,-0.97286 42.9213,-0.825386 42.9213,-0.72286 42.5084,-0.72286 42.2213,-0.72286 42.2213,-0.97286 40.9713,-0.97286 "
     transform="matrix(22.344569,0,0,22.344569,318.81572,523.4386)" /><polygon
     id="23929066742"
     points="40.7713,8.62714 40.7713,6.19677 40.7713,4.50714 39.1196,4.50714 37.9713,4.50714 37.9713,8.62714 39.623,8.62714 "
     transform="matrix(22.344569,0,0,22.344569,318.81572,523.4386)" /><polygon
     id="23929067754"
     points="-3.711,-13.6829 -3.711,-13.2994 -3.711,-13.0329 -4.011,-13.0329 -4.011,-11.2829 0.359,-11.2829 0.359,-13.6829 "
     transform="matrix(22.344569,0,0,22.344569,318.81572,523.4386)" /><polygon
     id="23929067851"
     points="-4.011,-14.8812 -4.011,-13.7329 0.359,-13.7329 0.359,-15.3846 0.359,-16.5329 -4.011,-16.5329 "
     transform="matrix(22.344569,0,0,22.344569,318.81572,523.4386)" /><polygon
     id="23929067952"
     points="0.359,-19.0986 -3.341,-19.0986 -3.341,-17.4829 -3.73623,-17.4829 -4.011,-17.4829 -4.011,-16.5829 -1.43316,-16.5829 0.359,-16.5829 0.359,-18.0669 "
     transform="matrix(22.344569,0,0,22.344569,318.81572,523.4386)" /><polygon
     id="23929068055"
     points="-4.061,-16.7242 -4.061,-17.4829 -5.291,-17.4829 -5.291,-16.3916 -5.291,-15.6329 -4.061,-15.6329 "
     transform="matrix(22.344569,0,0,22.344569,318.81572,523.4386)" /><polygon
     id="23929068171"
     points="-5.291,-18.175 -5.291,-17.5329 -4.1702,-17.5329 -3.391,-17.5329 -3.391,-18.4565 -3.391,-19.0986 -4.5118,-19.0986 -5.291,-19.0986 "
     transform="matrix(22.344569,0,0,22.344569,318.81572,523.4386)" /><polygon
     id="23929068266"
     points="-7.20972,-19.0986 -7.911,-19.0986 -7.911,-16.5786 -6.45986,-16.5786 -5.451,-16.5786 -5.451,-17.5932 -5.451,-18.2986 -6.201,-18.2986 -6.201,-19.0986 "
     transform="matrix(22.344569,0,0,22.344569,318.81572,523.4386)" /><polygon
     id="23929068399"
     points="-4.061,-12.0552 -4.061,-14.5473 -4.061,-15.5829 -4.88095,-15.5829 -5.451,-15.5829 -5.451,-16.5286 -7.961,-16.5286 -7.961,-18.4986 -8.441,-18.4986 -8.441,-19.0986 -10.6236,-19.0986 -12.141,-19.0986 -12.141,-17.5969 -12.141,-16.5529 -10.641,-16.5529 -10.641,-14.3997 -10.641,-12.9029 -5.321,-12.9029 -5.321,-11.552 -5.321,-10.6129 -4.061,-10.6129 "
     transform="matrix(22.344569,0,0,22.344569,318.81572,523.4386)" /><polygon
     id="23929068655"
     points="0.359,-11.0829 -2.13036,-11.0829 -3.861,-11.0829 -3.861,-10.0564 -3.861,-9.34286 -3.461,-9.34286 -3.461,-8.28286 0.359,-8.28286 0.359,-9.93457 "
     transform="matrix(22.344569,0,0,22.344569,318.81572,523.4386)" /><polygon
     id="23929068797"
     points="24.3713,4.62714 25.9404,4.62714 27.0313,4.62714 27.0313,2.00211 27.0313,0.17714 26.1313,0.17714 26.1313,0.531077 26.1313,0.77714 24.3713,0.77714 "
     transform="matrix(22.344569,0,0,22.344569,318.81572,523.4386)" /><polygon
     id="23929068915"
     points="29.6013,4.62714 29.6013,0.62714 28.1213,0.62714 28.1213,0.361687 28.1213,0.17714 27.5078,0.17714 27.0813,0.17714 27.0813,2.80217 27.0813,4.62714 "
     transform="matrix(22.344569,0,0,22.344569,318.81572,523.4386)" /><polygon
     id="23929069047"
     points="29.6013,-1.07286 29.1235,-1.07286 28.7913,-1.07286 28.7913,-0.600944 28.7913,-0.27286 28.4255,-0.27286 28.1713,-0.27286 28.1713,0.57714 29.6013,0.57714 "
     transform="matrix(22.344569,0,0,22.344569,318.81572,523.4386)" /><polygon
     id="23929069168"
     points="28.1213,-0.29786 28.1213,-1.22286 27.1713,-1.22286 27.1713,-2.27287 27.1713,-3.00286 26.5578,-3.00286 26.1313,-3.00286 26.1313,0.12714 27.0563,0.12714 27.6845,0.12714 28.1213,0.12714 "
     transform="matrix(22.344569,0,0,22.344569,318.81572,523.4386)" /><polygon
     id="23929069344"
     points="25.38,0.72714 26.0813,0.72714 26.0813,-0.912768 26.0813,-2.05286 25.0726,-2.05286 24.3713,-2.05286 24.3713,-0.412952 24.3713,0.72714 "
     transform="matrix(22.344569,0,0,22.344569,318.81572,523.4386)" /><polygon
     id="23929069425"
     points="27.1713,-3.16286 27.1713,-5.58733 27.1713,-7.27286 25.5196,-7.27286 24.3713,-7.27286 24.3713,-3.16286 26.023,-3.16286 "
     transform="matrix(22.344569,0,0,22.344569,318.81572,523.4386)" /><polygon
     id="23929069535"
     points="32.4413,-3.90286 31.6449,-3.90286 31.0913,-3.90286 31.0913,-3.136 31.0913,-2.60286 32.4413,-2.60286 32.4413,-3.36972 "
     transform="matrix(22.344569,0,0,22.344569,318.81572,523.4386)" /><polygon
     id="23929069619"
     points="38.7713,2.00714 38.7713,0.529453 38.7713,-0.83705 38.7713,-1.07286 36.512,-1.07286 34.9413,-1.07286 34.9413,4.62714 36.6992,4.62714 37.9213,4.62714 37.9213,4.52686 37.9213,4.45714 39.6025,4.45714 40.7713,4.45714 40.7713,3.0119 40.7713,2.00714 "
     transform="matrix(22.344569,0,0,22.344569,318.81572,523.4386)" /><polygon
     id="23929069787"
     points="38.8213,1.95714 40.2213,1.95714 40.2213,1.42623 40.2213,1.05714 40.7713,1.05714 40.7713,0.136904 40.7713,-0.50286 40.0313,-0.50286 40.0313,-0.8391 40.0313,-1.07286 39.1213,-1.07286 39.1213,-0.689428 39.1213,-0.42286 38.8213,-0.42286 "
     transform="matrix(22.344569,0,0,22.344569,318.81572,523.4386)" /><polygon
     id="23929069924"
     points="29.8013,0.22714 30.3322,0.22714 30.7013,0.22714 30.7013,0.551582 30.7013,0.77714 32.8813,0.77714 32.8813,-1.07286 29.8013,-1.07286 29.8013,-0.305996 "
     transform="matrix(22.344569,0,0,22.344569,318.81572,523.4386)" /><polygon
     id="23929070049"
     points="40.9713,8.62714 42.7823,8.62714 44.0413,8.62714 44.0413,4.90714 43.5104,4.90714 43.1413,4.90714 43.1413,5.30827 43.1413,5.58714 41.8612,5.58714 40.9713,5.58714 "
     transform="matrix(22.344569,0,0,22.344569,318.81572,523.4386)" /><polygon
     id="23929070158"
     points="47.2913,6.6215 47.2913,5.22714 45.9345,5.22714 44.9913,5.22714 44.9913,5.03837 44.9913,4.90714 44.0913,4.90714 44.0913,7.10155 44.0913,8.62714 47.2913,8.62714 "
     transform="matrix(22.344569,0,0,22.344569,318.81572,523.4386)" /><polygon
     id="23929070270"
     points="40.9713,4.84816 40.9713,5.53714 43.0913,5.53714 43.0913,4.0742 43.0913,3.05714 42.0826,3.05714 41.3813,3.05714 41.3813,3.85714 40.9713,3.85714 "
     transform="matrix(22.344569,0,0,22.344569,318.81572,523.4386)" /><polygon
     id="23929070382"
     points="42.3213,1.70714 40.9713,1.70714 40.9713,3.00714 42.3213,3.00714 42.3213,2.24028 "
     transform="matrix(22.344569,0,0,22.344569,318.81572,523.4386)" /><polygon
     id="23929070471"
     points="43.7813,-10.8629 43.7813,-9.28784 43.7813,-8.19286 45.8518,-8.19286 47.2913,-8.19286 47.2913,-10.8629 45.2207,-10.8629 "
     transform="matrix(22.344569,0,0,22.344569,318.81572,523.4386)" /><polygon
     id="23929070572"
     points="45.9213,-12.1129 42.8313,-12.1129 42.8313,-9.80047 42.8313,-8.19286 43.3622,-8.19286 43.7313,-8.19286 43.7313,-9.79737 43.7313,-10.9129 45.9213,-10.9129 45.9213,-11.6207 "
     transform="matrix(22.344569,0,0,22.344569,318.81572,523.4386)" /><polygon
     id="23929070703"
     points="44.1813,-12.9297 44.1813,-13.4629 42.8313,-13.4629 42.8313,-12.696 42.8313,-12.1629 44.1813,-12.1629 "
     transform="matrix(22.344569,0,0,22.344569,318.81572,523.4386)" /><polygon
     id="23929070800"
     points="44.2313,-12.1629 45.9066,-12.1629 47.0713,-12.1629 47.0713,-13.1716 47.0713,-13.8729 44.2313,-13.8729 44.2313,-12.8641 "
     transform="matrix(22.344569,0,0,22.344569,318.81572,523.4386)" /><polygon
     id="23929070904"
     points="51.2913,-13.8729 48.8314,-13.8729 47.1213,-13.8729 47.1213,-12.8346 47.1213,-12.1129 46.4429,-12.1129 45.9713,-12.1129 45.9713,-10.9129 49.0413,-10.9129 51.2913,-10.9129 51.2913,-12.6589 "
     transform="matrix(22.344569,0,0,22.344569,318.81572,523.4386)" /><polygon
     id="23929071052"
     points="40.2013,-6.60286 40.7735,-6.60286 41.1713,-6.60286 41.1713,-8.6085 41.1713,-10.0029 40.7878,-10.0029 40.5213,-10.0029 40.5213,-10.3863 40.5213,-10.6529 37.4951,-10.6529 35.3913,-10.6529 35.3913,-8.68851 35.3913,-7.32286 35.7157,-7.32286 35.9413,-7.32286 35.9413,-6.37313 35.9413,-5.71286 40.2013,-5.71286 40.2013,-6.23787 "
     transform="matrix(22.344569,0,0,22.344569,318.81572,523.4386)" /><polygon
     id="23929071244"
     points="38.1913,-3.13286 38.1913,-4.62529 38.1913,-5.66286 35.9413,-5.66286 35.9413,-4.70133 35.9413,-4.03286 36.4132,-4.03286 36.7413,-4.03286 36.7413,-3.5521 36.7413,-3.13286 "
     transform="matrix(22.344569,0,0,22.344569,318.81572,523.4386)" /><polygon
     id="23929071365"
     points="39.8213,-15.4129 39.8213,-14.1129 41.1713,-14.1129 41.1713,-15.4129 40.3749,-15.4129 "
     transform="matrix(22.344569,0,0,22.344569,318.81572,523.4386)" /><polygon
     id="23929071445"
     points="41.1713,-18.6629 39.4613,-18.6629 39.4613,-15.9129 41.1713,-15.9129 41.1713,-17.5351 "
     transform="matrix(22.344569,0,0,22.344569,318.81572,523.4386)" /><polygon
     id="23929071556"
     points="35.3913,-18.3629 36.6713,-18.3629 37.5613,-18.3629 37.5613,-17.9499 37.5613,-17.6629 38.4613,-17.6629 38.4613,-22.3329 35.3913,-22.3329 35.3913,-19.991 "
     transform="matrix(22.344569,0,0,22.344569,318.81572,523.4386)" /><polygon
     id="23929071675"
     points="38.5113,-17.6629 39.4113,-17.6629 39.4113,-18.2822 39.4113,-18.7129 40.4495,-18.7129 41.1713,-18.7129 41.1713,-20.0519 41.1713,-20.9829 41.0513,-20.9829 41.0513,-22.3329 39.5529,-22.3329 38.5113,-22.3329 "
     transform="matrix(22.344569,0,0,22.344569,318.81572,523.4386)" /><polygon
     id="23929071788"
     points="42.9813,-14.4729 43.5122,-14.4729 43.8813,-14.4729 43.8813,-15.2456 43.8813,-15.7829 42.9813,-15.7829 42.9813,-15.0101 "
     transform="matrix(22.344569,0,0,22.344569,318.81572,523.4386)" /><polygon
     id="23929071869"
     points="43.9313,-15.7829 43.9313,-14.0729 48.0213,-14.0729 48.0213,-15.7829 45.6086,-15.7829 "
     transform="matrix(22.344569,0,0,22.344569,318.81572,523.4386)" /><polygon
     id="23929071973"
     points="46.8213,-16.325 46.8213,-15.8329 48.0213,-15.8329 48.0213,-16.5407 48.0213,-17.0329 46.8213,-17.0329 "
     transform="matrix(22.344569,0,0,22.344569,318.81572,523.4386)" /><polygon
     id="23929072067"
     points="51.2913,-19.8829 48.6544,-19.8829 46.8213,-19.8829 46.8213,-18.2312 46.8213,-17.0829 51.2913,-17.0829 51.2913,-18.7346 "
     transform="matrix(22.344569,0,0,22.344569,318.81572,523.4386)" /><polygon
     id="23929072278"
     points="43.5858,-20.8329 41.3713,-20.8329 41.3713,-18.6502 41.3713,-17.1329 42.0213,-17.1329 42.0213,-16.6829 41.3713,-16.6829 41.3713,-12.9829 42.1145,-12.9829 42.6313,-12.9829 42.6313,-14.0093 42.6313,-14.7229 42.9313,-14.7229 42.9313,-15.3776 42.9313,-15.8329 46.7713,-15.8329 46.7713,-18.2367 46.7713,-19.9079 46.7713,-20.8329 "
     transform="matrix(22.344569,0,0,22.344569,318.81572,523.4386)" /><polygon
     id="23929095411"
     points="24.7813,-2.10286 26.0813,-2.10286 26.0813,-3.00286 24.7813,-3.00286 24.7813,-2.47195 "
     transform="matrix(22.344569,0,0,22.344569,318.81572,523.4386)" /><polygon
     id="23929095499"
     points="-5.521,-5.23286 -6.171,-5.23286 -6.171,-5.88286 -12.141,-5.88286 -12.141,-2.41286 -9.8699,-2.41286 -8.291,-2.41286 -8.291,-1.79347 -8.291,-1.36286 -7.02568,-1.36286 -5.521,-1.36286 "
     transform="matrix(22.344569,0,0,22.344569,318.81572,523.4386)" /><polygon
     id="23929095641"
     points="-8.341,-1.09153 -8.341,-2.36286 -10.5826,-2.36286 -12.141,-2.36286 -12.141,-0.534185 -12.141,0.73714 -9.8994,0.73714 -8.341,0.73714 "
     transform="matrix(22.344569,0,0,22.344569,318.81572,523.4386)" /><polygon
     id="23929095744"
     points="-5.521,0.18714 -5.521,-1.01286 -6.171,-1.01286 -6.171,-1.18983 -6.171,-1.31286 -8.291,-1.31286 -8.291,0.73714 -6.421,0.73714 -6.421,0.18714 "
     transform="matrix(22.344569,0,0,22.344569,318.81572,523.4386)" /><polygon
     id="23929095857"
     points="-12.141,-9.55286 -12.141,-7.50592 -12.141,-6.08286 -6.171,-6.08286 -6.171,-6.73286 -5.78757,-6.73286 -5.521,-6.73286 -5.521,-10.6029 -7.15501,-10.6029 -8.291,-10.6029 -8.291,-9.55286 "
     transform="matrix(22.344569,0,0,22.344569,318.81572,523.4386)" /><polygon
     id="23929095998"
     points="-10.791,-12.5829 -11.5874,-12.5829 -12.141,-12.5829 -12.141,-10.825 -12.141,-9.60286 -8.341,-9.60286 -8.341,-11.4315 -8.341,-12.7029 -10.791,-12.7029 "
     transform="matrix(22.344569,0,0,22.344569,318.81572,523.4386)" /><polygon
     id="23929096103"
     points="-6.05191,-12.1529 -6.421,-12.1529 -6.421,-12.7029 -7.5241,-12.7029 -8.291,-12.7029 -8.291,-11.4936 -8.291,-10.6529 -7.04042,-10.6529 -6.171,-10.6529 -6.171,-10.9529 -5.521,-10.9529 -5.521,-11.6607 -5.521,-12.1529 "
     transform="matrix(22.344569,0,0,22.344569,318.81572,523.4386)" /><polygon
     id="23929100042"
     points="-7.241,4.52714 -7.241,8.62714 -4.441,8.62714 -4.441,4.52714 -6.09271,4.52714 "
     transform="matrix(22.344569,0,0,22.344569,318.81572,523.4386)" /><polygon
     id="23929100170"
     points="1.909,6.29705 1.909,4.67714 0.139315,4.67714 -1.091,4.67714 -1.091,7.00723 -1.091,8.62714 0.678685,8.62714 1.909,8.62714 "
     transform="matrix(22.344569,0,0,22.344569,318.81572,523.4386)" /><polygon
     id="23929100300"
     points="-4.041,1.70714 -4.041,0.055434 -4.041,-1.09286 -5.321,-1.09286 -5.321,0.104627 -5.321,0.93714 -11.491,0.93714 -11.491,1.32057 -11.491,1.58714 -11.8744,1.58714 -12.141,1.58714 -12.141,3.03714 -10.641,3.03714 -10.641,5.44981 -10.641,7.12714 -8.66485,7.12714 -7.291,7.12714 -7.291,5.56392 -7.291,4.47714 -6.90757,4.47714 -6.641,4.47714 -6.641,2.91982 -6.641,1.83714 -4.341,1.83714 -4.341,1.70714 "
     transform="matrix(22.344569,0,0,22.344569,318.81572,523.4386)" /><polygon
     id="23929100537"
     points="-4.441,1.88714 -5.70927,1.88714 -6.591,1.88714 -6.591,2.88406 -6.591,3.57714 -5.741,3.57714 -5.741,4.47714 -4.97414,4.47714 -4.441,4.47714 "
     transform="matrix(22.344569,0,0,22.344569,318.81572,523.4386)" /><polygon
     id="23929100649"
     points="-1.141,4.67714 -2.96967,4.67714 -4.241,4.67714 -4.241,7.00723 -4.241,8.62714 -1.141,8.62714 -1.141,6.29705 "
     transform="matrix(22.344569,0,0,22.344569,318.81572,523.4386)" /><polygon
     id="23929100737"
     points="-2.191,3.01083 -2.191,1.88714 -4.241,1.88714 -4.241,3.50345 -4.241,4.62714 -2.191,4.62714 "
     transform="matrix(22.344569,0,0,22.344569,318.81572,523.4386)" /><polygon
     id="23929100840"
     points="-2.141,4.0981 -2.141,4.62714 -0.191,4.62714 -0.191,3.86618 -0.191,3.33714 -2.141,3.33714 "
     transform="matrix(22.344569,0,0,22.344569,318.81572,523.4386)" /><polygon
     id="23929100977"
     points="-0.191,3.28714 -0.191,1.98714 -1.541,1.98714 -1.541,3.28714 -0.744642,3.28714 "
     transform="matrix(22.344569,0,0,22.344569,318.81572,523.4386)" /><polygon
     id="23929101080"
     points="5.359,-0.44286 4.97557,-0.44286 4.709,-0.44286 4.709,-1.09286 1.249,-1.09286 1.249,-0.709428 1.249,-0.44286 0.999,-0.44286 0.999,0.990585 0.999,1.98714 -0.141,1.98714 -0.141,2.76875 -0.141,3.31214 -0.141,4.62714 3.10342,4.62714 5.359,4.62714 5.359,1.63637 "
     transform="matrix(22.344569,0,0,22.344569,318.81572,523.4386)" /><polygon
     id="23929104002"
     points="5.209,-2.70286 6.21182,-2.70286 6.909,-2.70286 7.73485,-2.70286 8.309,-2.70286 8.309,-3.65286 8.70423,-3.65286 8.979,-3.65286 8.979,-4.17286 9.579,-4.17286 9.579,-6.00153 9.579,-7.27286 6.08609,-7.27286 3.65776,-7.27286 3.259,-7.27286 3.259,-4.94572 3.259,-2.95918 3.259,-2.70286 4.509,-2.70286 4.509,-2.95286 4.92193,-2.95286 5.209,-2.95286 "
     transform="matrix(22.344569,0,0,22.344569,318.81572,523.4386)" /><polygon
     id="23929104217"
     points="5.809,1.21714 5.809,1.60057 5.809,1.86714 7.619,1.86714 7.619,4.62714 10.4564,4.62714 12.429,4.62714 12.429,1.03714 9.11379,1.03714 6.809,1.03714 6.809,-1.09286 5.559,-1.09286 5.559,0.269797 5.559,1.21714 "
     transform="matrix(22.344569,0,0,22.344569,318.81572,523.4386)" /><polygon
     id="23929104399"
     points="7.009,0.83714 9.579,0.83714 9.579,-1.25286 8.84458,-1.25286 8.11279,-1.25286 7.959,-1.25286 7.959,-0.87286 7.009,-0.87286 7.009,0.13586 "
     transform="matrix(22.344569,0,0,22.344569,318.81572,523.4386)" /><polygon
     id="23929104495"
     points="8.309,-2.65286 7.009,-2.65286 7.009,-1.30286 8.309,-1.30286 8.309,-2.09922 "
     transform="matrix(22.344569,0,0,22.344569,318.81572,523.4386)" /><polygon
     id="23929104591"
     points="8.359,-2.2461 8.359,-1.30286 9.579,-1.30286 9.579,-2.65962 9.579,-3.60286 8.359,-3.60286 "
     transform="matrix(22.344569,0,0,22.344569,318.81572,523.4386)" /><polygon
     id="23929104722"
     points="9.629,-2.54286 9.629,-0.549015 9.629,0.83714 11.2807,0.83714 12.429,0.83714 12.429,-2.54286 10.7773,-2.54286 "
     transform="matrix(22.344569,0,0,22.344569,318.81572,523.4386)" /><polygon
     id="23929104817"
     points="9.629,-2.70286 12.429,-2.70286 12.429,-7.27286 9.629,-7.27286 9.629,-4.57704 "
     transform="matrix(22.344569,0,0,22.344569,318.81572,523.4386)" /><polygon
     id="23929104913"
     points="5.559,3.51576 5.559,4.62714 7.019,4.62714 7.019,4.09623 7.019,3.72714 7.569,3.72714 7.569,2.65943 7.569,1.91714 5.559,1.91714 "
     transform="matrix(22.344569,0,0,22.344569,318.81572,523.4386)" /><polygon
     id="23929107816"
     points="-3.861,-8.23286 -3.861,-5.93286 -3.211,-5.93286 -3.211,-5.40195 -3.211,-5.03286 -2.50313,-5.03286 -2.011,-5.03286 -2.011,-8.23286 -3.10231,-8.23286 "
     transform="matrix(22.344569,0,0,22.344569,318.81572,523.4386)" /><polygon
     id="23929113567"
     points="33.5308,6.37714 34.8374,6.37714 34.8374,4.92714 32.9579,4.92714 31.6513,4.92714 31.6513,6.37714 "
     transform="matrix(22.344569,0,0,22.344569,318.81572,523.4386)" /><polygon
     id="23929113627"
     points="34.8374,6.37714 37.6713,6.37714 37.6713,4.92714 34.8374,4.92714 34.8374,5.78249 "
     transform="matrix(22.344569,0,0,22.344569,318.81572,523.4386)" /><polygon
     id="23929113701"
     points="49.0413,-0.0121809 49.0413,-1.29786 47.5913,-1.29786 47.5913,0.551461 47.5913,1.83714 49.0413,1.83714 "
     transform="matrix(22.344569,0,0,22.344569,318.81572,523.4386)" /><polygon
     id="23929113776"
     points="49.0413,-10.6129 47.5913,-10.6129 47.5913,-1.29786 49.0413,-1.29786 49.0413,-6.79273 "
     transform="matrix(22.344569,0,0,22.344569,318.81572,523.4386)" /><polygon
     id="23929113882"
     points="43.4715,-22.5829 41.3513,-22.5829 41.3513,-21.1329 44.401,-21.1329 46.5213,-21.1329 46.5213,-22.5829 "
     transform="matrix(22.344569,0,0,22.344569,318.81572,523.4386)" /><polygon
     id="23929113940"
     points="4.87886,6.37714 6.735,6.37714 6.735,4.92714 4.06514,4.92714 2.209,4.92714 2.209,6.37714 "
     transform="matrix(22.344569,0,0,22.344569,318.81572,523.4386)" /><polygon
     id="23929114046"
     points="-7.541,8.02179 -7.541,7.42714 -10.941,7.42714 -10.941,5.01447 -10.941,3.33714 -11.7963,3.33714 -12.391,3.33714 -12.391,6.60516 -12.391,8.87714 -9.53001,8.87714 -7.541,8.87714 "
     transform="matrix(22.344569,0,0,22.344569,318.81572,523.4386)" /><polygon
     id="23929114158"
     points="-10.941,-16.2529 -11.7197,-16.2529 -12.261,-16.2529 -12.261,-14.2649 -12.261,-12.8829 -10.941,-12.8829 -10.941,-14.8708 "
     transform="matrix(22.344569,0,0,22.344569,318.81572,523.4386)" /><polygon
     id="23929114215"
     points="5.11782,-9.02286 3.664,-9.02286 3.664,-7.57286 5.75518,-7.57286 7.209,-7.57286 7.209,-9.02286 "
     transform="matrix(22.344569,0,0,22.344569,318.81572,523.4386)" /><polygon
     id="23929114282"
     points="3.65776,-8.42821 3.65776,-9.02286 1.88881,-9.02286 0.659,-9.02286 0.659,-8.16751 0.659,-7.57286 2.42795,-7.57286 3.65776,-7.57286 "
     transform="matrix(22.344569,0,0,22.344569,318.81572,523.4386)" /><polygon
     id="23929114369"
     points="29.5675,-9.02286 27.5913,-9.02286 27.5913,-7.57286 30.4339,-7.57286 32.4101,-7.57286 32.4101,-9.02286 "
     transform="matrix(22.344569,0,0,22.344569,318.81572,523.4386)" /><polygon
     id="23929114436"
     points="32.4163,-7.57286 33.9942,-7.57286 35.0913,-7.57286 35.0913,-10.0747 35.0913,-11.814 34.2359,-11.814 33.6413,-11.814 33.6413,-9.02286 32.9187,-9.02286 32.4163,-9.02286 32.4163,-8.16751 "
     transform="matrix(22.344569,0,0,22.344569,318.81572,523.4386)" /><polygon
     id="23929114540"
     points="33.6413,-15.8429 33.6413,-13.4803 33.6413,-11.8379 34.4966,-11.8379 35.0913,-11.8379 35.0913,-15.8429 34.2359,-15.8429 "
     transform="matrix(22.344569,0,0,22.344569,318.81572,523.4386)" /><polygon
     id="23929115808"
     points="41.1713,-5.53286 39.3895,-5.53286 38.3713,-5.53286 38.3713,-3.75104 38.3713,-2.73286 41.1713,-2.73286 41.1713,-4.51468 "
     transform="matrix(22.344569,0,0,22.344569,318.81572,523.4386)" /><polygon
     id="23929115827"
     points="42.8313,-1.25286 43.9767,-1.25286 44.6313,-1.25286 44.6313,-2.85286 43.4858,-2.85286 42.8313,-2.85286 42.8313,-1.83468 "
     transform="matrix(22.344569,0,0,22.344569,318.81572,523.4386)" /><polygon
     id="23929115846"
     points="-3.861,-1.09286 -3.861,1.70714 -1.061,1.70714 -1.061,-1.09286 -2.84282,-1.09286 "
     transform="matrix(22.344569,0,0,22.344569,318.81572,523.4386)" /><polygon
     id="23929115865"
     points="0.137182,1.70714 0.719,1.70714 0.719,-0.09286 -0.299182,-0.09286 -0.881,-0.09286 -0.881,1.70714 "
     transform="matrix(22.344569,0,0,22.344569,318.81572,523.4386)" /><polygon
     id="23929115991"
     points="45.5113,-1.85286 45.5113,-1.25286 44.9113,-1.25286 44.9113,-1.85286 45.2931,-1.85286 "
     transform="matrix(22.344569,0,0,22.344569,318.81572,523.4386)" /><polygon
     id="polygon1137"
     points="43.4313,-6.54286 43.4313,-6.24286 42.8313,-6.24286 42.8313,-6.54286 43.2131,-6.54286 "
     transform="matrix(22.344569,0,0,22.344569,318.81572,523.4386)" /><polygon
     id="polygon1139"
     points="43.8813,-14.4229 43.8813,-14.0729 42.9813,-14.0729 42.9813,-14.4229 43.554,-14.4229 "
     transform="matrix(22.344569,0,0,22.344569,318.81572,523.4386)" /><polygon
     id="polygon1141"
     points="41.9713,-17.0829 41.9713,-16.7329 41.3713,-16.7329 41.3713,-17.0829 41.7531,-17.0829 "
     transform="matrix(22.344569,0,0,22.344569,318.81572,523.4386)" /><polygon
     id="polygon1143"
     points="36.9113,-18.3129 37.2931,-18.3129 37.5113,-18.3129 37.5113,-17.931 37.5113,-17.7129 36.9113,-17.7129 36.9113,-18.0947 "
     transform="matrix(22.344569,0,0,22.344569,318.81572,523.4386)" /><polygon
     id="polygon1145"
     points="41.1713,-15.8629 41.1713,-15.4629 39.8213,-15.4629 39.8213,-15.8629 40.6804,-15.8629 "
     transform="matrix(22.344569,0,0,22.344569,318.81572,523.4386)" /><polygon
     id="polygon1147"
     points="39.8213,-10.8529 39.8213,-11.1429 40.5013,-11.1429 40.5013,-10.8529 40.0686,-10.8529 "
     transform="matrix(22.344569,0,0,22.344569,318.81572,523.4386)" /><polygon
     id="polygon1149"
     points="40.5713,-10.6529 40.9531,-10.6529 41.1713,-10.6529 41.1713,-10.271 41.1713,-10.0529 40.5713,-10.0529 40.5713,-10.4347 "
     transform="matrix(22.344569,0,0,22.344569,318.81572,523.4386)" /><polygon
     id="polygon1151"
     points="40.2513,-6.55286 40.4104,-6.55286 40.5013,-6.55286 40.5013,-6.01831 40.5013,-5.71286 40.2513,-5.71286 40.2513,-6.24741 "
     transform="matrix(22.344569,0,0,22.344569,318.81572,523.4386)" /><polygon
     id="polygon1153"
     points="36.6913,-3.98286 36.6913,-3.30286 35.9413,-3.30286 35.9413,-3.98286 36.4186,-3.98286 "
     transform="matrix(22.344569,0,0,22.344569,318.81572,523.4386)" /><polygon
     id="polygon1155"
     points="32.8913,-3.90286 32.8913,-2.60286 32.4913,-2.60286 32.4913,-3.90286 32.7458,-3.90286 "
     transform="matrix(22.344569,0,0,22.344569,318.81572,523.4386)" /><polygon
     id="polygon1157"
     points="30.1104,0.77714 29.8013,0.77714 29.8013,0.27714 30.3422,0.27714 30.6513,0.27714 30.6513,0.77714 "
     transform="matrix(22.344569,0,0,22.344569,318.81572,523.4386)" /><polygon
     id="polygon1159"
     points="28.1713,-1.07286 28.534,-1.07286 28.7413,-1.07286 28.7413,-0.595587 28.7413,-0.32286 28.1713,-0.32286 28.1713,-0.800133 "
     transform="matrix(22.344569,0,0,22.344569,318.81572,523.4386)" /><polygon
     id="polygon1161"
     points="40.2713,1.10714 40.5895,1.10714 40.7713,1.10714 40.7713,1.64805 40.7713,1.95714 40.2713,1.95714 40.2713,1.41623 "
     transform="matrix(22.344569,0,0,22.344569,318.81572,523.4386)" /><polygon
     id="polygon1163"
     points="40.9713,3.05714 41.2004,3.05714 41.3313,3.05714 41.3313,3.53441 41.3313,3.80714 40.9713,3.80714 40.9713,3.32987 "
     transform="matrix(22.344569,0,0,22.344569,318.81572,523.4386)" /><polygon
     id="polygon1165"
     points="45.4231,4.57714 45.6413,4.57714 45.6413,5.17714 45.2595,5.17714 45.0413,5.17714 45.0413,4.57714 "
     transform="matrix(22.344569,0,0,22.344569,318.81572,523.4386)" /><polygon
     id="polygon1167"
     points="44.6313,-1.25286 43.4858,-1.25286 42.8313,-1.25286 42.8313,-2.27104 42.8313,-2.85286 43.9767,-2.85286 44.6313,-2.85286 "
     transform="matrix(22.344569,0,0,22.344569,318.81572,523.4386)" /><polygon
     id="polygon1169"
     points="38.3713,-5.53286 40.1531,-5.53286 41.1713,-5.53286 41.1713,-3.75104 41.1713,-2.73286 38.3713,-2.73286 38.3713,-4.51468 "
     transform="matrix(22.344569,0,0,22.344569,318.81572,523.4386)" /><polygon
     id="23929116065"
     points="31.6013,6.42714 35.464,6.42714 37.6713,6.42714 37.6713,5.47259 37.6713,4.92714 31.6013,4.92714 31.6013,5.88169 "
     transform="matrix(22.344569,0,0,22.344569,318.81572,523.4386)" /><polygon
     id="23929116084"
     points="49.0913,-10.6129 47.5913,-10.6129 47.5913,1.88714 49.0913,1.88714 49.0913,-6.06741 "
     transform="matrix(22.344569,0,0,22.344569,318.81572,523.4386)" /><polygon
     id="23929116103"
     points="41.3513,-22.6329 41.3513,-21.6783 41.3513,-21.1329 44.6413,-21.1329 46.5213,-21.1329 46.5213,-22.6329 43.2313,-22.6329 "
     transform="matrix(22.344569,0,0,22.344569,318.81572,523.4386)" /><polygon
     id="23929116127"
     points="35.0913,-12.8674 35.0913,-15.8929 33.5913,-15.8929 33.5913,-11.5529 33.5913,-9.07286 29.7413,-9.07286 27.5413,-9.07286 27.5413,-7.57286 35.0913,-7.57286 "
     transform="matrix(22.344569,0,0,22.344569,318.81572,523.4386)" /><polygon
     id="23929116146"
     points="45.6413,4.57714 45.2595,4.57714 45.0413,4.57714 45.0413,4.95896 45.0413,5.17714 45.6413,5.17714 45.6413,4.79532 "
     transform="matrix(22.344569,0,0,22.344569,318.81572,523.4386)" /><polygon
     id="23929116165"
     points="40.9713,3.05714 40.9713,3.80714 41.3313,3.80714 41.3313,3.05714 41.1022,3.05714 "
     transform="matrix(22.344569,0,0,22.344569,318.81572,523.4386)" /><polygon
     id="23929116184"
     points="40.7713,1.10714 40.4531,1.10714 40.2713,1.10714 40.2713,1.64805 40.2713,1.95714 40.7713,1.95714 40.7713,1.41623 "
     transform="matrix(22.344569,0,0,22.344569,318.81572,523.4386)" /><polygon
     id="23929116203"
     points="45.1295,-1.85286 44.9113,-1.85286 44.9113,-1.25286 45.2931,-1.25286 45.5113,-1.25286 45.5113,-1.85286 "
     transform="matrix(22.344569,0,0,22.344569,318.81572,523.4386)" /><polygon
     id="23929116222"
     points="35.9413,-3.98286 35.9413,-3.30286 36.6913,-3.30286 36.6913,-3.98286 36.214,-3.98286 "
     transform="matrix(22.344569,0,0,22.344569,318.81572,523.4386)" /><polygon
     id="23929116241"
     points="32.8913,-3.90286 32.6367,-3.90286 32.4913,-3.90286 32.4913,-3.07559 32.4913,-2.60286 32.8913,-2.60286 32.8913,-3.43013 "
     transform="matrix(22.344569,0,0,22.344569,318.81572,523.4386)" /><polygon
     id="23929116260"
     points="30.3422,0.77714 30.6513,0.77714 30.6513,0.27714 30.1104,0.27714 29.8013,0.27714 29.8013,0.77714 "
     transform="matrix(22.344569,0,0,22.344569,318.81572,523.4386)" /><polygon
     id="23929116279"
     points="28.7413,-0.800133 28.7413,-1.07286 28.3786,-1.07286 28.1713,-1.07286 28.1713,-0.595587 28.1713,-0.32286 28.534,-0.32286 28.7413,-0.32286 "
     transform="matrix(22.344569,0,0,22.344569,318.81572,523.4386)" /><polygon
     id="23929116298"
     points="24.7313,-3.00286 24.3713,-3.00286 24.3713,-2.10286 24.7313,-2.10286 24.7313,-2.67559 "
     transform="matrix(22.344569,0,0,22.344569,318.81572,523.4386)" /><polygon
     id="23929116317"
     points="41.1713,-10.4347 41.1713,-10.6529 40.7895,-10.6529 40.5713,-10.6529 40.5713,-10.271 40.5713,-10.0529 40.9531,-10.0529 41.1713,-10.0529 "
     transform="matrix(22.344569,0,0,22.344569,318.81572,523.4386)" /><polygon
     id="23929116336"
     points="40.5013,-6.55286 40.3422,-6.55286 40.2513,-6.55286 40.2513,-6.01831 40.2513,-5.71286 40.5013,-5.71286 40.5013,-6.24741 "
     transform="matrix(22.344569,0,0,22.344569,318.81572,523.4386)" /><polygon
     id="23929116355"
     points="42.8313,-6.54286 42.8313,-6.24286 43.4313,-6.24286 43.4313,-6.54286 43.0495,-6.54286 "
     transform="matrix(22.344569,0,0,22.344569,318.81572,523.4386)" /><polygon
     id="23929116374"
     points="39.8213,-15.8629 39.8213,-15.4629 41.1713,-15.4629 41.1713,-15.8629 40.3122,-15.8629 "
     transform="matrix(22.344569,0,0,22.344569,318.81572,523.4386)" /><polygon
     id="23929116393"
     points="41.3713,-17.0829 41.3713,-16.7329 41.9713,-16.7329 41.9713,-17.0829 41.5895,-17.0829 "
     transform="matrix(22.344569,0,0,22.344569,318.81572,523.4386)" /><polygon
     id="23929116412"
     points="42.9813,-14.4229 42.9813,-14.0729 43.8813,-14.0729 43.8813,-14.4229 43.3086,-14.4229 "
     transform="matrix(22.344569,0,0,22.344569,318.81572,523.4386)" /><polygon
     id="23929116431"
     points="36.9113,-18.3129 36.9113,-17.7129 37.5113,-17.7129 37.5113,-18.3129 37.1295,-18.3129 "
     transform="matrix(22.344569,0,0,22.344569,318.81572,523.4386)" /><polygon
     id="23929116450"
     points="40.254,-10.8529 40.5013,-10.8529 40.5013,-11.1429 40.0686,-11.1429 39.8213,-11.1429 39.8213,-10.8529 "
     transform="matrix(22.344569,0,0,22.344569,318.81572,523.4386)" /><polygon
     id="23929116474"
     points="-10.941,3.33714 -11.8955,3.33714 -12.441,3.33714 -12.441,6.89441 -12.441,8.92714 -7.541,8.92714 -7.541,7.97259 -7.541,7.42714 -10.941,7.42714 "
     transform="matrix(22.344569,0,0,22.344569,318.81572,523.4386)" /><polygon
     id="23929116493"
     points="5.12355,6.42714 6.789,6.42714 6.789,5.47259 6.789,4.92714 3.87445,4.92714 2.209,4.92714 2.209,5.88169 2.209,6.42714 "
     transform="matrix(22.344569,0,0,22.344569,318.81572,523.4386)" /><polygon
     id="23929116512"
     points="3.059,-9.07286 0.659,-9.07286 0.659,-7.57286 4.859,-7.57286 7.259,-7.57286 7.259,-9.07286 "
     transform="matrix(22.344569,0,0,22.344569,318.81572,523.4386)" /><polygon
     id="23929116531"
     points="-11.4865,-12.8829 -10.941,-12.8829 -10.941,-16.2529 -11.8955,-16.2529 -12.441,-16.2529 -12.441,-12.8829 "
     transform="matrix(22.344569,0,0,22.344569,318.81572,523.4386)" /><polygon
     id="23929116550"
     points="-6.33645,3.62714 -6.591,3.62714 -6.591,4.47714 -6.14555,4.47714 -5.891,4.47714 -5.891,3.62714 "
     transform="matrix(22.344569,0,0,22.344569,318.81572,523.4386)" /><polygon
     id="23929116569"
     points="-11.541,1.53714 -11.541,1.15532 -11.541,0.93714 -11.9228,0.93714 -12.141,0.93714 -12.141,1.53714 -11.7592,1.53714 "
     transform="matrix(22.344569,0,0,22.344569,318.81572,523.4386)" /><polygon
     id="23929116588"
     points="-6.371,0.23714 -6.371,0.73714 -5.521,0.73714 -5.521,0.23714 -6.06191,0.23714 "
     transform="matrix(22.344569,0,0,22.344569,318.81572,523.4386)" /><polygon
     id="23929116607"
     points="-1.591,1.88714 -1.93572,1.88714 -2.1327,1.88714 -2.1327,2.75578 -2.1327,3.25214 -1.591,3.25214 -1.591,2.3835 "
     transform="matrix(22.344569,0,0,22.344569,318.81572,523.4386)" /><polygon
     id="23929116626"
     points="4.759,-1.09286 4.759,-0.49286 5.359,-0.49286 5.359,-1.09286 4.97718,-1.09286 "
     transform="matrix(22.344569,0,0,22.344569,318.81572,523.4386)" /><polygon
     id="23929116645"
     points="7.009,-1.25286 7.009,-0.92786 7.909,-0.92786 7.909,-1.25286 7.33627,-1.25286 "
     transform="matrix(22.344569,0,0,22.344569,318.81572,523.4386)" /><polygon
     id="23929116664"
     points="7.569,3.77714 7.25082,3.77714 7.069,3.77714 7.069,4.31805 7.069,4.62714 7.569,4.62714 7.569,4.08623 "
     transform="matrix(22.344569,0,0,22.344569,318.81572,523.4386)" /><polygon
     id="23929116683"
     points="9.029,-4.12286 9.029,-3.65286 9.579,-3.65286 9.579,-4.12286 9.229,-4.12286 "
     transform="matrix(22.344569,0,0,22.344569,318.81572,523.4386)" /><polygon
     id="23929116702"
     points="2.459,-3.30286 2.459,-2.70286 3.059,-2.70286 3.059,-3.30286 2.67718,-3.30286 "
     transform="matrix(22.344569,0,0,22.344569,318.81572,523.4386)" /><polygon
     id="23929116721"
     points="-3.261,-5.33286 -3.261,-5.88286 -3.861,-5.88286 -3.861,-5.33286 -3.47918,-5.33286 "
     transform="matrix(22.344569,0,0,22.344569,318.81572,523.4386)" /><polygon
     id="23929116740"
     points="-5.521,-5.66468 -5.521,-5.88286 -5.90282,-5.88286 -6.121,-5.88286 -6.121,-5.50104 -6.121,-5.28286 -5.73918,-5.28286 -5.521,-5.28286 "
     transform="matrix(22.344569,0,0,22.344569,318.81572,523.4386)" /><polygon
     id="23929116759"
     points="-6.121,-6.68286 -6.121,-6.08286 -5.521,-6.08286 -5.521,-6.68286 -5.90282,-6.68286 "
     transform="matrix(22.344569,0,0,22.344569,318.81572,523.4386)" /><polygon
     id="23929116778"
     points="-6.371,-12.7029 -6.371,-12.2029 -5.521,-12.2029 -5.521,-12.7029 -6.06191,-12.7029 "
     transform="matrix(22.344569,0,0,22.344569,318.81572,523.4386)" /><polygon
     id="23929116797"
     points="-7.961,-18.5486 -7.961,-19.0986 -8.391,-19.0986 -8.391,-18.5486 -8.11736,-18.5486 "
     transform="matrix(22.344569,0,0,22.344569,318.81572,523.4386)" /><polygon
     id="23929116816"
     points="-5.451,-18.3486 -5.451,-19.0986 -6.151,-19.0986 -6.151,-18.3486 -5.70555,-18.3486 "
     transform="matrix(22.344569,0,0,22.344569,318.81572,523.4386)" /><polygon
     id="23929116931"
     points="-5.521,0.23714 -5.521,0.73714 -6.371,0.73714 -6.371,0.23714 -5.83009,0.23714 "
     transform="matrix(22.344569,0,0,22.344569,318.81572,523.4386)" /><polygon
     id="polygon1217"
     points="-5.521,-6.68286 -5.521,-6.08286 -6.121,-6.08286 -6.121,-6.68286 -5.73918,-6.68286 "
     transform="matrix(22.344569,0,0,22.344569,318.81572,523.4386)" /><polygon
     id="polygon1219"
     points="-5.521,-5.88286 -5.521,-5.28286 -6.121,-5.28286 -6.121,-5.88286 -5.73918,-5.88286 "
     transform="matrix(22.344569,0,0,22.344569,318.81572,523.4386)" /><polygon
     id="polygon1221"
     points="-5.521,-12.7029 -5.521,-12.2029 -6.371,-12.2029 -6.371,-12.7029 -5.83009,-12.7029 "
     transform="matrix(22.344569,0,0,22.344569,318.81572,523.4386)" /><polygon
     id="polygon1223"
     points="-3.861,-5.33286 -3.861,-5.88286 -3.261,-5.88286 -3.261,-5.33286 -3.64282,-5.33286 "
     transform="matrix(22.344569,0,0,22.344569,318.81572,523.4386)" /><polygon
     id="polygon1225"
     points="3.059,-3.30286 3.059,-2.70286 2.459,-2.70286 2.459,-3.30286 2.84082,-3.30286 "
     transform="matrix(22.344569,0,0,22.344569,318.81572,523.4386)" /><polygon
     id="polygon1227"
     points="9.579,-4.12286 9.579,-3.65286 9.029,-3.65286 9.029,-4.12286 9.379,-4.12286 "
     transform="matrix(22.344569,0,0,22.344569,318.81572,523.4386)" /><polygon
     id="polygon1229"
     points="7.58173,-1.25286 7.909,-1.25286 7.909,-0.92786 7.33627,-0.92786 7.009,-0.92786 7.009,-1.25286 "
     transform="matrix(22.344569,0,0,22.344569,318.81572,523.4386)" /><polygon
     id="polygon1231"
     points="5.14082,-1.09286 5.359,-1.09286 5.359,-0.49286 4.97718,-0.49286 4.759,-0.49286 4.759,-1.09286 "
     transform="matrix(22.344569,0,0,22.344569,318.81572,523.4386)" /><polygon
     id="polygon1233"
     points="-2.1327,1.88714 -1.78798,1.88714 -1.591,1.88714 -1.591,2.75578 -1.591,3.25214 -2.1327,3.25214 -2.1327,2.3835 "
     transform="matrix(22.344569,0,0,22.344569,318.81572,523.4386)" /><polygon
     id="polygon1235"
     points="-5.891,3.62714 -5.891,4.47714 -6.591,4.47714 -6.591,3.62714 -6.14555,3.62714 "
     transform="matrix(22.344569,0,0,22.344569,318.81572,523.4386)" /><polygon
     id="polygon1237"
     points="-0.299182,1.70714 -0.881,1.70714 -0.881,-0.09286 0.137182,-0.09286 0.719,-0.09286 0.719,1.70714 "
     transform="matrix(22.344569,0,0,22.344569,318.81572,523.4386)" /><polygon
     id="polygon1239"
     points="-2.07918,-1.09286 -1.061,-1.09286 -1.061,1.70714 -2.84282,1.70714 -3.861,1.70714 -3.861,-1.09286 "
     transform="matrix(22.344569,0,0,22.344569,318.81572,523.4386)" /></svg>