<?xml version="1.0" encoding="utf-8"?>
<svg xmlns:xsi="http://www.w3.org/2001/XMLSchema-instance" xmlns:xsd="http://www.w3.org/2001/XMLSchema" version="1.1" id="Map" class="gen-by-synoptic-designer" xmlns:xlink="http://www.w3.org/1999/xlink" viewBox="-1506.68069872992 -996.22018655263 6828.38914537454 4322.05983276397 " xml:space="preserve" height="100%" width="100%" xmlns="http://www.w3.org/2000/svg">
  <polygon id="23929063303" title="" points="-30.2868,-246.9858 -58.83,-246.9858 -58.83,-189.471 -58.83,-149.4858 -115.83,-149.4858 -115.83,-93.0858 16.77,-93.0858 16.77,-81.0858 49.5093,-81.0858 72.27,-81.0858 72.27,-92.5887 72.27,-100.5858 83.7729,-100.5858 91.77,-100.5858 91.77,-169.9575 91.77,-218.1858 10.77,-218.1858 10.77,-246.9858 -30.2868,-246.9858 " />
  <polygon id="23929064591" title="" points="-8.97546,51.2142 -26.43,51.2142 -26.43,-2.7858 4.11546,-2.7858 21.57,-2.7858 21.57,51.2142 -8.97546,51.2142 " />
  <polygon id="23929064591" title="" points="-85.2846,51.2142 -115.83,51.2142 -115.83,-2.240346 -115.83,-32.7858 -62.3754,-32.7858 -31.83,-32.7858 -31.83,20.66874 -31.83,51.2142 -85.2846,51.2142 " />
  <polygon id="23929064591" title="" points="258.1065,138.8142 372.87,138.8142 372.87,-218.1858 142.4427,-218.1858 10.77,-218.1858 10.77,-572.958 -364.23,-572.958 -364.23,-496.587 -335.595,-496.587 -319.23,-496.587 -319.23,-420.795 -319.23,-377.487 -347.865,-377.487 -364.23,-377.487 -364.23,-78.9039 -364.23,91.7142 -335.595,91.7142 -319.23,91.7142 -319.23,213.8142 -217.23,213.8142 -217.23,242.4507 -217.23,258.8142 -42.5481,258.8142 57.27,258.8142 57.27,182.4507 57.27,138.8142 258.1065,138.8142 " />
  <polygon id="23929065190" title="" points="1304.574,-37.5858 1284.939,-37.5858 1284.939,-68.1312 1284.939,-85.5858 1319.301,-85.5858 1338.939,-85.5858 1338.939,-37.5858 1304.574,-37.5858 " />
  <polygon id="23929065190" title="" points="1181.685,-81.9858 1151.139,-81.9858 1151.139,-135.4404 1151.139,-165.9858 1235.139,-165.9858 1235.139,-112.5312 1235.139,-81.9858 1181.685,-81.9858 " />
  <polygon id="23929065190" title="" points="990.774,138.8142 1139.139,138.8142 1139.139,215.1777 1139.139,258.8142 1418.739,258.8142 1418.739,-114.2223 1418.739,-327.387 1495.101,-327.387 1538.739,-327.387 1538.739,-669.987 1404.639,-669.987 1404.639,-641.349 1404.639,-624.987 1231.539,-624.987 1231.539,-669.987 1123.485,-669.987 1061.739,-669.987 1061.739,-218.1858 731.139,-218.1858 731.139,8.99601 731.139,138.8142 990.774,138.8142 " />
  <polygon id="23929065233" title="" points="1217.913,-344.787 1235.139,-344.787 1235.139,-421.887 1210.362,-421.887 1193.139,-421.887 1193.139,-475.887 1182.339,-475.887 1182.339,-506.856 1182.339,-528.387 1126.839,-528.387 1126.839,-475.887 1125.339,-475.887 1125.339,-529.578 1125.339,-529.887 1105.839,-529.887 1105.839,-549.387 1061.739,-549.387 1061.739,-417.366 1061.739,-325.587 1139.25,-325.587 1193.139,-325.587 1193.139,-336.912 1193.139,-344.787 1217.913,-344.787 " />
  <polygon id="23929065532" title="" points="1481.754,-507.687 1442.139,-507.687 1442.139,-422.187 1499.121,-422.187 1538.739,-422.187 1538.739,-507.687 1481.754,-507.687 " />
  <polygon id="23929065620" title="" points="1042.29,-81.9858 1076.739,-81.9858 1076.739,-162.3294 1076.739,-218.1858 992.739,-218.1858 992.739,-137.8422 992.739,-81.9858 1042.29,-81.9858 " />
  <polygon id="23929065767" title="" points="1296.318,-244.2858 1284.939,-244.2858 1284.939,-222.1647 1284.939,-206.7858 1304.439,-206.7858 1304.439,-194.3979 1304.439,-185.7858 1296.939,-185.7858 1296.939,-93.9858 1347.339,-93.9858 1347.339,-57.0858 1366.839,-57.0858 1366.839,-45.5829 1366.839,-37.5858 1418.739,-37.5858 1418.739,-244.2858 1356.18,-244.2858 1312.689,-244.2858 1296.318,-244.2858 " />
  <polygon id="23929066004" title="" points="816.639,-112.0047 816.639,-38.1858 910.839,-38.1858 910.839,-45.6858 923.226,-45.6858 931.839,-45.6858 931.839,-38.1858 997.839,-38.1858 997.839,-60.8379 997.839,-76.5858 958.551,-76.5858 931.239,-76.5858 931.239,-101.3613 931.239,-118.5858 986.739,-118.5858 986.739,-218.1858 892.944,-218.1858 816.639,-218.1858 816.639,-112.0047 " />
  <polygon id="23929066282" title="" points="1042.239,37.9422 1042.239,-32.1858 1010.208,-32.1858 987.939,-32.1858 987.939,-10.94958 987.939,3.8142 996.939,3.8142 996.939,16.20201 996.939,24.8142 936.237,24.8142 894.039,24.8142 894.039,92.0622 894.039,138.8142 1042.239,138.8142 1042.239,37.9422 " />
  <polygon id="23929066458" title="" points="1287.639,-24.76158 1287.639,-21.6858 1275.252,-21.6858 1266.639,-21.6858 1266.639,-29.1858 1229.139,-29.1858 1229.139,49.7142 1253.913,49.7142 1271.139,49.7142 1271.139,73.605 1271.139,90.2142 1284.765,90.2142 1294.239,90.2142 1294.239,122.9535 1294.239,145.7142 1349.739,145.7142 1349.739,99.8142 1351.239,99.8142 1351.239,135.8142 1370.739,135.8142 1370.739,155.3142 1399.053,155.3142 1418.739,155.3142 1418.739,46.4787 1418.739,-29.1858 1287.639,-29.1858 1287.639,-24.76158 " />
  <polygon id="23929066742" title="" points="1223.139,185.9031 1223.139,135.2142 1173.588,135.2142 1139.139,135.2142 1139.139,258.8142 1188.69,258.8142 1223.139,258.8142 1223.139,185.9031 " />
  <polygon id="23929067754" title="" points="-111.33,-398.982 -111.33,-390.987 -120.33,-390.987 -120.33,-338.487 10.77,-338.487 10.77,-410.487 -111.33,-410.487 -111.33,-398.982 " />
  <polygon id="23929067851" title="" points="-120.33,-446.436 -120.33,-411.987 10.77,-411.987 10.77,-461.538 10.77,-495.987 -120.33,-495.987 -120.33,-446.436 " />
  <polygon id="23929067952" title="" points="-112.0869,-524.487 -120.33,-524.487 -120.33,-497.487 -42.9948,-497.487 10.77,-497.487 10.77,-542.007 10.77,-572.958 -100.23,-572.958 -100.23,-524.487 -112.0869,-524.487 " />
  <polygon id="23929068055" title="" points="-121.83,-501.726 -121.83,-524.487 -158.73,-524.487 -158.73,-491.748 -158.73,-468.987 -121.83,-468.987 -121.83,-501.726 " />
  <polygon id="23929068171" title="" points="-125.106,-525.987 -101.73,-525.987 -101.73,-553.695 -101.73,-572.958 -135.354,-572.958 -158.73,-572.958 -158.73,-545.25 -158.73,-525.987 -125.106,-525.987 " />
  <polygon id="23929068266" title="" points="-193.7958,-497.358 -163.53,-497.358 -163.53,-527.796 -163.53,-548.958 -186.03,-548.958 -186.03,-572.958 -216.2916,-572.958 -237.33,-572.958 -237.33,-497.358 -193.7958,-497.358 " />
  <polygon id="23929068399" title="" points="-319.23,-431.991 -319.23,-387.087 -159.63,-387.087 -159.63,-346.56 -159.63,-318.387 -121.83,-318.387 -121.83,-361.656 -121.83,-436.419 -121.83,-467.487 -146.4285,-467.487 -163.53,-467.487 -163.53,-495.858 -238.83,-495.858 -238.83,-554.958 -253.23,-554.958 -253.23,-572.958 -318.708,-572.958 -364.23,-572.958 -364.23,-527.907 -364.23,-496.587 -319.23,-496.587 -319.23,-431.991 " />
  <polygon id="23929068655" title="" points="-115.83,-301.692 -115.83,-280.2858 -103.83,-280.2858 -103.83,-248.4858 10.77,-248.4858 10.77,-298.0371 10.77,-332.487 -63.9108,-332.487 -115.83,-332.487 -115.83,-301.692 " />
  <polygon id="23929068797" title="" points="810.939,60.0633 810.939,5.3142 783.939,5.3142 783.939,15.93231 783.939,23.3142 731.139,23.3142 731.139,138.8142 778.212,138.8142 810.939,138.8142 810.939,60.0633 " />
  <polygon id="23929068915" title="" points="843.639,10.85061 843.639,5.3142 825.234,5.3142 812.439,5.3142 812.439,84.0651 812.439,138.8142 888.039,138.8142 888.039,18.8142 843.639,18.8142 843.639,10.85061 " />
  <polygon id="23929069047" title="" points="863.739,-18.02832 863.739,-8.1858 852.765,-8.1858 845.139,-8.1858 845.139,17.3142 888.039,17.3142 888.039,-32.1858 873.705,-32.1858 863.739,-32.1858 863.739,-18.02832 " />
  <polygon id="23929069168" title="" points="796.734,-90.0858 783.939,-90.0858 783.939,3.8142 811.689,3.8142 830.535,3.8142 843.639,3.8142 843.639,-8.9358 843.639,-36.6858 815.139,-36.6858 815.139,-68.1861 815.139,-90.0858 796.734,-90.0858 " />
  <polygon id="23929069344" title="" points="782.439,-27.38304 782.439,-61.5858 752.178,-61.5858 731.139,-61.5858 731.139,-12.38856 731.139,21.8142 761.4,21.8142 782.439,21.8142 782.439,-27.38304 " />
  <polygon id="23929069425" title="" points="815.139,-167.6199 815.139,-218.1858 765.588,-218.1858 731.139,-218.1858 731.139,-94.8858 780.69,-94.8858 815.139,-94.8858 815.139,-167.6199 " />
  <polygon id="23929069535" title="" points="949.347,-117.0858 932.739,-117.0858 932.739,-94.08 932.739,-78.0858 973.239,-78.0858 973.239,-101.0916 973.239,-117.0858 949.347,-117.0858 " />
  <polygon id="23929069619" title="" points="1137.639,135.8058 1137.639,133.7142 1188.075,133.7142 1223.139,133.7142 1223.139,90.357 1223.139,60.2142 1163.139,60.2142 1163.139,15.88359 1163.139,-25.1115 1163.139,-32.1858 1095.36,-32.1858 1048.239,-32.1858 1048.239,138.8142 1100.976,138.8142 1137.639,138.8142 1137.639,135.8058 " />
  <polygon id="23929069787" title="" points="1200.939,-25.173 1200.939,-32.1858 1173.639,-32.1858 1173.639,-20.68284 1173.639,-12.6858 1164.639,-12.6858 1164.639,58.7142 1206.639,58.7142 1206.639,42.7869 1206.639,31.7142 1223.139,31.7142 1223.139,4.10712 1223.139,-15.0858 1200.939,-15.0858 1200.939,-25.173 " />
  <polygon id="23929069924" title="" points="921.039,16.54746 921.039,23.3142 986.439,23.3142 986.439,-32.1858 894.039,-32.1858 894.039,-9.17988 894.039,6.8142 909.966,6.8142 921.039,6.8142 921.039,16.54746 " />
  <polygon id="23929070049" title="" points="1305.312,147.2142 1294.239,147.2142 1294.239,159.2481 1294.239,167.6142 1255.836,167.6142 1229.139,167.6142 1229.139,258.8142 1283.469,258.8142 1321.239,258.8142 1321.239,147.2142 1305.312,147.2142 " />
  <polygon id="23929070158" title="" points="1349.739,151.1511 1349.739,147.2142 1322.739,147.2142 1322.739,213.0465 1322.739,258.8142 1418.739,258.8142 1418.739,198.645 1418.739,156.8142 1378.035,156.8142 1349.739,156.8142 1349.739,151.1511 " />
  <polygon id="23929070270" title="" points="1292.739,122.226 1292.739,91.7142 1262.478,91.7142 1241.439,91.7142 1241.439,115.7142 1229.139,115.7142 1229.139,145.4448 1229.139,166.1142 1292.739,166.1142 1292.739,122.226 " />
  <polygon id="23929070382" title="" points="1269.639,67.2084 1269.639,51.2142 1229.139,51.2142 1229.139,90.2142 1269.639,90.2142 1269.639,67.2084 " />
  <polygon id="23929070471" title="" points="1313.439,-278.6352 1313.439,-245.7858 1375.554,-245.7858 1418.739,-245.7858 1418.739,-325.887 1356.621,-325.887 1313.439,-325.887 1313.439,-278.6352 " />
  <polygon id="23929070572" title="" points="1300.866,-245.7858 1311.939,-245.7858 1311.939,-293.9211 1311.939,-327.387 1377.639,-327.387 1377.639,-348.621 1377.639,-363.387 1284.939,-363.387 1284.939,-294.0141 1284.939,-245.7858 1300.866,-245.7858 " />
  <polygon id="23929070703" title="" points="1325.439,-387.891 1325.439,-403.887 1284.939,-403.887 1284.939,-380.88 1284.939,-364.887 1325.439,-364.887 1325.439,-387.891 " />
  <polygon id="23929070800" title="" points="1377.198,-364.887 1412.139,-364.887 1412.139,-395.148 1412.139,-416.187 1326.939,-416.187 1326.939,-385.923 1326.939,-364.887 1377.198,-364.887 " />
  <polygon id="23929070904" title="" points="1393.287,-363.387 1379.139,-363.387 1379.139,-327.387 1471.239,-327.387 1538.739,-327.387 1538.739,-379.767 1538.739,-416.187 1464.942,-416.187 1413.639,-416.187 1413.639,-385.038 1413.639,-363.387 1393.287,-363.387 " />
  <polygon id="23929071052" title="" points="1071.471,-219.6858 1078.239,-219.6858 1078.239,-191.1939 1078.239,-171.3858 1206.039,-171.3858 1206.039,-187.1361 1206.039,-198.0858 1223.205,-198.0858 1235.139,-198.0858 1235.139,-258.255 1235.139,-300.087 1223.634,-300.087 1215.639,-300.087 1215.639,-311.589 1215.639,-319.587 1124.853,-319.587 1061.739,-319.587 1061.739,-260.6553 1061.739,-219.6858 1071.471,-219.6858 " />
  <polygon id="23929071244" title="" points="1078.239,-141.0399 1078.239,-120.9858 1092.396,-120.9858 1102.239,-120.9858 1102.239,-106.563 1102.239,-93.9858 1145.739,-93.9858 1145.739,-138.7587 1145.739,-169.8858 1078.239,-169.8858 1078.239,-141.0399 " />
  <polygon id="23929071365" title="" points="1211.247,-462.387 1194.639,-462.387 1194.639,-423.387 1235.139,-423.387 1235.139,-462.387 1211.247,-462.387 " />
  <polygon id="23929071445" title="" points="1235.139,-526.053 1235.139,-559.887 1183.839,-559.887 1183.839,-477.387 1235.139,-477.387 1235.139,-526.053 " />
  <polygon id="23929071556" title="" points="1126.839,-538.497 1126.839,-529.887 1153.839,-529.887 1153.839,-669.987 1061.739,-669.987 1061.739,-599.73 1061.739,-550.887 1100.139,-550.887 1126.839,-550.887 1126.839,-538.497 " />
  <polygon id="23929071675" title="" points="1235.139,-601.557 1235.139,-629.487 1231.539,-629.487 1231.539,-669.987 1186.587,-669.987 1155.339,-669.987 1155.339,-529.887 1182.339,-529.887 1182.339,-548.466 1182.339,-561.387 1213.485,-561.387 1235.139,-561.387 1235.139,-601.557 " />
  <polygon id="23929071788" title="" points="1305.366,-434.187 1316.439,-434.187 1316.439,-457.368 1316.439,-473.487 1289.439,-473.487 1289.439,-450.303 1289.439,-434.187 1305.366,-434.187 " />
  <polygon id="23929071869" title="" points="1368.258,-473.487 1317.939,-473.487 1317.939,-422.187 1440.639,-422.187 1440.639,-473.487 1368.258,-473.487 " />
  <polygon id="23929071973" title="" points="1404.639,-489.75 1404.639,-474.987 1440.639,-474.987 1440.639,-496.221 1440.639,-510.987 1404.639,-510.987 1404.639,-489.75 " />
  <polygon id="23929072067" title="" points="1459.632,-596.487 1404.639,-596.487 1404.639,-546.936 1404.639,-512.487 1538.739,-512.487 1538.739,-562.038 1538.739,-596.487 1459.632,-596.487 " />
  <polygon id="23929072162" title="" points="1483.743,-597.987 1538.739,-597.987 1538.739,-640.458 1538.739,-669.987 1404.639,-669.987 1404.639,-627.513 1404.639,-597.987 1483.743,-597.987 " />
  <polygon id="23929072278" title="" points="1287.939,-461.328 1287.939,-474.987 1403.139,-474.987 1403.139,-547.101 1403.139,-597.237 1403.139,-624.987 1307.574,-624.987 1241.139,-624.987 1241.139,-559.506 1241.139,-513.987 1260.639,-513.987 1260.639,-500.487 1241.139,-500.487 1241.139,-389.487 1263.435,-389.487 1278.939,-389.487 1278.939,-420.279 1278.939,-441.687 1287.939,-441.687 1287.939,-461.328 " />
  <polygon id="23929091910" title="" points="-370.203,-386.487 -368.73,-386.487 -368.73,95.9142 -372.78,95.9142 -372.78,203.5869 -372.78,265.1142 -325.338,265.1142 -298.23,265.1142 -298.23,267.3642 -244.9665,267.3642 -214.53,267.3642 -214.53,267.8142 -35.8392,267.8142 66.27,267.8142 66.27,220.0869 66.27,192.8142 153.7065,192.8142 203.67,192.8142 203.67,164.1777 203.67,147.8142 317.07,147.8142 381.87,147.8142 381.87,-227.1858 257.0814,-227.1858 185.7738,-227.1858 206.1351,-255.345 217.77,-271.4358 91.77,-271.4358 19.77,-271.4358 19.77,-394.587 19.77,-464.958 274.17,-464.958 274.17,-539.412 274.17,-581.958 -137.8119,-581.958 -373.23,-581.958 -373.23,-525.066 -373.23,-492.558 -372.78,-492.558 -372.78,-425.058 -372.78,-386.487 -370.203,-386.487 " />
  <polygon id="23929095411" title="" points="743.439,-74.1585 743.439,-63.0858 782.439,-63.0858 782.439,-90.0858 743.439,-90.0858 743.439,-74.1585 " />
  <polygon id="23929095499" title="" points="-296.097,-72.3858 -248.73,-72.3858 -248.73,-53.8041 -248.73,-40.8858 -210.7704,-40.8858 -165.63,-40.8858 -165.63,-156.9858 -185.13,-156.9858 -185.13,-176.4858 -364.23,-176.4858 -364.23,-72.3858 -296.097,-72.3858 " />
  <polygon id="23929095641" title="" points="-317.478,-70.8858 -364.23,-70.8858 -364.23,-16.02555 -364.23,22.1142 -296.982,22.1142 -250.23,22.1142 -250.23,-32.7459 -250.23,-70.8858 -317.478,-70.8858 " />
  <polygon id="23929095744" title="" points="-185.13,-35.6949 -185.13,-39.3858 -248.73,-39.3858 -248.73,22.1142 -192.63,22.1142 -192.63,5.6142 -165.63,5.6142 -165.63,-30.3858 -185.13,-30.3858 -185.13,-35.6949 " />
  <polygon id="23929095857" title="" points="-173.6271,-201.9858 -165.63,-201.9858 -165.63,-318.087 -214.6503,-318.087 -248.73,-318.087 -248.73,-286.5858 -364.23,-286.5858 -364.23,-225.1776 -364.23,-182.4858 -185.13,-182.4858 -185.13,-201.9858 -173.6271,-201.9858 " />
  <polygon id="23929095998" title="" points="-364.23,-324.75 -364.23,-288.0858 -250.23,-288.0858 -250.23,-342.945 -250.23,-381.087 -323.73,-381.087 -323.73,-377.487 -347.622,-377.487 -364.23,-377.487 -364.23,-324.75 " />
  <polygon id="23929096103" title="" points="-211.2126,-319.587 -185.13,-319.587 -185.13,-328.587 -165.63,-328.587 -165.63,-349.821 -165.63,-364.587 -181.5573,-364.587 -192.63,-364.587 -192.63,-381.087 -225.723,-381.087 -248.73,-381.087 -248.73,-344.808 -248.73,-319.587 -211.2126,-319.587 " />
  <polygon id="23929100042" title="" points="-182.7813,135.8142 -217.23,135.8142 -217.23,258.8142 -133.23,258.8142 -133.23,135.8142 -182.7813,135.8142 " />
  <polygon id="23929100170" title="" points="4.17945,140.3142 -32.73,140.3142 -32.73,210.2169 -32.73,258.8142 20.36055,258.8142 57.27,258.8142 57.27,188.9115 57.27,140.3142 4.17945,140.3142 " />
  <polygon id="23929100300" title="" points="-207.2271,134.3142 -199.23,134.3142 -199.23,87.5946 -199.23,55.1142 -130.23,55.1142 -130.23,51.2142 -121.23,51.2142 -121.23,1.66302 -121.23,-32.7858 -159.63,-32.7858 -159.63,3.13881 -159.63,28.1142 -344.73,28.1142 -344.73,39.6171 -344.73,47.6142 -356.232,47.6142 -364.23,47.6142 -364.23,91.1142 -319.23,91.1142 -319.23,163.4943 -319.23,213.8142 -259.9455,213.8142 -218.73,213.8142 -218.73,166.9176 -218.73,134.3142 -207.2271,134.3142 " />
  <polygon id="23929100537" title="" points="-197.73,86.5218 -197.73,107.3142 -172.23,107.3142 -172.23,134.3142 -149.2242,134.3142 -133.23,134.3142 -133.23,56.6142 -171.2781,56.6142 -197.73,56.6142 -197.73,86.5218 " />
  <polygon id="23929100649" title="" points="-89.0901,140.3142 -127.23,140.3142 -127.23,210.2169 -127.23,258.8142 -34.23,258.8142 -34.23,188.9115 -34.23,140.3142 -89.0901,140.3142 " />
  <polygon id="23929100737" title="" points="-65.73,90.3249 -65.73,56.6142 -127.23,56.6142 -127.23,105.1035 -127.23,138.8142 -65.73,138.8142 -65.73,90.3249 " />
  <polygon id="23929100840" title="" points="-64.23,122.943 -64.23,138.8142 -5.73,138.8142 -5.73,115.9854 -5.73,100.1142 -64.23,100.1142 -64.23,122.943 " />
  <polygon id="23929100977" title="" points="-22.33926,98.6142 -5.73,98.6142 -5.73,59.6142 -46.23,59.6142 -46.23,98.6142 -22.33926,98.6142 " />
  <polygon id="23929101080" title="" points="-4.23,83.0625 -4.23,99.3642 -4.23,138.8142 93.1026,138.8142 160.77,138.8142 160.77,49.0911 160.77,-13.2858 149.2671,-13.2858 141.27,-13.2858 141.27,-32.7858 37.47,-32.7858 37.47,-21.28284 37.47,-13.2858 29.97,-13.2858 29.97,29.71755 29.97,59.6142 -4.23,59.6142 -4.23,83.0625 " />
  <polygon id="23929104002" title="" points="97.77,-88.7754 97.77,-81.0858 135.27,-81.0858 135.27,-88.5858 147.6579,-88.5858 156.27,-88.5858 156.27,-81.0858 186.3546,-81.0858 207.27,-81.0858 232.0455,-81.0858 249.27,-81.0858 249.27,-109.5858 261.1269,-109.5858 269.37,-109.5858 269.37,-125.1858 287.37,-125.1858 287.37,-180.0459 287.37,-218.1858 182.5827,-218.1858 109.7328,-218.1858 97.77,-218.1858 97.77,-148.3716 97.77,-88.7754 " />
  <polygon id="23929104217" title="" points="273.4137,31.1142 204.27,31.1142 204.27,-32.7858 166.77,-32.7858 166.77,8.09391 166.77,36.5142 174.27,36.5142 174.27,48.0171 174.27,56.0142 228.57,56.0142 228.57,138.8142 313.692,138.8142 372.87,138.8142 372.87,31.1142 273.4137,31.1142 " />
  <polygon id="23929104399" title="" points="265.3374,-37.5858 243.3837,-37.5858 238.77,-37.5858 238.77,-26.1858 210.27,-26.1858 210.27,4.0758 210.27,25.1142 287.37,25.1142 287.37,-37.5858 265.3374,-37.5858 " />
  <polygon id="23929104495" title="" points="249.27,-62.9766 249.27,-79.5858 210.27,-79.5858 210.27,-39.0858 249.27,-39.0858 249.27,-62.9766 " />
  <polygon id="23929104591" title="" points="250.77,-67.383 250.77,-39.0858 287.37,-39.0858 287.37,-79.7886 287.37,-108.0858 250.77,-108.0858 250.77,-67.383 " />
  <polygon id="23929104722" title="" points="288.87,-16.47045 288.87,25.1142 338.421,25.1142 372.87,25.1142 372.87,-76.2858 323.319,-76.2858 288.87,-76.2858 288.87,-16.47045 " />
  <polygon id="23929104817" title="" points="288.87,-137.3112 288.87,-81.0858 372.87,-81.0858 372.87,-218.1858 288.87,-218.1858 288.87,-137.3112 " />
  <polygon id="23929104913" title="" points="210.57,122.8869 210.57,111.8142 227.07,111.8142 227.07,79.7829 227.07,57.5142 166.77,57.5142 166.77,105.4728 166.77,138.8142 210.57,138.8142 210.57,122.8869 " />
  <polygon id="23929106097" title="" points="1471.989,-183.2574 1471.989,-318.387 1547.739,-318.387 1547.739,-547.86 1547.739,-678.987 1232.739,-678.987 1052.739,-678.987 1052.739,-429.405 1008.489,-476.787 1008.489,-271.4358 826.239,-271.4358 826.239,-243.2766 826.239,-227.1858 722.139,-227.1858 722.139,11.45055 722.139,147.8142 866.37,147.8142 948.789,147.8142 948.789,192.0642 1064.193,192.0642 1130.139,192.0642 1130.139,240.2688 1130.139,267.8142 1427.739,267.8142 1427.739,131.2527 1427.739,53.2173 1455.897,53.2173 1471.989,53.2173 1471.989,-183.2574 " />
  <polygon id="23929107816" title="" points="-96.33,-162.0585 -96.33,-150.9858 -75.0939,-150.9858 -60.33,-150.9858 -60.33,-246.9858 -93.0693,-246.9858 -115.83,-246.9858 -115.83,-177.9858 -96.33,-177.9858 -96.33,-162.0585 " />
  <polygon id="23929113567" title="" points="1005.924,191.3142 1045.122,191.3142 1045.122,147.8142 988.737,147.8142 949.539,147.8142 949.539,191.3142 1005.924,191.3142 " />
  <polygon id="23929113627" title="" points="1045.122,173.4747 1045.122,191.3142 1130.139,191.3142 1130.139,147.8142 1045.122,147.8142 1045.122,173.4747 " />
  <polygon id="23929113701" title="" points="1471.239,-0.365427 1471.239,-38.9358 1427.739,-38.9358 1427.739,16.54383 1427.739,55.1142 1471.239,55.1142 1471.239,-0.365427 " />
  <polygon id="23929113776" title="" points="1471.239,-203.7819 1471.239,-318.387 1427.739,-318.387 1427.739,-38.9358 1471.239,-38.9358 1471.239,-203.7819 " />
  <polygon id="23929113882" title="" points="1304.145,-677.487 1240.539,-677.487 1240.539,-633.987 1332.03,-633.987 1395.639,-633.987 1395.639,-677.487 1304.145,-677.487 " />
  <polygon id="23929113940" title="" points="146.3658,191.3142 202.05,191.3142 202.05,147.8142 121.9542,147.8142 66.27,147.8142 66.27,191.3142 146.3658,191.3142 " />
  <polygon id="23929114046" title="" points="-353.889,100.1142 -371.73,100.1142 -371.73,198.1548 -371.73,266.3142 -285.9003,266.3142 -226.23,266.3142 -226.23,240.6537 -226.23,222.8142 -328.23,222.8142 -328.23,150.4341 -328.23,100.1142 -353.889,100.1142 " />
  <polygon id="23929114158" title="" points="-351.591,-487.587 -367.83,-487.587 -367.83,-427.947 -367.83,-386.487 -328.23,-386.487 -328.23,-446.124 -328.23,-487.587 -351.591,-487.587 " />
  <polygon id="23929114215" title="" points="153.5346,-270.6858 109.92,-270.6858 109.92,-227.1858 172.6554,-227.1858 216.27,-227.1858 216.27,-270.6858 153.5346,-270.6858 " />
  <polygon id="23929114282" title="" points="56.6643,-270.6858 19.77,-270.6858 19.77,-245.0253 19.77,-227.1858 72.8385,-227.1858 109.7328,-227.1858 109.7328,-252.8463 109.7328,-270.6858 56.6643,-270.6858 " />
  <polygon id="23929114369" title="" points="887.025,-270.6858 827.739,-270.6858 827.739,-227.1858 913.017,-227.1858 972.303,-227.1858 972.303,-270.6858 887.025,-270.6858 " />
  <polygon id="23929114436" title="" points="1027.077,-354.42 1009.239,-354.42 1009.239,-270.6858 987.561,-270.6858 972.489,-270.6858 972.489,-245.0253 972.489,-227.1858 1019.826,-227.1858 1052.739,-227.1858 1052.739,-302.241 1052.739,-354.42 1027.077,-354.42 " />
  <polygon id="23929114540" title="" points="1009.239,-404.409 1009.239,-355.137 1034.898,-355.137 1052.739,-355.137 1052.739,-475.287 1027.077,-475.287 1009.239,-475.287 1009.239,-404.409 " />
  <polygon id="23929115808" title="" points="1181.685,-165.9858 1151.139,-165.9858 1151.139,-112.5312 1151.139,-81.9858 1235.139,-81.9858 1235.139,-135.4404 1235.139,-165.9858 1181.685,-165.9858 " />
  <polygon id="23929115827" title="" points="1319.301,-37.5858 1338.939,-37.5858 1338.939,-85.5858 1304.574,-85.5858 1284.939,-85.5858 1284.939,-55.0404 1284.939,-37.5858 1319.301,-37.5858 " />
  <polygon id="23929115846" title="" points="-85.2846,-32.7858 -115.83,-32.7858 -115.83,51.2142 -31.83,51.2142 -31.83,-32.7858 -85.2846,-32.7858 " />
  <polygon id="23929115865" title="" points="4.11546,51.2142 21.57,51.2142 21.57,-2.7858 -8.97546,-2.7858 -26.43,-2.7858 -26.43,51.2142 4.11546,51.2142 " />
  <polygon id="23929115991" title="" points="1358.793,-55.5858 1365.339,-55.5858 1365.339,-37.5858 1347.339,-37.5858 1347.339,-55.5858 1358.793,-55.5858 " />
  <polygon id="23929115991" title="" points="1296.393,-196.2858 1302.939,-196.2858 1302.939,-187.2858 1284.939,-187.2858 1284.939,-196.2858 1296.393,-196.2858 " />
  <polygon id="23929115991" title="" points="1306.62,-432.687 1316.439,-432.687 1316.439,-422.187 1289.439,-422.187 1289.439,-432.687 1306.62,-432.687 " />
  <polygon id="23929115991" title="" points="1252.593,-512.487 1259.139,-512.487 1259.139,-501.987 1241.139,-501.987 1241.139,-512.487 1252.593,-512.487 " />
  <polygon id="23929115991" title="" points="1118.793,-549.387 1125.339,-549.387 1125.339,-537.93 1125.339,-531.387 1107.339,-531.387 1107.339,-542.841 1107.339,-549.387 1118.793,-549.387 " />
  <polygon id="23929115991" title="" points="1220.412,-475.887 1235.139,-475.887 1235.139,-463.887 1194.639,-463.887 1194.639,-475.887 1220.412,-475.887 " />
  <polygon id="23929115991" title="" points="1202.058,-325.587 1194.639,-325.587 1194.639,-334.287 1215.039,-334.287 1215.039,-325.587 1202.058,-325.587 " />
  <polygon id="23929115991" title="" points="1228.593,-319.587 1235.139,-319.587 1235.139,-308.13 1235.139,-301.587 1217.139,-301.587 1217.139,-313.041 1217.139,-319.587 1228.593,-319.587 " />
  <polygon id="23929115991" title="" points="1212.312,-196.5858 1215.039,-196.5858 1215.039,-180.5493 1215.039,-171.3858 1207.539,-171.3858 1207.539,-187.4223 1207.539,-196.5858 1212.312,-196.5858 " />
  <polygon id="23929115991" title="" points="1092.558,-119.4858 1100.739,-119.4858 1100.739,-99.0858 1078.239,-99.0858 1078.239,-119.4858 1092.558,-119.4858 " />
  <polygon id="23929115991" title="" points="982.374,-117.0858 986.739,-117.0858 986.739,-78.0858 974.739,-78.0858 974.739,-117.0858 982.374,-117.0858 " />
  <polygon id="23929115991" title="" points="903.312,23.3142 894.039,23.3142 894.039,8.3142 910.266,8.3142 919.539,8.3142 919.539,23.3142 903.312,23.3142 " />
  <polygon id="23929115991" title="" points="856.02,-32.1858 862.239,-32.1858 862.239,-17.86761 862.239,-9.6858 845.139,-9.6858 845.139,-24.00399 845.139,-32.1858 856.02,-32.1858 " />
  <polygon id="23929115991" title="" points="1217.685,33.2142 1223.139,33.2142 1223.139,49.4415 1223.139,58.7142 1208.139,58.7142 1208.139,42.4869 1208.139,33.2142 1217.685,33.2142 " />
  <polygon id="23929115991" title="" points="1236.012,91.7142 1239.939,91.7142 1239.939,106.0323 1239.939,114.2142 1229.139,114.2142 1229.139,99.8961 1229.139,91.7142 1236.012,91.7142 " />
  <polygon id="23929115991" title="" points="1362.693,137.3142 1369.239,137.3142 1369.239,155.3142 1357.785,155.3142 1351.239,155.3142 1351.239,137.3142 1362.693,137.3142 " />
  <polygon id="23929115991" title="" points="1304.574,-37.5858 1284.939,-37.5858 1284.939,-68.1312 1284.939,-85.5858 1319.301,-85.5858 1338.939,-85.5858 1338.939,-37.5858 1304.574,-37.5858 " />
  <polygon id="23929115991" title="" points="1204.593,-165.9858 1235.139,-165.9858 1235.139,-112.5312 1235.139,-81.9858 1151.139,-81.9858 1151.139,-135.4404 1151.139,-165.9858 1204.593,-165.9858 " />
  <polygon id="23929115991" title="" points="1317.066,258.8142 1418.739,258.8142 1418.739,-114.2223 1418.739,-327.387 1495.101,-327.387 1538.739,-327.387 1538.739,-669.987 1453.401,-669.987 1404.639,-669.987 1404.639,-624.987 1294.485,-624.987 1231.539,-624.987 1231.539,-669.987 1123.485,-669.987 1061.739,-669.987 1061.739,-218.1858 731.139,-218.1858 731.139,-90.0858 741.939,-90.0858 741.939,-63.0858 731.139,-63.0858 731.139,138.8142 1139.139,138.8142 1139.139,215.1777 1139.139,258.8142 1317.066,258.8142 " />
  <polygon id="23929116046" title="" points="731.139,-80.2677 731.139,-171.6039 731.139,-218.1858 1061.739,-218.1858 1061.739,-505.695 1061.739,-669.987 1169.793,-669.987 1231.539,-669.987 1231.539,-624.987 1341.693,-624.987 1404.639,-624.987 1404.639,-669.987 1489.974,-669.987 1538.739,-669.987 1538.739,-327.387 1462.374,-327.387 1418.739,-327.387 1418.739,45.6507 1418.739,258.8142 1139.139,258.8142 1139.139,182.4507 1139.139,138.8142 731.139,138.8142 731.139,-63.0858 731.139,-80.2677 " />
  <polygon id="23929116046" title="" points="1319.52,267.8142 1427.739,267.8142 1427.739,-105.2223 1427.739,-318.387 1504.101,-318.387 1547.739,-318.387 1547.739,-547.86 1547.739,-678.987 1395.639,-678.987 1395.639,-633.987 1296.939,-633.987 1240.539,-633.987 1240.539,-678.987 1052.739,-678.987 1052.739,-227.1858 842.358,-227.1858 722.139,-227.1858 722.139,11.45055 722.139,147.8142 1130.139,147.8142 1130.139,224.1777 1130.139,267.8142 1319.52,267.8142 " />
  <polygon id="23929116065" title="" points="1063.92,192.8142 1130.139,192.8142 1130.139,164.1777 1130.139,147.8142 948.039,147.8142 948.039,176.4507 948.039,192.8142 1063.92,192.8142 " />
  <polygon id="23929116084" title="" points="1472.739,-182.0223 1472.739,-318.387 1427.739,-318.387 1427.739,56.6142 1472.739,56.6142 1472.739,-182.0223 " />
  <polygon id="23929116103" title="" points="1240.539,-650.349 1240.539,-633.987 1339.239,-633.987 1395.639,-633.987 1395.639,-678.987 1296.939,-678.987 1240.539,-678.987 1240.539,-650.349 " />
  <polygon id="23929116127" title="" points="1007.739,-346.587 1007.739,-272.1858 892.239,-272.1858 826.239,-272.1858 826.239,-227.1858 1052.739,-227.1858 1052.739,-386.022 1052.739,-476.787 1007.739,-476.787 1007.739,-346.587 " />
  <polygon id="23929116146" title="" points="1357.785,137.3142 1351.239,137.3142 1351.239,148.7688 1351.239,155.3142 1369.239,155.3142 1369.239,143.8596 1369.239,137.3142 1357.785,137.3142 " />
  <polygon id="23929116165" title="" points="1233.066,91.7142 1229.139,91.7142 1229.139,114.2142 1239.939,114.2142 1239.939,91.7142 1233.066,91.7142 " />
  <polygon id="23929116184" title="" points="1213.593,33.2142 1208.139,33.2142 1208.139,49.4415 1208.139,58.7142 1223.139,58.7142 1223.139,42.4869 1223.139,33.2142 1213.593,33.2142 " />
  <polygon id="23929116203" title="" points="1353.885,-55.5858 1347.339,-55.5858 1347.339,-37.5858 1358.793,-37.5858 1365.339,-37.5858 1365.339,-55.5858 1353.885,-55.5858 " />
  <polygon id="23929116222" title="" points="1086.42,-119.4858 1078.239,-119.4858 1078.239,-99.0858 1100.739,-99.0858 1100.739,-119.4858 1086.42,-119.4858 " />
  <polygon id="23929116241" title="" points="979.101,-117.0858 974.739,-117.0858 974.739,-92.2677 974.739,-78.0858 986.739,-78.0858 986.739,-102.9039 986.739,-117.0858 979.101,-117.0858 " />
  <polygon id="23929116260" title="" points="910.266,23.3142 919.539,23.3142 919.539,8.3142 903.312,8.3142 894.039,8.3142 894.039,23.3142 910.266,23.3142 " />
  <polygon id="23929116279" title="" points="851.358,-32.1858 845.139,-32.1858 845.139,-17.86761 845.139,-9.6858 856.02,-9.6858 862.239,-9.6858 862.239,-24.00399 862.239,-32.1858 851.358,-32.1858 " />
  <polygon id="23929116298" title="" points="741.939,-80.2677 741.939,-90.0858 731.139,-90.0858 731.139,-63.0858 741.939,-63.0858 741.939,-80.2677 " />
  <polygon id="23929116317" title="" points="1223.685,-319.587 1217.139,-319.587 1217.139,-308.13 1217.139,-301.587 1228.593,-301.587 1235.139,-301.587 1235.139,-313.041 1235.139,-319.587 1223.685,-319.587 " />
  <polygon id="23929116336" title="" points="1210.266,-196.5858 1207.539,-196.5858 1207.539,-180.5493 1207.539,-171.3858 1215.039,-171.3858 1215.039,-187.4223 1215.039,-196.5858 1210.266,-196.5858 " />
  <polygon id="23929116355" title="" points="1291.485,-196.2858 1284.939,-196.2858 1284.939,-187.2858 1302.939,-187.2858 1302.939,-196.2858 1291.485,-196.2858 " />
  <polygon id="23929116374" title="" points="1209.366,-475.887 1194.639,-475.887 1194.639,-463.887 1235.139,-463.887 1235.139,-475.887 1209.366,-475.887 " />
  <polygon id="23929116393" title="" points="1247.685,-512.487 1241.139,-512.487 1241.139,-501.987 1259.139,-501.987 1259.139,-512.487 1247.685,-512.487 " />
  <polygon id="23929116412" title="" points="1299.258,-432.687 1289.439,-432.687 1289.439,-422.187 1316.439,-422.187 1316.439,-432.687 1299.258,-432.687 " />
  <polygon id="23929116431" title="" points="1113.885,-549.387 1107.339,-549.387 1107.339,-531.387 1125.339,-531.387 1125.339,-549.387 1113.885,-549.387 " />
  <polygon id="23929116450" title="" points="1207.62,-325.587 1215.039,-325.587 1215.039,-334.287 1202.058,-334.287 1194.639,-334.287 1194.639,-325.587 1207.62,-325.587 " />
  <polygon id="23929116474" title="" points="-373.23,206.8323 -373.23,267.8142 -226.23,267.8142 -226.23,239.1777 -226.23,222.8142 -328.23,222.8142 -328.23,100.1142 -356.865,100.1142 -373.23,100.1142 -373.23,206.8323 " />
  <polygon id="23929116493" title="" points="203.67,164.1777 203.67,147.8142 116.2335,147.8142 66.27,147.8142 66.27,176.4507 66.27,192.8142 153.7065,192.8142 203.67,192.8142 203.67,164.1777 " />
  <polygon id="23929116512" title="" points="91.77,-272.1858 19.77,-272.1858 19.77,-227.1858 145.77,-227.1858 217.77,-227.1858 217.77,-272.1858 91.77,-272.1858 " />
  <polygon id="23929116531" title="" points="-344.595,-386.487 -328.23,-386.487 -328.23,-487.587 -356.865,-487.587 -373.23,-487.587 -373.23,-386.487 -344.595,-386.487 " />
  <polygon id="23929116550" title="" points="-190.0935,108.8142 -197.73,108.8142 -197.73,134.3142 -184.3665,134.3142 -176.73,134.3142 -176.73,108.8142 -190.0935,108.8142 " />
  <polygon id="23929116569" title="" points="-346.23,34.6596 -346.23,28.1142 -357.684,28.1142 -364.23,28.1142 -364.23,46.1142 -352.776,46.1142 -346.23,46.1142 -346.23,34.6596 " />
  <polygon id="23929116588" title="" points="-181.8573,7.1142 -191.13,7.1142 -191.13,22.1142 -165.63,22.1142 -165.63,7.1142 -181.8573,7.1142 " />
  <polygon id="23929116607" title="" points="-58.0716,56.6142 -63.981,56.6142 -63.981,82.6734 -63.981,97.5642 -47.73,97.5642 -47.73,71.505 -47.73,56.6142 -58.0716,56.6142 " />
  <polygon id="23929116626" title="" points="149.3154,-32.7858 142.77,-32.7858 142.77,-14.7858 160.77,-14.7858 160.77,-32.7858 149.3154,-32.7858 " />
  <polygon id="23929116645" title="" points="220.0881,-37.5858 210.27,-37.5858 210.27,-27.8358 237.27,-27.8358 237.27,-37.5858 220.0881,-37.5858 " />
  <polygon id="23929116664" title="" points="217.5246,113.3142 212.07,113.3142 212.07,129.5415 212.07,138.8142 227.07,138.8142 227.07,122.5869 227.07,113.3142 217.5246,113.3142 " />
  <polygon id="23929116683" title="" points="276.87,-123.6858 270.87,-123.6858 270.87,-109.5858 287.37,-109.5858 287.37,-123.6858 276.87,-123.6858 " />
  <polygon id="23929116702" title="" points="80.3154,-99.0858 73.77,-99.0858 73.77,-81.0858 91.77,-81.0858 91.77,-99.0858 80.3154,-99.0858 " />
  <polygon id="23929116721" title="" points="-104.3754,-159.9858 -97.83,-159.9858 -97.83,-176.4858 -115.83,-176.4858 -115.83,-159.9858 -104.3754,-159.9858 " />
  <polygon id="23929116740" title="" points="-177.0846,-176.4858 -183.63,-176.4858 -183.63,-165.0312 -183.63,-158.4858 -172.1754,-158.4858 -165.63,-158.4858 -165.63,-169.9404 -165.63,-176.4858 -177.0846,-176.4858 " />
  <polygon id="23929116759" title="" points="-177.0846,-200.4858 -183.63,-200.4858 -183.63,-182.4858 -165.63,-182.4858 -165.63,-200.4858 -177.0846,-200.4858 " />
  <polygon id="23929116778" title="" points="-181.8573,-381.087 -191.13,-381.087 -191.13,-366.087 -165.63,-366.087 -165.63,-381.087 -181.8573,-381.087 " />
  <polygon id="23929116797" title="" points="-243.5208,-556.458 -238.83,-556.458 -238.83,-572.958 -251.73,-572.958 -251.73,-556.458 -243.5208,-556.458 " />
  <polygon id="23929116816" title="" points="-171.1665,-550.458 -163.53,-550.458 -163.53,-572.958 -184.53,-572.958 -184.53,-550.458 -171.1665,-550.458 " />
  <polygon id="23929116931" title="" points="-174.9027,7.1142 -165.63,7.1142 -165.63,22.1142 -191.13,22.1142 -191.13,7.1142 -174.9027,7.1142 " />
  <polygon id="23929116931" title="" points="-172.1754,-200.4858 -165.63,-200.4858 -165.63,-182.4858 -183.63,-182.4858 -183.63,-200.4858 -172.1754,-200.4858 " />
  <polygon id="23929116931" title="" points="-172.1754,-176.4858 -165.63,-176.4858 -165.63,-158.4858 -183.63,-158.4858 -183.63,-176.4858 -172.1754,-176.4858 " />
  <polygon id="23929116931" title="" points="-174.9027,-381.087 -165.63,-381.087 -165.63,-366.087 -191.13,-366.087 -191.13,-381.087 -174.9027,-381.087 " />
  <polygon id="23929116931" title="" points="-109.2846,-159.9858 -115.83,-159.9858 -115.83,-176.4858 -97.83,-176.4858 -97.83,-159.9858 -109.2846,-159.9858 " />
  <polygon id="23929116931" title="" points="85.2246,-99.0858 91.77,-99.0858 91.77,-81.0858 73.77,-81.0858 73.77,-99.0858 85.2246,-99.0858 " />
  <polygon id="23929116931" title="" points="281.37,-123.6858 287.37,-123.6858 287.37,-109.5858 270.87,-109.5858 270.87,-123.6858 281.37,-123.6858 " />
  <polygon id="23929116931" title="" points="227.4519,-37.5858 237.27,-37.5858 237.27,-27.8358 220.0881,-27.8358 210.27,-27.8358 210.27,-37.5858 227.4519,-37.5858 " />
  <polygon id="23929116931" title="" points="154.2246,-32.7858 160.77,-32.7858 160.77,-14.7858 149.3154,-14.7858 142.77,-14.7858 142.77,-32.7858 154.2246,-32.7858 " />
  <polygon id="23929116931" title="" points="-53.6394,56.6142 -47.73,56.6142 -47.73,82.6734 -47.73,97.5642 -63.981,97.5642 -63.981,71.505 -63.981,56.6142 -53.6394,56.6142 " />
  <polygon id="23929116931" title="" points="-184.3665,108.8142 -176.73,108.8142 -176.73,134.3142 -197.73,134.3142 -197.73,108.8142 -184.3665,108.8142 " />
  <polygon id="23929116931" title="" points="-8.97546,51.2142 -26.43,51.2142 -26.43,-2.7858 4.11546,-2.7858 21.57,-2.7858 21.57,51.2142 -8.97546,51.2142 " />
  <polygon id="23929116931" title="" points="-62.3754,-32.7858 -31.83,-32.7858 -31.83,51.2142 -85.2846,51.2142 -115.83,51.2142 -115.83,-32.7858 -62.3754,-32.7858 " />
  <polygon id="23929116931" title="" points="155.7792,138.8142 212.07,138.8142 212.07,122.5869 212.07,113.3142 227.07,113.3142 227.07,129.5415 227.07,138.8142 372.87,138.8142 372.87,-218.1858 142.4427,-218.1858 10.77,-218.1858 10.77,-572.958 -163.53,-572.958 -163.53,-550.458 -184.53,-550.458 -184.53,-572.958 -219.0846,-572.958 -238.83,-572.958 -238.83,-556.458 -251.73,-556.458 -251.73,-572.958 -364.23,-572.958 -364.23,-496.587 -335.595,-496.587 -319.23,-496.587 -319.23,-420.795 -319.23,-377.487 -347.865,-377.487 -364.23,-377.487 -364.23,28.1142 -346.23,28.1142 -346.23,46.1142 -364.23,46.1142 -364.23,74.7507 -364.23,91.1142 -335.595,91.1142 -319.23,91.1142 -319.23,213.8142 -217.23,213.8142 -217.23,242.4507 -217.23,258.8142 -42.5481,258.8142 57.27,258.8142 57.27,182.4507 57.27,138.8142 155.7792,138.8142 " />
  <polygon id="23929116994" title="" points="-282.1392,213.8142 -319.23,213.8142 -319.23,91.1142 -347.865,91.1142 -364.23,91.1142 -364.23,62.4777 -364.23,28.1142 -364.23,-377.487 -335.595,-377.487 -319.23,-377.487 -319.23,-453.276 -319.23,-496.587 -347.865,-496.587 -364.23,-496.587 -364.23,-572.958 -251.73,-572.958 -238.83,-572.958 -204.2754,-572.958 -171.1665,-572.958 10.77,-572.958 10.77,-218.1858 241.1973,-218.1858 372.87,-218.1858 372.87,138.8142 212.07,138.8142 113.5608,138.8142 57.27,138.8142 57.27,215.1777 57.27,258.8142 -117.4119,258.8142 -217.23,258.8142 -217.23,230.1777 -217.23,213.8142 -282.1392,213.8142 " />
  <polygon id="23929116994" title="" points="-226.23,251.4507 -226.23,267.8142 66.27,267.8142 66.27,191.4507 66.27,147.8142 267.1065,147.8142 381.87,147.8142 381.87,-227.1858 19.77,-227.1858 19.77,-581.958 -230.3208,-581.958 -373.23,-581.958 -373.23,-487.587 -344.595,-487.587 -328.23,-487.587 -328.23,-386.487 -356.865,-386.487 -373.23,-386.487 -373.23,-76.8312 -373.23,100.1142 -344.595,100.1142 -328.23,100.1142 -328.23,222.8142 -226.23,222.8142 -226.23,251.4507 " />
</svg>