<?xml version="1.0" encoding="utf-8"?>
<svg xmlns:xsi="http://www.w3.org/2001/XMLSchema-instance" xmlns:xsd="http://www.w3.org/2001/XMLSchema" version="1.1" id="Map" class="gen-by-synoptic-designer" xmlns:xlink="http://www.w3.org/1999/xlink" viewBox="-1506.68069872992 -996.22018655263 6828.38914537454 4322.05983276397 " xml:space="preserve" height="100%" width="100%" xmlns="http://www.w3.org/2000/svg">
  <polygon id="23929064637" title="" points="-8.97546,51.2142 -26.43,51.2142 -26.43,-2.7858 4.11546,-2.7858 21.57,-2.7858 21.57,51.2142 -8.97546,51.2142 " />
  <polygon id="23929064637" title="" points="-85.2846,51.2142 -115.83,51.2142 -115.83,-32.7858 -62.3754,-32.7858 -31.83,-32.7858 -31.83,51.2142 -85.2846,51.2142 " />
  <polygon id="23929064637" title="" points="181.17,138.8142 251.97,138.8142 251.97,37.4142 372.87,37.4142 372.87,-218.1858 10.77,-218.1858 10.77,-572.958 -364.23,-572.958 -364.23,-496.587 -335.595,-496.587 -319.23,-496.587 -319.23,-377.487 -347.865,-377.487 -364.23,-377.487 -364.23,-78.9039 -364.23,91.7142 -335.595,91.7142 -319.23,91.7142 -319.23,213.8142 -217.23,213.8142 -217.23,242.4507 -217.23,258.8142 -42.5481,258.8142 57.27,258.8142 57.27,138.8142 181.17,138.8142 " />
  <polygon id="23929067649" title="" points="1304.574,-37.5858 1284.939,-37.5858 1284.939,-68.1312 1284.939,-85.5858 1319.301,-85.5858 1338.939,-85.5858 1338.939,-55.0404 1338.939,-37.5858 1304.574,-37.5858 " />
  <polygon id="23929067649" title="" points="1181.685,-81.9858 1151.139,-81.9858 1151.139,-165.9858 1204.593,-165.9858 1235.139,-165.9858 1235.139,-81.9858 1181.685,-81.9858 " />
  <polygon id="23929067649" title="" points="765.501,33.2142 785.139,33.2142 785.139,138.8142 1139.139,138.8142 1139.139,258.8142 1317.066,258.8142 1418.739,258.8142 1418.739,-114.2223 1418.739,-327.387 1495.101,-327.387 1538.739,-327.387 1538.739,-669.987 1404.639,-669.987 1404.639,-624.987 1231.539,-624.987 1231.539,-653.622 1231.539,-669.987 1061.739,-669.987 1061.739,-382.476 1061.739,-218.1858 731.139,-218.1858 731.139,33.2142 765.501,33.2142 " />
  <polygon id="23929072547" title="" points="-30.2868,-246.9858 -58.83,-246.9858 -58.83,-189.471 -58.83,-149.4858 -115.83,-149.4858 -115.83,-93.0858 16.77,-93.0858 16.77,-81.0858 49.5093,-81.0858 72.27,-81.0858 72.27,-92.5887 72.27,-100.5858 83.7729,-100.5858 91.77,-100.5858 91.77,-169.9575 91.77,-218.1858 10.77,-218.1858 10.77,-246.9858 -30.2868,-246.9858 " />
  <polygon id="23929072779" title="" points="119.8911,-38.7858 135.27,-38.7858 135.27,-46.2858 147.6579,-46.2858 156.27,-46.2858 156.27,-38.7858 163.77,-38.7858 193.77,-38.7858 193.77,-78.6858 226.863,-78.6858 249.87,-78.6858 249.87,-107.1858 267.87,-107.1858 267.87,-118.6887 267.87,-126.6858 279.3729,-126.6858 287.37,-126.6858 287.37,-180.6612 287.37,-218.1858 97.77,-218.1858 97.77,-112.3587 97.77,-38.7858 119.8911,-38.7858 " />
  <polygon id="23929073040" title="" points="1193.139,-336.912 1193.139,-344.787 1217.913,-344.787 1235.139,-344.787 1235.139,-390.267 1235.139,-421.887 1210.362,-421.887 1193.139,-421.887 1193.139,-475.887 1182.339,-475.887 1182.339,-506.856 1182.339,-528.387 1126.839,-528.387 1126.839,-475.887 1125.339,-475.887 1125.339,-507.297 1125.339,-529.137 1125.339,-529.887 1105.839,-529.887 1105.839,-549.387 1061.739,-549.387 1061.739,-417.366 1061.739,-325.587 1139.25,-325.587 1193.139,-325.587 1193.139,-336.912 " />
  <polygon id="23929073331" title="" points="1481.754,-507.687 1442.139,-507.687 1442.139,-457.251 1442.139,-422.187 1499.121,-422.187 1538.739,-422.187 1538.739,-472.623 1538.739,-507.687 1481.754,-507.687 " />
  <polygon id="23929073419" title="" points="1042.29,-81.9858 1076.739,-81.9858 1076.739,-218.1858 992.739,-218.1858 992.739,-81.9858 1042.29,-81.9858 " />
  <polygon id="23929073575" title="" points="1296.318,-244.2858 1284.939,-244.2858 1284.939,-222.1647 1284.939,-206.7858 1304.439,-206.7858 1304.439,-194.3979 1304.439,-185.7858 1296.939,-185.7858 1296.939,-93.9858 1347.339,-93.9858 1347.339,-72.2187 1347.339,-57.0858 1366.839,-57.0858 1366.839,-45.5829 1366.839,-37.5858 1418.739,-37.5858 1418.739,-159.5172 1418.739,-244.2858 1296.318,-244.2858 " />
  <polygon id="23929073817" title="" points="1287.639,-24.76158 1287.639,-21.6858 1275.252,-21.6858 1266.639,-21.6858 1266.639,-29.1858 1229.139,-29.1858 1229.139,17.35692 1229.139,49.7142 1253.913,49.7142 1271.139,49.7142 1271.139,73.605 1271.139,90.2142 1294.239,90.2142 1294.239,145.7142 1349.739,145.7142 1349.739,99.8142 1351.239,99.8142 1351.239,135.8142 1370.739,135.8142 1370.739,147.3171 1370.739,155.3142 1399.053,155.3142 1418.739,155.3142 1418.739,46.4787 1418.739,-29.1858 1341.402,-29.1858 1287.639,-29.1858 1287.639,-24.76158 " />
  <polygon id="23929074101" title="" points="1223.139,185.9031 1223.139,135.2142 1173.588,135.2142 1139.139,135.2142 1139.139,258.8142 1188.69,258.8142 1223.139,258.8142 1223.139,185.9031 " />
  <polygon id="23929074206" title="" points="-182.7813,135.8142 -217.23,135.8142 -217.23,258.8142 -133.23,258.8142 -133.23,135.8142 -182.7813,135.8142 " />
  <polygon id="23929074340" title="" points="-111.33,-398.982 -111.33,-390.987 -120.33,-390.987 -120.33,-338.487 10.77,-338.487 10.77,-410.487 -111.33,-410.487 -111.33,-398.982 " />
  <polygon id="23929074437" title="" points="-120.33,-446.436 -120.33,-411.987 10.77,-411.987 10.77,-461.538 10.77,-495.987 -120.33,-495.987 -120.33,-446.436 " />
  <polygon id="23929074538" title="" points="-112.0869,-524.487 -120.33,-524.487 -120.33,-497.487 -42.9948,-497.487 10.77,-497.487 10.77,-542.007 10.77,-572.958 -100.23,-572.958 -100.23,-544.365 -100.23,-524.487 -112.0869,-524.487 " />
  <polygon id="23929074641" title="" points="-121.83,-501.726 -121.83,-524.487 -143.5971,-524.487 -158.73,-524.487 -158.73,-491.748 -158.73,-468.987 -136.9629,-468.987 -121.83,-468.987 -121.83,-501.726 " />
  <polygon id="23929074757" title="" points="-125.106,-525.987 -101.73,-525.987 -101.73,-553.695 -101.73,-572.958 -135.354,-572.958 -158.73,-572.958 -158.73,-545.25 -158.73,-525.987 -125.106,-525.987 " />
  <polygon id="23929074852" title="" points="-193.7958,-497.358 -163.53,-497.358 -163.53,-527.796 -163.53,-548.958 -186.03,-548.958 -186.03,-572.958 -216.2916,-572.958 -237.33,-572.958 -237.33,-497.358 -193.7958,-497.358 " />
  <polygon id="23929074985" title="" points="-319.23,-431.991 -319.23,-387.087 -159.63,-387.087 -159.63,-346.56 -159.63,-318.387 -121.83,-318.387 -121.83,-391.737 -121.83,-467.487 -146.4285,-467.487 -163.53,-467.487 -163.53,-495.858 -238.83,-495.858 -238.83,-554.958 -253.23,-554.958 -253.23,-572.958 -318.708,-572.958 -364.23,-572.958 -364.23,-527.907 -364.23,-496.587 -319.23,-496.587 -319.23,-431.991 " />
  <polygon id="23929075241" title="" points="-115.83,-301.692 -115.83,-280.2858 -103.83,-280.2858 -103.83,-248.4858 10.77,-248.4858 10.77,-298.0371 10.77,-332.487 -63.9108,-332.487 -115.83,-332.487 -115.83,-301.692 " />
  <polygon id="23929075384" title="" points="265.6914,-29.1858 223.77,-29.1858 223.77,-13.8858 206.958,-13.8858 195.27,-13.8858 195.27,37.4142 287.37,37.4142 287.37,-1.872807 287.37,-29.1858 265.6914,-29.1858 " />
  <polygon id="23929075497" title="" points="251.37,-61.4436 251.37,-30.6858 272.6061,-30.6858 287.37,-30.6858 287.37,-105.6858 266.1339,-105.6858 251.37,-105.6858 251.37,-61.4436 " />
  <polygon id="23929075628" title="" points="292.17,-9.58383 292.17,37.4142 339.774,37.4142 372.87,37.4142 372.87,-77.1858 325.266,-77.1858 292.17,-77.1858 292.17,-9.58383 " />
  <polygon id="23929075716" title="" points="338.421,-78.6858 372.87,-78.6858 372.87,-160.9761 372.87,-218.1858 288.87,-218.1858 288.87,-135.8955 288.87,-78.6858 338.421,-78.6858 " />
  <polygon id="23929075838" title="" points="1188.075,133.7142 1223.139,133.7142 1223.139,90.357 1223.139,60.2142 1163.139,60.2142 1163.139,15.88359 1163.139,-25.1115 1163.139,-32.1858 1095.36,-32.1858 1048.239,-32.1858 1048.239,138.8142 1100.976,138.8142 1137.639,138.8142 1137.639,133.7142 1188.075,133.7142 " />
  <polygon id="23929076006" title="" points="1200.939,-25.173 1200.939,-32.1858 1173.639,-32.1858 1173.639,-21.56769 1173.639,-14.1858 1164.639,-14.1858 1164.639,58.7142 1206.639,58.7142 1206.639,31.7142 1223.139,31.7142 1223.139,4.10712 1223.139,-15.0858 1200.939,-15.0858 1200.939,-25.173 " />
  <polygon id="23929076140" title="" points="1305.312,147.2142 1294.239,147.2142 1294.239,159.2481 1294.239,167.6142 1229.139,167.6142 1229.139,258.8142 1321.239,258.8142 1321.239,147.2142 1305.312,147.2142 " />
  <polygon id="23929076249" title="" points="1349.739,151.1511 1349.739,147.2142 1322.739,147.2142 1322.739,213.0465 1322.739,258.8142 1418.739,258.8142 1418.739,198.645 1418.739,156.8142 1378.035,156.8142 1349.739,156.8142 1349.739,151.1511 " />
  <polygon id="23929076361" title="" points="1292.739,122.226 1292.739,91.7142 1241.439,91.7142 1241.439,115.7142 1229.139,115.7142 1229.139,145.4448 1229.139,166.1142 1292.739,166.1142 1292.739,122.226 " />
  <polygon id="23929076473" title="" points="1269.639,67.2084 1269.639,51.2142 1229.139,51.2142 1229.139,90.2142 1269.639,90.2142 1269.639,67.2084 " />
  <polygon id="23929076562" title="" points="1313.439,-278.6352 1313.439,-245.7858 1418.739,-245.7858 1418.739,-293.0364 1418.739,-325.887 1313.439,-325.887 1313.439,-278.6352 " />
  <polygon id="23929076663" title="" points="1300.866,-245.7858 1311.939,-245.7858 1311.939,-327.387 1350.729,-327.387 1377.699,-327.387 1377.699,-363.387 1284.939,-363.387 1284.939,-294.0141 1284.939,-245.7858 1300.866,-245.7858 " />
  <polygon id="23929076794" title="" points="1325.439,-387.891 1325.439,-403.887 1284.939,-403.887 1284.939,-380.88 1284.939,-364.887 1325.439,-364.887 1325.439,-387.891 " />
  <polygon id="23929076891" title="" points="1377.198,-364.887 1412.139,-364.887 1412.139,-395.148 1412.139,-416.187 1326.939,-416.187 1326.939,-385.923 1326.939,-364.887 1377.198,-364.887 " />
  <polygon id="23929076994" title="" points="1464.942,-416.187 1413.639,-416.187 1413.639,-363.387 1379.199,-363.387 1379.199,-327.387 1402.47,-327.387 1418.649,-327.387 1538.739,-327.387 1538.739,-379.767 1538.739,-416.187 1464.942,-416.187 " />
  <polygon id="23929077134" title="" points="1078.239,-191.1939 1078.239,-171.3858 1206.039,-171.3858 1206.039,-198.0858 1223.205,-198.0858 1235.139,-198.0858 1235.139,-258.255 1235.139,-300.087 1223.634,-300.087 1215.639,-300.087 1215.639,-311.589 1215.639,-319.587 1124.853,-319.587 1061.739,-319.587 1061.739,-219.6858 1078.239,-219.6858 1078.239,-191.1939 " />
  <polygon id="23929077326" title="" points="1078.239,-141.0399 1078.239,-120.9858 1092.396,-120.9858 1102.239,-120.9858 1102.239,-106.563 1102.239,-93.9858 1145.739,-93.9858 1145.739,-138.7587 1145.739,-169.8858 1078.239,-169.8858 1078.239,-141.0399 " />
  <polygon id="23929077447" title="" points="1211.247,-462.387 1194.639,-462.387 1194.639,-423.387 1235.139,-423.387 1235.139,-462.387 1211.247,-462.387 " />
  <polygon id="23929077527" title="" points="1235.139,-526.053 1235.139,-559.887 1183.839,-559.887 1183.839,-477.387 1235.139,-477.387 1235.139,-526.053 " />
  <polygon id="23929077638" title="" points="1126.839,-538.497 1126.839,-529.887 1153.839,-529.887 1153.839,-612.531 1153.839,-669.987 1061.739,-669.987 1061.739,-550.887 1100.139,-550.887 1126.839,-550.887 1126.839,-538.497 " />
  <polygon id="23929077757" title="" points="1235.139,-601.557 1235.139,-629.487 1231.539,-629.487 1231.539,-669.987 1186.587,-669.987 1155.339,-669.987 1155.339,-587.343 1155.339,-529.887 1182.339,-529.887 1182.339,-561.387 1213.485,-561.387 1235.139,-561.387 1235.139,-601.557 " />
  <polygon id="23929077870" title="" points="1305.366,-434.187 1316.439,-434.187 1316.439,-457.368 1316.439,-473.487 1289.439,-473.487 1289.439,-450.303 1289.439,-434.187 1305.366,-434.187 " />
  <polygon id="23929077958" title="" points="1368.258,-473.487 1317.939,-473.487 1317.939,-422.187 1440.639,-422.187 1440.639,-473.487 1368.258,-473.487 " />
  <polygon id="23929078062" title="" points="1404.639,-489.75 1404.639,-474.987 1440.639,-474.987 1440.639,-510.987 1404.639,-510.987 1404.639,-489.75 " />
  <polygon id="23929078156" title="" points="1459.632,-596.487 1404.639,-596.487 1404.639,-512.487 1538.739,-512.487 1538.739,-596.487 1459.632,-596.487 " />
  <polygon id="23929078251" title="" points="1483.743,-597.987 1538.739,-597.987 1538.739,-640.458 1538.739,-669.987 1404.639,-669.987 1404.639,-627.513 1404.639,-597.987 1483.743,-597.987 " />
  <polygon id="23929078360" title="" points="1287.939,-461.328 1287.939,-474.987 1403.139,-474.987 1403.139,-613.605 1403.139,-624.987 1307.574,-624.987 1241.139,-624.987 1241.139,-513.987 1260.639,-513.987 1260.639,-500.487 1241.139,-500.487 1241.139,-389.487 1263.435,-389.487 1278.939,-389.487 1278.939,-441.687 1287.939,-441.687 1287.939,-461.328 " />
  <polygon id="23929078624" title="" points="859.176,26.3142 839.739,26.3142 839.739,42.8142 785.139,42.8142 785.139,138.8142 887.139,138.8142 887.139,72.4509 887.139,26.3142 859.176,26.3142 " />
  <polygon id="23929078742" title="" points="1017.993,-32.1858 1001.139,-32.1858 1001.139,-12.6858 990.639,-12.6858 990.639,-32.1858 933.639,-32.1858 933.639,-8.73747 933.639,7.5642 933.639,41.3142 932.139,41.3142 932.139,26.3142 906.477,26.3142 888.639,26.3142 888.639,92.6775 888.639,138.8142 979.245,138.8142 1042.239,138.8142 1042.239,37.9422 1042.239,-32.1858 1017.993,-32.1858 " />
  <polygon id="23929078935" title="" points="905.319,24.8142 917.439,24.8142 917.439,14.19609 917.439,6.8142 932.139,6.8142 932.139,-16.19172 932.139,-32.1858 866.739,-32.1858 866.739,-15.6858 839.739,-15.6858 839.739,8.20494 839.739,24.8142 905.319,24.8142 " />
  <polygon id="23929079103" title="" points="780.639,35.3379 780.639,36.8142 833.739,36.8142 833.739,-67.5858 812.502,-67.5858 797.739,-67.5858 797.739,-45.0858 758.451,-45.0858 731.139,-45.0858 731.139,1.10298 731.139,33.2142 780.639,33.2142 780.639,35.3379 " />
  <polygon id="23929079233" title="" points="949.347,-117.0858 932.739,-117.0858 932.739,-94.08 932.739,-78.0858 973.239,-78.0858 973.239,-101.0916 973.239,-117.0858 949.347,-117.0858 " />
  <polygon id="23929079314" title="" points="744.939,-79.7508 744.939,-68.1858 731.139,-68.1858 731.139,-55.4442 731.139,-46.5858 769.539,-46.5858 796.239,-46.5858 796.239,-120.6858 757.836,-120.6858 731.139,-120.6858 731.139,-96.3858 744.939,-96.3858 744.939,-79.7508 " />
  <polygon id="23929079434" title="" points="818.976,-69.0858 833.739,-69.0858 833.739,-99.5244 833.739,-120.6858 797.739,-120.6858 797.739,-90.2472 797.739,-69.0858 818.976,-69.0858 " />
  <polygon id="23929079520" title="" points="833.739,-178.8156 833.739,-218.1858 773.214,-218.1858 731.139,-218.1858 731.139,-122.1858 791.661,-122.1858 833.739,-122.1858 833.739,-178.8156 " />
  <polygon id="23929079637" title="" points="835.239,-50.5506 835.239,-38.1858 910.839,-38.1858 910.839,-45.6858 923.226,-45.6858 931.839,-45.6858 931.839,-38.1858 992.139,-38.1858 997.839,-38.1858 997.839,-60.8379 997.839,-76.5858 958.551,-76.5858 931.239,-76.5858 931.239,-101.3613 931.239,-118.5858 986.739,-118.5858 986.739,-177.3393 986.739,-218.1858 897.369,-218.1858 835.239,-218.1858 835.239,-129.7899 835.239,-50.5506 " />
  <polygon id="23929079887" title="" points="246.1875,124.7142 251.97,124.7142 251.97,74.1012 251.97,38.9142 193.77,38.9142 193.77,-6.03579 193.77,-37.2858 166.77,-37.2858 166.77,66.5946 166.77,138.8142 208.7115,138.8142 237.87,138.8142 237.87,124.7142 246.1875,124.7142 " />
  <polygon id="23929080053" title="" points="4.17945,140.3142 -32.73,140.3142 -32.73,210.2169 -32.73,258.8142 20.36055,258.8142 57.27,258.8142 57.27,188.9115 57.27,140.3142 4.17945,140.3142 " />
  <polygon id="23929080163" title="" points="249.87,-58.116 249.87,-77.1858 195.27,-77.1858 195.27,-49.7556 195.27,-30.6858 249.87,-30.6858 249.87,-58.116 " />
  <polygon id="23929096224" title="" points="-296.097,-72.3858 -248.73,-72.3858 -248.73,-40.8858 -173.3196,-40.8858 -165.63,-40.8858 -165.63,-156.9858 -185.13,-156.9858 -185.13,-176.4858 -364.23,-176.4858 -364.23,-115.0776 -364.23,-72.3858 -296.097,-72.3858 " />
  <polygon id="23929096374" title="" points="-250.23,-32.7459 -250.23,-70.8858 -317.478,-70.8858 -364.23,-70.8858 -364.23,-16.02555 -364.23,22.1142 -296.982,22.1142 -250.23,22.1142 -250.23,-32.7459 " />
  <polygon id="23929096477" title="" points="-185.13,-35.6949 -185.13,-39.3858 -248.73,-39.3858 -248.73,22.1142 -215.637,22.1142 -192.63,22.1142 -192.63,5.6142 -165.63,5.6142 -165.63,-15.62202 -165.63,-30.3858 -185.13,-30.3858 -185.13,-35.6949 " />
  <polygon id="23929096591" title="" points="-185.13,-193.9887 -185.13,-201.9858 -165.63,-201.9858 -165.63,-270.4725 -165.63,-318.087 -214.6503,-318.087 -248.73,-318.087 -248.73,-299.5041 -248.73,-286.5858 -364.23,-286.5858 -364.23,-182.4858 -185.13,-182.4858 -185.13,-193.9887 " />
  <polygon id="23929096740" title="" points="-364.23,-324.75 -364.23,-288.0858 -250.23,-288.0858 -250.23,-381.087 -323.73,-381.087 -323.73,-377.487 -347.622,-377.487 -364.23,-377.487 -364.23,-324.75 " />
  <polygon id="23929096845" title="" points="-211.2126,-319.587 -185.13,-319.587 -185.13,-328.587 -173.6271,-328.587 -165.63,-328.587 -165.63,-364.587 -181.5573,-364.587 -192.63,-364.587 -192.63,-381.087 -248.73,-381.087 -248.73,-344.808 -248.73,-319.587 -211.2126,-319.587 " />
  <polygon id="23929099032" title="" points="-207.2271,134.3142 -199.23,134.3142 -199.23,87.5946 -199.23,55.1142 -130.23,55.1142 -130.23,51.2142 -121.23,51.2142 -121.23,1.66302 -121.23,-32.7858 -159.63,-32.7858 -159.63,3.13881 -159.63,28.1142 -268.8195,28.1142 -344.73,28.1142 -344.73,39.6171 -344.73,47.6142 -356.232,47.6142 -364.23,47.6142 -364.23,91.1142 -319.23,91.1142 -319.23,163.4943 -319.23,213.8142 -259.9455,213.8142 -218.73,213.8142 -218.73,166.9176 -218.73,134.3142 -207.2271,134.3142 " />
  <polygon id="23929099269" title="" points="-197.73,86.5218 -197.73,107.3142 -172.23,107.3142 -172.23,134.3142 -133.23,134.3142 -133.23,56.6142 -171.2781,56.6142 -197.73,56.6142 -197.73,86.5218 " />
  <polygon id="23929099381" title="" points="-89.0901,140.3142 -127.23,140.3142 -127.23,210.2169 -127.23,258.8142 -34.23,258.8142 -34.23,188.9115 -34.23,140.3142 -89.0901,140.3142 " />
  <polygon id="23929099469" title="" points="-65.73,90.3249 -65.73,56.6142 -127.23,56.6142 -127.23,105.1035 -127.23,138.8142 -65.73,138.8142 -65.73,90.3249 " />
  <polygon id="23929099572" title="" points="-40.239,100.1142 -64.23,100.1142 -64.23,122.943 -64.23,138.8142 -5.73,138.8142 -5.73,115.9854 -5.73,100.1142 -40.239,100.1142 " />
  <polygon id="23929099709" title="" points="-22.33926,98.6142 -5.73,98.6142 -5.73,59.6142 -46.23,59.6142 -46.23,98.6142 -22.33926,98.6142 " />
  <polygon id="23929099814" title="" points="149.2671,-13.2858 141.27,-13.2858 141.27,-24.78876 141.27,-32.7858 80.0388,-32.7858 37.47,-32.7858 37.47,-21.28284 37.47,-13.2858 29.97,-13.2858 29.97,59.6142 -4.23,59.6142 -4.23,106.3338 -4.23,138.8142 57.1797,138.8142 160.77,138.8142 160.77,49.0911 160.77,-13.2858 149.2671,-13.2858 " />
  <polygon id="23929107704" title="" points="-96.33,-162.0585 -96.33,-150.9858 -75.0939,-150.9858 -60.33,-150.9858 -60.33,-246.9858 -93.0693,-246.9858 -115.83,-246.9858 -115.83,-177.9858 -96.33,-177.9858 -96.33,-162.0585 " />
  <polygon id="23929112307" title="" points="1005.99,191.3142 1045.239,191.3142 1045.239,147.8142 949.539,147.8142 949.539,191.3142 1005.99,191.3142 " />
  <polygon id="23929112367" title="" points="727.539,101.3217 727.539,142.4142 756.207,142.4142 776.139,142.4142 776.139,83.3067 776.139,42.2142 747.468,42.2142 727.539,42.2142 727.539,101.3217 " />
  <polygon id="23929112424" title="" points="1045.239,173.4747 1045.239,191.3142 1095.321,191.3142 1130.139,191.3142 1130.139,147.8142 1080.057,147.8142 1045.239,147.8142 1045.239,173.4747 " />
  <polygon id="23929112491" title="" points="1471.239,-0.365427 1471.239,-38.9358 1427.739,-38.9358 1427.739,55.1142 1471.239,55.1142 1471.239,-0.365427 " />
  <polygon id="23929112566" title="" points="1471.239,-148.9218 1471.239,-225.3858 1427.739,-225.3858 1427.739,-115.3998 1427.739,-38.9358 1471.239,-38.9358 1471.239,-148.9218 " />
  <polygon id="23929112658" title="" points="1304.145,-677.487 1240.539,-677.487 1240.539,-633.987 1332.03,-633.987 1395.639,-633.987 1395.639,-677.487 1304.145,-677.487 " />
  <polygon id="23929112716" title="" points="1009.239,-404.409 1009.239,-355.137 1034.898,-355.137 1052.739,-355.137 1052.739,-475.287 1027.077,-475.287 1009.239,-475.287 1009.239,-404.409 " />
  <polygon id="23929112783" title="" points="1027.077,-355.137 1009.239,-355.137 1009.239,-279.6588 1009.239,-227.1858 1052.739,-227.1858 1052.739,-302.664 1052.739,-355.137 1027.077,-355.137 " />
  <polygon id="23929112864" title="" points="868.338,-270.6858 827.739,-270.6858 827.739,-227.1858 886.137,-227.1858 926.739,-227.1858 926.739,-270.6858 868.338,-270.6858 " />
  <polygon id="23929112931" title="" points="329.103,142.4142 376.47,142.4142 376.47,85.7844 376.47,46.4142 308.337,46.4142 260.97,46.4142 260.97,142.4142 329.103,142.4142 " />
  <polygon id="23929113010" title="" points="146.4366,191.3142 202.17,191.3142 202.17,147.8142 122.0034,147.8142 66.27,147.8142 66.27,191.3142 146.4366,191.3142 " />
  <polygon id="23929113116" title="" points="-353.889,100.1142 -371.73,100.1142 -371.73,198.1548 -371.73,266.3142 -285.9003,266.3142 -226.23,266.3142 -226.23,240.6537 -226.23,222.8142 -328.23,222.8142 -328.23,150.4341 -328.23,100.1142 -353.889,100.1142 " />
  <polygon id="23929113228" title="" points="-353.889,-487.587 -371.73,-487.587 -371.73,-427.947 -371.73,-386.487 -328.23,-386.487 -328.23,-446.124 -328.23,-487.587 -353.889,-487.587 " />
  <polygon id="23929113286" title="" points="-401.73,-219.5208 -401.73,-178.7358 -373.23,-178.7358 -373.23,-278.1858 -401.73,-278.1858 -401.73,-219.5208 " />
  <polygon id="23929113353" title="" points="-401.73,-120.0708 -401.73,-79.2858 -373.23,-79.2858 -373.23,-137.9508 -373.23,-178.7358 -401.73,-178.7358 -401.73,-120.0708 " />
  <polygon id="23929113413" title="" points="153.5346,-270.6858 109.92,-270.6858 109.92,-227.1858 172.6554,-227.1858 216.27,-227.1858 216.27,-270.6858 153.5346,-270.6858 " />
  <polygon id="23929113480" title="" points="56.6643,-270.6858 19.77,-270.6858 19.77,-245.0253 19.77,-227.1858 72.8385,-227.1858 109.7328,-227.1858 109.7328,-252.8463 109.7328,-270.6858 56.6643,-270.6858 " />
  <polygon id="23929117013" title="" points="1181.685,-165.9858 1151.139,-165.9858 1151.139,-112.5312 1151.139,-81.9858 1204.593,-81.9858 1235.139,-81.9858 1235.139,-135.4404 1235.139,-165.9858 1181.685,-165.9858 " />
  <polygon id="23929117032" title="" points="1319.301,-37.5858 1338.939,-37.5858 1338.939,-85.5858 1284.939,-85.5858 1284.939,-37.5858 1319.301,-37.5858 " />
  <polygon id="23929117051" title="" points="-85.2846,-32.7858 -115.83,-32.7858 -115.83,51.2142 -31.83,51.2142 -31.83,-32.7858 -85.2846,-32.7858 " />
  <polygon id="23929117070" title="" points="4.11546,51.2142 21.57,51.2142 21.57,-2.7858 -26.43,-2.7858 -26.43,51.2142 4.11546,51.2142 " />
  <polygon id="23929117199" title="" points="1358.793,-55.5858 1365.339,-55.5858 1365.339,-37.5858 1347.339,-37.5858 1347.339,-55.5858 1358.793,-55.5858 " />
  <polygon id="23929117199" title="" points="1296.393,-196.2858 1302.939,-196.2858 1302.939,-187.2858 1284.939,-187.2858 1284.939,-196.2858 1296.393,-196.2858 " />
  <polygon id="23929117199" title="" points="1306.62,-432.687 1316.439,-432.687 1316.439,-422.187 1289.439,-422.187 1289.439,-432.687 1306.62,-432.687 " />
  <polygon id="23929117199" title="" points="1252.593,-512.487 1259.139,-512.487 1259.139,-501.987 1247.685,-501.987 1241.139,-501.987 1241.139,-512.487 1252.593,-512.487 " />
  <polygon id="23929117199" title="" points="1118.793,-549.387 1125.339,-549.387 1125.339,-537.93 1125.339,-531.387 1107.339,-531.387 1107.339,-542.841 1107.339,-549.387 1118.793,-549.387 " />
  <polygon id="23929117199" title="" points="1220.412,-475.887 1235.139,-475.887 1235.139,-463.887 1194.639,-463.887 1194.639,-475.887 1220.412,-475.887 " />
  <polygon id="23929117199" title="" points="1202.058,-325.587 1194.639,-325.587 1194.639,-334.287 1215.039,-334.287 1215.039,-325.587 1202.058,-325.587 " />
  <polygon id="23929117199" title="" points="1228.593,-319.587 1235.139,-319.587 1235.139,-301.587 1217.139,-301.587 1217.139,-319.587 1228.593,-319.587 " />
  <polygon id="23929117199" title="" points="1212.312,-196.5858 1215.039,-196.5858 1215.039,-171.3858 1207.539,-171.3858 1207.539,-196.5858 1212.312,-196.5858 " />
  <polygon id="23929117199" title="" points="1092.558,-119.4858 1100.739,-119.4858 1100.739,-99.0858 1078.239,-99.0858 1078.239,-119.4858 1092.558,-119.4858 " />
  <polygon id="23929117199" title="" points="982.374,-117.0858 986.739,-117.0858 986.739,-92.2677 986.739,-78.0858 974.739,-78.0858 974.739,-102.9039 974.739,-117.0858 982.374,-117.0858 " />
  <polygon id="23929117199" title="" points="923.778,23.3142 919.089,23.3142 919.089,8.3142 931.989,8.3142 931.989,23.3142 923.778,23.3142 " />
  <polygon id="23929117199" title="" points="855.966,-32.1858 865.239,-32.1858 865.239,-17.1858 849.012,-17.1858 839.739,-17.1858 839.739,-32.1858 855.966,-32.1858 " />
  <polygon id="23929117199" title="" points="1217.685,33.2142 1223.139,33.2142 1223.139,49.4415 1223.139,58.7142 1208.139,58.7142 1208.139,42.4869 1208.139,33.2142 1217.685,33.2142 " />
  <polygon id="23929117199" title="" points="1236.012,91.7142 1239.939,91.7142 1239.939,106.0323 1239.939,114.2142 1229.139,114.2142 1229.139,99.8961 1229.139,91.7142 1236.012,91.7142 " />
  <polygon id="23929117199" title="" points="1362.693,137.3142 1369.239,137.3142 1369.239,155.3142 1351.239,155.3142 1351.239,137.3142 1362.693,137.3142 " />
  <polygon id="23929117199" title="" points="1304.574,-37.5858 1284.939,-37.5858 1284.939,-68.1312 1284.939,-85.5858 1319.301,-85.5858 1338.939,-85.5858 1338.939,-55.0404 1338.939,-37.5858 1304.574,-37.5858 " />
  <polygon id="23929117199" title="" points="1204.593,-165.9858 1235.139,-165.9858 1235.139,-81.9858 1181.685,-81.9858 1151.139,-81.9858 1151.139,-165.9858 1204.593,-165.9858 " />
  <polygon id="23929117199" title="" points="1317.066,258.8142 1418.739,258.8142 1418.739,-114.2223 1418.739,-327.387 1495.101,-327.387 1538.739,-327.387 1538.739,-669.987 1404.639,-669.987 1404.639,-624.987 1294.485,-624.987 1231.539,-624.987 1231.539,-669.987 1061.739,-669.987 1061.739,-382.476 1061.739,-218.1858 731.139,-218.1858 731.139,-94.8858 743.439,-94.8858 743.439,-69.6858 731.139,-69.6858 731.139,-4.20399 731.139,33.2142 785.139,33.2142 785.139,138.8142 1139.139,138.8142 1139.139,258.8142 1317.066,258.8142 " />
  <polygon id="23929117261" title="" points="785.139,71.6142 785.139,33.2142 731.139,33.2142 731.139,-32.2677 731.139,-85.7223 731.139,-94.8858 731.139,-218.1858 1061.739,-218.1858 1061.739,-669.987 1231.539,-669.987 1231.539,-624.987 1341.693,-624.987 1404.639,-624.987 1404.639,-669.987 1538.739,-669.987 1538.739,-451.968 1538.739,-327.387 1462.374,-327.387 1418.739,-327.387 1418.739,-263.4312 1418.739,82.1961 1418.739,258.8142 1240.812,258.8142 1139.139,258.8142 1139.139,138.8142 913.866,138.8142 785.139,138.8142 785.139,71.6142 " />
  <polygon id="23929117261" title="" points="1427.739,-105.2223 1427.739,-318.387 1504.101,-318.387 1547.739,-318.387 1547.739,-547.86 1547.739,-678.987 1395.639,-678.987 1395.639,-633.987 1296.939,-633.987 1240.539,-633.987 1240.539,-678.987 1121.028,-678.987 1052.739,-678.987 1052.739,-227.1858 908.601,-227.1858 826.239,-227.1858 722.139,-227.1858 722.139,-55.7493 722.139,42.2142 776.139,42.2142 776.139,147.8142 1130.139,147.8142 1130.139,267.8142 1319.52,267.8142 1427.739,267.8142 1427.739,-105.2223 " />
  <polygon id="23929117280" title="" points="1063.92,192.8142 1130.139,192.8142 1130.139,147.8142 1014.258,147.8142 948.039,147.8142 948.039,192.8142 1063.92,192.8142 " />
  <polygon id="23929117299" title="" points="1472.739,-123.795 1472.739,-226.8858 1427.739,-226.8858 1427.739,-46.4766 1427.739,56.6142 1472.739,56.6142 1472.739,-123.795 " />
  <polygon id="23929117318" title="" points="1240.539,-650.349 1240.539,-633.987 1395.639,-633.987 1395.639,-662.622 1395.639,-678.987 1240.539,-678.987 1240.539,-650.349 " />
  <polygon id="23929117337" title="" points="1007.739,-317.949 1007.739,-227.1858 1036.374,-227.1858 1052.739,-227.1858 1052.739,-386.022 1052.739,-476.787 1024.101,-476.787 1007.739,-476.787 1007.739,-317.949 " />
  <polygon id="23929117356" title="" points="1357.785,137.3142 1351.239,137.3142 1351.239,155.3142 1369.239,155.3142 1369.239,137.3142 1357.785,137.3142 " />
  <polygon id="23929117375" title="" points="1233.066,91.7142 1229.139,91.7142 1229.139,106.0323 1229.139,114.2142 1239.939,114.2142 1239.939,99.8961 1239.939,91.7142 1233.066,91.7142 " />
  <polygon id="23929117394" title="" points="1213.593,33.2142 1208.139,33.2142 1208.139,49.4415 1208.139,58.7142 1223.139,58.7142 1223.139,42.4869 1223.139,33.2142 1213.593,33.2142 " />
  <polygon id="23929117413" title="" points="1353.885,-55.5858 1347.339,-55.5858 1347.339,-44.1312 1347.339,-37.5858 1358.793,-37.5858 1365.339,-37.5858 1365.339,-49.0404 1365.339,-55.5858 1353.885,-55.5858 " />
  <polygon id="23929117432" title="" points="1086.42,-119.4858 1078.239,-119.4858 1078.239,-106.5039 1078.239,-99.0858 1100.739,-99.0858 1100.739,-112.0677 1100.739,-119.4858 1086.42,-119.4858 " />
  <polygon id="23929117451" title="" points="979.101,-117.0858 974.739,-117.0858 974.739,-92.2677 974.739,-78.0858 986.739,-78.0858 986.739,-102.9039 986.739,-117.0858 979.101,-117.0858 " />
  <polygon id="23929117470" title="" points="927.297,23.3142 931.989,23.3142 931.989,8.3142 919.089,8.3142 919.089,23.3142 927.297,23.3142 " />
  <polygon id="23929117489" title="" points="849.012,-32.1858 839.739,-32.1858 839.739,-17.1858 865.239,-17.1858 865.239,-32.1858 849.012,-32.1858 " />
  <polygon id="23929117508" title="" points="743.439,-85.7223 743.439,-94.8858 731.139,-94.8858 731.139,-78.8493 731.139,-69.6858 743.439,-69.6858 743.439,-85.7223 " />
  <polygon id="23929117527" title="" points="1223.685,-319.587 1217.139,-319.587 1217.139,-308.13 1217.139,-301.587 1228.593,-301.587 1235.139,-301.587 1235.139,-313.041 1235.139,-319.587 1223.685,-319.587 " />
  <polygon id="23929117546" title="" points="1210.266,-196.5858 1207.539,-196.5858 1207.539,-171.3858 1215.039,-171.3858 1215.039,-196.5858 1210.266,-196.5858 " />
  <polygon id="23929117565" title="" points="1291.485,-196.2858 1284.939,-196.2858 1284.939,-187.2858 1296.393,-187.2858 1302.939,-187.2858 1302.939,-196.2858 1291.485,-196.2858 " />
  <polygon id="23929117584" title="" points="1209.366,-475.887 1194.639,-475.887 1194.639,-463.887 1235.139,-463.887 1235.139,-475.887 1209.366,-475.887 " />
  <polygon id="23929117603" title="" points="1247.685,-512.487 1241.139,-512.487 1241.139,-501.987 1259.139,-501.987 1259.139,-512.487 1247.685,-512.487 " />
  <polygon id="23929117622" title="" points="1299.258,-432.687 1289.439,-432.687 1289.439,-422.187 1316.439,-422.187 1316.439,-432.687 1299.258,-432.687 " />
  <polygon id="23929117641" title="" points="1113.885,-549.387 1107.339,-549.387 1107.339,-531.387 1118.793,-531.387 1125.339,-531.387 1125.339,-549.387 1113.885,-549.387 " />
  <polygon id="23929117660" title="" points="1207.62,-325.587 1215.039,-325.587 1215.039,-334.287 1194.639,-334.287 1194.639,-325.587 1207.62,-325.587 " />
  <polygon id="23929117684" title="" points="-373.23,206.8323 -373.23,267.8142 -226.23,267.8142 -226.23,239.1777 -226.23,222.8142 -291.1392,222.8142 -328.23,222.8142 -328.23,100.1142 -356.865,100.1142 -373.23,100.1142 -373.23,206.8323 " />
  <polygon id="23929117703" title="" points="203.67,164.1777 203.67,147.8142 66.27,147.8142 66.27,192.8142 153.7065,192.8142 203.67,192.8142 203.67,164.1777 " />
  <polygon id="23929117722" title="" points="91.77,-272.1858 19.77,-272.1858 19.77,-243.5493 19.77,-227.1858 145.77,-227.1858 217.77,-227.1858 217.77,-255.8223 217.77,-272.1858 91.77,-272.1858 " />
  <polygon id="23929117741" title="" points="-344.595,-386.487 -328.23,-386.487 -328.23,-487.587 -373.23,-487.587 -373.23,-386.487 -344.595,-386.487 " />
  <polygon id="23929117760" title="" points="-190.0935,108.8142 -197.73,108.8142 -197.73,134.3142 -176.73,134.3142 -176.73,108.8142 -190.0935,108.8142 " />
  <polygon id="23929117779" title="" points="-346.23,34.6596 -346.23,28.1142 -364.23,28.1142 -364.23,46.1142 -346.23,46.1142 -346.23,34.6596 " />
  <polygon id="23929117798" title="" points="-181.8573,7.1142 -191.13,7.1142 -191.13,22.1142 -165.63,22.1142 -165.63,7.1142 -181.8573,7.1142 " />
  <polygon id="23929117817" title="" points="-58.0716,56.6142 -63.981,56.6142 -63.981,97.5642 -47.73,97.5642 -47.73,56.6142 -58.0716,56.6142 " />
  <polygon id="23929117836" title="" points="149.3154,-32.7858 142.77,-32.7858 142.77,-21.33126 142.77,-14.7858 160.77,-14.7858 160.77,-26.24034 160.77,-32.7858 149.3154,-32.7858 " />
  <polygon id="23929117855" title="" points="205.0881,-29.26191 195.27,-29.26191 195.27,-15.3858 222.27,-15.3858 222.27,-29.26191 205.0881,-29.26191 " />
  <polygon id="23929117874" title="" points="243.9519,126.2142 239.37,126.2142 239.37,138.8142 251.97,138.8142 251.97,126.2142 243.9519,126.2142 " />
  <polygon id="23929117893" title="" points="276.87,-123.6858 270.87,-123.6858 270.87,-109.5858 287.37,-109.5858 287.37,-123.6858 276.87,-123.6858 " />
  <polygon id="23929117912" title="" points="80.3154,-99.0858 73.77,-99.0858 73.77,-81.0858 91.77,-81.0858 91.77,-99.0858 80.3154,-99.0858 " />
  <polygon id="23929117931" title="" points="-104.3754,-159.9858 -97.83,-159.9858 -97.83,-176.4858 -115.83,-176.4858 -115.83,-159.9858 -104.3754,-159.9858 " />
  <polygon id="23929117950" title="" points="-177.0846,-176.4858 -183.63,-176.4858 -183.63,-165.0312 -183.63,-158.4858 -165.63,-158.4858 -165.63,-169.9404 -165.63,-176.4858 -177.0846,-176.4858 " />
  <polygon id="23929117969" title="" points="-177.0846,-200.4858 -183.63,-200.4858 -183.63,-189.0312 -183.63,-182.4858 -172.1754,-182.4858 -165.63,-182.4858 -165.63,-193.9404 -165.63,-200.4858 -177.0846,-200.4858 " />
  <polygon id="23929117988" title="" points="-181.8573,-381.087 -191.13,-381.087 -191.13,-366.087 -165.63,-366.087 -165.63,-381.087 -181.8573,-381.087 " />
  <polygon id="23929118007" title="" points="-243.5208,-556.458 -238.83,-556.458 -238.83,-572.958 -251.73,-572.958 -251.73,-556.458 -243.5208,-556.458 " />
  <polygon id="23929118026" title="" points="-171.1665,-550.458 -163.53,-550.458 -163.53,-572.958 -184.53,-572.958 -184.53,-550.458 -171.1665,-550.458 " />
  <polygon id="23929118141" title="" points="-174.9027,7.1142 -165.63,7.1142 -165.63,22.1142 -191.13,22.1142 -191.13,7.1142 -174.9027,7.1142 " />
  <polygon id="23929118141" title="" points="-172.1754,-200.4858 -165.63,-200.4858 -165.63,-182.4858 -183.63,-182.4858 -183.63,-200.4858 -172.1754,-200.4858 " />
  <polygon id="23929118141" title="" points="-172.1754,-176.4858 -165.63,-176.4858 -165.63,-158.4858 -183.63,-158.4858 -183.63,-176.4858 -172.1754,-176.4858 " />
  <polygon id="23929118141" title="" points="-174.9027,-381.087 -165.63,-381.087 -165.63,-366.087 -191.13,-366.087 -191.13,-381.087 -174.9027,-381.087 " />
  <polygon id="23929118141" title="" points="-109.2846,-159.9858 -115.83,-159.9858 -115.83,-176.4858 -97.83,-176.4858 -97.83,-159.9858 -109.2846,-159.9858 " />
  <polygon id="23929118141" title="" points="85.2246,-99.0858 91.77,-99.0858 91.77,-81.0858 80.3154,-81.0858 73.77,-81.0858 73.77,-99.0858 85.2246,-99.0858 " />
  <polygon id="23929118141" title="" points="281.37,-123.6858 287.37,-123.6858 287.37,-109.5858 270.87,-109.5858 270.87,-123.6858 281.37,-123.6858 " />
  <polygon id="23929118141" title="" points="212.4519,-29.26191 222.27,-29.26191 222.27,-15.3858 205.0881,-15.3858 195.27,-15.3858 195.27,-29.26191 212.4519,-29.26191 " />
  <polygon id="23929118141" title="" points="154.2246,-32.7858 160.77,-32.7858 160.77,-21.33126 160.77,-14.7858 149.3154,-14.7858 142.77,-14.7858 142.77,-26.24034 142.77,-32.7858 154.2246,-32.7858 " />
  <polygon id="23929118141" title="" points="-53.6394,56.6142 -47.73,56.6142 -47.73,97.5642 -63.981,97.5642 -63.981,56.6142 -53.6394,56.6142 " />
  <polygon id="23929118141" title="" points="-184.3665,108.8142 -176.73,108.8142 -176.73,134.3142 -197.73,134.3142 -197.73,108.8142 -184.3665,108.8142 " />
  <polygon id="23929118141" title="" points="-8.97546,51.2142 -26.43,51.2142 -26.43,16.85055 -26.43,-2.7858 21.57,-2.7858 21.57,31.5777 21.57,51.2142 -8.97546,51.2142 " />
  <polygon id="23929118141" title="" points="-62.3754,-32.7858 -31.83,-32.7858 -31.83,51.2142 -115.83,51.2142 -115.83,-32.7858 -62.3754,-32.7858 " />
  <polygon id="23929118141" title="" points="173.1519,138.8142 239.37,138.8142 239.37,126.2142 251.97,126.2142 251.97,69.705 251.97,37.4142 328.905,37.4142 372.87,37.4142 372.87,-218.1858 10.77,-218.1858 10.77,-572.958 -100.1481,-572.958 -163.53,-572.958 -163.53,-558.639 -163.53,-550.458 -176.8935,-550.458 -184.53,-550.458 -184.53,-564.774 -184.53,-572.958 -238.83,-572.958 -238.83,-556.458 -251.73,-556.458 -251.73,-572.958 -364.23,-572.958 -364.23,-496.587 -335.595,-496.587 -319.23,-496.587 -319.23,-420.795 -319.23,-377.487 -347.865,-377.487 -364.23,-377.487 -364.23,28.1142 -352.776,28.1142 -346.23,28.1142 -346.23,39.5688 -346.23,46.1142 -357.684,46.1142 -364.23,46.1142 -364.23,91.1142 -335.595,91.1142 -319.23,91.1142 -319.23,213.8142 -217.23,213.8142 -217.23,242.4507 -217.23,258.8142 -42.5481,258.8142 57.27,258.8142 57.27,138.8142 173.1519,138.8142 " />
  <polygon id="23929118202" title="" points="-282.1392,213.8142 -319.23,213.8142 -319.23,91.1142 -347.865,91.1142 -364.23,91.1142 -364.23,-377.487 -335.595,-377.487 -319.23,-377.487 -319.23,-453.276 -319.23,-496.587 -347.865,-496.587 -364.23,-496.587 -364.23,-572.958 10.77,-572.958 10.77,-218.1858 372.87,-218.1858 372.87,37.4142 295.9335,37.4142 251.97,37.4142 251.97,138.8142 128.07,138.8142 57.27,138.8142 57.27,258.8142 -117.4119,258.8142 -217.23,258.8142 -217.23,230.1777 -217.23,213.8142 -282.1392,213.8142 " />
  <polygon id="23929118202" title="" points="-226.23,251.4507 -226.23,267.8142 -40.0935,267.8142 66.27,267.8142 66.27,147.8142 190.17,147.8142 260.97,147.8142 260.97,83.2869 260.97,46.4142 337.905,46.4142 381.87,46.4142 381.87,-227.1858 19.77,-227.1858 19.77,-581.958 -230.3208,-581.958 -373.23,-581.958 -373.23,-521.904 -373.23,-487.587 -344.595,-487.587 -328.23,-487.587 -328.23,-386.487 -356.865,-386.487 -373.23,-386.487 -373.23,100.1142 -344.595,100.1142 -328.23,100.1142 -328.23,222.8142 -263.3208,222.8142 -226.23,222.8142 -226.23,251.4507 " />
  <polygon id="23929118221" title="" points="-403.23,-151.2039 -403.23,-77.7858 -384.138,-77.7858 -373.23,-77.7858 -373.23,-279.6858 -392.322,-279.6858 -403.23,-279.6858 -403.23,-151.2039 " />
  <polygon id="23929118240" title="" points="337.905,147.8142 381.87,147.8142 381.87,46.4142 304.935,46.4142 260.97,46.4142 260.97,147.8142 337.905,147.8142 " />
  <polygon id="23929118259" title="" points="722.139,109.4142 722.139,147.8142 776.139,147.8142 776.139,42.2142 722.139,42.2142 722.139,109.4142 " />
  <polygon id="23929118278" title="" points="863.328,-272.1858 826.239,-272.1858 826.239,-227.1858 891.147,-227.1858 928.239,-227.1858 928.239,-272.1858 863.328,-272.1858 " />
</svg>