<?xml version="1.0" encoding="utf-8"?>
<svg xmlns:xsi="http://www.w3.org/2001/XMLSchema-instance" xmlns:xsd="http://www.w3.org/2001/XMLSchema" version="1.1" id="Map" class="gen-by-synoptic-designer" xmlns:xlink="http://www.w3.org/1999/xlink" viewBox="-1506.68069872992 -996.22018655263 6828.38914537454 4322.05983276397 " xml:space="preserve" height="100%" width="100%" xmlns="http://www.w3.org/2000/svg">
  <polygon id="23929063215" title="" points="-89.9838,51.2142 -115.83,51.2142 -115.83,-32.7858 -31.83,-32.7858 -31.83,51.2142 -89.9838,51.2142 " />
  <polygon id="23929063215" title="" points="-11.66076,51.2142 -26.43,51.2142 -26.43,-2.7858 6.80076,-2.7858 21.57,-2.7858 21.57,51.2142 -11.66076,51.2142 " />
  <polygon id="23929063215" title="" points="-217.23,244.968 -217.23,258.8142 57.27,258.8142 57.27,175.7373 57.27,138.8142 275.7624,138.8142 372.87,138.8142 372.87,-218.1858 10.77,-218.1858 10.77,-462.558 -364.23,-462.558 -364.23,-347.289 -364.23,-296.0571 -168.63,-296.0571 -168.63,-146.6571 -306.123,-146.6571 -367.23,-146.6571 -367.23,-60.0858 -229.7376,-60.0858 -168.63,-60.0858 -168.63,-4.83966 -168.63,19.7142 -364.23,19.7142 -364.23,91.1142 -319.23,91.1142 -319.23,213.8142 -248.6145,213.8142 -217.23,213.8142 -217.23,244.968 " />
  <polygon id="23929063266" title="" points="1085.739,32.6142 1085.739,61.4142 954.684,61.4142 896.439,61.4142 896.439,-3.3858 896.439,-32.1858 1085.739,-32.1858 1085.739,32.6142 " />
  <polygon id="23929063266" title="" points="1338.939,-52.3551 1338.939,-37.5858 1301.553,-37.5858 1284.939,-37.5858 1284.939,-70.8165 1284.939,-85.5858 1322.322,-85.5858 1338.939,-85.5858 1338.939,-52.3551 " />
  <polygon id="23929063266" title="" points="1176.984,-81.9858 1151.139,-81.9858 1151.139,-140.1396 1151.139,-165.9858 1235.139,-165.9858 1235.139,-107.832 1235.139,-81.9858 1176.984,-81.9858 " />
  <polygon id="23929063266" title="" points="1135.539,20.42958 1135.539,-32.1858 1220.739,-32.1858 1220.739,106.5528 1220.739,168.2142 1196.739,168.2142 1196.739,230.9373 1196.739,258.8142 1418.739,258.8142 1418.739,-147.0165 1418.739,-327.387 1538.739,-327.387 1538.739,-669.987 1404.639,-669.987 1404.639,-624.987 1231.539,-624.987 1231.539,-669.987 1061.739,-669.987 1061.739,-218.1858 832.86,-218.1858 731.139,-218.1858 731.139,28.96806 731.139,138.8142 1135.539,138.8142 1135.539,20.42958 " />
  <polygon id="23929064451" title="" points="-176.13,-59.748 -176.13,-61.2858 -259.3611,-61.2858 -280.83,-61.2858 -280.83,-30.2829 -280.83,-22.2858 -258.33,-22.2858 -258.33,11.10201 -258.33,19.7142 -200.1399,19.7142 -185.13,19.7142 -185.13,6.2142 -168.63,6.2142 -168.63,-53.7858 -176.13,-53.7858 -176.13,-59.748 " />
  <polygon id="23929065060" title="" points="-234.2922,-288.5571 -235.83,-288.5571 -235.83,-146.6571 -190.7565,-146.6571 -179.13,-146.6571 -179.13,-166.1571 -168.63,-166.1571 -168.63,-296.0571 -216.0885,-296.0571 -228.33,-296.0571 -228.33,-288.5571 -234.2922,-288.5571 " />
  <polygon id="23929087832" title="" points="-44.0814,-246.3858 -58.23,-246.3858 -58.23,-168.8784 -58.23,-148.8858 -104.019,-148.8858 -115.83,-148.8858 -115.83,-93.0858 -33.1953,-93.0858 -11.88,-93.0858 10.89525,-93.0858 16.77,-93.0858 16.77,-81.0858 60.8895,-81.0858 72.27,-81.0858 72.27,-96.5874 72.27,-100.5858 91.77,-100.5858 91.77,-218.1858 27.37926,-218.1858 10.77,-218.1858 10.77,-246.3858 -44.0814,-246.3858 " />
  <polygon id="23929088064" title="" points="1193.139,-340.848 1193.139,-344.787 1235.139,-344.787 1235.139,-421.887 1193.139,-421.887 1193.139,-464.814 1193.139,-475.887 1182.339,-475.887 1182.339,-528.387 1126.839,-528.387 1126.839,-475.887 1125.339,-475.887 1125.339,-529.887 1105.839,-529.887 1105.839,-545.388 1105.839,-549.387 1061.739,-549.387 1061.739,-325.587 1193.139,-325.587 1193.139,-340.848 " />
  <polygon id="23929088378" title="" points="1461.945,-507.387 1442.139,-507.387 1442.139,-422.187 1538.739,-422.187 1538.739,-489.915 1538.739,-507.387 1461.945,-507.387 " />
  <polygon id="23929088473" title="" points="1059.513,-81.9858 1076.739,-81.9858 1076.739,-190.2576 1076.739,-218.1858 1009.962,-218.1858 992.739,-218.1858 992.739,-109.914 992.739,-81.9858 1059.513,-81.9858 " />
  <polygon id="23929088632" title="" points="1287.639,-23.22369 1287.639,-21.6858 1270.944,-21.6858 1266.639,-21.6858 1266.639,-29.1858 1229.139,-29.1858 1229.139,40.6902 1229.139,58.7142 1262.526,58.7142 1271.139,58.7142 1271.139,90.9096 1271.139,99.2142 1294.239,99.2142 1294.239,143.3337 1294.239,154.7142 1349.739,154.7142 1349.739,110.5947 1349.739,99.2142 1351.239,99.2142 1351.239,135.2142 1370.739,135.2142 1370.739,150.7158 1370.739,154.7142 1418.739,154.7142 1418.739,8.52336 1418.739,-29.1858 1314.522,-29.1858 1287.639,-29.1858 1287.639,-23.22369 " />
  <polygon id="23929088972" title="" points="-106.2906,-280.2858 -103.83,-280.2858 -103.83,-255.0066 -103.83,-248.4858 -12.72903,-248.4858 10.77,-248.4858 10.77,-332.487 -115.83,-332.487 -115.83,-280.2858 -106.2906,-280.2858 " />
  <polygon id="23929089085" title="" points="1294.239,172.431 1294.239,176.6142 1205.139,176.6142 1205.139,241.959 1205.139,258.8142 1297.431,258.8142 1321.239,258.8142 1321.239,156.2142 1294.239,156.2142 1294.239,172.431 " />
  <polygon id="23929089198" title="" points="1342.422,156.2142 1322.739,156.2142 1322.739,258.8142 1399.053,258.8142 1418.739,258.8142 1418.739,156.2142 1342.422,156.2142 " />
  <polygon id="23929089310" title="" points="1241.439,119.793 1241.439,124.7142 1229.139,124.7142 1229.139,164.7795 1229.139,175.1142 1279.698,175.1142 1292.739,175.1142 1292.739,115.9701 1292.739,100.7142 1251.957,100.7142 1241.439,100.7142 1241.439,119.793 " />
  <polygon id="23929089433" title="" points="1237.443,60.2142 1229.139,60.2142 1229.139,91.2171 1229.139,99.2142 1261.335,99.2142 1269.639,99.2142 1269.639,68.2113 1269.639,60.2142 1237.443,60.2142 " />
  <polygon id="23929089535" title="" points="1078.239,-181.2897 1078.239,-171.3858 1152.285,-171.3858 1171.383,-171.3858 1206.039,-171.3858 1206.039,-192.6108 1206.039,-198.0858 1229.172,-198.0858 1235.139,-198.0858 1235.139,-300.687 1219.638,-300.687 1215.639,-300.687 1215.639,-319.587 1061.739,-319.587 1061.739,-240.1704 1061.739,-219.6858 1078.239,-219.6858 1078.239,-181.2897 " />
  <polygon id="23929089754" title="" points="1078.239,-131.013 1078.239,-120.9858 1097.316,-120.9858 1102.239,-120.9858 1102.239,-94.5087 1102.239,-93.9858 1145.739,-93.9858 1145.739,-169.8858 1078.239,-169.8858 1078.239,-131.013 " />
  <polygon id="23929089886" title="" points="1202.943,-462.387 1194.639,-462.387 1194.639,-423.387 1226.835,-423.387 1235.139,-423.387 1235.139,-462.387 1202.943,-462.387 " />
  <polygon id="23929089964" title="" points="1235.139,-542.97 1235.139,-559.887 1183.839,-559.887 1183.839,-494.304 1183.839,-477.387 1235.139,-477.387 1235.139,-542.97 " />
  <polygon id="23929090085" title="" points="1126.839,-534.192 1126.839,-529.887 1148.301,-529.887 1153.839,-529.887 1153.839,-641.259 1153.839,-669.987 1080.624,-669.987 1061.739,-669.987 1061.739,-575.307 1061.739,-550.887 1113.489,-550.887 1126.839,-550.887 1126.839,-534.192 " />
  <polygon id="23929090214" title="" points="1235.139,-615.522 1235.139,-629.487 1231.539,-629.487 1231.539,-669.987 1155.339,-669.987 1155.339,-558.615 1155.339,-529.887 1182.339,-529.887 1182.339,-561.387 1235.139,-561.387 1235.139,-615.522 " />
  <polygon id="23929090337" title="" points="1310.901,-434.187 1316.439,-434.187 1316.439,-465.426 1316.439,-473.487 1294.974,-473.487 1289.439,-473.487 1289.439,-442.245 1289.439,-434.187 1310.901,-434.187 " />
  <polygon id="23929090424" title="" points="1343.097,-473.487 1317.939,-473.487 1317.939,-432.705 1317.939,-422.187 1440.639,-422.187 1440.639,-462.966 1440.639,-473.487 1343.097,-473.487 " />
  <polygon id="23929090538" title="" points="1432.137,-595.887 1404.639,-595.887 1404.639,-511.887 1511.241,-511.887 1538.739,-511.887 1538.739,-595.887 1432.137,-595.887 " />
  <polygon id="23929090641" title="" points="1511.241,-597.387 1538.739,-597.387 1538.739,-669.987 1432.137,-669.987 1404.639,-669.987 1404.639,-597.387 1511.241,-597.387 " />
  <polygon id="23929090783" title="" points="1286.094,-441.687 1287.939,-441.687 1287.939,-474.987 1379.517,-474.987 1403.139,-474.987 1403.139,-571.692 1403.139,-596.637 1403.139,-619.173 1403.139,-624.987 1241.139,-624.987 1241.139,-513.987 1260.639,-513.987 1260.639,-500.487 1241.139,-500.487 1241.139,-412.008 1241.139,-389.187 1271.187,-389.187 1278.939,-389.187 1278.939,-430.92 1278.939,-441.687 1286.094,-441.687 " />
  <polygon id="23929091075" title="" points="-121.83,-326.553 -121.83,-338.487 -16.41996,-338.487 10.77,-338.487 10.77,-462.558 -197.73,-462.558 -197.73,-395.781 -197.73,-378.558 -169.8273,-378.558 -154.2831,-378.558 -152.13,-378.558 -152.13,-356.358 -160.23,-356.358 -160.23,-311.76 -160.23,-300.258 -160.23,-284.3811 -160.23,-280.2858 -121.83,-280.2858 -121.83,-326.553 " />
  <polygon id="23929093734" title="" points="-224.4126,-359.358 -239.73,-359.358 -239.73,-315.714 -239.73,-304.458 -165.03,-304.458 -165.03,-348.099 -165.03,-359.358 -224.4126,-359.358 " />
  <polygon id="23929093826" title="" points="-199.83,-409.155 -199.83,-421.458 -231.5484,-421.458 -239.73,-421.458 -239.73,-361.458 -208.0116,-361.458 -199.83,-361.458 -199.83,-409.155 " />
  <polygon id="23929093966" title="" points="-199.83,-454.56 -199.83,-462.558 -239.73,-462.558 -239.73,-431.553 -239.73,-423.558 -199.83,-423.558 -199.83,-454.56 " />
  <polygon id="23929094055" title="" points="-241.83,-437.061 -241.83,-449.058 -254.73,-449.058 -254.73,-462.558 -364.23,-462.558 -364.23,-390.558 -241.83,-390.558 -241.83,-437.061 " />
  <polygon id="23929094154" title="" points="-241.83,-371.232 -241.83,-388.458 -364.23,-388.458 -364.23,-304.458 -241.83,-304.458 -241.83,-371.232 " />
  <polygon id="23929101285" title="" points="-217.23,233.7159 -217.23,258.8142 -133.23,258.8142 -133.23,136.4142 -217.23,136.4142 -217.23,233.7159 " />
  <polygon id="23929101408" title="" points="-32.73,234.6384 -32.73,258.8142 38.8152,258.8142 57.27,258.8142 57.27,140.9142 -14.27529,140.9142 -32.73,140.9142 -32.73,234.6384 " />
  <polygon id="23929101534" title="" points="-203.8284,134.3142 -199.83,134.3142 -199.83,55.1142 -144.5016,55.1142 -130.23,55.1142 -130.23,51.2142 -121.23,51.2142 -121.23,-15.56139 -121.23,-32.7858 -160.23,-32.7858 -160.23,15.62649 -160.23,28.1142 -306.42,28.1142 -344.13,28.1142 -344.13,43.6158 -344.13,47.6142 -364.23,47.6142 -364.23,82.1943 -364.23,91.1142 -319.23,91.1142 -319.23,188.6544 -319.23,213.8142 -239.8146,213.8142 -219.33,213.8142 -219.33,134.3142 -203.8284,134.3142 " />
  <polygon id="23929101773" title="" points="-197.73,97.041 -197.73,107.3142 -178.6512,107.3142 -173.73,107.3142 -173.73,128.7777 -173.73,134.3142 -141.5346,134.3142 -133.23,134.3142 -133.23,57.2142 -184.5042,57.2142 -197.73,57.2142 -197.73,97.041 " />
  <polygon id="23929101880" title="" points="-34.83,165.09 -34.83,140.9142 -127.23,140.9142 -127.23,234.6384 -127.23,258.8142 -53.7768,258.8142 -34.83,258.8142 -34.83,165.09 " />
  <polygon id="23929101963" title="" points="-66.33,73.4694 -66.33,56.6142 -127.23,56.6142 -127.23,138.8142 -66.33,138.8142 -66.33,73.4694 " />
  <polygon id="23929102061" title="" points="-52.2345,100.7142 -64.23,100.7142 -64.23,138.8142 -17.72556,138.8142 -5.73,138.8142 -5.73,100.7142 -52.2345,100.7142 " />
  <polygon id="23929102193" title="" points="-14.03463,98.6142 -5.73,98.6142 -5.73,59.6142 -46.23,59.6142 -46.23,98.6142 -14.03463,98.6142 " />
  <polygon id="23929102292" title="" points="145.2684,-13.2858 141.27,-13.2858 141.27,-28.78728 141.27,-32.7858 58.7544,-32.7858 37.47,-32.7858 37.47,-13.2858 29.97,-13.2858 29.97,44.6658 29.97,59.6142 3.25977,59.6142 -3.63,59.6142 -3.63,138.8142 160.77,138.8142 160.77,-13.2858 145.2684,-13.2858 " />
  <polygon id="23929105035" title="" points="191.9916,54.8142 166.77,54.8142 166.77,121.1142 175.77,121.1142 175.77,138.8142 266.394,138.8142 289.77,138.8142 289.77,72.0387 289.77,54.8142 191.9916,54.8142 " />
  <polygon id="23929105167" title="" points="308.478,25.7142 291.87,25.7142 291.87,115.6227 291.87,138.8142 356.262,138.8142 372.87,138.8142 372.87,48.9057 372.87,25.7142 308.478,25.7142 " />
  <polygon id="23929105251" title="" points="291.87,0.675519 291.87,20.9142 356.262,20.9142 372.87,20.9142 372.87,-77.7858 308.478,-77.7858 291.87,-77.7858 291.87,0.675519 " />
  <polygon id="23929105326" title="" points="261.1518,-106.8858 253.77,-106.8858 253.77,19.98783 253.77,52.7142 289.77,52.7142 289.77,-74.1594 289.77,-106.8858 261.1518,-106.8858 " />
  <polygon id="23929105495" title="" points="210.8892,-33.6858 200.37,-33.6858 200.37,18.54225 200.37,32.0142 215.37,32.0142 215.37,48.4695 215.37,52.7142 251.67,52.7142 251.67,-15.96927 251.67,-33.6858 210.8892,-33.6858 " />
  <polygon id="23929105579" title="" points="188.2335,-35.7858 193.77,-35.7858 193.77,-67.9812 193.77,-76.2858 166.77,-76.2858 166.77,-44.0904 166.77,-35.7858 188.2335,-35.7858 " />
  <polygon id="23929105652" title="" points="213.27,37.9281 213.27,34.1142 198.27,34.1142 198.27,-9.05145 198.27,-20.1858 166.77,-20.1858 166.77,37.7658 166.77,52.7142 213.27,52.7142 213.27,37.9281 " />
  <polygon id="23929105756" title="" points="133.062,-38.7858 142.32,-38.7858 160.0872,-38.7858 164.67,-38.7858 164.67,-68.5962 164.67,-76.2858 148.6917,-76.2858 144.57,-76.2858 144.57,-86.4858 166.77,-86.4858 166.77,-78.3858 234.261,-78.3858 251.67,-78.3858 251.67,-108.9858 271.77,-108.9858 271.77,-126.9858 286.0791,-126.9858 289.77,-126.9858 289.77,-218.1858 146.6499,-218.1858 97.17,-218.1858 97.17,-75.5721 97.17,-38.7858 133.062,-38.7858 " />
  <polygon id="23929105988" title="" points="356.262,-79.8858 372.87,-79.8858 372.87,-218.1858 291.87,-218.1858 291.87,-79.8858 356.262,-79.8858 " />
  <polygon id="23929106136" title="" points="891.522,-38.1858 910.839,-38.1858 910.839,-45.6858 931.839,-45.6858 931.839,-38.1858 997.839,-38.1858 997.839,-76.5858 931.239,-76.5858 931.239,-109.9737 931.239,-118.5858 965.223,-118.5858 984.123,-118.5858 986.739,-118.5858 986.739,-197.7627 986.739,-218.1858 851.517,-218.1858 816.639,-218.1858 816.639,-75.0951 816.639,-38.1858 891.522,-38.1858 " />
  <polygon id="23929106396" title="" points="810.939,32.6886 810.939,5.3142 789.474,5.3142 783.939,5.3142 783.939,23.3142 731.139,23.3142 731.139,138.8142 794.574,138.8142 810.939,138.8142 810.939,32.6886 " />
  <polygon id="23929106516" title="" points="888.039,43.4205 888.039,18.8142 843.639,18.8142 843.639,5.3142 812.439,5.3142 812.439,111.4398 812.439,138.8142 872.535,138.8142 888.039,138.8142 888.039,43.4205 " />
  <polygon id="23929106653" title="" points="888.039,-22.03569 888.039,-32.1858 868.722,-32.1858 863.739,-32.1858 863.739,-13.10706 863.739,-8.1858 848.952,-8.1858 845.139,-8.1858 845.139,4.5642 845.139,17.3142 879.243,17.3142 888.039,17.3142 888.039,-22.03569 " />
  <polygon id="23929106776" title="" points="790.335,-90.0858 783.939,-90.0858 783.939,-15.44022 783.939,3.8142 811.689,3.8142 843.639,3.8142 843.639,-8.9358 843.639,-30.9957 843.639,-36.6858 820.983,-36.6858 815.139,-36.6858 815.139,-90.0858 790.335,-90.0858 " />
  <polygon id="23929106972" title="" points="782.439,-44.4843 782.439,-61.5858 741.657,-61.5858 731.139,-61.5858 731.139,4.71282 731.139,21.8142 771.918,21.8142 782.439,21.8142 782.439,-44.4843 " />
  <polygon id="23929107060" title="" points="815.139,-192.9027 815.139,-218.1858 731.139,-218.1858 731.139,-120.1689 731.139,-94.8858 797.913,-94.8858 815.139,-94.8858 815.139,-192.9027 " />
  <polygon id="23929107180" title="" points="941.043,-117.0858 932.739,-117.0858 932.739,-86.0829 932.739,-78.0858 964.935,-78.0858 973.239,-78.0858 973.239,-109.0887 973.239,-117.0858 941.043,-117.0858 " />
  <polygon id="23929107258" title="" points="743.439,-68.6223 743.439,-63.0858 774.441,-63.0858 782.439,-63.0858 782.439,-84.5493 782.439,-90.0858 751.434,-90.0858 743.439,-90.0858 743.439,-68.6223 " />
  <polygon id="23929107358" title="" points="1215.816,168.2142 1220.739,168.2142 1220.739,74.013 1220.739,49.7142 1207.239,49.7142 1207.239,36.2142 1136.139,36.2142 1136.139,258.8142 1184.313,258.8142 1196.739,258.8142 1196.739,168.2142 1215.816,168.2142 " />
  <polygon id="23929107928" title="" points="-96.33,-156.5223 -96.33,-150.9858 -67.7118,-150.9858 -60.33,-150.9858 -60.33,-226.8237 -60.33,-246.3858 -113.9229,-246.3858 -115.83,-246.3858 -115.83,-192.0114 -115.83,-177.9858 -100.3284,-177.9858 -96.33,-177.9858 -96.33,-156.5223 " />
  <polygon id="23929108047" title="" points="1284.939,-214.4754 1284.939,-206.7858 1300.44,-206.7858 1304.439,-206.7858 1304.439,-185.7858 1296.939,-185.7858 1296.939,-93.9858 1337.004,-93.9858 1347.339,-93.9858 1347.339,-57.0858 1362.84,-57.0858 1366.839,-57.0858 1366.839,-37.5858 1418.739,-37.5858 1418.739,-244.2858 1312.374,-244.2858 1284.939,-244.2858 1284.939,-214.4754 " />
  <polygon id="23929108285" title="" points="1313.439,-262.2105 1313.439,-245.7858 1418.739,-245.7858 1418.739,-309.462 1418.739,-325.887 1313.439,-325.887 1313.439,-262.2105 " />
  <polygon id="23929108394" title="" points="1306.401,-245.7858 1311.939,-245.7858 1311.939,-310.653 1311.939,-327.387 1377.699,-327.387 1377.699,-363.387 1284.939,-363.387 1284.939,-269.9001 1284.939,-245.7858 1306.401,-245.7858 " />
  <polygon id="23929108539" title="" points="1325.439,-395.889 1325.439,-403.887 1293.243,-403.887 1284.939,-403.887 1284.939,-364.887 1317.135,-364.887 1325.439,-364.887 1325.439,-395.889 " />
  <polygon id="23929108626" title="" points="1394.667,-364.887 1412.139,-364.887 1412.139,-405.666 1412.139,-416.187 1326.939,-416.187 1326.939,-375.405 1326.939,-364.887 1394.667,-364.887 " />
  <polygon id="23929108740" title="" points="1538.739,-397.977 1538.739,-416.187 1439.289,-416.187 1413.639,-416.187 1413.639,-363.387 1386.261,-363.387 1379.199,-363.387 1379.199,-334.767 1379.199,-327.387 1538.307,-327.387 1538.739,-327.387 1538.739,-397.977 " />
  <polygon id="23929108909" title="" points="896.439,0.00957402 896.439,8.3142 909.939,8.3142 909.939,23.3142 896.439,23.3142 896.439,53.6016 896.439,61.4142 1041.438,61.4142 1078.839,61.4142 1078.839,54.6642 1086.339,54.6642 1086.339,-32.1858 935.379,-32.1858 896.439,-32.1858 896.439,0.00957402 " />
  <polygon id="23929109060" title="" points="240.228,-35.7858 251.67,-35.7858 251.67,-67.9812 251.67,-76.2858 207.312,-76.2858 195.87,-76.2858 195.87,-35.7858 240.228,-35.7858 " />
  <polygon id="23929109503" title="" points="1150.041,-32.1858 1136.139,-32.1858 1136.139,17.8959 1136.139,30.8142 1220.739,30.8142 1220.739,-18.0858 1203.939,-18.0858 1203.939,-32.1858 1150.041,-32.1858 " />
  <polygon id="23929109702" title="" points="1404.639,-482.244 1404.639,-474.987 1433.256,-474.987 1440.639,-474.987 1440.639,-503.127 1440.639,-510.387 1412.019,-510.387 1404.639,-510.387 1404.639,-482.244 " />
  <polygon id="23929114607" title="" points="1472.739,-271.7568 1472.739,-318.387 1436.967,-318.387 1427.739,-318.387 1427.739,-137.6148 1427.739,-90.9858 1463.511,-90.9858 1472.739,-90.9858 1472.739,-271.7568 " />
  <polygon id="23929114692" title="" points="1472.739,-17.73402 1472.739,-44.1858 1427.739,-44.1858 1427.739,84.8142 1472.739,84.8142 1472.739,-17.73402 " />
  <polygon id="23929114769" title="" points="765.984,-287.1858 725.139,-287.1858 725.139,-227.1858 883.491,-227.1858 924.339,-227.1858 924.339,-287.1858 765.984,-287.1858 " />
  <polygon id="23929114854" title="" points="1052.739,-348.819 1052.739,-355.587 992.739,-355.587 992.739,-301.212 992.739,-287.1858 938.364,-287.1858 924.339,-287.1858 924.339,-239.4888 924.339,-227.1858 976.329,-227.1858 1039.821,-227.1858 1052.739,-227.1858 1052.739,-303.024 1052.739,-348.819 " />
  <polygon id="23929114957" title="" points="992.739,-374.778 992.739,-355.587 1052.739,-355.587 1052.739,-429.993 1052.739,-449.187 992.739,-449.187 992.739,-374.778 " />
  <polygon id="23929115019" title="" points="1272.342,-693.987 1240.539,-693.987 1240.539,-633.987 1395.639,-633.987 1395.639,-693.987 1272.342,-693.987 " />
  <polygon id="23929115120" title="" points="164.9199,-287.1858 109.7328,-287.1858 109.7328,-227.1858 323.682,-227.1858 378.87,-227.1858 378.87,-287.1858 164.9199,-287.1858 " />
  <polygon id="23929115223" title="" points="85.914,-287.1858 79.77,-287.1858 79.77,-349.431 79.77,-365.487 19.77,-365.487 19.77,-255.5445 19.77,-227.1858 109.7328,-227.1858 109.7328,-287.1858 85.914,-287.1858 " />
  <polygon id="23929115364" title="" points="79.77,-444.561 79.77,-464.958 32.073,-464.958 19.77,-464.958 19.77,-385.884 19.77,-365.487 79.77,-365.487 79.77,-444.561 " />
  <polygon id="23929115444" title="" points="163.626,207.8142 188.7384,207.8142 188.7384,147.8142 66.27,147.8142 66.27,207.8142 163.626,207.8142 " />
  <polygon id="23929115531" title="" points="-344.73,195.2694 -344.73,219.8142 -328.23,219.8142 -328.23,100.1142 -344.73,100.1142 -344.73,195.2694 " />
  <polygon id="23929115594" title="" points="-342.624,-272.6571 -367.23,-272.6571 -367.23,-152.6571 -247.23,-152.6571 -247.23,-272.6571 -342.624,-272.6571 " />
  <polygon id="23929115663" title="" points="1130.739,82.1931 1130.739,66.8142 944.481,66.8142 896.439,66.8142 896.439,126.4353 896.439,141.8142 911.439,141.8142 911.439,142.5642 949.596,142.5642 959.439,142.5642 959.439,141.8142 1130.739,141.8142 1130.739,82.1931 " />
  <polygon id="23929121075" title="" points="-89.9838,-32.7858 -115.83,-32.7858 -115.83,51.2142 -31.83,51.2142 -31.83,-32.7858 -89.9838,-32.7858 " />
  <polygon id="23929121094" title="" points="1176.984,-165.9858 1151.139,-165.9858 1151.139,-107.832 1151.139,-81.9858 1209.291,-81.9858 1235.139,-81.9858 1235.139,-140.1396 1235.139,-165.9858 1176.984,-165.9858 " />
  <polygon id="23929121113" title="" points="1322.322,-37.5858 1338.939,-37.5858 1338.939,-70.8165 1338.939,-85.5858 1301.553,-85.5858 1284.939,-85.5858 1284.939,-52.3551 1284.939,-37.5858 1322.322,-37.5858 " />
  <polygon id="23929121132" title="" points="-11.66076,-2.7858 -26.43,-2.7858 -26.43,51.2142 6.80076,51.2142 21.57,51.2142 21.57,-2.7858 -11.66076,-2.7858 " />
  <polygon id="23929121151" title="" points="-311.154,19.7142 -286.23,19.7142 -286.23,-35.532 -286.23,-60.0858 -342.306,-60.0858 -367.23,-60.0858 -367.23,-4.83966 -367.23,19.7142 -311.154,19.7142 " />
  <polygon id="23929121177" title="" points="-173.7069,6.2142 -168.63,6.2142 -168.63,-39.6858 -168.63,-60.0858 -256.83,-60.0858 -256.83,-28.93194 -256.83,-15.0858 -280.83,-15.0858 -280.83,19.7142 -214.5762,19.7142 -185.13,19.7142 -185.13,6.2142 -173.7069,6.2142 " />
  <polygon id="23929121201" title="" points="-171.8607,-166.5858 -168.63,-166.5858 -168.63,-296.0571 -215.1531,-296.0571 -235.83,-296.0571 -235.83,-192.7302 -235.83,-146.8071 -196.5762,-146.8071 -179.13,-146.8071 -179.13,-160.5 -179.13,-166.5858 -171.8607,-166.5858 " />
  <polygon id="23929121229" title="" points="1220.739,86.1756 1220.739,49.7142 1207.239,49.7142 1207.239,36.2142 1135.539,36.2142 1135.539,190.3218 1135.539,258.8142 1177.908,258.8142 1196.739,258.8142 1196.739,196.0911 1196.739,168.2142 1220.739,168.2142 1220.739,86.1756 " />
  <polygon id="23929121255" title="" points="954.684,-32.1858 896.439,-32.1858 896.439,8.3142 909.939,8.3142 909.939,23.3142 896.439,23.3142 896.439,49.6911 896.439,61.4142 1085.739,61.4142 1085.739,-3.3858 1085.739,-32.1858 954.684,-32.1858 " />
  <polygon id="23929121279" title="" points="1209.108,-18.0858 1203.939,-18.0858 1203.939,-32.1858 1156.584,-32.1858 1135.539,-32.1858 1135.539,11.42958 1135.539,30.8142 1220.739,30.8142 1220.739,-18.0858 1209.108,-18.0858 " />
  <polygon id="23929121298" title="" points="-241.23,-250.0878 -241.23,-296.0571 -367.23,-296.0571 -367.23,-146.6571 -241.23,-146.6571 -241.23,-250.0878 " />
  <polygon id="23929121324" title="" points="1505.739,11.68344 1505.739,38.9142 1531.077,38.9142 1542.339,38.9142 1542.339,-47.2782 1542.339,-85.5858 1463.001,-85.5858 1427.739,-85.5858 1427.739,-60.6627 1427.739,-49.5858 1481.739,-49.5858 1505.739,-49.5858 1505.739,11.68344 " />
  <polygon id="23929121343" title="" points="1475.739,-7.30887 1475.739,-49.5858 1442.508,-49.5858 1427.739,-49.5858 1427.739,45.5373 1427.739,87.8142 1460.97,87.8142 1475.739,87.8142 1475.739,-7.30887 " />
  <polygon id="23929121362" title="" points="1460.97,-85.5858 1475.739,-85.5858 1475.739,-318.387 1442.508,-318.387 1427.739,-318.387 1427.739,-157.2165 1427.739,-85.5858 1460.97,-85.5858 " />
  <polygon id="23929121381" title="" points="188.7384,167.1987 188.7384,147.8142 66.27,147.8142 66.27,210.8142 151.0557,210.8142 188.7384,210.8142 188.7384,167.1987 " />
  <polygon id="23929121405" title="" points="82.77,-411.18 82.77,-464.958 19.77,-464.958 19.77,-300.345 19.77,-227.1858 381.87,-227.1858 381.87,-270.8013 381.87,-290.1858 82.77,-290.1858 82.77,-411.18 " />
  <polygon id="23929121424" title="" points="-341.73,100.1142 -347.73,100.1142 -347.73,222.8142 -328.23,222.8142 -328.23,100.1142 -341.73,100.1142 " />
  <polygon id="23929121450" title="" points="1347.915,-633.987 1395.639,-633.987 1395.639,-678.987 1398.639,-678.987 1398.639,-691.446 1398.639,-696.987 1237.539,-696.987 1237.539,-684.525 1237.539,-678.987 1240.539,-678.987 1240.539,-633.987 1347.915,-633.987 " />
  <polygon id="23929121474" title="" points="1052.739,-382.956 1052.739,-452.187 1009.122,-452.187 989.739,-452.187 989.739,-290.1858 804.477,-290.1858 722.139,-290.1858 722.139,-246.5703 722.139,-227.1858 951.015,-227.1858 1052.739,-227.1858 1052.739,-382.956 " />
  <polygon id="23929121498" title="" points="1079.322,231.2142 1129.539,231.2142 1129.539,173.4756 1129.539,147.8142 891.039,147.8142 891.039,230.8911 891.039,267.8142 966.339,267.8142 966.339,231.2142 1079.322,231.2142 " />
  <polygon id="23929121517" title="" points="1517.553,38.9142 1505.739,38.9142 1505.739,267.8142 1544.139,267.8142 1544.139,38.9142 1517.553,38.9142 " />
  <polygon id="23929121570" title="" points="-365.154,-296.0571 -364.23,-296.0571 -364.23,-575.958 13.77,-575.958 13.77,-470.958 10.77,-470.958 10.77,-218.1858 372.87,-218.1858 372.87,138.8142 154.3776,138.8142 57.27,138.8142 57.27,221.8911 57.27,258.8142 -217.23,258.8142 -217.23,213.8142 -287.8455,213.8142 -319.23,213.8142 -319.23,91.1142 -364.23,91.1142 -364.23,19.7142 -367.23,19.7142 -367.23,-198.8967 -367.23,-296.0571 -365.154,-296.0571 " />
  <polygon id="23929121570" title="" points="-23.73,267.8142 66.27,267.8142 66.27,184.7373 66.27,147.8142 381.87,147.8142 381.87,-227.1858 131.1855,-227.1858 19.77,-227.1858 19.77,-472.797 19.77,-581.958 -252.3069,-581.958 -373.23,-581.958 -373.23,100.1142 -328.23,100.1142 -328.23,222.8142 -226.23,222.8142 -226.23,267.8142 -23.73,267.8142 " />
  <polygon id="23929121632" title="" points="970.008,141.8142 896.439,141.8142 896.439,138.8142 731.139,138.8142 731.139,-0.962724 731.139,-81.7782 731.139,-90.0858 731.139,-218.1858 1061.739,-218.1858 1061.739,-669.987 1231.539,-669.987 1231.539,-624.987 1404.639,-624.987 1404.639,-669.987 1497.477,-669.987 1538.739,-669.987 1538.739,-432.801 1538.739,-327.387 1418.739,-327.387 1418.739,78.4449 1418.739,258.8142 1196.739,258.8142 1154.37,258.8142 1135.539,258.8142 1135.539,181.968 1135.539,147.8142 1135.539,141.8142 970.008,141.8142 " />
  <polygon id="23929121632" title="" points="1510.815,-318.387 1547.739,-318.387 1547.739,-568.032 1547.739,-678.987 1442.439,-678.987 1395.639,-678.987 1395.639,-633.987 1288.26,-633.987 1240.539,-633.987 1240.539,-678.987 1110.522,-678.987 1052.739,-678.987 1052.739,-227.1858 823.86,-227.1858 722.139,-227.1858 722.139,32.4297 722.139,147.8142 1129.539,147.8142 1129.539,230.8911 1129.539,267.8142 1335.984,267.8142 1427.739,267.8142 1427.739,-138.0165 1427.739,-318.387 1510.815,-318.387 " />
  <polygon id="23929121651" title="" points="-358.692,28.1142 -364.23,28.1142 -364.23,45.5142 -346.23,45.5142 -346.23,28.1142 -358.692,28.1142 " />
  <polygon id="23929121670" title="" points="-191.9145,109.4142 -197.73,109.4142 -197.73,126.6528 -197.73,134.3142 -178.83,134.3142 -178.83,117.0756 -178.83,109.4142 -191.9145,109.4142 " />
  <polygon id="23929121689" title="" points="-178.5993,8.3142 -183.03,8.3142 -183.03,19.7142 -168.63,19.7142 -168.63,8.3142 -178.5993,8.3142 " />
  <polygon id="23929121708" title="" points="-53.2224,98.6142 -48.33,98.6142 -48.33,59.6142 -64.23,59.6142 -64.23,98.6142 -53.2224,98.6142 " />
  <polygon id="23929121727" title="" points="148.7238,-32.7858 143.37,-32.7858 143.37,-15.3858 160.77,-15.3858 160.77,-32.7858 148.7238,-32.7858 " />
  <polygon id="23929121746" title="" points="176.4624,-33.6858 166.77,-33.6858 166.77,-22.2858 188.5776,-22.2858 198.27,-22.2858 198.27,-33.6858 176.4624,-33.6858 " />
  <polygon id="23929121765" title="" points="278.7624,-124.8858 273.87,-124.8858 273.87,-108.9858 289.77,-108.9858 289.77,-124.8858 278.7624,-124.8858 " />
  <polygon id="23929121784" title="" points="79.7238,-98.4858 74.37,-98.4858 74.37,-86.4396 74.37,-81.0858 86.4162,-81.0858 91.77,-81.0858 91.77,-93.132 91.77,-98.4858 79.7238,-98.4858 " />
  <polygon id="23929121803" title="" points="-110.4762,-175.8858 -115.83,-175.8858 -115.83,-159.0858 -98.43,-159.0858 -98.43,-175.8858 -110.4762,-175.8858 " />
  <polygon id="23929121822" title="" points="-174.8607,-165.0858 -177.63,-165.0858 -177.63,-152.3274 -177.63,-146.6571 -168.63,-146.6571 -168.63,-159.4155 -168.63,-165.0858 -174.8607,-165.0858 " />
  <polygon id="23929121841" title="" points="-187.6686,-376.458 -197.73,-376.458 -197.73,-361.458 -175.0914,-361.458 -165.03,-361.458 -165.03,-376.458 -187.6686,-376.458 " />
  <polygon id="23929121860" title="" points="-249.3069,-462.558 -252.63,-462.558 -252.63,-451.158 -241.83,-451.158 -241.83,-462.558 -249.3069,-462.558 " />
  <polygon id="23929121879" title="" points="900.132,9.8142 896.439,9.8142 896.439,21.8142 908.439,21.8142 908.439,9.8142 900.132,9.8142 " />
  <polygon id="23929121898" title="" points="850.401,-32.1858 845.139,-32.1858 845.139,-9.6858 862.239,-9.6858 862.239,-32.1858 850.401,-32.1858 " />
  <polygon id="23929121917" title="" points="734.46,-90.0858 731.139,-90.0858 731.139,-63.0858 741.939,-63.0858 741.939,-90.0858 734.46,-90.0858 " />
  <polygon id="23929121936" title="" points="977.808,-117.0858 973.839,-117.0858 973.839,-78.0858 986.739,-78.0858 986.739,-117.0858 977.808,-117.0858 " />
  <polygon id="23929121955" title="" points="1085.16,-119.4858 1078.239,-119.4858 1078.239,-105.3627 1078.239,-99.0858 1093.815,-99.0858 1100.739,-99.0858 1100.739,-113.2089 1100.739,-119.4858 1085.16,-119.4858 " />
  <polygon id="23929121974" title="" points="1209.846,-196.5858 1207.539,-196.5858 1207.539,-179.1396 1207.539,-171.3858 1215.039,-171.3858 1215.039,-188.832 1215.039,-196.5858 1209.846,-196.5858 " />
  <polygon id="23929121993" title="" points="1200.915,-334.287 1194.639,-334.287 1194.639,-325.587 1208.76,-325.587 1215.039,-325.587 1215.039,-334.287 1200.915,-334.287 " />
  <polygon id="23929122012" title="" points="1222.677,-319.587 1217.139,-319.587 1217.139,-302.187 1229.601,-302.187 1235.139,-302.187 1235.139,-319.587 1222.677,-319.587 " />
  <polygon id="23929122031" title="" points="1297.401,-416.187 1284.939,-416.187 1284.939,-405.387 1325.439,-405.387 1325.439,-416.187 1297.401,-416.187 " />
  <polygon id="23929122050" title="" points="1297.746,-432.687 1289.439,-432.687 1289.439,-422.187 1308.132,-422.187 1316.439,-422.187 1316.439,-432.687 1297.746,-432.687 " />
  <polygon id="23929122069" title="" points="1207.101,-475.887 1194.639,-475.887 1194.639,-463.887 1235.139,-463.887 1235.139,-475.887 1207.101,-475.887 " />
  <polygon id="23929122088" title="" points="1246.677,-512.487 1241.139,-512.487 1241.139,-501.987 1253.601,-501.987 1259.139,-501.987 1259.139,-512.487 1246.677,-512.487 " />
  <polygon id="23929122107" title="" points="1112.877,-549.387 1107.339,-549.387 1107.339,-531.387 1125.339,-531.387 1125.339,-549.387 1112.877,-549.387 " />
  <polygon id="23929122126" title="" points="1289.46,-196.2858 1284.939,-196.2858 1284.939,-187.2858 1299.639,-187.2858 1299.639,-196.2858 1289.46,-196.2858 " />
  <polygon id="23929122145" title="" points="1352.877,-55.5858 1347.339,-55.5858 1347.339,-37.5858 1359.801,-37.5858 1365.339,-37.5858 1365.339,-55.5858 1352.877,-55.5858 " />
  <polygon id="23929122164" title="" points="1356.777,136.7142 1351.239,136.7142 1351.239,154.7142 1363.701,154.7142 1369.239,154.7142 1369.239,136.7142 1356.777,136.7142 " />
  <polygon id="23929122183" title="" points="1232.277,100.7142 1229.139,100.7142 1229.139,123.2142 1239.339,123.2142 1239.339,100.7142 1232.277,100.7142 " />
  <polygon id="23929122202" title="" points="1212.432,36.2142 1208.739,36.2142 1208.739,48.2142 1220.739,48.2142 1220.739,36.2142 1212.432,36.2142 " />
  <polygon id="23929122357" title="" points="1182.891,-32.1858 1203.939,-32.1858 1203.939,-18.0858 1220.739,-18.0858 1220.739,30.8142 1135.539,30.8142 1135.539,-12.80118 1135.539,-32.1858 1182.891,-32.1858 " />
  <polygon id="23929122357" title="" points="905.784,23.3142 909.939,23.3142 909.939,8.3142 896.439,8.3142 896.439,-32.1858 1085.739,-32.1858 1085.739,32.6142 1085.739,61.4142 954.684,61.4142 896.439,61.4142 896.439,35.0373 896.439,23.3142 905.784,23.3142 " />
  <polygon id="23929122357" title="" points="1229.601,-319.587 1235.139,-319.587 1235.139,-302.187 1222.677,-302.187 1217.139,-302.187 1217.139,-319.587 1229.601,-319.587 " />
  <polygon id="23929122357" title="" points="1208.76,-334.287 1215.039,-334.287 1215.039,-325.587 1194.639,-325.587 1194.639,-334.287 1208.76,-334.287 " />
  <polygon id="23929122357" title="" points="1222.677,-475.887 1235.139,-475.887 1235.139,-463.887 1194.639,-463.887 1194.639,-475.887 1222.677,-475.887 " />
  <polygon id="23929122357" title="" points="1119.801,-549.387 1125.339,-549.387 1125.339,-531.387 1112.877,-531.387 1107.339,-531.387 1107.339,-549.387 1119.801,-549.387 " />
  <polygon id="23929122357" title="" points="1253.601,-512.487 1259.139,-512.487 1259.139,-501.987 1241.139,-501.987 1241.139,-512.487 1253.601,-512.487 " />
  <polygon id="23929122357" title="" points="1308.132,-432.687 1316.439,-432.687 1316.439,-422.187 1297.746,-422.187 1289.439,-422.187 1289.439,-432.687 1308.132,-432.687 " />
  <polygon id="23929122357" title="" points="1312.977,-416.187 1325.439,-416.187 1325.439,-405.387 1284.939,-405.387 1284.939,-416.187 1312.977,-416.187 " />
  <polygon id="23929122357" title="" points="1359.801,-55.5858 1365.339,-55.5858 1365.339,-43.1244 1365.339,-37.5858 1352.877,-37.5858 1347.339,-37.5858 1347.339,-50.0472 1347.339,-55.5858 1359.801,-55.5858 " />
  <polygon id="23929122357" title="" points="1363.701,136.7142 1369.239,136.7142 1369.239,149.1756 1369.239,154.7142 1351.239,154.7142 1351.239,142.2528 1351.239,136.7142 1363.701,136.7142 " />
  <polygon id="23929122357" title="" points="1236.201,100.7142 1239.339,100.7142 1239.339,123.2142 1229.139,123.2142 1229.139,100.7142 1236.201,100.7142 " />
  <polygon id="23929122357" title="" points="1217.046,36.2142 1220.739,36.2142 1220.739,48.2142 1208.739,48.2142 1208.739,36.2142 1217.046,36.2142 " />
  <polygon id="23929122357" title="" points="1295.115,-196.2858 1299.639,-196.2858 1299.639,-187.2858 1284.939,-187.2858 1284.939,-196.2858 1295.115,-196.2858 " />
  <polygon id="23929122357" title="" points="1212.732,-196.5858 1215.039,-196.5858 1215.039,-179.1396 1215.039,-171.3858 1207.539,-171.3858 1207.539,-188.832 1207.539,-196.5858 1212.732,-196.5858 " />
  <polygon id="23929122357" title="" points="1093.815,-119.4858 1100.739,-119.4858 1100.739,-105.3627 1100.739,-99.0858 1085.16,-99.0858 1078.239,-99.0858 1078.239,-113.2089 1078.239,-119.4858 1093.815,-119.4858 " />
  <polygon id="23929122357" title="" points="982.77,-117.0858 986.739,-117.0858 986.739,-90.0858 986.739,-78.0858 973.839,-78.0858 973.839,-105.0858 973.839,-117.0858 982.77,-117.0858 " />
  <polygon id="23929122357" title="" points="904.746,9.8142 908.439,9.8142 908.439,21.8142 896.439,21.8142 896.439,9.8142 904.746,9.8142 " />
  <polygon id="23929122357" title="" points="856.977,-32.1858 862.239,-32.1858 862.239,-16.60887 862.239,-9.6858 850.401,-9.6858 845.139,-9.6858 845.139,-25.26273 845.139,-32.1858 856.977,-32.1858 " />
  <polygon id="23929122357" title="" points="1301.553,-37.5858 1284.939,-37.5858 1284.939,-70.8165 1284.939,-85.5858 1322.322,-85.5858 1338.939,-85.5858 1338.939,-52.3551 1338.939,-37.5858 1301.553,-37.5858 " />
  <polygon id="23929122357" title="" points="1209.291,-165.9858 1235.139,-165.9858 1235.139,-107.832 1235.139,-81.9858 1151.139,-81.9858 1151.139,-140.1396 1151.139,-165.9858 1209.291,-165.9858 " />
  <polygon id="23929122357" title="" points="845.577,138.8142 896.439,138.8142 896.439,141.8142 1135.539,141.8142 1135.539,68.7066 1135.539,36.2142 1207.239,36.2142 1207.239,49.7142 1220.739,49.7142 1220.739,168.2142 1196.739,168.2142 1196.739,230.9373 1196.739,258.8142 1418.739,258.8142 1418.739,-147.0165 1418.739,-327.387 1538.739,-327.387 1538.739,-669.987 1445.901,-669.987 1404.639,-669.987 1404.639,-624.987 1231.539,-624.987 1231.539,-656.139 1231.539,-669.987 1061.739,-669.987 1061.739,-218.1858 832.86,-218.1858 731.139,-218.1858 731.139,-90.0858 741.939,-90.0858 741.939,-63.0858 731.139,-63.0858 731.139,76.6911 731.139,138.8142 845.577,138.8142 " />
  <polygon id="23929122484" title="" points="-189.3069,-296.0571 -168.63,-296.0571 -168.63,-166.5858 -179.13,-166.5858 -179.13,-152.8929 -179.13,-146.8071 -218.3838,-146.8071 -235.83,-146.8071 -235.83,-250.134 -235.83,-296.0571 -189.3069,-296.0571 " />
  <polygon id="23929122484" title="" points="-264.2145,-15.0858 -256.83,-15.0858 -256.83,-46.2396 -256.83,-60.0858 -168.63,-60.0858 -168.63,-14.1858 -168.63,6.2142 -185.13,6.2142 -185.13,19.7142 -251.3838,19.7142 -280.83,19.7142 -280.83,-15.0858 -264.2145,-15.0858 " />
  <polygon id="23929122484" title="" points="-245.1531,-462.558 -241.83,-462.558 -241.83,-451.158 -252.63,-451.158 -252.63,-462.558 -245.1531,-462.558 " />
  <polygon id="23929122484" title="" points="-175.0914,-376.458 -165.03,-376.458 -165.03,-361.458 -197.73,-361.458 -197.73,-376.458 -175.0914,-376.458 " />
  <polygon id="23929122484" title="" points="-171.3993,-165.0858 -168.63,-165.0858 -168.63,-152.3274 -168.63,-146.6571 -177.63,-146.6571 -177.63,-159.4155 -177.63,-165.0858 -171.3993,-165.0858 " />
  <polygon id="23929122484" title="" points="-103.7838,-175.8858 -98.43,-175.8858 -98.43,-159.0858 -115.83,-159.0858 -115.83,-175.8858 -103.7838,-175.8858 " />
  <polygon id="23929122484" title="" points="86.4162,-98.4858 91.77,-98.4858 91.77,-81.0858 74.37,-81.0858 74.37,-98.4858 86.4162,-98.4858 " />
  <polygon id="23929122484" title="" points="284.8776,-124.8858 289.77,-124.8858 289.77,-108.9858 273.87,-108.9858 273.87,-124.8858 284.8776,-124.8858 " />
  <polygon id="23929122484" title="" points="188.5776,-33.6858 198.27,-33.6858 198.27,-22.2858 176.4624,-22.2858 166.77,-22.2858 166.77,-33.6858 188.5776,-33.6858 " />
  <polygon id="23929122484" title="" points="155.4162,-32.7858 160.77,-32.7858 160.77,-15.3858 143.37,-15.3858 143.37,-32.7858 155.4162,-32.7858 " />
  <polygon id="23929122484" title="" points="-59.3376,98.6142 -64.23,98.6142 -64.23,71.6142 -64.23,59.6142 -48.33,59.6142 -48.33,86.6142 -48.33,98.6142 -59.3376,98.6142 " />
  <polygon id="23929122484" title="" points="-173.0607,8.3142 -168.63,8.3142 -168.63,19.7142 -183.03,19.7142 -183.03,8.3142 -173.0607,8.3142 " />
  <polygon id="23929122484" title="" points="-184.6455,109.4142 -178.83,109.4142 -178.83,126.6528 -178.83,134.3142 -197.73,134.3142 -197.73,117.0756 -197.73,109.4142 -184.6455,109.4142 " />
  <polygon id="23929122484" title="" points="6.80076,-2.7858 21.57,-2.7858 21.57,34.5987 21.57,51.2142 -11.66076,51.2142 -26.43,51.2142 -26.43,13.82958 -26.43,-2.7858 6.80076,-2.7858 " />
  <polygon id="23929122484" title="" points="-57.6762,-32.7858 -31.83,-32.7858 -31.83,25.36806 -31.83,51.2142 -89.9838,51.2142 -115.83,51.2142 -115.83,-6.93966 -115.83,-32.7858 -57.6762,-32.7858 " />
  <polygon id="23929122484" title="" points="-340.23,19.7142 -364.23,19.7142 -364.23,28.1142 -346.23,28.1142 -346.23,45.5142 -364.23,45.5142 -364.23,91.1142 -319.23,91.1142 -319.23,213.8142 -248.6145,213.8142 -217.23,213.8142 -217.23,258.8142 57.27,258.8142 57.27,175.7373 57.27,138.8142 166.77,138.8142 166.77,123.2142 173.67,123.2142 173.67,138.8142 311.577,138.8142 372.87,138.8142 372.87,-218.1858 10.77,-218.1858 10.77,-470.958 -364.23,-470.958 -364.23,-349.872 -364.23,-296.0571 -279.0762,-296.0571 -241.23,-296.0571 -241.23,-146.6571 -367.23,-146.6571 -367.23,-60.0858 -311.154,-60.0858 -286.23,-60.0858 -286.23,-4.83966 -286.23,19.7142 -340.23,19.7142 " />
  <polygon id="23929122503" title="" points="-234.4224,-470.958 -176.73,-470.958 -176.73,-543.648 -176.73,-575.958 -306.537,-575.958 -364.23,-575.958 -364.23,-503.265 -364.23,-470.958 -234.4224,-470.958 " />
  <polygon id="23929122551" title="" points="774.108,147.8142 722.139,147.8142 722.139,-155.4165 722.139,-290.1858 907.401,-290.1858 989.739,-290.1858 989.739,-402.339 989.739,-452.187 1033.353,-452.187 1052.739,-452.187 1052.739,-609.201 1052.739,-678.987 1180.677,-678.987 1237.539,-678.987 1237.539,-691.446 1237.539,-696.987 1398.639,-696.987 1398.639,-684.525 1398.639,-678.987 1501.86,-678.987 1547.739,-678.987 1547.739,-876.687 1547.739,-964.551 604.17,-966.879 604.17,-665.058 500.325,-665.058 454.17,-665.058 454.17,-607.941 454.17,-582.558 -373.23,-582.558 -373.23,-581.958 -101.1531,-581.958 19.77,-581.958 19.77,-464.958 82.77,-464.958 82.77,-290.1858 381.87,-290.1858 381.87,13.04496 381.87,147.8142 248.1636,147.8142 188.7384,147.8142 188.7384,210.8142 103.9527,210.8142 66.27,210.8142 66.27,250.2756 66.27,267.8142 891.039,267.8142 891.039,184.7373 891.039,147.8142 774.108,147.8142 " />
  <polygon id="23929122576" title="" points="-365.385,100.1142 -373.23,100.1142 -373.23,267.8142 -271.4607,267.8142 -226.23,267.8142 -226.23,222.8142 -347.73,222.8142 -347.73,100.1142 -365.385,100.1142 " />
  <polygon id="23929122595" title="" points="1016.553,231.2142 966.339,231.2142 966.339,256.5528 966.339,267.8142 1079.322,267.8142 1129.539,267.8142 1129.539,242.4756 1129.539,231.2142 1016.553,231.2142 " />
  <polygon id="23929122620" title="" points="1484.97,-49.5858 1475.739,-49.5858 1475.739,45.5373 1475.739,87.8142 1427.739,87.8142 1427.739,212.4297 1427.739,267.8142 1481.739,267.8142 1505.739,267.8142 1505.739,-49.5858 1484.97,-49.5858 " />
  <polygon id="23929122646" title="" points="1497.891,-318.387 1475.739,-318.387 1475.739,-157.2165 1475.739,-85.5858 1521.846,-85.5858 1542.339,-85.5858 1542.339,0.606507 1542.339,38.9142 1544.139,38.9142 1544.139,267.8142 1547.739,267.8142 1547.739,-138.0165 1547.739,-318.387 1497.891,-318.387 " />
  <polygon id="23929122730" title="" points="215.7384,221.7639 215.7384,210.8142 196.6596,210.8142 191.7384,210.8142 191.7384,207.8142 66.27,207.8142 66.27,252.6492 66.27,264.2142 215.7384,264.2142 215.7384,221.7639 " />
  <polygon id="23929122807" title="" points="1288.059,-860.187 1237.539,-860.187 1237.539,-730.449 1237.539,-696.987 1365.603,-696.987 1398.639,-696.987 1398.639,-682.677 1398.639,-678.987 1466.427,-678.987 1483.914,-678.987 1483.914,-823.029 1483.914,-860.187 1288.059,-860.187 " />
  <polygon id="23929122899" title="" points="1237.539,-823.029 1237.539,-860.187 800.739,-860.187 800.739,-479.187 898.995,-380.931 924.339,-355.587 989.739,-355.587 989.739,-432.378 989.739,-452.187 1039.821,-452.187 1052.739,-452.187 1052.739,-678.987 1237.539,-678.987 1237.539,-823.029 " />
  <polygon id="23929123054" title="" points="937.749,-355.587 924.339,-355.587 924.339,-290.1858 976.329,-290.1858 989.739,-290.1858 989.739,-355.587 937.749,-355.587 " />
  <polygon id="23929123127" title="" points="722.139,-150.363 722.139,-227.2761 722.139,-277.2861 722.139,-290.1858 924.339,-290.1858 924.339,-355.587 800.739,-479.187 657.06,-479.187 620.001,-479.187 620.001,14.47659 620.001,141.8142 658.266,141.8142 668.139,141.8142 668.139,177.8142 845.094,177.8142 890.739,177.8142 890.739,147.8142 722.139,147.8142 722.139,-150.363 " />
  <polygon id="23929123332" title="" points="381.87,56.2314 381.87,144.8142 463.854,144.8142 485.001,144.8142 485.001,-339.921 485.001,-464.958 317.4,-464.958 274.17,-464.958 174.6987,-365.487 109.7328,-365.487 109.7328,-303.24 109.7328,-287.1858 326.067,-287.1858 381.87,-287.1858 381.87,56.2314 " />
  <polygon id="23929123463" title="" points="79.77,-303.24 79.77,-287.1858 103.5888,-287.1858 109.7328,-287.1858 109.7328,-349.431 109.7328,-365.487 85.914,-365.487 79.77,-365.487 79.77,-303.24 " />
  <polygon id="23929123526" title="" points="155.2332,-365.487 174.6987,-365.487 274.17,-464.958 166.2084,-464.958 138.3603,-464.958 79.77,-464.958 79.77,-385.884 79.77,-365.487 155.2332,-365.487 " />
  <polygon id="23929123617" title="" points="1500.339,19.0524 1500.339,-44.1858 1475.739,-44.1858 1475.739,60.7473 1475.739,87.8142 1456.659,87.8142 1451.739,87.8142 1451.739,128.3565 1451.739,138.8142 1432.659,138.8142 1427.739,138.8142 1427.739,238.5006 1427.739,264.2142 1500.339,264.2142 1500.339,19.0524 " />
  <polygon id="23929123718" title="" points="-367.23,-81.9768 -367.23,-66.6858 -209.3535,-66.6858 -168.63,-66.6858 -168.63,-141.2571 -367.23,-141.2571 -367.23,-81.9768 " />
  <polygon id="23929123862" title="" points="1530.114,-105.9858 1544.139,-105.9858 1544.139,-253.3692 1544.139,-291.3858 1535.139,-291.3858 1535.139,-318.387 1475.739,-318.387 1475.739,-105.9858 1530.114,-105.9858 " />
  <polygon id="23929123947" title="" points="-340.425,219.8142 -344.73,219.8142 -344.73,100.1142 -369.63,100.1142 -369.63,230.565 -369.63,264.2142 -255.6345,264.2142 -226.23,264.2142 -226.23,231.3033 -226.23,222.8142 -323.73,222.8142 -323.73,219.8142 -340.425,219.8142 " />
</svg>